%TF.GenerationSoftware,KiCad,Pcbnew,(5.1.8)-1*%
%TF.CreationDate,2021-03-29T14:59:59+03:00*%
%TF.ProjectId,STM32_PCB,53544d33-325f-4504-9342-2e6b69636164,rev?*%
%TF.SameCoordinates,Original*%
%TF.FileFunction,Copper,L2,Inr*%
%TF.FilePolarity,Positive*%
%FSLAX46Y46*%
G04 Gerber Fmt 4.6, Leading zero omitted, Abs format (unit mm)*
G04 Created by KiCad (PCBNEW (5.1.8)-1) date 2021-03-29 14:59:59*
%MOMM*%
%LPD*%
G01*
G04 APERTURE LIST*
%TA.AperFunction,ComponentPad*%
%ADD10O,1.700000X1.700000*%
%TD*%
%TA.AperFunction,ComponentPad*%
%ADD11R,1.700000X1.700000*%
%TD*%
%TA.AperFunction,ComponentPad*%
%ADD12C,8.600000*%
%TD*%
%TA.AperFunction,ComponentPad*%
%ADD13C,0.900000*%
%TD*%
%TA.AperFunction,ComponentPad*%
%ADD14C,1.450000*%
%TD*%
%TA.AperFunction,ComponentPad*%
%ADD15O,1.900000X1.200000*%
%TD*%
%TA.AperFunction,ComponentPad*%
%ADD16O,0.800000X1.300000*%
%TD*%
%TA.AperFunction,ViaPad*%
%ADD17C,0.800000*%
%TD*%
%TA.AperFunction,Conductor*%
%ADD18C,0.254000*%
%TD*%
%TA.AperFunction,Conductor*%
%ADD19C,0.100000*%
%TD*%
G04 APERTURE END LIST*
D10*
%TO.N,GPIO_0*%
%TO.C,J6*%
X114040000Y-122650000D03*
D11*
%TO.N,TIM1_CH1*%
X111500000Y-122650000D03*
%TD*%
D12*
%TO.N,GND*%
%TO.C,H1*%
X72000000Y-119000000D03*
D13*
X75225000Y-119000000D03*
X74280419Y-121280419D03*
X72000000Y-122225000D03*
X69719581Y-121280419D03*
X68775000Y-119000000D03*
X69719581Y-116719581D03*
X72000000Y-115775000D03*
X74280419Y-116719581D03*
%TD*%
%TO.N,GND*%
%TO.C,H2*%
X167280419Y-116719581D03*
X165000000Y-115775000D03*
X162719581Y-116719581D03*
X161775000Y-119000000D03*
X162719581Y-121280419D03*
X165000000Y-122225000D03*
X167280419Y-121280419D03*
X168225000Y-119000000D03*
D12*
X165000000Y-119000000D03*
%TD*%
D13*
%TO.N,GND*%
%TO.C,H3*%
X74280419Y-73719581D03*
X72000000Y-72775000D03*
X69719581Y-73719581D03*
X68775000Y-76000000D03*
X69719581Y-78280419D03*
X72000000Y-79225000D03*
X74280419Y-78280419D03*
X75225000Y-76000000D03*
D12*
X72000000Y-76000000D03*
%TD*%
%TO.N,GND*%
%TO.C,H4*%
X165000000Y-76000000D03*
D13*
X168225000Y-76000000D03*
X167280419Y-78280419D03*
X165000000Y-79225000D03*
X162719581Y-78280419D03*
X161775000Y-76000000D03*
X162719581Y-73719581D03*
X165000000Y-72775000D03*
X167280419Y-73719581D03*
%TD*%
D14*
%TO.N,Net-(J2-Pad6)*%
%TO.C,J2*%
X166537500Y-94500000D03*
X166537500Y-89500000D03*
D15*
X169237500Y-95500000D03*
X169237500Y-88500000D03*
%TD*%
%TO.N,+3V3*%
%TO.C,J3*%
%TA.AperFunction,ComponentPad*%
G36*
G01*
X95400000Y-74550000D02*
X95400000Y-75450000D01*
G75*
G02*
X95200000Y-75650000I-200000J0D01*
G01*
X94800000Y-75650000D01*
G75*
G02*
X94600000Y-75450000I0J200000D01*
G01*
X94600000Y-74550000D01*
G75*
G02*
X94800000Y-74350000I200000J0D01*
G01*
X95200000Y-74350000D01*
G75*
G02*
X95400000Y-74550000I0J-200000D01*
G01*
G37*
%TD.AperFunction*%
D16*
%TO.N,I2C1_SCL*%
X93750000Y-75000000D03*
%TO.N,I2C_SDA*%
X92500000Y-75000000D03*
%TO.N,GND*%
X91250000Y-75000000D03*
%TD*%
%TO.N,GND*%
%TO.C,J5*%
X100750000Y-120000000D03*
%TO.N,USART3_RX*%
X99500000Y-120000000D03*
%TO.N,USART3_TX*%
X98250000Y-120000000D03*
%TO.N,+3V3*%
%TA.AperFunction,ComponentPad*%
G36*
G01*
X96600000Y-120450000D02*
X96600000Y-119550000D01*
G75*
G02*
X96800000Y-119350000I200000J0D01*
G01*
X97200000Y-119350000D01*
G75*
G02*
X97400000Y-119550000I0J-200000D01*
G01*
X97400000Y-120450000D01*
G75*
G02*
X97200000Y-120650000I-200000J0D01*
G01*
X96800000Y-120650000D01*
G75*
G02*
X96600000Y-120450000I0J200000D01*
G01*
G37*
%TD.AperFunction*%
%TD*%
D17*
%TO.N,+3V3*%
X146950000Y-78750000D03*
X97500000Y-118500000D03*
X94750000Y-76500000D03*
X83500000Y-106000000D03*
X83500000Y-104000000D03*
X89000000Y-98500000D03*
X111750000Y-86500000D03*
X71750000Y-86750000D03*
X93000000Y-86000000D03*
X94000000Y-86000000D03*
X90000000Y-94500000D03*
X105250000Y-97250000D03*
X102750000Y-109250000D03*
X96250000Y-110000000D03*
X127900000Y-98025000D03*
X130375000Y-100975000D03*
X130375000Y-102000000D03*
X130500000Y-98225000D03*
X131625000Y-98225000D03*
X131075000Y-97200000D03*
%TO.N,GND*%
X90000000Y-93250000D03*
X95500000Y-93250000D03*
X107000000Y-94000000D03*
X105250000Y-109000000D03*
X102000000Y-113750000D03*
X82000000Y-115750000D03*
X71750000Y-91250000D03*
X91000000Y-76500000D03*
X112000000Y-81500000D03*
X85500000Y-98250000D03*
X85500000Y-99250000D03*
X83500000Y-96000000D03*
X82500000Y-104000000D03*
X80750000Y-101000000D03*
X80750000Y-102000000D03*
X93750000Y-110000000D03*
X165000000Y-90750000D03*
X165000000Y-89750000D03*
X163750000Y-89750000D03*
X163750000Y-90750000D03*
X158500000Y-91750000D03*
X89000000Y-97500000D03*
X112000000Y-84250000D03*
X112000000Y-85500000D03*
X86000000Y-104000000D03*
X105750000Y-95500000D03*
X127800000Y-103800000D03*
X126825000Y-103800000D03*
X138275000Y-105650000D03*
X139225000Y-105650000D03*
X141575000Y-104825000D03*
X140525000Y-102325000D03*
X147050000Y-87875000D03*
X156075000Y-99050000D03*
X156975000Y-99025000D03*
%TO.N,NRST*%
X100000000Y-99000000D03*
X105000000Y-92000000D03*
%TD*%
D18*
%TO.N,GND*%
X165871797Y-70733902D02*
X166720182Y-70947001D01*
X167522371Y-71295803D01*
X168256818Y-71770938D01*
X168903798Y-72359646D01*
X169445946Y-73046125D01*
X169868692Y-73811928D01*
X170160684Y-74636491D01*
X170316116Y-75509076D01*
X170340000Y-76015547D01*
X170340000Y-87519912D01*
X170276949Y-87468167D01*
X170062401Y-87353489D01*
X169829602Y-87282870D01*
X169648165Y-87265000D01*
X168826835Y-87265000D01*
X168645398Y-87282870D01*
X168412599Y-87353489D01*
X168198051Y-87468167D01*
X168009998Y-87622498D01*
X167855667Y-87810551D01*
X167740989Y-88025099D01*
X167670370Y-88257898D01*
X167646525Y-88500000D01*
X167670370Y-88742102D01*
X167673383Y-88752035D01*
X167593881Y-88633051D01*
X167404449Y-88443619D01*
X167181701Y-88294784D01*
X166934197Y-88192264D01*
X166671448Y-88140000D01*
X166403552Y-88140000D01*
X166140803Y-88192264D01*
X165893299Y-88294784D01*
X165670551Y-88443619D01*
X165481119Y-88633051D01*
X165332284Y-88855799D01*
X165229764Y-89103303D01*
X165177500Y-89366052D01*
X165177500Y-89633948D01*
X165229764Y-89896697D01*
X165332284Y-90144201D01*
X165481119Y-90366949D01*
X165670551Y-90556381D01*
X165893299Y-90705216D01*
X166140803Y-90807736D01*
X166403552Y-90860000D01*
X166671448Y-90860000D01*
X166934197Y-90807736D01*
X167181701Y-90705216D01*
X167404449Y-90556381D01*
X167593881Y-90366949D01*
X167742716Y-90144201D01*
X167845236Y-89896697D01*
X167897500Y-89633948D01*
X167897500Y-89366052D01*
X167864516Y-89200232D01*
X168009998Y-89377502D01*
X168198051Y-89531833D01*
X168412599Y-89646511D01*
X168645398Y-89717130D01*
X168826835Y-89735000D01*
X169648165Y-89735000D01*
X169829602Y-89717130D01*
X170062401Y-89646511D01*
X170276949Y-89531833D01*
X170340000Y-89480088D01*
X170340000Y-94519912D01*
X170276949Y-94468167D01*
X170062401Y-94353489D01*
X169829602Y-94282870D01*
X169648165Y-94265000D01*
X168826835Y-94265000D01*
X168645398Y-94282870D01*
X168412599Y-94353489D01*
X168198051Y-94468167D01*
X168009998Y-94622498D01*
X167864516Y-94799768D01*
X167897500Y-94633948D01*
X167897500Y-94366052D01*
X167845236Y-94103303D01*
X167742716Y-93855799D01*
X167593881Y-93633051D01*
X167404449Y-93443619D01*
X167181701Y-93294784D01*
X166934197Y-93192264D01*
X166671448Y-93140000D01*
X166403552Y-93140000D01*
X166140803Y-93192264D01*
X165893299Y-93294784D01*
X165670551Y-93443619D01*
X165481119Y-93633051D01*
X165332284Y-93855799D01*
X165229764Y-94103303D01*
X165177500Y-94366052D01*
X165177500Y-94633948D01*
X165229764Y-94896697D01*
X165332284Y-95144201D01*
X165481119Y-95366949D01*
X165670551Y-95556381D01*
X165893299Y-95705216D01*
X166140803Y-95807736D01*
X166403552Y-95860000D01*
X166671448Y-95860000D01*
X166934197Y-95807736D01*
X167181701Y-95705216D01*
X167404449Y-95556381D01*
X167593881Y-95366949D01*
X167673383Y-95247965D01*
X167670370Y-95257898D01*
X167646525Y-95500000D01*
X167670370Y-95742102D01*
X167740989Y-95974901D01*
X167855667Y-96189449D01*
X168009998Y-96377502D01*
X168198051Y-96531833D01*
X168412599Y-96646511D01*
X168645398Y-96717130D01*
X168826835Y-96735000D01*
X169648165Y-96735000D01*
X169829602Y-96717130D01*
X170062401Y-96646511D01*
X170276949Y-96531833D01*
X170340000Y-96480088D01*
X170340001Y-118972899D01*
X170266098Y-119871802D01*
X170052999Y-120720180D01*
X169704197Y-121522371D01*
X169229062Y-122256818D01*
X168640354Y-122903799D01*
X167953875Y-123445946D01*
X167188076Y-123868691D01*
X166363514Y-124160683D01*
X165490925Y-124316116D01*
X164984453Y-124340000D01*
X72027089Y-124340000D01*
X71128198Y-124266098D01*
X70279820Y-124052999D01*
X69477629Y-123704197D01*
X68743182Y-123229062D01*
X68096201Y-122640354D01*
X68036716Y-122565032D01*
X68785693Y-122565032D01*
X69289527Y-123152567D01*
X70151735Y-123601564D01*
X71084969Y-123873724D01*
X72053368Y-123958591D01*
X73019716Y-123852901D01*
X73946876Y-123560716D01*
X74710473Y-123152567D01*
X75214307Y-122565032D01*
X72000000Y-119350725D01*
X68785693Y-122565032D01*
X68036716Y-122565032D01*
X67554054Y-121953875D01*
X67131309Y-121188076D01*
X66839317Y-120363514D01*
X66683884Y-119490925D01*
X66663250Y-119053368D01*
X67041409Y-119053368D01*
X67147099Y-120019716D01*
X67439284Y-120946876D01*
X67847433Y-121710473D01*
X68434968Y-122214307D01*
X71649275Y-119000000D01*
X72350725Y-119000000D01*
X75565032Y-122214307D01*
X76048167Y-121800000D01*
X110011928Y-121800000D01*
X110011928Y-123500000D01*
X110024188Y-123624482D01*
X110060498Y-123744180D01*
X110119463Y-123854494D01*
X110198815Y-123951185D01*
X110295506Y-124030537D01*
X110405820Y-124089502D01*
X110525518Y-124125812D01*
X110650000Y-124138072D01*
X112350000Y-124138072D01*
X112474482Y-124125812D01*
X112594180Y-124089502D01*
X112704494Y-124030537D01*
X112801185Y-123951185D01*
X112880537Y-123854494D01*
X112939502Y-123744180D01*
X112961513Y-123671620D01*
X113093368Y-123803475D01*
X113336589Y-123965990D01*
X113606842Y-124077932D01*
X113893740Y-124135000D01*
X114186260Y-124135000D01*
X114473158Y-124077932D01*
X114743411Y-123965990D01*
X114986632Y-123803475D01*
X115193475Y-123596632D01*
X115355990Y-123353411D01*
X115467932Y-123083158D01*
X115525000Y-122796260D01*
X115525000Y-122565032D01*
X161785693Y-122565032D01*
X162289527Y-123152567D01*
X163151735Y-123601564D01*
X164084969Y-123873724D01*
X165053368Y-123958591D01*
X166019716Y-123852901D01*
X166946876Y-123560716D01*
X167710473Y-123152567D01*
X168214307Y-122565032D01*
X165000000Y-119350725D01*
X161785693Y-122565032D01*
X115525000Y-122565032D01*
X115525000Y-122503740D01*
X115467932Y-122216842D01*
X115355990Y-121946589D01*
X115193475Y-121703368D01*
X114986632Y-121496525D01*
X114743411Y-121334010D01*
X114473158Y-121222068D01*
X114186260Y-121165000D01*
X113893740Y-121165000D01*
X113606842Y-121222068D01*
X113336589Y-121334010D01*
X113093368Y-121496525D01*
X112961513Y-121628380D01*
X112939502Y-121555820D01*
X112880537Y-121445506D01*
X112801185Y-121348815D01*
X112704494Y-121269463D01*
X112594180Y-121210498D01*
X112474482Y-121174188D01*
X112350000Y-121161928D01*
X110650000Y-121161928D01*
X110525518Y-121174188D01*
X110405820Y-121210498D01*
X110295506Y-121269463D01*
X110198815Y-121348815D01*
X110119463Y-121445506D01*
X110060498Y-121555820D01*
X110024188Y-121675518D01*
X110011928Y-121800000D01*
X76048167Y-121800000D01*
X76152567Y-121710473D01*
X76601564Y-120848265D01*
X76873724Y-119915031D01*
X76905714Y-119550000D01*
X95961928Y-119550000D01*
X95961928Y-120450000D01*
X95978031Y-120613500D01*
X96025722Y-120770716D01*
X96103169Y-120915608D01*
X96207394Y-121042606D01*
X96334392Y-121146831D01*
X96479284Y-121224278D01*
X96636500Y-121271969D01*
X96800000Y-121288072D01*
X97200000Y-121288072D01*
X97363500Y-121271969D01*
X97520716Y-121224278D01*
X97665608Y-121146831D01*
X97691894Y-121125259D01*
X97852008Y-121210841D01*
X98047106Y-121270024D01*
X98250000Y-121290007D01*
X98452895Y-121270024D01*
X98647993Y-121210841D01*
X98827797Y-121114734D01*
X98875001Y-121075995D01*
X98922204Y-121114734D01*
X99102008Y-121210841D01*
X99297106Y-121270024D01*
X99500000Y-121290007D01*
X99702895Y-121270024D01*
X99897993Y-121210841D01*
X100077797Y-121114734D01*
X100126707Y-121074595D01*
X100139885Y-121086351D01*
X100314772Y-121189308D01*
X100347860Y-121203682D01*
X100502000Y-121090423D01*
X100502000Y-120512310D01*
X100520024Y-120452894D01*
X100535000Y-120300837D01*
X100535000Y-120248000D01*
X100998000Y-120248000D01*
X100998000Y-121090423D01*
X101152140Y-121203682D01*
X101185228Y-121189308D01*
X101360115Y-121086351D01*
X101511556Y-120951253D01*
X101633731Y-120789206D01*
X101721944Y-120606438D01*
X101772806Y-120409972D01*
X101626489Y-120248000D01*
X100998000Y-120248000D01*
X100535000Y-120248000D01*
X100535000Y-119699162D01*
X100520024Y-119547105D01*
X100502000Y-119487689D01*
X100502000Y-118909577D01*
X100998000Y-118909577D01*
X100998000Y-119752000D01*
X101626489Y-119752000D01*
X101772806Y-119590028D01*
X101721944Y-119393562D01*
X101633731Y-119210794D01*
X101511556Y-119048747D01*
X101360115Y-118913649D01*
X101185228Y-118810692D01*
X101152140Y-118796318D01*
X100998000Y-118909577D01*
X100502000Y-118909577D01*
X100347860Y-118796318D01*
X100314772Y-118810692D01*
X100139885Y-118913649D01*
X100126707Y-118925405D01*
X100077797Y-118885266D01*
X99897992Y-118789159D01*
X99702894Y-118729976D01*
X99500000Y-118709993D01*
X99297105Y-118729976D01*
X99102007Y-118789159D01*
X98922203Y-118885266D01*
X98875000Y-118924004D01*
X98827797Y-118885266D01*
X98647992Y-118789159D01*
X98506309Y-118746179D01*
X98535000Y-118601939D01*
X98535000Y-118476890D01*
X152874048Y-118476890D01*
X152874048Y-118723110D01*
X152922083Y-118964598D01*
X153016307Y-119192074D01*
X153153099Y-119396798D01*
X153327202Y-119570901D01*
X153531926Y-119707693D01*
X153759402Y-119801917D01*
X154000890Y-119849952D01*
X154247110Y-119849952D01*
X154488598Y-119801917D01*
X154716074Y-119707693D01*
X154920798Y-119570901D01*
X155094901Y-119396798D01*
X155231693Y-119192074D01*
X155289147Y-119053368D01*
X160041409Y-119053368D01*
X160147099Y-120019716D01*
X160439284Y-120946876D01*
X160847433Y-121710473D01*
X161434968Y-122214307D01*
X164649275Y-119000000D01*
X165350725Y-119000000D01*
X168565032Y-122214307D01*
X169152567Y-121710473D01*
X169601564Y-120848265D01*
X169873724Y-119915031D01*
X169958591Y-118946632D01*
X169852901Y-117980284D01*
X169560716Y-117053124D01*
X169152567Y-116289527D01*
X168565032Y-115785693D01*
X165350725Y-119000000D01*
X164649275Y-119000000D01*
X161434968Y-115785693D01*
X160847433Y-116289527D01*
X160398436Y-117151735D01*
X160126276Y-118084969D01*
X160041409Y-119053368D01*
X155289147Y-119053368D01*
X155325917Y-118964598D01*
X155373952Y-118723110D01*
X155373952Y-118476890D01*
X155325917Y-118235402D01*
X155231693Y-118007926D01*
X155094901Y-117803202D01*
X154920798Y-117629099D01*
X154716074Y-117492307D01*
X154488598Y-117398083D01*
X154247110Y-117350048D01*
X154000890Y-117350048D01*
X153759402Y-117398083D01*
X153531926Y-117492307D01*
X153327202Y-117629099D01*
X153153099Y-117803202D01*
X153016307Y-118007926D01*
X152922083Y-118235402D01*
X152874048Y-118476890D01*
X98535000Y-118476890D01*
X98535000Y-118398061D01*
X98495226Y-118198102D01*
X98417205Y-118009744D01*
X98303937Y-117840226D01*
X98159774Y-117696063D01*
X97990256Y-117582795D01*
X97801898Y-117504774D01*
X97601939Y-117465000D01*
X97398061Y-117465000D01*
X97198102Y-117504774D01*
X97009744Y-117582795D01*
X96840226Y-117696063D01*
X96696063Y-117840226D01*
X96582795Y-118009744D01*
X96504774Y-118198102D01*
X96465000Y-118398061D01*
X96465000Y-118601939D01*
X96498413Y-118769919D01*
X96479284Y-118775722D01*
X96334392Y-118853169D01*
X96207394Y-118957394D01*
X96103169Y-119084392D01*
X96025722Y-119229284D01*
X95978031Y-119386500D01*
X95961928Y-119550000D01*
X76905714Y-119550000D01*
X76958591Y-118946632D01*
X76852901Y-117980284D01*
X76560716Y-117053124D01*
X76152567Y-116289527D01*
X75565032Y-115785693D01*
X72350725Y-119000000D01*
X71649275Y-119000000D01*
X68434968Y-115785693D01*
X67847433Y-116289527D01*
X67398436Y-117151735D01*
X67126276Y-118084969D01*
X67041409Y-119053368D01*
X66663250Y-119053368D01*
X66660000Y-118984453D01*
X66660000Y-115434968D01*
X68785693Y-115434968D01*
X72000000Y-118649275D01*
X75214307Y-115434968D01*
X161785693Y-115434968D01*
X165000000Y-118649275D01*
X168214307Y-115434968D01*
X167710473Y-114847433D01*
X166848265Y-114398436D01*
X165915031Y-114126276D01*
X164946632Y-114041409D01*
X163980284Y-114147099D01*
X163053124Y-114439284D01*
X162289527Y-114847433D01*
X161785693Y-115434968D01*
X75214307Y-115434968D01*
X74710473Y-114847433D01*
X73848265Y-114398436D01*
X72915031Y-114126276D01*
X71946632Y-114041409D01*
X70980284Y-114147099D01*
X70053124Y-114439284D01*
X69289527Y-114847433D01*
X68785693Y-115434968D01*
X66660000Y-115434968D01*
X66660000Y-109898061D01*
X95215000Y-109898061D01*
X95215000Y-110101939D01*
X95254774Y-110301898D01*
X95332795Y-110490256D01*
X95446063Y-110659774D01*
X95590226Y-110803937D01*
X95759744Y-110917205D01*
X95948102Y-110995226D01*
X96148061Y-111035000D01*
X96351939Y-111035000D01*
X96551898Y-110995226D01*
X96740256Y-110917205D01*
X96909774Y-110803937D01*
X97053937Y-110659774D01*
X97167205Y-110490256D01*
X97245226Y-110301898D01*
X97285000Y-110101939D01*
X97285000Y-109898061D01*
X97245226Y-109698102D01*
X97167205Y-109509744D01*
X97053937Y-109340226D01*
X96909774Y-109196063D01*
X96837934Y-109148061D01*
X101715000Y-109148061D01*
X101715000Y-109351939D01*
X101754774Y-109551898D01*
X101832795Y-109740256D01*
X101946063Y-109909774D01*
X102090226Y-110053937D01*
X102259744Y-110167205D01*
X102448102Y-110245226D01*
X102648061Y-110285000D01*
X102851939Y-110285000D01*
X103051898Y-110245226D01*
X103240256Y-110167205D01*
X103409774Y-110053937D01*
X103553937Y-109909774D01*
X103667205Y-109740256D01*
X103745226Y-109551898D01*
X103785000Y-109351939D01*
X103785000Y-109148061D01*
X103745226Y-108948102D01*
X103667205Y-108759744D01*
X103553937Y-108590226D01*
X103409774Y-108446063D01*
X103240256Y-108332795D01*
X103051898Y-108254774D01*
X102851939Y-108215000D01*
X102648061Y-108215000D01*
X102448102Y-108254774D01*
X102259744Y-108332795D01*
X102090226Y-108446063D01*
X101946063Y-108590226D01*
X101832795Y-108759744D01*
X101754774Y-108948102D01*
X101715000Y-109148061D01*
X96837934Y-109148061D01*
X96740256Y-109082795D01*
X96551898Y-109004774D01*
X96351939Y-108965000D01*
X96148061Y-108965000D01*
X95948102Y-109004774D01*
X95759744Y-109082795D01*
X95590226Y-109196063D01*
X95446063Y-109340226D01*
X95332795Y-109509744D01*
X95254774Y-109698102D01*
X95215000Y-109898061D01*
X66660000Y-109898061D01*
X66660000Y-96500000D01*
X81123000Y-96500000D01*
X81123000Y-103500000D01*
X81125669Y-103525902D01*
X81133112Y-103549660D01*
X81145046Y-103571510D01*
X81161013Y-103590611D01*
X81180401Y-103606231D01*
X81202463Y-103617768D01*
X81226351Y-103624779D01*
X81251149Y-103626995D01*
X81275902Y-103624331D01*
X82710920Y-103325369D01*
X82696063Y-103340226D01*
X82582795Y-103509744D01*
X82504774Y-103698102D01*
X82465000Y-103898061D01*
X82465000Y-104101939D01*
X82504774Y-104301898D01*
X82582795Y-104490256D01*
X82696063Y-104659774D01*
X82840226Y-104803937D01*
X83009744Y-104917205D01*
X83198102Y-104995226D01*
X83222103Y-105000000D01*
X83198102Y-105004774D01*
X83009744Y-105082795D01*
X82840226Y-105196063D01*
X82696063Y-105340226D01*
X82582795Y-105509744D01*
X82504774Y-105698102D01*
X82465000Y-105898061D01*
X82465000Y-106101939D01*
X82504774Y-106301898D01*
X82582795Y-106490256D01*
X82696063Y-106659774D01*
X82840226Y-106803937D01*
X83009744Y-106917205D01*
X83198102Y-106995226D01*
X83398061Y-107035000D01*
X83601939Y-107035000D01*
X83801898Y-106995226D01*
X83990256Y-106917205D01*
X84159774Y-106803937D01*
X84303937Y-106659774D01*
X84417205Y-106490256D01*
X84495226Y-106301898D01*
X84535000Y-106101939D01*
X84535000Y-105898061D01*
X84495226Y-105698102D01*
X84417205Y-105509744D01*
X84303937Y-105340226D01*
X84159774Y-105196063D01*
X83990256Y-105082795D01*
X83801898Y-105004774D01*
X83777897Y-105000000D01*
X83801898Y-104995226D01*
X83990256Y-104917205D01*
X84159774Y-104803937D01*
X84303937Y-104659774D01*
X84417205Y-104490256D01*
X84495226Y-104301898D01*
X84535000Y-104101939D01*
X84535000Y-103898061D01*
X84495226Y-103698102D01*
X84417205Y-103509744D01*
X84303937Y-103340226D01*
X84159774Y-103196063D01*
X83990256Y-103082795D01*
X83951778Y-103066857D01*
X93275902Y-101124331D01*
X93298601Y-101117333D01*
X93320557Y-101105597D01*
X93339803Y-101089803D01*
X93355597Y-101070557D01*
X93367333Y-101048601D01*
X93374560Y-101024776D01*
X93377000Y-101000000D01*
X93377000Y-100873061D01*
X129340000Y-100873061D01*
X129340000Y-101076939D01*
X129379774Y-101276898D01*
X129457795Y-101465256D01*
X129472658Y-101487500D01*
X129457795Y-101509744D01*
X129379774Y-101698102D01*
X129340000Y-101898061D01*
X129340000Y-102101939D01*
X129379774Y-102301898D01*
X129457795Y-102490256D01*
X129571063Y-102659774D01*
X129715226Y-102803937D01*
X129884744Y-102917205D01*
X130073102Y-102995226D01*
X130273061Y-103035000D01*
X130476939Y-103035000D01*
X130676898Y-102995226D01*
X130865256Y-102917205D01*
X131034774Y-102803937D01*
X131178937Y-102659774D01*
X131292205Y-102490256D01*
X131370226Y-102301898D01*
X131410000Y-102101939D01*
X131410000Y-101898061D01*
X131370226Y-101698102D01*
X131292205Y-101509744D01*
X131277342Y-101487500D01*
X131292205Y-101465256D01*
X131370226Y-101276898D01*
X131410000Y-101076939D01*
X131410000Y-100873061D01*
X131370226Y-100673102D01*
X131292205Y-100484744D01*
X131178937Y-100315226D01*
X131034774Y-100171063D01*
X130865256Y-100057795D01*
X130676898Y-99979774D01*
X130476939Y-99940000D01*
X130273061Y-99940000D01*
X130073102Y-99979774D01*
X129884744Y-100057795D01*
X129715226Y-100171063D01*
X129571063Y-100315226D01*
X129457795Y-100484744D01*
X129379774Y-100673102D01*
X129340000Y-100873061D01*
X93377000Y-100873061D01*
X93377000Y-100000000D01*
X93374560Y-99975224D01*
X93367333Y-99951399D01*
X93355597Y-99929443D01*
X93339803Y-99910197D01*
X93320557Y-99894403D01*
X93298601Y-99882667D01*
X93274776Y-99875440D01*
X93250000Y-99873000D01*
X85127000Y-99873000D01*
X85127000Y-98398061D01*
X87965000Y-98398061D01*
X87965000Y-98601939D01*
X88004774Y-98801898D01*
X88082795Y-98990256D01*
X88196063Y-99159774D01*
X88340226Y-99303937D01*
X88509744Y-99417205D01*
X88698102Y-99495226D01*
X88898061Y-99535000D01*
X89101939Y-99535000D01*
X89301898Y-99495226D01*
X89490256Y-99417205D01*
X89659774Y-99303937D01*
X89803937Y-99159774D01*
X89917205Y-98990256D01*
X89955393Y-98898061D01*
X98965000Y-98898061D01*
X98965000Y-99101939D01*
X99004774Y-99301898D01*
X99082795Y-99490256D01*
X99196063Y-99659774D01*
X99340226Y-99803937D01*
X99509744Y-99917205D01*
X99698102Y-99995226D01*
X99898061Y-100035000D01*
X100101939Y-100035000D01*
X100301898Y-99995226D01*
X100490256Y-99917205D01*
X100659774Y-99803937D01*
X100803937Y-99659774D01*
X100917205Y-99490256D01*
X100995226Y-99301898D01*
X101035000Y-99101939D01*
X101035000Y-98898061D01*
X100995226Y-98698102D01*
X100917205Y-98509744D01*
X100803937Y-98340226D01*
X100659774Y-98196063D01*
X100490256Y-98082795D01*
X100301898Y-98004774D01*
X100101939Y-97965000D01*
X99898061Y-97965000D01*
X99698102Y-98004774D01*
X99509744Y-98082795D01*
X99340226Y-98196063D01*
X99196063Y-98340226D01*
X99082795Y-98509744D01*
X99004774Y-98698102D01*
X98965000Y-98898061D01*
X89955393Y-98898061D01*
X89995226Y-98801898D01*
X90035000Y-98601939D01*
X90035000Y-98398061D01*
X89995226Y-98198102D01*
X89917205Y-98009744D01*
X89803937Y-97840226D01*
X89659774Y-97696063D01*
X89490256Y-97582795D01*
X89301898Y-97504774D01*
X89101939Y-97465000D01*
X88898061Y-97465000D01*
X88698102Y-97504774D01*
X88509744Y-97582795D01*
X88340226Y-97696063D01*
X88196063Y-97840226D01*
X88082795Y-98009744D01*
X88004774Y-98198102D01*
X87965000Y-98398061D01*
X85127000Y-98398061D01*
X85127000Y-97148061D01*
X104215000Y-97148061D01*
X104215000Y-97351939D01*
X104254774Y-97551898D01*
X104332795Y-97740256D01*
X104446063Y-97909774D01*
X104590226Y-98053937D01*
X104759744Y-98167205D01*
X104948102Y-98245226D01*
X105148061Y-98285000D01*
X105351939Y-98285000D01*
X105551898Y-98245226D01*
X105740256Y-98167205D01*
X105909774Y-98053937D01*
X106040650Y-97923061D01*
X126865000Y-97923061D01*
X126865000Y-98126939D01*
X126904774Y-98326898D01*
X126982795Y-98515256D01*
X127096063Y-98684774D01*
X127240226Y-98828937D01*
X127409744Y-98942205D01*
X127598102Y-99020226D01*
X127798061Y-99060000D01*
X128001939Y-99060000D01*
X128201898Y-99020226D01*
X128390256Y-98942205D01*
X128559774Y-98828937D01*
X128703937Y-98684774D01*
X128817205Y-98515256D01*
X128895226Y-98326898D01*
X128935000Y-98126939D01*
X128935000Y-98123061D01*
X129465000Y-98123061D01*
X129465000Y-98326939D01*
X129504774Y-98526898D01*
X129582795Y-98715256D01*
X129696063Y-98884774D01*
X129840226Y-99028937D01*
X130009744Y-99142205D01*
X130198102Y-99220226D01*
X130398061Y-99260000D01*
X130601939Y-99260000D01*
X130801898Y-99220226D01*
X130990256Y-99142205D01*
X131062500Y-99093933D01*
X131134744Y-99142205D01*
X131323102Y-99220226D01*
X131523061Y-99260000D01*
X131726939Y-99260000D01*
X131926898Y-99220226D01*
X132115256Y-99142205D01*
X132284774Y-99028937D01*
X132428937Y-98884774D01*
X132542205Y-98715256D01*
X132620226Y-98526898D01*
X132660000Y-98326939D01*
X132660000Y-98123061D01*
X132620226Y-97923102D01*
X132542205Y-97734744D01*
X132428937Y-97565226D01*
X132284774Y-97421063D01*
X132115256Y-97307795D01*
X132109324Y-97305338D01*
X132110000Y-97301939D01*
X132110000Y-97098061D01*
X132070226Y-96898102D01*
X131992205Y-96709744D01*
X131878937Y-96540226D01*
X131734774Y-96396063D01*
X131565256Y-96282795D01*
X131376898Y-96204774D01*
X131176939Y-96165000D01*
X130973061Y-96165000D01*
X130773102Y-96204774D01*
X130584744Y-96282795D01*
X130415226Y-96396063D01*
X130271063Y-96540226D01*
X130157795Y-96709744D01*
X130079774Y-96898102D01*
X130040000Y-97098061D01*
X130040000Y-97295262D01*
X130009744Y-97307795D01*
X129840226Y-97421063D01*
X129696063Y-97565226D01*
X129582795Y-97734744D01*
X129504774Y-97923102D01*
X129465000Y-98123061D01*
X128935000Y-98123061D01*
X128935000Y-97923061D01*
X128895226Y-97723102D01*
X128817205Y-97534744D01*
X128703937Y-97365226D01*
X128559774Y-97221063D01*
X128390256Y-97107795D01*
X128201898Y-97029774D01*
X128001939Y-96990000D01*
X127798061Y-96990000D01*
X127598102Y-97029774D01*
X127409744Y-97107795D01*
X127240226Y-97221063D01*
X127096063Y-97365226D01*
X126982795Y-97534744D01*
X126904774Y-97723102D01*
X126865000Y-97923061D01*
X106040650Y-97923061D01*
X106053937Y-97909774D01*
X106167205Y-97740256D01*
X106245226Y-97551898D01*
X106285000Y-97351939D01*
X106285000Y-97148061D01*
X106245226Y-96948102D01*
X106167205Y-96759744D01*
X106053937Y-96590226D01*
X105909774Y-96446063D01*
X105740256Y-96332795D01*
X105551898Y-96254774D01*
X105351939Y-96215000D01*
X105148061Y-96215000D01*
X104948102Y-96254774D01*
X104759744Y-96332795D01*
X104590226Y-96446063D01*
X104446063Y-96590226D01*
X104332795Y-96759744D01*
X104254774Y-96948102D01*
X104215000Y-97148061D01*
X85127000Y-97148061D01*
X85127000Y-96500000D01*
X85124560Y-96475224D01*
X85117333Y-96451399D01*
X85105597Y-96429443D01*
X85089803Y-96410197D01*
X85070557Y-96394403D01*
X85048601Y-96382667D01*
X85024776Y-96375440D01*
X85000000Y-96373000D01*
X81250000Y-96373000D01*
X81225224Y-96375440D01*
X81201399Y-96382667D01*
X81179443Y-96394403D01*
X81160197Y-96410197D01*
X81144403Y-96429443D01*
X81132667Y-96451399D01*
X81125440Y-96475224D01*
X81123000Y-96500000D01*
X66660000Y-96500000D01*
X66660000Y-94398061D01*
X88965000Y-94398061D01*
X88965000Y-94601939D01*
X89004774Y-94801898D01*
X89082795Y-94990256D01*
X89196063Y-95159774D01*
X89340226Y-95303937D01*
X89509744Y-95417205D01*
X89698102Y-95495226D01*
X89898061Y-95535000D01*
X90101939Y-95535000D01*
X90301898Y-95495226D01*
X90490256Y-95417205D01*
X90659774Y-95303937D01*
X90803937Y-95159774D01*
X90917205Y-94990256D01*
X90995226Y-94801898D01*
X91035000Y-94601939D01*
X91035000Y-94398061D01*
X90995226Y-94198102D01*
X90917205Y-94009744D01*
X90803937Y-93840226D01*
X90659774Y-93696063D01*
X90490256Y-93582795D01*
X90301898Y-93504774D01*
X90101939Y-93465000D01*
X89898061Y-93465000D01*
X89698102Y-93504774D01*
X89509744Y-93582795D01*
X89340226Y-93696063D01*
X89196063Y-93840226D01*
X89082795Y-94009744D01*
X89004774Y-94198102D01*
X88965000Y-94398061D01*
X66660000Y-94398061D01*
X66660000Y-91898061D01*
X103965000Y-91898061D01*
X103965000Y-92101939D01*
X104004774Y-92301898D01*
X104082795Y-92490256D01*
X104196063Y-92659774D01*
X104340226Y-92803937D01*
X104509744Y-92917205D01*
X104698102Y-92995226D01*
X104898061Y-93035000D01*
X105101939Y-93035000D01*
X105301898Y-92995226D01*
X105490256Y-92917205D01*
X105659774Y-92803937D01*
X105803937Y-92659774D01*
X105917205Y-92490256D01*
X105995226Y-92301898D01*
X106035000Y-92101939D01*
X106035000Y-91898061D01*
X105995226Y-91698102D01*
X105917205Y-91509744D01*
X105803937Y-91340226D01*
X105659774Y-91196063D01*
X105490256Y-91082795D01*
X105301898Y-91004774D01*
X105101939Y-90965000D01*
X104898061Y-90965000D01*
X104698102Y-91004774D01*
X104509744Y-91082795D01*
X104340226Y-91196063D01*
X104196063Y-91340226D01*
X104082795Y-91509744D01*
X104004774Y-91698102D01*
X103965000Y-91898061D01*
X66660000Y-91898061D01*
X66660000Y-90393137D01*
X67585000Y-90393137D01*
X67585000Y-90606863D01*
X67626696Y-90816483D01*
X67708485Y-91013940D01*
X67827225Y-91191647D01*
X67978353Y-91342775D01*
X68156060Y-91461515D01*
X68353517Y-91543304D01*
X68563137Y-91585000D01*
X68776863Y-91585000D01*
X68986483Y-91543304D01*
X69183940Y-91461515D01*
X69361647Y-91342775D01*
X69512775Y-91191647D01*
X69631515Y-91013940D01*
X69713304Y-90816483D01*
X69755000Y-90606863D01*
X69755000Y-90393137D01*
X69713304Y-90183517D01*
X69631515Y-89986060D01*
X69512775Y-89808353D01*
X69361647Y-89657225D01*
X69183940Y-89538485D01*
X68986483Y-89456696D01*
X68776863Y-89415000D01*
X68563137Y-89415000D01*
X68353517Y-89456696D01*
X68156060Y-89538485D01*
X67978353Y-89657225D01*
X67827225Y-89808353D01*
X67708485Y-89986060D01*
X67626696Y-90183517D01*
X67585000Y-90393137D01*
X66660000Y-90393137D01*
X66660000Y-87393137D01*
X67585000Y-87393137D01*
X67585000Y-87606863D01*
X67626696Y-87816483D01*
X67708485Y-88013940D01*
X67827225Y-88191647D01*
X67978353Y-88342775D01*
X68156060Y-88461515D01*
X68353517Y-88543304D01*
X68563137Y-88585000D01*
X68776863Y-88585000D01*
X68986483Y-88543304D01*
X69183940Y-88461515D01*
X69361647Y-88342775D01*
X69512775Y-88191647D01*
X69631515Y-88013940D01*
X69713304Y-87816483D01*
X69755000Y-87606863D01*
X69755000Y-87393137D01*
X69713304Y-87183517D01*
X69631515Y-86986060D01*
X69512775Y-86808353D01*
X69361647Y-86657225D01*
X69347933Y-86648061D01*
X70715000Y-86648061D01*
X70715000Y-86851939D01*
X70754774Y-87051898D01*
X70832795Y-87240256D01*
X70946063Y-87409774D01*
X71090226Y-87553937D01*
X71259744Y-87667205D01*
X71448102Y-87745226D01*
X71648061Y-87785000D01*
X71851939Y-87785000D01*
X72051898Y-87745226D01*
X72240256Y-87667205D01*
X72409774Y-87553937D01*
X72553937Y-87409774D01*
X72667205Y-87240256D01*
X72745226Y-87051898D01*
X72785000Y-86851939D01*
X72785000Y-86648061D01*
X72745226Y-86448102D01*
X72667205Y-86259744D01*
X72553937Y-86090226D01*
X72409774Y-85946063D01*
X72337934Y-85898061D01*
X91965000Y-85898061D01*
X91965000Y-86101939D01*
X92004774Y-86301898D01*
X92082795Y-86490256D01*
X92196063Y-86659774D01*
X92340226Y-86803937D01*
X92509744Y-86917205D01*
X92698102Y-86995226D01*
X92898061Y-87035000D01*
X93101939Y-87035000D01*
X93301898Y-86995226D01*
X93490256Y-86917205D01*
X93500000Y-86910694D01*
X93509744Y-86917205D01*
X93698102Y-86995226D01*
X93898061Y-87035000D01*
X94101939Y-87035000D01*
X94301898Y-86995226D01*
X94490256Y-86917205D01*
X94659774Y-86803937D01*
X94803937Y-86659774D01*
X94917205Y-86490256D01*
X94955393Y-86398061D01*
X110715000Y-86398061D01*
X110715000Y-86601939D01*
X110754774Y-86801898D01*
X110832795Y-86990256D01*
X110946063Y-87159774D01*
X111090226Y-87303937D01*
X111259744Y-87417205D01*
X111448102Y-87495226D01*
X111648061Y-87535000D01*
X111851939Y-87535000D01*
X112051898Y-87495226D01*
X112240256Y-87417205D01*
X112409774Y-87303937D01*
X112553937Y-87159774D01*
X112667205Y-86990256D01*
X112745226Y-86801898D01*
X112785000Y-86601939D01*
X112785000Y-86398061D01*
X112745226Y-86198102D01*
X112667205Y-86009744D01*
X112553937Y-85840226D01*
X112409774Y-85696063D01*
X112240256Y-85582795D01*
X112051898Y-85504774D01*
X111851939Y-85465000D01*
X111648061Y-85465000D01*
X111448102Y-85504774D01*
X111259744Y-85582795D01*
X111090226Y-85696063D01*
X110946063Y-85840226D01*
X110832795Y-86009744D01*
X110754774Y-86198102D01*
X110715000Y-86398061D01*
X94955393Y-86398061D01*
X94995226Y-86301898D01*
X95035000Y-86101939D01*
X95035000Y-85898061D01*
X94995226Y-85698102D01*
X94917205Y-85509744D01*
X94803937Y-85340226D01*
X94659774Y-85196063D01*
X94490256Y-85082795D01*
X94301898Y-85004774D01*
X94101939Y-84965000D01*
X93898061Y-84965000D01*
X93698102Y-85004774D01*
X93509744Y-85082795D01*
X93500000Y-85089306D01*
X93490256Y-85082795D01*
X93301898Y-85004774D01*
X93101939Y-84965000D01*
X92898061Y-84965000D01*
X92698102Y-85004774D01*
X92509744Y-85082795D01*
X92340226Y-85196063D01*
X92196063Y-85340226D01*
X92082795Y-85509744D01*
X92004774Y-85698102D01*
X91965000Y-85898061D01*
X72337934Y-85898061D01*
X72240256Y-85832795D01*
X72051898Y-85754774D01*
X71851939Y-85715000D01*
X71648061Y-85715000D01*
X71448102Y-85754774D01*
X71259744Y-85832795D01*
X71090226Y-85946063D01*
X70946063Y-86090226D01*
X70832795Y-86259744D01*
X70754774Y-86448102D01*
X70715000Y-86648061D01*
X69347933Y-86648061D01*
X69183940Y-86538485D01*
X68986483Y-86456696D01*
X68776863Y-86415000D01*
X68563137Y-86415000D01*
X68353517Y-86456696D01*
X68156060Y-86538485D01*
X67978353Y-86657225D01*
X67827225Y-86808353D01*
X67708485Y-86986060D01*
X67626696Y-87183517D01*
X67585000Y-87393137D01*
X66660000Y-87393137D01*
X66660000Y-79565032D01*
X68785693Y-79565032D01*
X69289527Y-80152567D01*
X70151735Y-80601564D01*
X71084969Y-80873724D01*
X72053368Y-80958591D01*
X73019716Y-80852901D01*
X73946876Y-80560716D01*
X74710473Y-80152567D01*
X75214307Y-79565032D01*
X72000000Y-76350725D01*
X68785693Y-79565032D01*
X66660000Y-79565032D01*
X66660000Y-76053368D01*
X67041409Y-76053368D01*
X67147099Y-77019716D01*
X67439284Y-77946876D01*
X67847433Y-78710473D01*
X68434968Y-79214307D01*
X71649275Y-76000000D01*
X72350725Y-76000000D01*
X75565032Y-79214307D01*
X76152567Y-78710473D01*
X76185068Y-78648061D01*
X145915000Y-78648061D01*
X145915000Y-78851939D01*
X145954774Y-79051898D01*
X146032795Y-79240256D01*
X146146063Y-79409774D01*
X146290226Y-79553937D01*
X146459744Y-79667205D01*
X146648102Y-79745226D01*
X146848061Y-79785000D01*
X147051939Y-79785000D01*
X147251898Y-79745226D01*
X147440256Y-79667205D01*
X147593169Y-79565032D01*
X161785693Y-79565032D01*
X162289527Y-80152567D01*
X163151735Y-80601564D01*
X164084969Y-80873724D01*
X165053368Y-80958591D01*
X166019716Y-80852901D01*
X166946876Y-80560716D01*
X167710473Y-80152567D01*
X168214307Y-79565032D01*
X165000000Y-76350725D01*
X161785693Y-79565032D01*
X147593169Y-79565032D01*
X147609774Y-79553937D01*
X147753937Y-79409774D01*
X147867205Y-79240256D01*
X147945226Y-79051898D01*
X147985000Y-78851939D01*
X147985000Y-78648061D01*
X147945226Y-78448102D01*
X147867205Y-78259744D01*
X147753937Y-78090226D01*
X147609774Y-77946063D01*
X147440256Y-77832795D01*
X147251898Y-77754774D01*
X147051939Y-77715000D01*
X146848061Y-77715000D01*
X146648102Y-77754774D01*
X146459744Y-77832795D01*
X146290226Y-77946063D01*
X146146063Y-78090226D01*
X146032795Y-78259744D01*
X145954774Y-78448102D01*
X145915000Y-78648061D01*
X76185068Y-78648061D01*
X76601564Y-77848265D01*
X76873724Y-76915031D01*
X76958591Y-75946632D01*
X76852901Y-74980284D01*
X76741533Y-74626890D01*
X81250048Y-74626890D01*
X81250048Y-74873110D01*
X81298083Y-75114598D01*
X81392307Y-75342074D01*
X81529099Y-75546798D01*
X81703202Y-75720901D01*
X81907926Y-75857693D01*
X82135402Y-75951917D01*
X82376890Y-75999952D01*
X82623110Y-75999952D01*
X82864598Y-75951917D01*
X83092074Y-75857693D01*
X83296798Y-75720901D01*
X83470901Y-75546798D01*
X83562325Y-75409972D01*
X90227194Y-75409972D01*
X90278056Y-75606438D01*
X90366269Y-75789206D01*
X90488444Y-75951253D01*
X90639885Y-76086351D01*
X90814772Y-76189308D01*
X90847860Y-76203682D01*
X91002000Y-76090423D01*
X91002000Y-75248000D01*
X90373511Y-75248000D01*
X90227194Y-75409972D01*
X83562325Y-75409972D01*
X83607693Y-75342074D01*
X83701917Y-75114598D01*
X83749952Y-74873110D01*
X83749952Y-74626890D01*
X83742620Y-74590028D01*
X90227194Y-74590028D01*
X90373511Y-74752000D01*
X91002000Y-74752000D01*
X91002000Y-74699162D01*
X91465000Y-74699162D01*
X91465000Y-75300837D01*
X91479976Y-75452894D01*
X91498000Y-75512310D01*
X91498000Y-76090423D01*
X91652140Y-76203682D01*
X91685228Y-76189308D01*
X91860115Y-76086351D01*
X91873293Y-76074595D01*
X91922203Y-76114734D01*
X92102007Y-76210841D01*
X92297105Y-76270024D01*
X92500000Y-76290007D01*
X92702894Y-76270024D01*
X92897992Y-76210841D01*
X93077797Y-76114734D01*
X93125000Y-76075996D01*
X93172203Y-76114734D01*
X93352007Y-76210841D01*
X93547105Y-76270024D01*
X93736753Y-76288702D01*
X93715000Y-76398061D01*
X93715000Y-76601939D01*
X93754774Y-76801898D01*
X93832795Y-76990256D01*
X93946063Y-77159774D01*
X94090226Y-77303937D01*
X94259744Y-77417205D01*
X94448102Y-77495226D01*
X94648061Y-77535000D01*
X94851939Y-77535000D01*
X95051898Y-77495226D01*
X95240256Y-77417205D01*
X95409774Y-77303937D01*
X95553937Y-77159774D01*
X95667205Y-76990256D01*
X95745226Y-76801898D01*
X95785000Y-76601939D01*
X95785000Y-76398061D01*
X95745226Y-76198102D01*
X95709178Y-76111074D01*
X95779492Y-76053368D01*
X160041409Y-76053368D01*
X160147099Y-77019716D01*
X160439284Y-77946876D01*
X160847433Y-78710473D01*
X161434968Y-79214307D01*
X164649275Y-76000000D01*
X165350725Y-76000000D01*
X168565032Y-79214307D01*
X169152567Y-78710473D01*
X169601564Y-77848265D01*
X169873724Y-76915031D01*
X169958591Y-75946632D01*
X169852901Y-74980284D01*
X169560716Y-74053124D01*
X169152567Y-73289527D01*
X168565032Y-72785693D01*
X165350725Y-76000000D01*
X164649275Y-76000000D01*
X161434968Y-72785693D01*
X160847433Y-73289527D01*
X160398436Y-74151735D01*
X160126276Y-75084969D01*
X160041409Y-76053368D01*
X95779492Y-76053368D01*
X95792606Y-76042606D01*
X95896831Y-75915608D01*
X95974278Y-75770716D01*
X96021969Y-75613500D01*
X96038072Y-75450000D01*
X96038072Y-74626890D01*
X152874048Y-74626890D01*
X152874048Y-74873110D01*
X152922083Y-75114598D01*
X153016307Y-75342074D01*
X153153099Y-75546798D01*
X153327202Y-75720901D01*
X153531926Y-75857693D01*
X153759402Y-75951917D01*
X154000890Y-75999952D01*
X154247110Y-75999952D01*
X154488598Y-75951917D01*
X154716074Y-75857693D01*
X154920798Y-75720901D01*
X155094901Y-75546798D01*
X155231693Y-75342074D01*
X155325917Y-75114598D01*
X155373952Y-74873110D01*
X155373952Y-74626890D01*
X155325917Y-74385402D01*
X155231693Y-74157926D01*
X155094901Y-73953202D01*
X154920798Y-73779099D01*
X154716074Y-73642307D01*
X154488598Y-73548083D01*
X154247110Y-73500048D01*
X154000890Y-73500048D01*
X153759402Y-73548083D01*
X153531926Y-73642307D01*
X153327202Y-73779099D01*
X153153099Y-73953202D01*
X153016307Y-74157926D01*
X152922083Y-74385402D01*
X152874048Y-74626890D01*
X96038072Y-74626890D01*
X96038072Y-74550000D01*
X96021969Y-74386500D01*
X95974278Y-74229284D01*
X95896831Y-74084392D01*
X95792606Y-73957394D01*
X95665608Y-73853169D01*
X95520716Y-73775722D01*
X95363500Y-73728031D01*
X95200000Y-73711928D01*
X94800000Y-73711928D01*
X94636500Y-73728031D01*
X94479284Y-73775722D01*
X94334392Y-73853169D01*
X94308106Y-73874741D01*
X94147993Y-73789159D01*
X93952895Y-73729976D01*
X93750000Y-73709993D01*
X93547106Y-73729976D01*
X93352008Y-73789159D01*
X93172204Y-73885266D01*
X93125000Y-73924005D01*
X93077797Y-73885266D01*
X92897993Y-73789159D01*
X92702895Y-73729976D01*
X92500000Y-73709993D01*
X92297106Y-73729976D01*
X92102008Y-73789159D01*
X91922204Y-73885266D01*
X91873294Y-73925406D01*
X91860115Y-73913649D01*
X91685228Y-73810692D01*
X91652140Y-73796318D01*
X91498000Y-73909577D01*
X91498000Y-74487689D01*
X91479976Y-74547105D01*
X91465000Y-74699162D01*
X91002000Y-74699162D01*
X91002000Y-73909577D01*
X90847860Y-73796318D01*
X90814772Y-73810692D01*
X90639885Y-73913649D01*
X90488444Y-74048747D01*
X90366269Y-74210794D01*
X90278056Y-74393562D01*
X90227194Y-74590028D01*
X83742620Y-74590028D01*
X83701917Y-74385402D01*
X83607693Y-74157926D01*
X83470901Y-73953202D01*
X83296798Y-73779099D01*
X83092074Y-73642307D01*
X82864598Y-73548083D01*
X82623110Y-73500048D01*
X82376890Y-73500048D01*
X82135402Y-73548083D01*
X81907926Y-73642307D01*
X81703202Y-73779099D01*
X81529099Y-73953202D01*
X81392307Y-74157926D01*
X81298083Y-74385402D01*
X81250048Y-74626890D01*
X76741533Y-74626890D01*
X76560716Y-74053124D01*
X76152567Y-73289527D01*
X75565032Y-72785693D01*
X72350725Y-76000000D01*
X71649275Y-76000000D01*
X68434968Y-72785693D01*
X67847433Y-73289527D01*
X67398436Y-74151735D01*
X67126276Y-75084969D01*
X67041409Y-76053368D01*
X66660000Y-76053368D01*
X66660000Y-76027089D01*
X66733902Y-75128203D01*
X66947001Y-74279818D01*
X67295803Y-73477629D01*
X67770938Y-72743182D01*
X68051391Y-72434968D01*
X68785693Y-72434968D01*
X72000000Y-75649275D01*
X75214307Y-72434968D01*
X161785693Y-72434968D01*
X165000000Y-75649275D01*
X168214307Y-72434968D01*
X167710473Y-71847433D01*
X166848265Y-71398436D01*
X165915031Y-71126276D01*
X164946632Y-71041409D01*
X163980284Y-71147099D01*
X163053124Y-71439284D01*
X162289527Y-71847433D01*
X161785693Y-72434968D01*
X75214307Y-72434968D01*
X74710473Y-71847433D01*
X73848265Y-71398436D01*
X72915031Y-71126276D01*
X71946632Y-71041409D01*
X70980284Y-71147099D01*
X70053124Y-71439284D01*
X69289527Y-71847433D01*
X68785693Y-72434968D01*
X68051391Y-72434968D01*
X68359646Y-72096202D01*
X69046125Y-71554054D01*
X69811928Y-71131308D01*
X70636491Y-70839316D01*
X71509076Y-70683884D01*
X72015547Y-70660000D01*
X164972911Y-70660000D01*
X165871797Y-70733902D01*
%TA.AperFunction,Conductor*%
D19*
G36*
X165871797Y-70733902D02*
G01*
X166720182Y-70947001D01*
X167522371Y-71295803D01*
X168256818Y-71770938D01*
X168903798Y-72359646D01*
X169445946Y-73046125D01*
X169868692Y-73811928D01*
X170160684Y-74636491D01*
X170316116Y-75509076D01*
X170340000Y-76015547D01*
X170340000Y-87519912D01*
X170276949Y-87468167D01*
X170062401Y-87353489D01*
X169829602Y-87282870D01*
X169648165Y-87265000D01*
X168826835Y-87265000D01*
X168645398Y-87282870D01*
X168412599Y-87353489D01*
X168198051Y-87468167D01*
X168009998Y-87622498D01*
X167855667Y-87810551D01*
X167740989Y-88025099D01*
X167670370Y-88257898D01*
X167646525Y-88500000D01*
X167670370Y-88742102D01*
X167673383Y-88752035D01*
X167593881Y-88633051D01*
X167404449Y-88443619D01*
X167181701Y-88294784D01*
X166934197Y-88192264D01*
X166671448Y-88140000D01*
X166403552Y-88140000D01*
X166140803Y-88192264D01*
X165893299Y-88294784D01*
X165670551Y-88443619D01*
X165481119Y-88633051D01*
X165332284Y-88855799D01*
X165229764Y-89103303D01*
X165177500Y-89366052D01*
X165177500Y-89633948D01*
X165229764Y-89896697D01*
X165332284Y-90144201D01*
X165481119Y-90366949D01*
X165670551Y-90556381D01*
X165893299Y-90705216D01*
X166140803Y-90807736D01*
X166403552Y-90860000D01*
X166671448Y-90860000D01*
X166934197Y-90807736D01*
X167181701Y-90705216D01*
X167404449Y-90556381D01*
X167593881Y-90366949D01*
X167742716Y-90144201D01*
X167845236Y-89896697D01*
X167897500Y-89633948D01*
X167897500Y-89366052D01*
X167864516Y-89200232D01*
X168009998Y-89377502D01*
X168198051Y-89531833D01*
X168412599Y-89646511D01*
X168645398Y-89717130D01*
X168826835Y-89735000D01*
X169648165Y-89735000D01*
X169829602Y-89717130D01*
X170062401Y-89646511D01*
X170276949Y-89531833D01*
X170340000Y-89480088D01*
X170340000Y-94519912D01*
X170276949Y-94468167D01*
X170062401Y-94353489D01*
X169829602Y-94282870D01*
X169648165Y-94265000D01*
X168826835Y-94265000D01*
X168645398Y-94282870D01*
X168412599Y-94353489D01*
X168198051Y-94468167D01*
X168009998Y-94622498D01*
X167864516Y-94799768D01*
X167897500Y-94633948D01*
X167897500Y-94366052D01*
X167845236Y-94103303D01*
X167742716Y-93855799D01*
X167593881Y-93633051D01*
X167404449Y-93443619D01*
X167181701Y-93294784D01*
X166934197Y-93192264D01*
X166671448Y-93140000D01*
X166403552Y-93140000D01*
X166140803Y-93192264D01*
X165893299Y-93294784D01*
X165670551Y-93443619D01*
X165481119Y-93633051D01*
X165332284Y-93855799D01*
X165229764Y-94103303D01*
X165177500Y-94366052D01*
X165177500Y-94633948D01*
X165229764Y-94896697D01*
X165332284Y-95144201D01*
X165481119Y-95366949D01*
X165670551Y-95556381D01*
X165893299Y-95705216D01*
X166140803Y-95807736D01*
X166403552Y-95860000D01*
X166671448Y-95860000D01*
X166934197Y-95807736D01*
X167181701Y-95705216D01*
X167404449Y-95556381D01*
X167593881Y-95366949D01*
X167673383Y-95247965D01*
X167670370Y-95257898D01*
X167646525Y-95500000D01*
X167670370Y-95742102D01*
X167740989Y-95974901D01*
X167855667Y-96189449D01*
X168009998Y-96377502D01*
X168198051Y-96531833D01*
X168412599Y-96646511D01*
X168645398Y-96717130D01*
X168826835Y-96735000D01*
X169648165Y-96735000D01*
X169829602Y-96717130D01*
X170062401Y-96646511D01*
X170276949Y-96531833D01*
X170340000Y-96480088D01*
X170340001Y-118972899D01*
X170266098Y-119871802D01*
X170052999Y-120720180D01*
X169704197Y-121522371D01*
X169229062Y-122256818D01*
X168640354Y-122903799D01*
X167953875Y-123445946D01*
X167188076Y-123868691D01*
X166363514Y-124160683D01*
X165490925Y-124316116D01*
X164984453Y-124340000D01*
X72027089Y-124340000D01*
X71128198Y-124266098D01*
X70279820Y-124052999D01*
X69477629Y-123704197D01*
X68743182Y-123229062D01*
X68096201Y-122640354D01*
X68036716Y-122565032D01*
X68785693Y-122565032D01*
X69289527Y-123152567D01*
X70151735Y-123601564D01*
X71084969Y-123873724D01*
X72053368Y-123958591D01*
X73019716Y-123852901D01*
X73946876Y-123560716D01*
X74710473Y-123152567D01*
X75214307Y-122565032D01*
X72000000Y-119350725D01*
X68785693Y-122565032D01*
X68036716Y-122565032D01*
X67554054Y-121953875D01*
X67131309Y-121188076D01*
X66839317Y-120363514D01*
X66683884Y-119490925D01*
X66663250Y-119053368D01*
X67041409Y-119053368D01*
X67147099Y-120019716D01*
X67439284Y-120946876D01*
X67847433Y-121710473D01*
X68434968Y-122214307D01*
X71649275Y-119000000D01*
X72350725Y-119000000D01*
X75565032Y-122214307D01*
X76048167Y-121800000D01*
X110011928Y-121800000D01*
X110011928Y-123500000D01*
X110024188Y-123624482D01*
X110060498Y-123744180D01*
X110119463Y-123854494D01*
X110198815Y-123951185D01*
X110295506Y-124030537D01*
X110405820Y-124089502D01*
X110525518Y-124125812D01*
X110650000Y-124138072D01*
X112350000Y-124138072D01*
X112474482Y-124125812D01*
X112594180Y-124089502D01*
X112704494Y-124030537D01*
X112801185Y-123951185D01*
X112880537Y-123854494D01*
X112939502Y-123744180D01*
X112961513Y-123671620D01*
X113093368Y-123803475D01*
X113336589Y-123965990D01*
X113606842Y-124077932D01*
X113893740Y-124135000D01*
X114186260Y-124135000D01*
X114473158Y-124077932D01*
X114743411Y-123965990D01*
X114986632Y-123803475D01*
X115193475Y-123596632D01*
X115355990Y-123353411D01*
X115467932Y-123083158D01*
X115525000Y-122796260D01*
X115525000Y-122565032D01*
X161785693Y-122565032D01*
X162289527Y-123152567D01*
X163151735Y-123601564D01*
X164084969Y-123873724D01*
X165053368Y-123958591D01*
X166019716Y-123852901D01*
X166946876Y-123560716D01*
X167710473Y-123152567D01*
X168214307Y-122565032D01*
X165000000Y-119350725D01*
X161785693Y-122565032D01*
X115525000Y-122565032D01*
X115525000Y-122503740D01*
X115467932Y-122216842D01*
X115355990Y-121946589D01*
X115193475Y-121703368D01*
X114986632Y-121496525D01*
X114743411Y-121334010D01*
X114473158Y-121222068D01*
X114186260Y-121165000D01*
X113893740Y-121165000D01*
X113606842Y-121222068D01*
X113336589Y-121334010D01*
X113093368Y-121496525D01*
X112961513Y-121628380D01*
X112939502Y-121555820D01*
X112880537Y-121445506D01*
X112801185Y-121348815D01*
X112704494Y-121269463D01*
X112594180Y-121210498D01*
X112474482Y-121174188D01*
X112350000Y-121161928D01*
X110650000Y-121161928D01*
X110525518Y-121174188D01*
X110405820Y-121210498D01*
X110295506Y-121269463D01*
X110198815Y-121348815D01*
X110119463Y-121445506D01*
X110060498Y-121555820D01*
X110024188Y-121675518D01*
X110011928Y-121800000D01*
X76048167Y-121800000D01*
X76152567Y-121710473D01*
X76601564Y-120848265D01*
X76873724Y-119915031D01*
X76905714Y-119550000D01*
X95961928Y-119550000D01*
X95961928Y-120450000D01*
X95978031Y-120613500D01*
X96025722Y-120770716D01*
X96103169Y-120915608D01*
X96207394Y-121042606D01*
X96334392Y-121146831D01*
X96479284Y-121224278D01*
X96636500Y-121271969D01*
X96800000Y-121288072D01*
X97200000Y-121288072D01*
X97363500Y-121271969D01*
X97520716Y-121224278D01*
X97665608Y-121146831D01*
X97691894Y-121125259D01*
X97852008Y-121210841D01*
X98047106Y-121270024D01*
X98250000Y-121290007D01*
X98452895Y-121270024D01*
X98647993Y-121210841D01*
X98827797Y-121114734D01*
X98875001Y-121075995D01*
X98922204Y-121114734D01*
X99102008Y-121210841D01*
X99297106Y-121270024D01*
X99500000Y-121290007D01*
X99702895Y-121270024D01*
X99897993Y-121210841D01*
X100077797Y-121114734D01*
X100126707Y-121074595D01*
X100139885Y-121086351D01*
X100314772Y-121189308D01*
X100347860Y-121203682D01*
X100502000Y-121090423D01*
X100502000Y-120512310D01*
X100520024Y-120452894D01*
X100535000Y-120300837D01*
X100535000Y-120248000D01*
X100998000Y-120248000D01*
X100998000Y-121090423D01*
X101152140Y-121203682D01*
X101185228Y-121189308D01*
X101360115Y-121086351D01*
X101511556Y-120951253D01*
X101633731Y-120789206D01*
X101721944Y-120606438D01*
X101772806Y-120409972D01*
X101626489Y-120248000D01*
X100998000Y-120248000D01*
X100535000Y-120248000D01*
X100535000Y-119699162D01*
X100520024Y-119547105D01*
X100502000Y-119487689D01*
X100502000Y-118909577D01*
X100998000Y-118909577D01*
X100998000Y-119752000D01*
X101626489Y-119752000D01*
X101772806Y-119590028D01*
X101721944Y-119393562D01*
X101633731Y-119210794D01*
X101511556Y-119048747D01*
X101360115Y-118913649D01*
X101185228Y-118810692D01*
X101152140Y-118796318D01*
X100998000Y-118909577D01*
X100502000Y-118909577D01*
X100347860Y-118796318D01*
X100314772Y-118810692D01*
X100139885Y-118913649D01*
X100126707Y-118925405D01*
X100077797Y-118885266D01*
X99897992Y-118789159D01*
X99702894Y-118729976D01*
X99500000Y-118709993D01*
X99297105Y-118729976D01*
X99102007Y-118789159D01*
X98922203Y-118885266D01*
X98875000Y-118924004D01*
X98827797Y-118885266D01*
X98647992Y-118789159D01*
X98506309Y-118746179D01*
X98535000Y-118601939D01*
X98535000Y-118476890D01*
X152874048Y-118476890D01*
X152874048Y-118723110D01*
X152922083Y-118964598D01*
X153016307Y-119192074D01*
X153153099Y-119396798D01*
X153327202Y-119570901D01*
X153531926Y-119707693D01*
X153759402Y-119801917D01*
X154000890Y-119849952D01*
X154247110Y-119849952D01*
X154488598Y-119801917D01*
X154716074Y-119707693D01*
X154920798Y-119570901D01*
X155094901Y-119396798D01*
X155231693Y-119192074D01*
X155289147Y-119053368D01*
X160041409Y-119053368D01*
X160147099Y-120019716D01*
X160439284Y-120946876D01*
X160847433Y-121710473D01*
X161434968Y-122214307D01*
X164649275Y-119000000D01*
X165350725Y-119000000D01*
X168565032Y-122214307D01*
X169152567Y-121710473D01*
X169601564Y-120848265D01*
X169873724Y-119915031D01*
X169958591Y-118946632D01*
X169852901Y-117980284D01*
X169560716Y-117053124D01*
X169152567Y-116289527D01*
X168565032Y-115785693D01*
X165350725Y-119000000D01*
X164649275Y-119000000D01*
X161434968Y-115785693D01*
X160847433Y-116289527D01*
X160398436Y-117151735D01*
X160126276Y-118084969D01*
X160041409Y-119053368D01*
X155289147Y-119053368D01*
X155325917Y-118964598D01*
X155373952Y-118723110D01*
X155373952Y-118476890D01*
X155325917Y-118235402D01*
X155231693Y-118007926D01*
X155094901Y-117803202D01*
X154920798Y-117629099D01*
X154716074Y-117492307D01*
X154488598Y-117398083D01*
X154247110Y-117350048D01*
X154000890Y-117350048D01*
X153759402Y-117398083D01*
X153531926Y-117492307D01*
X153327202Y-117629099D01*
X153153099Y-117803202D01*
X153016307Y-118007926D01*
X152922083Y-118235402D01*
X152874048Y-118476890D01*
X98535000Y-118476890D01*
X98535000Y-118398061D01*
X98495226Y-118198102D01*
X98417205Y-118009744D01*
X98303937Y-117840226D01*
X98159774Y-117696063D01*
X97990256Y-117582795D01*
X97801898Y-117504774D01*
X97601939Y-117465000D01*
X97398061Y-117465000D01*
X97198102Y-117504774D01*
X97009744Y-117582795D01*
X96840226Y-117696063D01*
X96696063Y-117840226D01*
X96582795Y-118009744D01*
X96504774Y-118198102D01*
X96465000Y-118398061D01*
X96465000Y-118601939D01*
X96498413Y-118769919D01*
X96479284Y-118775722D01*
X96334392Y-118853169D01*
X96207394Y-118957394D01*
X96103169Y-119084392D01*
X96025722Y-119229284D01*
X95978031Y-119386500D01*
X95961928Y-119550000D01*
X76905714Y-119550000D01*
X76958591Y-118946632D01*
X76852901Y-117980284D01*
X76560716Y-117053124D01*
X76152567Y-116289527D01*
X75565032Y-115785693D01*
X72350725Y-119000000D01*
X71649275Y-119000000D01*
X68434968Y-115785693D01*
X67847433Y-116289527D01*
X67398436Y-117151735D01*
X67126276Y-118084969D01*
X67041409Y-119053368D01*
X66663250Y-119053368D01*
X66660000Y-118984453D01*
X66660000Y-115434968D01*
X68785693Y-115434968D01*
X72000000Y-118649275D01*
X75214307Y-115434968D01*
X161785693Y-115434968D01*
X165000000Y-118649275D01*
X168214307Y-115434968D01*
X167710473Y-114847433D01*
X166848265Y-114398436D01*
X165915031Y-114126276D01*
X164946632Y-114041409D01*
X163980284Y-114147099D01*
X163053124Y-114439284D01*
X162289527Y-114847433D01*
X161785693Y-115434968D01*
X75214307Y-115434968D01*
X74710473Y-114847433D01*
X73848265Y-114398436D01*
X72915031Y-114126276D01*
X71946632Y-114041409D01*
X70980284Y-114147099D01*
X70053124Y-114439284D01*
X69289527Y-114847433D01*
X68785693Y-115434968D01*
X66660000Y-115434968D01*
X66660000Y-109898061D01*
X95215000Y-109898061D01*
X95215000Y-110101939D01*
X95254774Y-110301898D01*
X95332795Y-110490256D01*
X95446063Y-110659774D01*
X95590226Y-110803937D01*
X95759744Y-110917205D01*
X95948102Y-110995226D01*
X96148061Y-111035000D01*
X96351939Y-111035000D01*
X96551898Y-110995226D01*
X96740256Y-110917205D01*
X96909774Y-110803937D01*
X97053937Y-110659774D01*
X97167205Y-110490256D01*
X97245226Y-110301898D01*
X97285000Y-110101939D01*
X97285000Y-109898061D01*
X97245226Y-109698102D01*
X97167205Y-109509744D01*
X97053937Y-109340226D01*
X96909774Y-109196063D01*
X96837934Y-109148061D01*
X101715000Y-109148061D01*
X101715000Y-109351939D01*
X101754774Y-109551898D01*
X101832795Y-109740256D01*
X101946063Y-109909774D01*
X102090226Y-110053937D01*
X102259744Y-110167205D01*
X102448102Y-110245226D01*
X102648061Y-110285000D01*
X102851939Y-110285000D01*
X103051898Y-110245226D01*
X103240256Y-110167205D01*
X103409774Y-110053937D01*
X103553937Y-109909774D01*
X103667205Y-109740256D01*
X103745226Y-109551898D01*
X103785000Y-109351939D01*
X103785000Y-109148061D01*
X103745226Y-108948102D01*
X103667205Y-108759744D01*
X103553937Y-108590226D01*
X103409774Y-108446063D01*
X103240256Y-108332795D01*
X103051898Y-108254774D01*
X102851939Y-108215000D01*
X102648061Y-108215000D01*
X102448102Y-108254774D01*
X102259744Y-108332795D01*
X102090226Y-108446063D01*
X101946063Y-108590226D01*
X101832795Y-108759744D01*
X101754774Y-108948102D01*
X101715000Y-109148061D01*
X96837934Y-109148061D01*
X96740256Y-109082795D01*
X96551898Y-109004774D01*
X96351939Y-108965000D01*
X96148061Y-108965000D01*
X95948102Y-109004774D01*
X95759744Y-109082795D01*
X95590226Y-109196063D01*
X95446063Y-109340226D01*
X95332795Y-109509744D01*
X95254774Y-109698102D01*
X95215000Y-109898061D01*
X66660000Y-109898061D01*
X66660000Y-96500000D01*
X81123000Y-96500000D01*
X81123000Y-103500000D01*
X81125669Y-103525902D01*
X81133112Y-103549660D01*
X81145046Y-103571510D01*
X81161013Y-103590611D01*
X81180401Y-103606231D01*
X81202463Y-103617768D01*
X81226351Y-103624779D01*
X81251149Y-103626995D01*
X81275902Y-103624331D01*
X82710920Y-103325369D01*
X82696063Y-103340226D01*
X82582795Y-103509744D01*
X82504774Y-103698102D01*
X82465000Y-103898061D01*
X82465000Y-104101939D01*
X82504774Y-104301898D01*
X82582795Y-104490256D01*
X82696063Y-104659774D01*
X82840226Y-104803937D01*
X83009744Y-104917205D01*
X83198102Y-104995226D01*
X83222103Y-105000000D01*
X83198102Y-105004774D01*
X83009744Y-105082795D01*
X82840226Y-105196063D01*
X82696063Y-105340226D01*
X82582795Y-105509744D01*
X82504774Y-105698102D01*
X82465000Y-105898061D01*
X82465000Y-106101939D01*
X82504774Y-106301898D01*
X82582795Y-106490256D01*
X82696063Y-106659774D01*
X82840226Y-106803937D01*
X83009744Y-106917205D01*
X83198102Y-106995226D01*
X83398061Y-107035000D01*
X83601939Y-107035000D01*
X83801898Y-106995226D01*
X83990256Y-106917205D01*
X84159774Y-106803937D01*
X84303937Y-106659774D01*
X84417205Y-106490256D01*
X84495226Y-106301898D01*
X84535000Y-106101939D01*
X84535000Y-105898061D01*
X84495226Y-105698102D01*
X84417205Y-105509744D01*
X84303937Y-105340226D01*
X84159774Y-105196063D01*
X83990256Y-105082795D01*
X83801898Y-105004774D01*
X83777897Y-105000000D01*
X83801898Y-104995226D01*
X83990256Y-104917205D01*
X84159774Y-104803937D01*
X84303937Y-104659774D01*
X84417205Y-104490256D01*
X84495226Y-104301898D01*
X84535000Y-104101939D01*
X84535000Y-103898061D01*
X84495226Y-103698102D01*
X84417205Y-103509744D01*
X84303937Y-103340226D01*
X84159774Y-103196063D01*
X83990256Y-103082795D01*
X83951778Y-103066857D01*
X93275902Y-101124331D01*
X93298601Y-101117333D01*
X93320557Y-101105597D01*
X93339803Y-101089803D01*
X93355597Y-101070557D01*
X93367333Y-101048601D01*
X93374560Y-101024776D01*
X93377000Y-101000000D01*
X93377000Y-100873061D01*
X129340000Y-100873061D01*
X129340000Y-101076939D01*
X129379774Y-101276898D01*
X129457795Y-101465256D01*
X129472658Y-101487500D01*
X129457795Y-101509744D01*
X129379774Y-101698102D01*
X129340000Y-101898061D01*
X129340000Y-102101939D01*
X129379774Y-102301898D01*
X129457795Y-102490256D01*
X129571063Y-102659774D01*
X129715226Y-102803937D01*
X129884744Y-102917205D01*
X130073102Y-102995226D01*
X130273061Y-103035000D01*
X130476939Y-103035000D01*
X130676898Y-102995226D01*
X130865256Y-102917205D01*
X131034774Y-102803937D01*
X131178937Y-102659774D01*
X131292205Y-102490256D01*
X131370226Y-102301898D01*
X131410000Y-102101939D01*
X131410000Y-101898061D01*
X131370226Y-101698102D01*
X131292205Y-101509744D01*
X131277342Y-101487500D01*
X131292205Y-101465256D01*
X131370226Y-101276898D01*
X131410000Y-101076939D01*
X131410000Y-100873061D01*
X131370226Y-100673102D01*
X131292205Y-100484744D01*
X131178937Y-100315226D01*
X131034774Y-100171063D01*
X130865256Y-100057795D01*
X130676898Y-99979774D01*
X130476939Y-99940000D01*
X130273061Y-99940000D01*
X130073102Y-99979774D01*
X129884744Y-100057795D01*
X129715226Y-100171063D01*
X129571063Y-100315226D01*
X129457795Y-100484744D01*
X129379774Y-100673102D01*
X129340000Y-100873061D01*
X93377000Y-100873061D01*
X93377000Y-100000000D01*
X93374560Y-99975224D01*
X93367333Y-99951399D01*
X93355597Y-99929443D01*
X93339803Y-99910197D01*
X93320557Y-99894403D01*
X93298601Y-99882667D01*
X93274776Y-99875440D01*
X93250000Y-99873000D01*
X85127000Y-99873000D01*
X85127000Y-98398061D01*
X87965000Y-98398061D01*
X87965000Y-98601939D01*
X88004774Y-98801898D01*
X88082795Y-98990256D01*
X88196063Y-99159774D01*
X88340226Y-99303937D01*
X88509744Y-99417205D01*
X88698102Y-99495226D01*
X88898061Y-99535000D01*
X89101939Y-99535000D01*
X89301898Y-99495226D01*
X89490256Y-99417205D01*
X89659774Y-99303937D01*
X89803937Y-99159774D01*
X89917205Y-98990256D01*
X89955393Y-98898061D01*
X98965000Y-98898061D01*
X98965000Y-99101939D01*
X99004774Y-99301898D01*
X99082795Y-99490256D01*
X99196063Y-99659774D01*
X99340226Y-99803937D01*
X99509744Y-99917205D01*
X99698102Y-99995226D01*
X99898061Y-100035000D01*
X100101939Y-100035000D01*
X100301898Y-99995226D01*
X100490256Y-99917205D01*
X100659774Y-99803937D01*
X100803937Y-99659774D01*
X100917205Y-99490256D01*
X100995226Y-99301898D01*
X101035000Y-99101939D01*
X101035000Y-98898061D01*
X100995226Y-98698102D01*
X100917205Y-98509744D01*
X100803937Y-98340226D01*
X100659774Y-98196063D01*
X100490256Y-98082795D01*
X100301898Y-98004774D01*
X100101939Y-97965000D01*
X99898061Y-97965000D01*
X99698102Y-98004774D01*
X99509744Y-98082795D01*
X99340226Y-98196063D01*
X99196063Y-98340226D01*
X99082795Y-98509744D01*
X99004774Y-98698102D01*
X98965000Y-98898061D01*
X89955393Y-98898061D01*
X89995226Y-98801898D01*
X90035000Y-98601939D01*
X90035000Y-98398061D01*
X89995226Y-98198102D01*
X89917205Y-98009744D01*
X89803937Y-97840226D01*
X89659774Y-97696063D01*
X89490256Y-97582795D01*
X89301898Y-97504774D01*
X89101939Y-97465000D01*
X88898061Y-97465000D01*
X88698102Y-97504774D01*
X88509744Y-97582795D01*
X88340226Y-97696063D01*
X88196063Y-97840226D01*
X88082795Y-98009744D01*
X88004774Y-98198102D01*
X87965000Y-98398061D01*
X85127000Y-98398061D01*
X85127000Y-97148061D01*
X104215000Y-97148061D01*
X104215000Y-97351939D01*
X104254774Y-97551898D01*
X104332795Y-97740256D01*
X104446063Y-97909774D01*
X104590226Y-98053937D01*
X104759744Y-98167205D01*
X104948102Y-98245226D01*
X105148061Y-98285000D01*
X105351939Y-98285000D01*
X105551898Y-98245226D01*
X105740256Y-98167205D01*
X105909774Y-98053937D01*
X106040650Y-97923061D01*
X126865000Y-97923061D01*
X126865000Y-98126939D01*
X126904774Y-98326898D01*
X126982795Y-98515256D01*
X127096063Y-98684774D01*
X127240226Y-98828937D01*
X127409744Y-98942205D01*
X127598102Y-99020226D01*
X127798061Y-99060000D01*
X128001939Y-99060000D01*
X128201898Y-99020226D01*
X128390256Y-98942205D01*
X128559774Y-98828937D01*
X128703937Y-98684774D01*
X128817205Y-98515256D01*
X128895226Y-98326898D01*
X128935000Y-98126939D01*
X128935000Y-98123061D01*
X129465000Y-98123061D01*
X129465000Y-98326939D01*
X129504774Y-98526898D01*
X129582795Y-98715256D01*
X129696063Y-98884774D01*
X129840226Y-99028937D01*
X130009744Y-99142205D01*
X130198102Y-99220226D01*
X130398061Y-99260000D01*
X130601939Y-99260000D01*
X130801898Y-99220226D01*
X130990256Y-99142205D01*
X131062500Y-99093933D01*
X131134744Y-99142205D01*
X131323102Y-99220226D01*
X131523061Y-99260000D01*
X131726939Y-99260000D01*
X131926898Y-99220226D01*
X132115256Y-99142205D01*
X132284774Y-99028937D01*
X132428937Y-98884774D01*
X132542205Y-98715256D01*
X132620226Y-98526898D01*
X132660000Y-98326939D01*
X132660000Y-98123061D01*
X132620226Y-97923102D01*
X132542205Y-97734744D01*
X132428937Y-97565226D01*
X132284774Y-97421063D01*
X132115256Y-97307795D01*
X132109324Y-97305338D01*
X132110000Y-97301939D01*
X132110000Y-97098061D01*
X132070226Y-96898102D01*
X131992205Y-96709744D01*
X131878937Y-96540226D01*
X131734774Y-96396063D01*
X131565256Y-96282795D01*
X131376898Y-96204774D01*
X131176939Y-96165000D01*
X130973061Y-96165000D01*
X130773102Y-96204774D01*
X130584744Y-96282795D01*
X130415226Y-96396063D01*
X130271063Y-96540226D01*
X130157795Y-96709744D01*
X130079774Y-96898102D01*
X130040000Y-97098061D01*
X130040000Y-97295262D01*
X130009744Y-97307795D01*
X129840226Y-97421063D01*
X129696063Y-97565226D01*
X129582795Y-97734744D01*
X129504774Y-97923102D01*
X129465000Y-98123061D01*
X128935000Y-98123061D01*
X128935000Y-97923061D01*
X128895226Y-97723102D01*
X128817205Y-97534744D01*
X128703937Y-97365226D01*
X128559774Y-97221063D01*
X128390256Y-97107795D01*
X128201898Y-97029774D01*
X128001939Y-96990000D01*
X127798061Y-96990000D01*
X127598102Y-97029774D01*
X127409744Y-97107795D01*
X127240226Y-97221063D01*
X127096063Y-97365226D01*
X126982795Y-97534744D01*
X126904774Y-97723102D01*
X126865000Y-97923061D01*
X106040650Y-97923061D01*
X106053937Y-97909774D01*
X106167205Y-97740256D01*
X106245226Y-97551898D01*
X106285000Y-97351939D01*
X106285000Y-97148061D01*
X106245226Y-96948102D01*
X106167205Y-96759744D01*
X106053937Y-96590226D01*
X105909774Y-96446063D01*
X105740256Y-96332795D01*
X105551898Y-96254774D01*
X105351939Y-96215000D01*
X105148061Y-96215000D01*
X104948102Y-96254774D01*
X104759744Y-96332795D01*
X104590226Y-96446063D01*
X104446063Y-96590226D01*
X104332795Y-96759744D01*
X104254774Y-96948102D01*
X104215000Y-97148061D01*
X85127000Y-97148061D01*
X85127000Y-96500000D01*
X85124560Y-96475224D01*
X85117333Y-96451399D01*
X85105597Y-96429443D01*
X85089803Y-96410197D01*
X85070557Y-96394403D01*
X85048601Y-96382667D01*
X85024776Y-96375440D01*
X85000000Y-96373000D01*
X81250000Y-96373000D01*
X81225224Y-96375440D01*
X81201399Y-96382667D01*
X81179443Y-96394403D01*
X81160197Y-96410197D01*
X81144403Y-96429443D01*
X81132667Y-96451399D01*
X81125440Y-96475224D01*
X81123000Y-96500000D01*
X66660000Y-96500000D01*
X66660000Y-94398061D01*
X88965000Y-94398061D01*
X88965000Y-94601939D01*
X89004774Y-94801898D01*
X89082795Y-94990256D01*
X89196063Y-95159774D01*
X89340226Y-95303937D01*
X89509744Y-95417205D01*
X89698102Y-95495226D01*
X89898061Y-95535000D01*
X90101939Y-95535000D01*
X90301898Y-95495226D01*
X90490256Y-95417205D01*
X90659774Y-95303937D01*
X90803937Y-95159774D01*
X90917205Y-94990256D01*
X90995226Y-94801898D01*
X91035000Y-94601939D01*
X91035000Y-94398061D01*
X90995226Y-94198102D01*
X90917205Y-94009744D01*
X90803937Y-93840226D01*
X90659774Y-93696063D01*
X90490256Y-93582795D01*
X90301898Y-93504774D01*
X90101939Y-93465000D01*
X89898061Y-93465000D01*
X89698102Y-93504774D01*
X89509744Y-93582795D01*
X89340226Y-93696063D01*
X89196063Y-93840226D01*
X89082795Y-94009744D01*
X89004774Y-94198102D01*
X88965000Y-94398061D01*
X66660000Y-94398061D01*
X66660000Y-91898061D01*
X103965000Y-91898061D01*
X103965000Y-92101939D01*
X104004774Y-92301898D01*
X104082795Y-92490256D01*
X104196063Y-92659774D01*
X104340226Y-92803937D01*
X104509744Y-92917205D01*
X104698102Y-92995226D01*
X104898061Y-93035000D01*
X105101939Y-93035000D01*
X105301898Y-92995226D01*
X105490256Y-92917205D01*
X105659774Y-92803937D01*
X105803937Y-92659774D01*
X105917205Y-92490256D01*
X105995226Y-92301898D01*
X106035000Y-92101939D01*
X106035000Y-91898061D01*
X105995226Y-91698102D01*
X105917205Y-91509744D01*
X105803937Y-91340226D01*
X105659774Y-91196063D01*
X105490256Y-91082795D01*
X105301898Y-91004774D01*
X105101939Y-90965000D01*
X104898061Y-90965000D01*
X104698102Y-91004774D01*
X104509744Y-91082795D01*
X104340226Y-91196063D01*
X104196063Y-91340226D01*
X104082795Y-91509744D01*
X104004774Y-91698102D01*
X103965000Y-91898061D01*
X66660000Y-91898061D01*
X66660000Y-90393137D01*
X67585000Y-90393137D01*
X67585000Y-90606863D01*
X67626696Y-90816483D01*
X67708485Y-91013940D01*
X67827225Y-91191647D01*
X67978353Y-91342775D01*
X68156060Y-91461515D01*
X68353517Y-91543304D01*
X68563137Y-91585000D01*
X68776863Y-91585000D01*
X68986483Y-91543304D01*
X69183940Y-91461515D01*
X69361647Y-91342775D01*
X69512775Y-91191647D01*
X69631515Y-91013940D01*
X69713304Y-90816483D01*
X69755000Y-90606863D01*
X69755000Y-90393137D01*
X69713304Y-90183517D01*
X69631515Y-89986060D01*
X69512775Y-89808353D01*
X69361647Y-89657225D01*
X69183940Y-89538485D01*
X68986483Y-89456696D01*
X68776863Y-89415000D01*
X68563137Y-89415000D01*
X68353517Y-89456696D01*
X68156060Y-89538485D01*
X67978353Y-89657225D01*
X67827225Y-89808353D01*
X67708485Y-89986060D01*
X67626696Y-90183517D01*
X67585000Y-90393137D01*
X66660000Y-90393137D01*
X66660000Y-87393137D01*
X67585000Y-87393137D01*
X67585000Y-87606863D01*
X67626696Y-87816483D01*
X67708485Y-88013940D01*
X67827225Y-88191647D01*
X67978353Y-88342775D01*
X68156060Y-88461515D01*
X68353517Y-88543304D01*
X68563137Y-88585000D01*
X68776863Y-88585000D01*
X68986483Y-88543304D01*
X69183940Y-88461515D01*
X69361647Y-88342775D01*
X69512775Y-88191647D01*
X69631515Y-88013940D01*
X69713304Y-87816483D01*
X69755000Y-87606863D01*
X69755000Y-87393137D01*
X69713304Y-87183517D01*
X69631515Y-86986060D01*
X69512775Y-86808353D01*
X69361647Y-86657225D01*
X69347933Y-86648061D01*
X70715000Y-86648061D01*
X70715000Y-86851939D01*
X70754774Y-87051898D01*
X70832795Y-87240256D01*
X70946063Y-87409774D01*
X71090226Y-87553937D01*
X71259744Y-87667205D01*
X71448102Y-87745226D01*
X71648061Y-87785000D01*
X71851939Y-87785000D01*
X72051898Y-87745226D01*
X72240256Y-87667205D01*
X72409774Y-87553937D01*
X72553937Y-87409774D01*
X72667205Y-87240256D01*
X72745226Y-87051898D01*
X72785000Y-86851939D01*
X72785000Y-86648061D01*
X72745226Y-86448102D01*
X72667205Y-86259744D01*
X72553937Y-86090226D01*
X72409774Y-85946063D01*
X72337934Y-85898061D01*
X91965000Y-85898061D01*
X91965000Y-86101939D01*
X92004774Y-86301898D01*
X92082795Y-86490256D01*
X92196063Y-86659774D01*
X92340226Y-86803937D01*
X92509744Y-86917205D01*
X92698102Y-86995226D01*
X92898061Y-87035000D01*
X93101939Y-87035000D01*
X93301898Y-86995226D01*
X93490256Y-86917205D01*
X93500000Y-86910694D01*
X93509744Y-86917205D01*
X93698102Y-86995226D01*
X93898061Y-87035000D01*
X94101939Y-87035000D01*
X94301898Y-86995226D01*
X94490256Y-86917205D01*
X94659774Y-86803937D01*
X94803937Y-86659774D01*
X94917205Y-86490256D01*
X94955393Y-86398061D01*
X110715000Y-86398061D01*
X110715000Y-86601939D01*
X110754774Y-86801898D01*
X110832795Y-86990256D01*
X110946063Y-87159774D01*
X111090226Y-87303937D01*
X111259744Y-87417205D01*
X111448102Y-87495226D01*
X111648061Y-87535000D01*
X111851939Y-87535000D01*
X112051898Y-87495226D01*
X112240256Y-87417205D01*
X112409774Y-87303937D01*
X112553937Y-87159774D01*
X112667205Y-86990256D01*
X112745226Y-86801898D01*
X112785000Y-86601939D01*
X112785000Y-86398061D01*
X112745226Y-86198102D01*
X112667205Y-86009744D01*
X112553937Y-85840226D01*
X112409774Y-85696063D01*
X112240256Y-85582795D01*
X112051898Y-85504774D01*
X111851939Y-85465000D01*
X111648061Y-85465000D01*
X111448102Y-85504774D01*
X111259744Y-85582795D01*
X111090226Y-85696063D01*
X110946063Y-85840226D01*
X110832795Y-86009744D01*
X110754774Y-86198102D01*
X110715000Y-86398061D01*
X94955393Y-86398061D01*
X94995226Y-86301898D01*
X95035000Y-86101939D01*
X95035000Y-85898061D01*
X94995226Y-85698102D01*
X94917205Y-85509744D01*
X94803937Y-85340226D01*
X94659774Y-85196063D01*
X94490256Y-85082795D01*
X94301898Y-85004774D01*
X94101939Y-84965000D01*
X93898061Y-84965000D01*
X93698102Y-85004774D01*
X93509744Y-85082795D01*
X93500000Y-85089306D01*
X93490256Y-85082795D01*
X93301898Y-85004774D01*
X93101939Y-84965000D01*
X92898061Y-84965000D01*
X92698102Y-85004774D01*
X92509744Y-85082795D01*
X92340226Y-85196063D01*
X92196063Y-85340226D01*
X92082795Y-85509744D01*
X92004774Y-85698102D01*
X91965000Y-85898061D01*
X72337934Y-85898061D01*
X72240256Y-85832795D01*
X72051898Y-85754774D01*
X71851939Y-85715000D01*
X71648061Y-85715000D01*
X71448102Y-85754774D01*
X71259744Y-85832795D01*
X71090226Y-85946063D01*
X70946063Y-86090226D01*
X70832795Y-86259744D01*
X70754774Y-86448102D01*
X70715000Y-86648061D01*
X69347933Y-86648061D01*
X69183940Y-86538485D01*
X68986483Y-86456696D01*
X68776863Y-86415000D01*
X68563137Y-86415000D01*
X68353517Y-86456696D01*
X68156060Y-86538485D01*
X67978353Y-86657225D01*
X67827225Y-86808353D01*
X67708485Y-86986060D01*
X67626696Y-87183517D01*
X67585000Y-87393137D01*
X66660000Y-87393137D01*
X66660000Y-79565032D01*
X68785693Y-79565032D01*
X69289527Y-80152567D01*
X70151735Y-80601564D01*
X71084969Y-80873724D01*
X72053368Y-80958591D01*
X73019716Y-80852901D01*
X73946876Y-80560716D01*
X74710473Y-80152567D01*
X75214307Y-79565032D01*
X72000000Y-76350725D01*
X68785693Y-79565032D01*
X66660000Y-79565032D01*
X66660000Y-76053368D01*
X67041409Y-76053368D01*
X67147099Y-77019716D01*
X67439284Y-77946876D01*
X67847433Y-78710473D01*
X68434968Y-79214307D01*
X71649275Y-76000000D01*
X72350725Y-76000000D01*
X75565032Y-79214307D01*
X76152567Y-78710473D01*
X76185068Y-78648061D01*
X145915000Y-78648061D01*
X145915000Y-78851939D01*
X145954774Y-79051898D01*
X146032795Y-79240256D01*
X146146063Y-79409774D01*
X146290226Y-79553937D01*
X146459744Y-79667205D01*
X146648102Y-79745226D01*
X146848061Y-79785000D01*
X147051939Y-79785000D01*
X147251898Y-79745226D01*
X147440256Y-79667205D01*
X147593169Y-79565032D01*
X161785693Y-79565032D01*
X162289527Y-80152567D01*
X163151735Y-80601564D01*
X164084969Y-80873724D01*
X165053368Y-80958591D01*
X166019716Y-80852901D01*
X166946876Y-80560716D01*
X167710473Y-80152567D01*
X168214307Y-79565032D01*
X165000000Y-76350725D01*
X161785693Y-79565032D01*
X147593169Y-79565032D01*
X147609774Y-79553937D01*
X147753937Y-79409774D01*
X147867205Y-79240256D01*
X147945226Y-79051898D01*
X147985000Y-78851939D01*
X147985000Y-78648061D01*
X147945226Y-78448102D01*
X147867205Y-78259744D01*
X147753937Y-78090226D01*
X147609774Y-77946063D01*
X147440256Y-77832795D01*
X147251898Y-77754774D01*
X147051939Y-77715000D01*
X146848061Y-77715000D01*
X146648102Y-77754774D01*
X146459744Y-77832795D01*
X146290226Y-77946063D01*
X146146063Y-78090226D01*
X146032795Y-78259744D01*
X145954774Y-78448102D01*
X145915000Y-78648061D01*
X76185068Y-78648061D01*
X76601564Y-77848265D01*
X76873724Y-76915031D01*
X76958591Y-75946632D01*
X76852901Y-74980284D01*
X76741533Y-74626890D01*
X81250048Y-74626890D01*
X81250048Y-74873110D01*
X81298083Y-75114598D01*
X81392307Y-75342074D01*
X81529099Y-75546798D01*
X81703202Y-75720901D01*
X81907926Y-75857693D01*
X82135402Y-75951917D01*
X82376890Y-75999952D01*
X82623110Y-75999952D01*
X82864598Y-75951917D01*
X83092074Y-75857693D01*
X83296798Y-75720901D01*
X83470901Y-75546798D01*
X83562325Y-75409972D01*
X90227194Y-75409972D01*
X90278056Y-75606438D01*
X90366269Y-75789206D01*
X90488444Y-75951253D01*
X90639885Y-76086351D01*
X90814772Y-76189308D01*
X90847860Y-76203682D01*
X91002000Y-76090423D01*
X91002000Y-75248000D01*
X90373511Y-75248000D01*
X90227194Y-75409972D01*
X83562325Y-75409972D01*
X83607693Y-75342074D01*
X83701917Y-75114598D01*
X83749952Y-74873110D01*
X83749952Y-74626890D01*
X83742620Y-74590028D01*
X90227194Y-74590028D01*
X90373511Y-74752000D01*
X91002000Y-74752000D01*
X91002000Y-74699162D01*
X91465000Y-74699162D01*
X91465000Y-75300837D01*
X91479976Y-75452894D01*
X91498000Y-75512310D01*
X91498000Y-76090423D01*
X91652140Y-76203682D01*
X91685228Y-76189308D01*
X91860115Y-76086351D01*
X91873293Y-76074595D01*
X91922203Y-76114734D01*
X92102007Y-76210841D01*
X92297105Y-76270024D01*
X92500000Y-76290007D01*
X92702894Y-76270024D01*
X92897992Y-76210841D01*
X93077797Y-76114734D01*
X93125000Y-76075996D01*
X93172203Y-76114734D01*
X93352007Y-76210841D01*
X93547105Y-76270024D01*
X93736753Y-76288702D01*
X93715000Y-76398061D01*
X93715000Y-76601939D01*
X93754774Y-76801898D01*
X93832795Y-76990256D01*
X93946063Y-77159774D01*
X94090226Y-77303937D01*
X94259744Y-77417205D01*
X94448102Y-77495226D01*
X94648061Y-77535000D01*
X94851939Y-77535000D01*
X95051898Y-77495226D01*
X95240256Y-77417205D01*
X95409774Y-77303937D01*
X95553937Y-77159774D01*
X95667205Y-76990256D01*
X95745226Y-76801898D01*
X95785000Y-76601939D01*
X95785000Y-76398061D01*
X95745226Y-76198102D01*
X95709178Y-76111074D01*
X95779492Y-76053368D01*
X160041409Y-76053368D01*
X160147099Y-77019716D01*
X160439284Y-77946876D01*
X160847433Y-78710473D01*
X161434968Y-79214307D01*
X164649275Y-76000000D01*
X165350725Y-76000000D01*
X168565032Y-79214307D01*
X169152567Y-78710473D01*
X169601564Y-77848265D01*
X169873724Y-76915031D01*
X169958591Y-75946632D01*
X169852901Y-74980284D01*
X169560716Y-74053124D01*
X169152567Y-73289527D01*
X168565032Y-72785693D01*
X165350725Y-76000000D01*
X164649275Y-76000000D01*
X161434968Y-72785693D01*
X160847433Y-73289527D01*
X160398436Y-74151735D01*
X160126276Y-75084969D01*
X160041409Y-76053368D01*
X95779492Y-76053368D01*
X95792606Y-76042606D01*
X95896831Y-75915608D01*
X95974278Y-75770716D01*
X96021969Y-75613500D01*
X96038072Y-75450000D01*
X96038072Y-74626890D01*
X152874048Y-74626890D01*
X152874048Y-74873110D01*
X152922083Y-75114598D01*
X153016307Y-75342074D01*
X153153099Y-75546798D01*
X153327202Y-75720901D01*
X153531926Y-75857693D01*
X153759402Y-75951917D01*
X154000890Y-75999952D01*
X154247110Y-75999952D01*
X154488598Y-75951917D01*
X154716074Y-75857693D01*
X154920798Y-75720901D01*
X155094901Y-75546798D01*
X155231693Y-75342074D01*
X155325917Y-75114598D01*
X155373952Y-74873110D01*
X155373952Y-74626890D01*
X155325917Y-74385402D01*
X155231693Y-74157926D01*
X155094901Y-73953202D01*
X154920798Y-73779099D01*
X154716074Y-73642307D01*
X154488598Y-73548083D01*
X154247110Y-73500048D01*
X154000890Y-73500048D01*
X153759402Y-73548083D01*
X153531926Y-73642307D01*
X153327202Y-73779099D01*
X153153099Y-73953202D01*
X153016307Y-74157926D01*
X152922083Y-74385402D01*
X152874048Y-74626890D01*
X96038072Y-74626890D01*
X96038072Y-74550000D01*
X96021969Y-74386500D01*
X95974278Y-74229284D01*
X95896831Y-74084392D01*
X95792606Y-73957394D01*
X95665608Y-73853169D01*
X95520716Y-73775722D01*
X95363500Y-73728031D01*
X95200000Y-73711928D01*
X94800000Y-73711928D01*
X94636500Y-73728031D01*
X94479284Y-73775722D01*
X94334392Y-73853169D01*
X94308106Y-73874741D01*
X94147993Y-73789159D01*
X93952895Y-73729976D01*
X93750000Y-73709993D01*
X93547106Y-73729976D01*
X93352008Y-73789159D01*
X93172204Y-73885266D01*
X93125000Y-73924005D01*
X93077797Y-73885266D01*
X92897993Y-73789159D01*
X92702895Y-73729976D01*
X92500000Y-73709993D01*
X92297106Y-73729976D01*
X92102008Y-73789159D01*
X91922204Y-73885266D01*
X91873294Y-73925406D01*
X91860115Y-73913649D01*
X91685228Y-73810692D01*
X91652140Y-73796318D01*
X91498000Y-73909577D01*
X91498000Y-74487689D01*
X91479976Y-74547105D01*
X91465000Y-74699162D01*
X91002000Y-74699162D01*
X91002000Y-73909577D01*
X90847860Y-73796318D01*
X90814772Y-73810692D01*
X90639885Y-73913649D01*
X90488444Y-74048747D01*
X90366269Y-74210794D01*
X90278056Y-74393562D01*
X90227194Y-74590028D01*
X83742620Y-74590028D01*
X83701917Y-74385402D01*
X83607693Y-74157926D01*
X83470901Y-73953202D01*
X83296798Y-73779099D01*
X83092074Y-73642307D01*
X82864598Y-73548083D01*
X82623110Y-73500048D01*
X82376890Y-73500048D01*
X82135402Y-73548083D01*
X81907926Y-73642307D01*
X81703202Y-73779099D01*
X81529099Y-73953202D01*
X81392307Y-74157926D01*
X81298083Y-74385402D01*
X81250048Y-74626890D01*
X76741533Y-74626890D01*
X76560716Y-74053124D01*
X76152567Y-73289527D01*
X75565032Y-72785693D01*
X72350725Y-76000000D01*
X71649275Y-76000000D01*
X68434968Y-72785693D01*
X67847433Y-73289527D01*
X67398436Y-74151735D01*
X67126276Y-75084969D01*
X67041409Y-76053368D01*
X66660000Y-76053368D01*
X66660000Y-76027089D01*
X66733902Y-75128203D01*
X66947001Y-74279818D01*
X67295803Y-73477629D01*
X67770938Y-72743182D01*
X68051391Y-72434968D01*
X68785693Y-72434968D01*
X72000000Y-75649275D01*
X75214307Y-72434968D01*
X161785693Y-72434968D01*
X165000000Y-75649275D01*
X168214307Y-72434968D01*
X167710473Y-71847433D01*
X166848265Y-71398436D01*
X165915031Y-71126276D01*
X164946632Y-71041409D01*
X163980284Y-71147099D01*
X163053124Y-71439284D01*
X162289527Y-71847433D01*
X161785693Y-72434968D01*
X75214307Y-72434968D01*
X74710473Y-71847433D01*
X73848265Y-71398436D01*
X72915031Y-71126276D01*
X71946632Y-71041409D01*
X70980284Y-71147099D01*
X70053124Y-71439284D01*
X69289527Y-71847433D01*
X68785693Y-72434968D01*
X68051391Y-72434968D01*
X68359646Y-72096202D01*
X69046125Y-71554054D01*
X69811928Y-71131308D01*
X70636491Y-70839316D01*
X71509076Y-70683884D01*
X72015547Y-70660000D01*
X164972911Y-70660000D01*
X165871797Y-70733902D01*
G37*
%TD.AperFunction*%
%TD*%
M02*
