G04*
G04 #@! TF.GenerationSoftware,Altium Limited,Altium Designer,21.2.2 (38)*
G04*
G04 Layer_Physical_Order=1*
G04 Layer_Color=255*
%FSLAX25Y25*%
%MOIN*%
G70*
G04*
G04 #@! TF.SameCoordinates,A6081B22-79F4-4FF1-9526-7A4968917333*
G04*
G04*
G04 #@! TF.FilePolarity,Positive*
G04*
G01*
G75*
%ADD14R,0.08477X0.02292*%
G04:AMPARAMS|DCode=15|XSize=84.77mil|YSize=22.92mil|CornerRadius=11.46mil|HoleSize=0mil|Usage=FLASHONLY|Rotation=0.000|XOffset=0mil|YOffset=0mil|HoleType=Round|Shape=RoundedRectangle|*
%AMROUNDEDRECTD15*
21,1,0.08477,0.00000,0,0,0.0*
21,1,0.06185,0.02292,0,0,0.0*
1,1,0.02292,0.03093,0.00000*
1,1,0.02292,-0.03093,0.00000*
1,1,0.02292,-0.03093,0.00000*
1,1,0.02292,0.03093,0.00000*
%
%ADD15ROUNDEDRECTD15*%
%ADD16R,0.11595X0.19488*%
%ADD17R,0.03543X0.03150*%
%ADD18R,0.06299X0.02362*%
%ADD19R,0.03543X0.02756*%
%ADD20R,0.01181X0.03150*%
%ADD21R,0.05140X0.06922*%
%ADD22R,0.05315X0.04134*%
%ADD23R,0.06693X0.03642*%
%ADD24R,0.09055X0.12205*%
%ADD32C,0.01968*%
%ADD33R,0.07087X0.07087*%
%ADD34C,0.07087*%
%ADD35C,0.02362*%
G36*
X83661Y111221D02*
X100394D01*
Y78740D01*
X77854D01*
Y79232D01*
X76492D01*
Y79233D01*
X72835D01*
Y80709D01*
X70866D01*
Y83776D01*
X69177D01*
Y79232D01*
X66650D01*
Y83776D01*
X64961D01*
Y80709D01*
X61024D01*
Y83776D01*
X59335D01*
Y79232D01*
X56807D01*
Y83776D01*
X55118D01*
Y80709D01*
X51181D01*
Y83776D01*
X49492D01*
Y79232D01*
X48327D01*
Y79232D01*
X46965D01*
Y83776D01*
X45276D01*
Y80709D01*
X43307D01*
Y79233D01*
X39650D01*
Y79232D01*
X38287D01*
Y78740D01*
X1969D01*
X1969Y109252D01*
X70866Y109252D01*
X70866Y116686D01*
X83661D01*
Y111221D01*
D02*
G37*
G36*
X156496Y58071D02*
X152009D01*
X151790Y58114D01*
X151772Y58126D01*
Y59055D01*
X150409D01*
Y59055D01*
X147638D01*
X144866D01*
Y59055D01*
X143504D01*
Y58126D01*
X143421Y58071D01*
X131890D01*
Y56150D01*
X131653Y56102D01*
X129724D01*
X129456Y56602D01*
X129628Y56860D01*
X129795Y57697D01*
X129628Y58534D01*
X129154Y59244D01*
X128444Y59718D01*
X127607Y59885D01*
X126483D01*
Y57697D01*
X122546D01*
Y59885D01*
X122047D01*
Y60977D01*
X124016D01*
X124248Y61024D01*
X126969D01*
Y115157D01*
X156496D01*
Y58071D01*
D02*
G37*
G36*
X150069Y56368D02*
X150850Y55846D01*
X151575Y55702D01*
Y52165D01*
Y51181D01*
X128018D01*
X127986Y51185D01*
X127607Y51235D01*
X122047D01*
Y53827D01*
X127449D01*
X128208Y53727D01*
X128342Y53736D01*
X128552Y53694D01*
X128552Y53694D01*
X128552D01*
X131890D01*
X132811Y53877D01*
X132901Y53937D01*
X144685D01*
Y56019D01*
X145207Y56368D01*
X145393Y56647D01*
X149882D01*
X150069Y56368D01*
D02*
G37*
G36*
X108268Y46235D02*
X102708D01*
X101793Y46115D01*
X101251Y45891D01*
X93504Y45703D01*
Y42323D01*
X72260D01*
Y44333D01*
X67913D01*
X63567D01*
Y42323D01*
X62008D01*
Y20669D01*
X1969D01*
Y49213D01*
X101279D01*
Y53009D01*
X101348Y53032D01*
X101585Y53240D01*
X101615Y53260D01*
X101672Y53288D01*
X101774Y53366D01*
X101847Y53415D01*
X101857Y53430D01*
X102005Y53543D01*
X108268D01*
Y46235D01*
D02*
G37*
G36*
X127894Y48768D02*
X128391Y48562D01*
X128391Y48562D01*
X128760Y48489D01*
X129313Y48379D01*
X129313Y48379D01*
X151575D01*
X151807Y48425D01*
X157480D01*
Y40945D01*
X157087Y40551D01*
X148425D01*
Y46457D01*
X122047D01*
Y48827D01*
X127449D01*
X127894Y48768D01*
D02*
G37*
G36*
X139764Y24606D02*
X128937D01*
Y28543D01*
X139764D01*
Y24606D01*
D02*
G37*
G36*
X145669Y35433D02*
X158465Y35433D01*
Y22638D01*
X142717D01*
Y28543D01*
X142520Y35433D01*
X130709D01*
Y41339D01*
X122304D01*
X122047Y41732D01*
Y44048D01*
X145669D01*
Y35433D01*
D02*
G37*
G36*
X187008Y1969D02*
X162402D01*
Y2190D01*
X162180Y1969D01*
X110630D01*
Y34252D01*
Y39619D01*
X110662Y39632D01*
X111395Y40195D01*
X111941Y40906D01*
X112548Y40654D01*
X113422Y40539D01*
X113663Y40571D01*
X113944Y39892D01*
X114481Y39193D01*
X115180Y38656D01*
X115994Y38319D01*
X116867Y38204D01*
X117741Y38319D01*
X118555Y38656D01*
X119254Y39193D01*
X119614Y39662D01*
X119652Y39632D01*
X120079Y39456D01*
Y34449D01*
X125984D01*
Y13780D01*
X162402Y13780D01*
Y118110D01*
X124016D01*
Y63386D01*
X118582D01*
X118512Y59846D01*
X118082Y59483D01*
X117808Y59597D01*
X116934Y59712D01*
X116060Y59597D01*
X115246Y59259D01*
X114547Y58723D01*
X114546Y58721D01*
X113892Y59222D01*
X113078Y59560D01*
X112205Y59675D01*
X111331Y59560D01*
X111046Y59441D01*
X110630Y59719D01*
Y63386D01*
X109252D01*
Y59843D01*
X106301D01*
Y57697D01*
X105801D01*
Y57197D01*
X100562D01*
Y55551D01*
X100247Y55242D01*
X100135Y55130D01*
X100114Y55118D01*
X90551D01*
Y52165D01*
X2085D01*
X1878Y52665D01*
X1969Y52756D01*
Y76332D01*
X38287D01*
Y76279D01*
X39650D01*
Y75303D01*
X46965D01*
Y76279D01*
X48130D01*
Y76279D01*
X49492D01*
Y75303D01*
X53150D01*
X56807D01*
Y76279D01*
X59335D01*
Y75303D01*
X62992D01*
X66650D01*
Y76279D01*
X69177D01*
Y75303D01*
X72835D01*
X76492D01*
Y76279D01*
X77854D01*
Y76332D01*
X84101D01*
X84646Y75787D01*
Y63976D01*
X105118D01*
Y119095D01*
X67913D01*
Y112205D01*
X1969D01*
Y147638D01*
X187008D01*
Y1969D01*
D02*
G37*
%LPC*%
G36*
X19685Y104346D02*
Y102205D01*
X21826D01*
X21352Y103026D01*
X20506Y103872D01*
X19685Y104346D01*
D02*
G37*
G36*
X15748D02*
X14927Y103872D01*
X14081Y103026D01*
X13607Y102205D01*
X15748D01*
Y104346D01*
D02*
G37*
G36*
X99681Y110153D02*
X94852D01*
Y101378D01*
X99681D01*
Y110153D01*
D02*
G37*
G36*
X90915D02*
X86087D01*
Y101378D01*
X90915D01*
Y110153D01*
D02*
G37*
G36*
X21826Y98268D02*
X19685D01*
Y96127D01*
X20506Y96601D01*
X21352Y97447D01*
X21826Y98268D01*
D02*
G37*
G36*
X15748D02*
X13607D01*
X14081Y97447D01*
X14927Y96601D01*
X15748Y96127D01*
Y98268D01*
D02*
G37*
G36*
X99681Y97441D02*
X94852D01*
Y88665D01*
X99681D01*
Y97441D01*
D02*
G37*
G36*
X90915D02*
X86087D01*
Y88665D01*
X90915D01*
Y97441D01*
D02*
G37*
G36*
X41339Y83776D02*
X39650D01*
Y82677D01*
X41339D01*
Y83776D01*
D02*
G37*
G36*
X76492Y83776D02*
X74803D01*
Y82677D01*
X76492D01*
Y83776D01*
D02*
G37*
G36*
X142260Y110153D02*
X137431D01*
Y101378D01*
X142260D01*
Y110153D01*
D02*
G37*
G36*
X133494D02*
X128665D01*
Y101378D01*
X133494D01*
Y110153D01*
D02*
G37*
G36*
X142260Y97441D02*
X137431D01*
Y88665D01*
X142260D01*
Y97441D01*
D02*
G37*
G36*
X133494D02*
X128665D01*
Y88665D01*
X133494D01*
Y97441D01*
D02*
G37*
G36*
X150409Y63598D02*
X149606D01*
Y62992D01*
X150409D01*
Y63598D01*
D02*
G37*
G36*
X145669D02*
X144866D01*
Y62992D01*
X145669D01*
Y63598D01*
D02*
G37*
G36*
X88795Y47260D02*
X85146D01*
Y45579D01*
X88795D01*
Y47260D01*
D02*
G37*
G36*
X84146D02*
X80496D01*
Y45579D01*
X84146D01*
Y47260D01*
D02*
G37*
G36*
X72260Y47653D02*
X68413D01*
Y45333D01*
X72260D01*
Y47653D01*
D02*
G37*
G36*
X67413D02*
X63567D01*
Y45333D01*
X67413D01*
Y47653D01*
D02*
G37*
G36*
X88795Y44579D02*
X85146D01*
Y42898D01*
X88795D01*
Y44579D01*
D02*
G37*
G36*
X84146D02*
X80496D01*
Y42898D01*
X84146D01*
Y44579D01*
D02*
G37*
G36*
X19685Y41354D02*
Y39213D01*
X21826D01*
X21352Y40034D01*
X20506Y40880D01*
X19685Y41354D01*
D02*
G37*
G36*
X15748D02*
X14927Y40880D01*
X14081Y40034D01*
X13607Y39213D01*
X15748D01*
Y41354D01*
D02*
G37*
G36*
X21826Y35276D02*
X19685D01*
Y33134D01*
X20506Y33609D01*
X21352Y34455D01*
X21826Y35276D01*
D02*
G37*
G36*
X15748D02*
X13607D01*
X14081Y34455D01*
X14927Y33609D01*
X15748Y33134D01*
Y35276D01*
D02*
G37*
G36*
X22260Y124779D02*
X19685D01*
Y122205D01*
X22260D01*
Y124779D01*
D02*
G37*
G36*
X15748D02*
X13173D01*
Y122205D01*
X15748D01*
Y124779D01*
D02*
G37*
G36*
X22260Y118268D02*
X19685D01*
Y115693D01*
X22260D01*
Y118268D01*
D02*
G37*
G36*
X15748D02*
X13173D01*
Y115693D01*
X15748D01*
Y118268D01*
D02*
G37*
G36*
X46965Y74303D02*
X43807D01*
Y71736D01*
X46965D01*
Y74303D01*
D02*
G37*
G36*
X42807D02*
X39650D01*
Y71736D01*
X42807D01*
Y74303D01*
D02*
G37*
G36*
X76492Y74303D02*
X73335D01*
Y71736D01*
X76492D01*
Y74303D01*
D02*
G37*
G36*
X72335D02*
X69177D01*
Y71736D01*
X72335D01*
Y74303D01*
D02*
G37*
G36*
X66650D02*
X63492D01*
Y71736D01*
X66650D01*
Y74303D01*
D02*
G37*
G36*
X62492D02*
X59335D01*
Y71736D01*
X62492D01*
Y74303D01*
D02*
G37*
G36*
X56807D02*
X53650D01*
Y71736D01*
X56807D01*
Y74303D01*
D02*
G37*
G36*
X52650D02*
X49492D01*
Y71736D01*
X52650D01*
Y74303D01*
D02*
G37*
G36*
X22260Y61787D02*
X19685D01*
Y59213D01*
X22260D01*
Y61787D01*
D02*
G37*
G36*
X15748D02*
X13173D01*
Y59213D01*
X15748D01*
Y61787D01*
D02*
G37*
G36*
X105301Y59843D02*
X100562D01*
Y58197D01*
X105301D01*
Y59843D01*
D02*
G37*
G36*
X72260Y58382D02*
X68413D01*
Y56061D01*
X72260D01*
Y58382D01*
D02*
G37*
G36*
X67413D02*
X63567D01*
Y56061D01*
X67413D01*
Y58382D01*
D02*
G37*
G36*
X88795Y57496D02*
X85146D01*
Y55815D01*
X88795D01*
Y57496D01*
D02*
G37*
G36*
X84146D02*
X80496D01*
Y55815D01*
X84146D01*
Y57496D01*
D02*
G37*
G36*
X88795Y54815D02*
X85146D01*
Y53134D01*
X88795D01*
Y54815D01*
D02*
G37*
G36*
X84146D02*
X80496D01*
Y53134D01*
X84146D01*
Y54815D01*
D02*
G37*
G36*
X72260Y55061D02*
X68413D01*
Y52740D01*
X72260D01*
Y55061D01*
D02*
G37*
G36*
X67413D02*
X63567D01*
Y52740D01*
X67413D01*
Y55061D01*
D02*
G37*
G36*
X22260Y55276D02*
X19685D01*
Y52701D01*
X22260D01*
Y55276D01*
D02*
G37*
G36*
X15748D02*
X13173D01*
Y52701D01*
X15748D01*
Y55276D01*
D02*
G37*
%LPD*%
D14*
X105801Y57697D02*
D03*
D15*
Y52697D02*
D03*
Y47697D02*
D03*
Y42697D02*
D03*
X124514D02*
D03*
Y47697D02*
D03*
Y52697D02*
D03*
Y57697D02*
D03*
D16*
X135463Y99410D02*
D03*
X92884D02*
D03*
D17*
X147638Y61024D02*
D03*
Y55118D02*
D03*
D18*
X84646Y55315D02*
D03*
Y45079D02*
D03*
D19*
X155512Y18701D02*
D03*
Y24606D02*
D03*
D20*
X143307Y26575D02*
D03*
X138189D02*
D03*
X129921Y26575D02*
D03*
X124803D02*
D03*
D21*
X164868Y44291D02*
D03*
X154030D02*
D03*
D22*
X72835Y80709D02*
D03*
Y74803D02*
D03*
X53150Y80709D02*
D03*
Y74803D02*
D03*
X62992Y80709D02*
D03*
Y74803D02*
D03*
X43307Y74803D02*
D03*
Y80709D02*
D03*
D23*
X67913Y55561D02*
D03*
Y44833D02*
D03*
D24*
X115157Y50197D02*
D03*
D32*
X116867Y46206D02*
Y50873D01*
Y41580D02*
Y46206D01*
X113422Y43915D02*
Y46288D01*
X115157Y48024D01*
Y50197D01*
X113413Y48946D02*
X113906D01*
X115157Y50197D01*
X113054Y52300D02*
X115157Y50197D01*
X115848Y50888D01*
X112205Y53150D02*
Y56299D01*
X115848Y50888D02*
X116535Y51575D01*
X112205Y53150D02*
X113054Y52300D01*
X113581Y52827D01*
X116350Y51390D02*
X116867Y50873D01*
X115157Y48024D02*
X116976Y46206D01*
X116535Y51575D02*
X116934Y51973D01*
Y56336D01*
X150591Y18701D02*
X155512D01*
X155512Y18701D01*
D33*
X17717Y120236D02*
D03*
Y57244D02*
D03*
D34*
Y100236D02*
D03*
Y37244D02*
D03*
D35*
X113779Y39567D02*
D03*
X113422Y43915D02*
D03*
X113413Y48946D02*
D03*
X113581Y52827D02*
D03*
X116867Y41580D02*
D03*
X116976Y46206D02*
D03*
X116929Y51181D02*
D03*
X116934Y56336D02*
D03*
X112205Y56299D02*
D03*
X150591Y18701D02*
D03*
M02*
