G04*
G04 #@! TF.GenerationSoftware,Altium Limited,Altium Designer,21.2.2 (38)*
G04*
G04 Layer_Physical_Order=2*
G04 Layer_Color=16711680*
%FSLAX25Y25*%
%MOIN*%
G70*
G04*
G04 #@! TF.SameCoordinates,A6081B22-79F4-4FF1-9526-7A4968917333*
G04*
G04*
G04 #@! TF.FilePolarity,Positive*
G04*
G01*
G75*
%ADD33R,0.07087X0.07087*%
%ADD34C,0.07087*%
%ADD35C,0.02362*%
%ADD36C,0.03937*%
G36*
X185039Y110236D02*
Y27559D01*
X39370D01*
Y110236D01*
X3937D01*
Y145669D01*
X185039D01*
Y110236D01*
D02*
G37*
D33*
X17717Y120236D02*
D03*
Y57244D02*
D03*
D34*
Y100236D02*
D03*
Y37244D02*
D03*
D35*
X113779Y39567D02*
D03*
X113422Y43915D02*
D03*
X113413Y48946D02*
D03*
X113581Y52827D02*
D03*
X116867Y41580D02*
D03*
X116976Y46206D02*
D03*
X116929Y51181D02*
D03*
X116934Y56336D02*
D03*
X112205Y56299D02*
D03*
X150591Y18701D02*
D03*
D36*
Y8212D02*
Y18701D01*
X148284Y5906D02*
X150591Y8212D01*
X31496Y11811D02*
X37402Y5906D01*
X148284D01*
X31496Y11811D02*
Y98088D01*
X29190Y100394D02*
X31496Y98088D01*
X17717Y100236D02*
X17874Y100394D01*
X29190D01*
M02*
