G04*
G04 #@! TF.GenerationSoftware,Altium Limited,Altium Designer,21.2.2 (38)*
G04*
G04 Layer_Color=65535*
%FSLAX25Y25*%
%MOIN*%
G70*
G04*
G04 #@! TF.SameCoordinates,A6081B22-79F4-4FF1-9526-7A4968917333*
G04*
G04*
G04 #@! TF.FilePolarity,Positive*
G04*
G01*
G75*
%ADD10C,0.00984*%
%ADD11C,0.00787*%
%ADD12C,0.00394*%
D10*
X99705Y57697D02*
X98966Y58123D01*
Y57271D01*
X99705Y57697D01*
D11*
X1771Y90237D02*
X33661D01*
X1771Y130236D02*
X33661D01*
X1771Y90237D02*
Y130236D01*
X33661Y90237D02*
Y130236D01*
X112205Y59842D02*
X118110D01*
X112205Y40551D02*
X118110D01*
X87205Y74016D02*
X141142D01*
X87205Y110630D02*
Y124803D01*
Y74016D02*
Y88189D01*
Y124803D02*
X141142D01*
Y110630D02*
Y124803D01*
Y74016D02*
Y88189D01*
X150984Y54724D02*
Y61417D01*
X144291Y54724D02*
Y61417D01*
X80146Y42697D02*
Y57697D01*
Y42697D02*
X89146D01*
Y57697D01*
X80146D02*
X89146D01*
X154134Y20866D02*
Y22441D01*
X156890Y20866D02*
Y22441D01*
X134350Y22638D02*
Y30512D01*
X146949D01*
Y22638D02*
Y30512D01*
X134350Y22638D02*
X146949D01*
X120965Y22638D02*
Y30512D01*
X133563D01*
Y22638D02*
Y30512D01*
X120965Y22638D02*
X133563D01*
X157781Y47752D02*
X161117D01*
X157781Y40830D02*
X161117D01*
X1771Y27244D02*
X33661D01*
X1771Y67244D02*
X33661D01*
X1771Y27244D02*
Y67244D01*
X33661Y27244D02*
Y67244D01*
X71457Y48130D02*
Y52264D01*
X64370Y48130D02*
Y52264D01*
D12*
X88845Y4724D02*
X88320D01*
X88582D01*
Y3412D01*
X88320Y3150D01*
X88058D01*
X87795Y3412D01*
X89370Y4724D02*
Y3150D01*
X90419D01*
X91993Y4462D02*
X91731Y4724D01*
X91206D01*
X90944Y4462D01*
Y3412D01*
X91206Y3150D01*
X91731D01*
X91993Y3412D01*
X93568Y4724D02*
X93043D01*
X93305D01*
Y3412D01*
X93043Y3150D01*
X92781D01*
X92518Y3412D01*
X94092Y4724D02*
Y3150D01*
X95142D01*
X96716Y4462D02*
X96454Y4724D01*
X95929D01*
X95667Y4462D01*
Y3412D01*
X95929Y3150D01*
X96454D01*
X96716Y3412D01*
X98290Y4724D02*
X97766D01*
X98028D01*
Y3412D01*
X97766Y3150D01*
X97503D01*
X97241Y3412D01*
X98815Y4724D02*
Y3150D01*
X99865D01*
X101439Y4462D02*
X101177Y4724D01*
X100652D01*
X100390Y4462D01*
Y3412D01*
X100652Y3150D01*
X101177D01*
X101439Y3412D01*
X103013Y4724D02*
X102489D01*
X102751D01*
Y3412D01*
X102489Y3150D01*
X102226D01*
X101964Y3412D01*
X103538Y4724D02*
Y3150D01*
X104588D01*
X106162Y4462D02*
X105900Y4724D01*
X105375D01*
X105113Y4462D01*
Y3412D01*
X105375Y3150D01*
X105900D01*
X106162Y3412D01*
X6299Y18110D02*
X4987D01*
X4331Y17454D01*
X4987Y16798D01*
X6299D01*
Y16142D02*
Y15486D01*
Y15814D01*
X4331D01*
Y16142D01*
Y15486D01*
Y14502D02*
X6299D01*
X4331Y13191D01*
X6299D01*
X87303Y17814D02*
Y15846D01*
X88287D01*
X88615Y16174D01*
Y16502D01*
X88287Y16830D01*
X87303D01*
X88287D01*
X88615Y17158D01*
Y17486D01*
X88287Y17814D01*
X87303D01*
X89271D02*
Y16174D01*
X89599Y15846D01*
X90255D01*
X90583Y16174D01*
Y17814D01*
X92551Y17486D02*
X92223Y17814D01*
X91567D01*
X91239Y17486D01*
Y16174D01*
X91567Y15846D01*
X92223D01*
X92551Y16174D01*
X93207Y17814D02*
Y15846D01*
Y16502D01*
X94519Y17814D01*
X93535Y16830D01*
X94519Y15846D01*
X99110Y17158D02*
X99766Y15846D01*
X100422Y17158D01*
X101078Y17486D02*
X101406Y17814D01*
X102062D01*
X102390Y17486D01*
Y16174D01*
X102062Y15846D01*
X101406D01*
X101078Y16174D01*
Y17486D01*
X103046Y15846D02*
Y16174D01*
X103374D01*
Y15846D01*
X103046D01*
X104686D02*
X105342D01*
X105014D01*
Y17814D01*
X104686Y17486D01*
X72741Y22965D02*
X72282Y23424D01*
X71363D01*
X70904Y22965D01*
Y22506D01*
X71363Y22047D01*
X72282D01*
X72741Y21588D01*
Y21128D01*
X72282Y20669D01*
X71363D01*
X70904Y21128D01*
X73659Y23424D02*
X75496D01*
X74577D01*
Y20669D01*
X76414D02*
Y22506D01*
X77333Y23424D01*
X78251Y22506D01*
Y20669D01*
Y22047D01*
X76414D01*
X81006Y22965D02*
X80547Y23424D01*
X79628D01*
X79169Y22965D01*
Y22506D01*
X79628Y22047D01*
X80547D01*
X81006Y21588D01*
Y21128D01*
X80547Y20669D01*
X79628D01*
X79169Y21128D01*
X81924Y23424D02*
X82843D01*
X82383D01*
Y20669D01*
X81924D01*
X82843D01*
X84220D02*
Y23424D01*
X86057Y20669D01*
Y23424D01*
X88353D02*
X87434D01*
X86975Y22965D01*
Y21128D01*
X87434Y20669D01*
X88353D01*
X88812Y21128D01*
Y22965D01*
X88353Y23424D01*
X91567Y22965D02*
X91108Y23424D01*
X90189D01*
X89730Y22965D01*
Y22506D01*
X90189Y22047D01*
X91108D01*
X91567Y21588D01*
Y21128D01*
X91108Y20669D01*
X90189D01*
X89730Y21128D01*
X95240Y23424D02*
Y20669D01*
X97077D01*
X97995D02*
Y22506D01*
X98914Y23424D01*
X99832Y22506D01*
Y20669D01*
Y22047D01*
X97995D01*
X100750Y23424D02*
Y20669D01*
X102128D01*
X102587Y21128D01*
Y21588D01*
X102128Y22047D01*
X100750D01*
X102128D01*
X102587Y22506D01*
Y22965D01*
X102128Y23424D01*
X100750D01*
X105342Y22965D02*
X104883Y23424D01*
X103964D01*
X103505Y22965D01*
Y22506D01*
X103964Y22047D01*
X104883D01*
X105342Y21588D01*
Y21128D01*
X104883Y20669D01*
X103964D01*
X103505Y21128D01*
M02*
