G04*
G04 #@! TF.GenerationSoftware,Altium Limited,Altium Designer,21.2.2 (38)*
G04*
G04 Layer_Color=8388736*
%FSLAX25Y25*%
%MOIN*%
G70*
G04*
G04 #@! TF.SameCoordinates,A6081B22-79F4-4FF1-9526-7A4968917333*
G04*
G04*
G04 #@! TF.FilePolarity,Negative*
G04*
G01*
G75*
%ADD14R,0.08477X0.02292*%
G04:AMPARAMS|DCode=15|XSize=84.77mil|YSize=22.92mil|CornerRadius=11.46mil|HoleSize=0mil|Usage=FLASHONLY|Rotation=0.000|XOffset=0mil|YOffset=0mil|HoleType=Round|Shape=RoundedRectangle|*
%AMROUNDEDRECTD15*
21,1,0.08477,0.00000,0,0,0.0*
21,1,0.06185,0.02292,0,0,0.0*
1,1,0.02292,0.03093,0.00000*
1,1,0.02292,-0.03093,0.00000*
1,1,0.02292,-0.03093,0.00000*
1,1,0.02292,0.03093,0.00000*
%
%ADD15ROUNDEDRECTD15*%
%ADD16R,0.11595X0.19488*%
%ADD17R,0.03543X0.03150*%
%ADD21R,0.05140X0.06922*%
%ADD23R,0.06693X0.03642*%
%ADD24R,0.09055X0.12205*%
%ADD25R,0.06693X0.02756*%
%ADD26R,0.03937X0.03150*%
%ADD27R,0.01575X0.03543*%
%ADD28R,0.05709X0.04528*%
%ADD29R,0.07480X0.07480*%
%ADD30C,0.07480*%
%ADD31C,0.02756*%
D14*
X105801Y57697D02*
D03*
D15*
Y52697D02*
D03*
Y47697D02*
D03*
Y42697D02*
D03*
X124514D02*
D03*
Y47697D02*
D03*
Y52697D02*
D03*
Y57697D02*
D03*
D16*
X135463Y99410D02*
D03*
X92884D02*
D03*
D17*
X147638Y61024D02*
D03*
Y55118D02*
D03*
D21*
X164868Y44291D02*
D03*
X154030D02*
D03*
D23*
X67913Y55561D02*
D03*
Y44833D02*
D03*
D24*
X115157Y50197D02*
D03*
D25*
X84646Y55315D02*
D03*
Y45079D02*
D03*
D26*
X155512Y18701D02*
D03*
Y24606D02*
D03*
D27*
X143307Y26575D02*
D03*
X138189D02*
D03*
X129921Y26575D02*
D03*
X124803D02*
D03*
D28*
X72835Y80709D02*
D03*
Y74803D02*
D03*
X53150Y80709D02*
D03*
Y74803D02*
D03*
X62992Y80709D02*
D03*
Y74803D02*
D03*
X43307Y74803D02*
D03*
Y80709D02*
D03*
D29*
X17717Y120236D02*
D03*
Y57244D02*
D03*
D30*
Y100236D02*
D03*
Y37244D02*
D03*
D31*
X113779Y39567D02*
D03*
X113422Y43915D02*
D03*
X113413Y48946D02*
D03*
X113581Y52827D02*
D03*
X116867Y41580D02*
D03*
X116976Y46206D02*
D03*
X116929Y51181D02*
D03*
X116934Y56336D02*
D03*
X112205Y56299D02*
D03*
X150591Y18701D02*
D03*
M02*
