%TF.GenerationSoftware,KiCad,Pcbnew,(5.1.8)-1*%
%TF.CreationDate,2021-03-29T14:59:59+03:00*%
%TF.ProjectId,STM32_PCB,53544d33-325f-4504-9342-2e6b69636164,rev?*%
%TF.SameCoordinates,Original*%
%TF.FileFunction,Copper,L3,Inr*%
%TF.FilePolarity,Positive*%
%FSLAX46Y46*%
G04 Gerber Fmt 4.6, Leading zero omitted, Abs format (unit mm)*
G04 Created by KiCad (PCBNEW (5.1.8)-1) date 2021-03-29 14:59:59*
%MOMM*%
%LPD*%
G01*
G04 APERTURE LIST*
%TA.AperFunction,ComponentPad*%
%ADD10O,1.700000X1.700000*%
%TD*%
%TA.AperFunction,ComponentPad*%
%ADD11R,1.700000X1.700000*%
%TD*%
%TA.AperFunction,ComponentPad*%
%ADD12C,8.600000*%
%TD*%
%TA.AperFunction,ComponentPad*%
%ADD13C,0.900000*%
%TD*%
%TA.AperFunction,ComponentPad*%
%ADD14C,1.450000*%
%TD*%
%TA.AperFunction,ComponentPad*%
%ADD15O,1.900000X1.200000*%
%TD*%
%TA.AperFunction,ComponentPad*%
%ADD16O,0.800000X1.300000*%
%TD*%
%TA.AperFunction,ViaPad*%
%ADD17C,0.800000*%
%TD*%
%TA.AperFunction,Conductor*%
%ADD18C,0.254000*%
%TD*%
%TA.AperFunction,Conductor*%
%ADD19C,0.100000*%
%TD*%
G04 APERTURE END LIST*
D10*
%TO.N,GPIO_0*%
%TO.C,J6*%
X114040000Y-122650000D03*
D11*
%TO.N,TIM1_CH1*%
X111500000Y-122650000D03*
%TD*%
D12*
%TO.N,GND*%
%TO.C,H1*%
X72000000Y-119000000D03*
D13*
X75225000Y-119000000D03*
X74280419Y-121280419D03*
X72000000Y-122225000D03*
X69719581Y-121280419D03*
X68775000Y-119000000D03*
X69719581Y-116719581D03*
X72000000Y-115775000D03*
X74280419Y-116719581D03*
%TD*%
%TO.N,GND*%
%TO.C,H2*%
X167280419Y-116719581D03*
X165000000Y-115775000D03*
X162719581Y-116719581D03*
X161775000Y-119000000D03*
X162719581Y-121280419D03*
X165000000Y-122225000D03*
X167280419Y-121280419D03*
X168225000Y-119000000D03*
D12*
X165000000Y-119000000D03*
%TD*%
D13*
%TO.N,GND*%
%TO.C,H3*%
X74280419Y-73719581D03*
X72000000Y-72775000D03*
X69719581Y-73719581D03*
X68775000Y-76000000D03*
X69719581Y-78280419D03*
X72000000Y-79225000D03*
X74280419Y-78280419D03*
X75225000Y-76000000D03*
D12*
X72000000Y-76000000D03*
%TD*%
%TO.N,GND*%
%TO.C,H4*%
X165000000Y-76000000D03*
D13*
X168225000Y-76000000D03*
X167280419Y-78280419D03*
X165000000Y-79225000D03*
X162719581Y-78280419D03*
X161775000Y-76000000D03*
X162719581Y-73719581D03*
X165000000Y-72775000D03*
X167280419Y-73719581D03*
%TD*%
D14*
%TO.N,Net-(J2-Pad6)*%
%TO.C,J2*%
X166537500Y-94500000D03*
X166537500Y-89500000D03*
D15*
X169237500Y-95500000D03*
X169237500Y-88500000D03*
%TD*%
%TO.N,+3V3*%
%TO.C,J3*%
%TA.AperFunction,ComponentPad*%
G36*
G01*
X95400000Y-74550000D02*
X95400000Y-75450000D01*
G75*
G02*
X95200000Y-75650000I-200000J0D01*
G01*
X94800000Y-75650000D01*
G75*
G02*
X94600000Y-75450000I0J200000D01*
G01*
X94600000Y-74550000D01*
G75*
G02*
X94800000Y-74350000I200000J0D01*
G01*
X95200000Y-74350000D01*
G75*
G02*
X95400000Y-74550000I0J-200000D01*
G01*
G37*
%TD.AperFunction*%
D16*
%TO.N,I2C1_SCL*%
X93750000Y-75000000D03*
%TO.N,I2C_SDA*%
X92500000Y-75000000D03*
%TO.N,GND*%
X91250000Y-75000000D03*
%TD*%
%TO.N,GND*%
%TO.C,J5*%
X100750000Y-120000000D03*
%TO.N,USART3_RX*%
X99500000Y-120000000D03*
%TO.N,USART3_TX*%
X98250000Y-120000000D03*
%TO.N,+3V3*%
%TA.AperFunction,ComponentPad*%
G36*
G01*
X96600000Y-120450000D02*
X96600000Y-119550000D01*
G75*
G02*
X96800000Y-119350000I200000J0D01*
G01*
X97200000Y-119350000D01*
G75*
G02*
X97400000Y-119550000I0J-200000D01*
G01*
X97400000Y-120450000D01*
G75*
G02*
X97200000Y-120650000I-200000J0D01*
G01*
X96800000Y-120650000D01*
G75*
G02*
X96600000Y-120450000I0J200000D01*
G01*
G37*
%TD.AperFunction*%
%TD*%
D17*
%TO.N,+3V3*%
X146950000Y-78750000D03*
X97500000Y-118500000D03*
X94750000Y-76500000D03*
X83500000Y-106000000D03*
X83500000Y-104000000D03*
X89000000Y-98500000D03*
X111750000Y-86500000D03*
X71750000Y-86750000D03*
X93000000Y-86000000D03*
X94000000Y-86000000D03*
X90000000Y-94500000D03*
X105250000Y-97250000D03*
X102750000Y-109250000D03*
X96250000Y-110000000D03*
X127900000Y-98025000D03*
X130375000Y-100975000D03*
X130375000Y-102000000D03*
X130500000Y-98225000D03*
X131625000Y-98225000D03*
X131075000Y-97200000D03*
%TO.N,GND*%
X90000000Y-93250000D03*
X95500000Y-93250000D03*
X107000000Y-94000000D03*
X105250000Y-109000000D03*
X102000000Y-113750000D03*
X82000000Y-115750000D03*
X71750000Y-91250000D03*
X91000000Y-76500000D03*
X112000000Y-81500000D03*
X85500000Y-98250000D03*
X85500000Y-99250000D03*
X83500000Y-96000000D03*
X82500000Y-104000000D03*
X80750000Y-101000000D03*
X80750000Y-102000000D03*
X93750000Y-110000000D03*
X165000000Y-90750000D03*
X165000000Y-89750000D03*
X163750000Y-89750000D03*
X163750000Y-90750000D03*
X158500000Y-91750000D03*
X89000000Y-97500000D03*
X112000000Y-84250000D03*
X112000000Y-85500000D03*
X86000000Y-104000000D03*
X105750000Y-95500000D03*
X127800000Y-103800000D03*
X126825000Y-103800000D03*
X138275000Y-105650000D03*
X139225000Y-105650000D03*
X141575000Y-104825000D03*
X140525000Y-102325000D03*
X147050000Y-87875000D03*
X156075000Y-99050000D03*
X156975000Y-99025000D03*
%TO.N,NRST*%
X100000000Y-99000000D03*
X105000000Y-92000000D03*
%TD*%
D18*
%TO.N,+3V3*%
X165871797Y-70733902D02*
X166720182Y-70947001D01*
X167522371Y-71295803D01*
X168256818Y-71770938D01*
X168903798Y-72359646D01*
X169445946Y-73046125D01*
X169868692Y-73811928D01*
X170160684Y-74636491D01*
X170316116Y-75509076D01*
X170340000Y-76015547D01*
X170340000Y-87519912D01*
X170276949Y-87468167D01*
X170062401Y-87353489D01*
X169829602Y-87282870D01*
X169648165Y-87265000D01*
X168826835Y-87265000D01*
X168645398Y-87282870D01*
X168412599Y-87353489D01*
X168198051Y-87468167D01*
X168009998Y-87622498D01*
X167855667Y-87810551D01*
X167740989Y-88025099D01*
X167670370Y-88257898D01*
X167646525Y-88500000D01*
X167670370Y-88742102D01*
X167673383Y-88752035D01*
X167593881Y-88633051D01*
X167404449Y-88443619D01*
X167181701Y-88294784D01*
X166934197Y-88192264D01*
X166671448Y-88140000D01*
X166403552Y-88140000D01*
X166140803Y-88192264D01*
X165893299Y-88294784D01*
X165670551Y-88443619D01*
X165481119Y-88633051D01*
X165378567Y-88786532D01*
X165301898Y-88754774D01*
X165101939Y-88715000D01*
X164898061Y-88715000D01*
X164698102Y-88754774D01*
X164509744Y-88832795D01*
X164375000Y-88922828D01*
X164240256Y-88832795D01*
X164051898Y-88754774D01*
X163851939Y-88715000D01*
X163648061Y-88715000D01*
X163448102Y-88754774D01*
X163259744Y-88832795D01*
X163090226Y-88946063D01*
X162946063Y-89090226D01*
X162832795Y-89259744D01*
X162754774Y-89448102D01*
X162715000Y-89648061D01*
X162715000Y-89851939D01*
X162754774Y-90051898D01*
X162832795Y-90240256D01*
X162839306Y-90250000D01*
X162832795Y-90259744D01*
X162754774Y-90448102D01*
X162715000Y-90648061D01*
X162715000Y-90851939D01*
X162754774Y-91051898D01*
X162832795Y-91240256D01*
X162946063Y-91409774D01*
X163090226Y-91553937D01*
X163259744Y-91667205D01*
X163448102Y-91745226D01*
X163648061Y-91785000D01*
X163851939Y-91785000D01*
X164051898Y-91745226D01*
X164240256Y-91667205D01*
X164375000Y-91577172D01*
X164509744Y-91667205D01*
X164698102Y-91745226D01*
X164898061Y-91785000D01*
X165101939Y-91785000D01*
X165301898Y-91745226D01*
X165490256Y-91667205D01*
X165659774Y-91553937D01*
X165803937Y-91409774D01*
X165917205Y-91240256D01*
X165995226Y-91051898D01*
X166035000Y-90851939D01*
X166035000Y-90763911D01*
X166140803Y-90807736D01*
X166403552Y-90860000D01*
X166671448Y-90860000D01*
X166934197Y-90807736D01*
X167181701Y-90705216D01*
X167404449Y-90556381D01*
X167593881Y-90366949D01*
X167742716Y-90144201D01*
X167845236Y-89896697D01*
X167897500Y-89633948D01*
X167897500Y-89366052D01*
X167864516Y-89200232D01*
X168009998Y-89377502D01*
X168198051Y-89531833D01*
X168412599Y-89646511D01*
X168645398Y-89717130D01*
X168826835Y-89735000D01*
X169648165Y-89735000D01*
X169829602Y-89717130D01*
X170062401Y-89646511D01*
X170276949Y-89531833D01*
X170340000Y-89480088D01*
X170340000Y-94519912D01*
X170276949Y-94468167D01*
X170062401Y-94353489D01*
X169829602Y-94282870D01*
X169648165Y-94265000D01*
X168826835Y-94265000D01*
X168645398Y-94282870D01*
X168412599Y-94353489D01*
X168198051Y-94468167D01*
X168009998Y-94622498D01*
X167864516Y-94799768D01*
X167897500Y-94633948D01*
X167897500Y-94366052D01*
X167845236Y-94103303D01*
X167742716Y-93855799D01*
X167593881Y-93633051D01*
X167404449Y-93443619D01*
X167181701Y-93294784D01*
X166934197Y-93192264D01*
X166671448Y-93140000D01*
X166403552Y-93140000D01*
X166140803Y-93192264D01*
X165893299Y-93294784D01*
X165670551Y-93443619D01*
X165481119Y-93633051D01*
X165332284Y-93855799D01*
X165229764Y-94103303D01*
X165177500Y-94366052D01*
X165177500Y-94633948D01*
X165229764Y-94896697D01*
X165332284Y-95144201D01*
X165481119Y-95366949D01*
X165670551Y-95556381D01*
X165893299Y-95705216D01*
X166140803Y-95807736D01*
X166403552Y-95860000D01*
X166671448Y-95860000D01*
X166934197Y-95807736D01*
X167181701Y-95705216D01*
X167404449Y-95556381D01*
X167593881Y-95366949D01*
X167673383Y-95247965D01*
X167670370Y-95257898D01*
X167646525Y-95500000D01*
X167670370Y-95742102D01*
X167740989Y-95974901D01*
X167855667Y-96189449D01*
X168009998Y-96377502D01*
X168198051Y-96531833D01*
X168412599Y-96646511D01*
X168645398Y-96717130D01*
X168826835Y-96735000D01*
X169648165Y-96735000D01*
X169829602Y-96717130D01*
X170062401Y-96646511D01*
X170276949Y-96531833D01*
X170340000Y-96480088D01*
X170340001Y-118972899D01*
X170266098Y-119871802D01*
X170052999Y-120720180D01*
X169704197Y-121522371D01*
X169229062Y-122256818D01*
X168640354Y-122903799D01*
X167953875Y-123445946D01*
X167188076Y-123868691D01*
X166363514Y-124160683D01*
X165490925Y-124316116D01*
X164984453Y-124340000D01*
X72027089Y-124340000D01*
X71128198Y-124266098D01*
X70279820Y-124052999D01*
X69477629Y-123704197D01*
X68743182Y-123229062D01*
X68096201Y-122640354D01*
X67554054Y-121953875D01*
X67131309Y-121188076D01*
X66839317Y-120363514D01*
X66683884Y-119490925D01*
X66660000Y-118984453D01*
X66660000Y-118513945D01*
X67065000Y-118513945D01*
X67065000Y-119486055D01*
X67254650Y-120439486D01*
X67626660Y-121337599D01*
X68166735Y-122145879D01*
X68854121Y-122833265D01*
X69662401Y-123373340D01*
X70560514Y-123745350D01*
X71513945Y-123935000D01*
X72486055Y-123935000D01*
X73439486Y-123745350D01*
X74337599Y-123373340D01*
X75145879Y-122833265D01*
X75833265Y-122145879D01*
X76064373Y-121800000D01*
X110011928Y-121800000D01*
X110011928Y-123500000D01*
X110024188Y-123624482D01*
X110060498Y-123744180D01*
X110119463Y-123854494D01*
X110198815Y-123951185D01*
X110295506Y-124030537D01*
X110405820Y-124089502D01*
X110525518Y-124125812D01*
X110650000Y-124138072D01*
X112350000Y-124138072D01*
X112474482Y-124125812D01*
X112594180Y-124089502D01*
X112704494Y-124030537D01*
X112801185Y-123951185D01*
X112880537Y-123854494D01*
X112939502Y-123744180D01*
X112961513Y-123671620D01*
X113093368Y-123803475D01*
X113336589Y-123965990D01*
X113606842Y-124077932D01*
X113893740Y-124135000D01*
X114186260Y-124135000D01*
X114473158Y-124077932D01*
X114743411Y-123965990D01*
X114986632Y-123803475D01*
X115193475Y-123596632D01*
X115355990Y-123353411D01*
X115467932Y-123083158D01*
X115525000Y-122796260D01*
X115525000Y-122503740D01*
X115467932Y-122216842D01*
X115355990Y-121946589D01*
X115193475Y-121703368D01*
X114986632Y-121496525D01*
X114743411Y-121334010D01*
X114473158Y-121222068D01*
X114186260Y-121165000D01*
X113893740Y-121165000D01*
X113606842Y-121222068D01*
X113336589Y-121334010D01*
X113093368Y-121496525D01*
X112961513Y-121628380D01*
X112939502Y-121555820D01*
X112880537Y-121445506D01*
X112801185Y-121348815D01*
X112704494Y-121269463D01*
X112594180Y-121210498D01*
X112474482Y-121174188D01*
X112350000Y-121161928D01*
X110650000Y-121161928D01*
X110525518Y-121174188D01*
X110405820Y-121210498D01*
X110295506Y-121269463D01*
X110198815Y-121348815D01*
X110119463Y-121445506D01*
X110060498Y-121555820D01*
X110024188Y-121675518D01*
X110011928Y-121800000D01*
X76064373Y-121800000D01*
X76373340Y-121337599D01*
X76659074Y-120647774D01*
X95961932Y-120647774D01*
X95973758Y-120772298D01*
X96009650Y-120892122D01*
X96068229Y-121002641D01*
X96147244Y-121099608D01*
X96243658Y-121179298D01*
X96353766Y-121238646D01*
X96473336Y-121275374D01*
X96593250Y-121285000D01*
X96752000Y-121126250D01*
X96752000Y-120248000D01*
X96123750Y-120248000D01*
X95965000Y-120406750D01*
X95961932Y-120647774D01*
X76659074Y-120647774D01*
X76745350Y-120439486D01*
X76935000Y-119486055D01*
X76935000Y-119352226D01*
X95961932Y-119352226D01*
X95965000Y-119593250D01*
X96123750Y-119752000D01*
X96752000Y-119752000D01*
X96752000Y-119699163D01*
X97215000Y-119699163D01*
X97215000Y-120300838D01*
X97229976Y-120452895D01*
X97248000Y-120512311D01*
X97248000Y-121126250D01*
X97406750Y-121285000D01*
X97526664Y-121275374D01*
X97646234Y-121238646D01*
X97756342Y-121179298D01*
X97770736Y-121167401D01*
X97852008Y-121210841D01*
X98047106Y-121270024D01*
X98250000Y-121290007D01*
X98452895Y-121270024D01*
X98647993Y-121210841D01*
X98827797Y-121114734D01*
X98875001Y-121075995D01*
X98922204Y-121114734D01*
X99102008Y-121210841D01*
X99297106Y-121270024D01*
X99500000Y-121290007D01*
X99702895Y-121270024D01*
X99897993Y-121210841D01*
X100077797Y-121114734D01*
X100125001Y-121075995D01*
X100172204Y-121114734D01*
X100352008Y-121210841D01*
X100547106Y-121270024D01*
X100750000Y-121290007D01*
X100952895Y-121270024D01*
X101147993Y-121210841D01*
X101327797Y-121114734D01*
X101485396Y-120985396D01*
X101614734Y-120827797D01*
X101710841Y-120647992D01*
X101770024Y-120452894D01*
X101785000Y-120300837D01*
X101785000Y-119699162D01*
X101770024Y-119547105D01*
X101710841Y-119352007D01*
X101614734Y-119172203D01*
X101485396Y-119014604D01*
X101327797Y-118885266D01*
X101147992Y-118789159D01*
X100952894Y-118729976D01*
X100750000Y-118709993D01*
X100547105Y-118729976D01*
X100352007Y-118789159D01*
X100172203Y-118885266D01*
X100125000Y-118924004D01*
X100077797Y-118885266D01*
X99897992Y-118789159D01*
X99702894Y-118729976D01*
X99500000Y-118709993D01*
X99297105Y-118729976D01*
X99102007Y-118789159D01*
X98922203Y-118885266D01*
X98875000Y-118924004D01*
X98827797Y-118885266D01*
X98647992Y-118789159D01*
X98452894Y-118729976D01*
X98250000Y-118709993D01*
X98047105Y-118729976D01*
X97852007Y-118789159D01*
X97770736Y-118832599D01*
X97756342Y-118820702D01*
X97646234Y-118761354D01*
X97526664Y-118724626D01*
X97406750Y-118715000D01*
X97248000Y-118873750D01*
X97248000Y-119487690D01*
X97229976Y-119547106D01*
X97215000Y-119699163D01*
X96752000Y-119699163D01*
X96752000Y-118873750D01*
X96593250Y-118715000D01*
X96473336Y-118724626D01*
X96353766Y-118761354D01*
X96243658Y-118820702D01*
X96147244Y-118900392D01*
X96068229Y-118997359D01*
X96009650Y-119107878D01*
X95973758Y-119227702D01*
X95961932Y-119352226D01*
X76935000Y-119352226D01*
X76935000Y-118513945D01*
X76927630Y-118476890D01*
X152874048Y-118476890D01*
X152874048Y-118723110D01*
X152922083Y-118964598D01*
X153016307Y-119192074D01*
X153153099Y-119396798D01*
X153327202Y-119570901D01*
X153531926Y-119707693D01*
X153759402Y-119801917D01*
X154000890Y-119849952D01*
X154247110Y-119849952D01*
X154488598Y-119801917D01*
X154716074Y-119707693D01*
X154920798Y-119570901D01*
X155094901Y-119396798D01*
X155231693Y-119192074D01*
X155325917Y-118964598D01*
X155373952Y-118723110D01*
X155373952Y-118513945D01*
X160065000Y-118513945D01*
X160065000Y-119486055D01*
X160254650Y-120439486D01*
X160626660Y-121337599D01*
X161166735Y-122145879D01*
X161854121Y-122833265D01*
X162662401Y-123373340D01*
X163560514Y-123745350D01*
X164513945Y-123935000D01*
X165486055Y-123935000D01*
X166439486Y-123745350D01*
X167337599Y-123373340D01*
X168145879Y-122833265D01*
X168833265Y-122145879D01*
X169373340Y-121337599D01*
X169745350Y-120439486D01*
X169935000Y-119486055D01*
X169935000Y-118513945D01*
X169745350Y-117560514D01*
X169373340Y-116662401D01*
X168833265Y-115854121D01*
X168145879Y-115166735D01*
X167337599Y-114626660D01*
X166439486Y-114254650D01*
X165486055Y-114065000D01*
X164513945Y-114065000D01*
X163560514Y-114254650D01*
X162662401Y-114626660D01*
X161854121Y-115166735D01*
X161166735Y-115854121D01*
X160626660Y-116662401D01*
X160254650Y-117560514D01*
X160065000Y-118513945D01*
X155373952Y-118513945D01*
X155373952Y-118476890D01*
X155325917Y-118235402D01*
X155231693Y-118007926D01*
X155094901Y-117803202D01*
X154920798Y-117629099D01*
X154716074Y-117492307D01*
X154488598Y-117398083D01*
X154247110Y-117350048D01*
X154000890Y-117350048D01*
X153759402Y-117398083D01*
X153531926Y-117492307D01*
X153327202Y-117629099D01*
X153153099Y-117803202D01*
X153016307Y-118007926D01*
X152922083Y-118235402D01*
X152874048Y-118476890D01*
X76927630Y-118476890D01*
X76745350Y-117560514D01*
X76373340Y-116662401D01*
X75833265Y-115854121D01*
X75627205Y-115648061D01*
X80965000Y-115648061D01*
X80965000Y-115851939D01*
X81004774Y-116051898D01*
X81082795Y-116240256D01*
X81196063Y-116409774D01*
X81340226Y-116553937D01*
X81509744Y-116667205D01*
X81698102Y-116745226D01*
X81898061Y-116785000D01*
X82101939Y-116785000D01*
X82301898Y-116745226D01*
X82490256Y-116667205D01*
X82659774Y-116553937D01*
X82803937Y-116409774D01*
X82917205Y-116240256D01*
X82995226Y-116051898D01*
X83035000Y-115851939D01*
X83035000Y-115648061D01*
X82995226Y-115448102D01*
X82917205Y-115259744D01*
X82803937Y-115090226D01*
X82659774Y-114946063D01*
X82490256Y-114832795D01*
X82301898Y-114754774D01*
X82101939Y-114715000D01*
X81898061Y-114715000D01*
X81698102Y-114754774D01*
X81509744Y-114832795D01*
X81340226Y-114946063D01*
X81196063Y-115090226D01*
X81082795Y-115259744D01*
X81004774Y-115448102D01*
X80965000Y-115648061D01*
X75627205Y-115648061D01*
X75145879Y-115166735D01*
X74337599Y-114626660D01*
X73439486Y-114254650D01*
X72486055Y-114065000D01*
X71513945Y-114065000D01*
X70560514Y-114254650D01*
X69662401Y-114626660D01*
X68854121Y-115166735D01*
X68166735Y-115854121D01*
X67626660Y-116662401D01*
X67254650Y-117560514D01*
X67065000Y-118513945D01*
X66660000Y-118513945D01*
X66660000Y-113648061D01*
X100965000Y-113648061D01*
X100965000Y-113851939D01*
X101004774Y-114051898D01*
X101082795Y-114240256D01*
X101196063Y-114409774D01*
X101340226Y-114553937D01*
X101509744Y-114667205D01*
X101698102Y-114745226D01*
X101898061Y-114785000D01*
X102101939Y-114785000D01*
X102301898Y-114745226D01*
X102490256Y-114667205D01*
X102659774Y-114553937D01*
X102803937Y-114409774D01*
X102917205Y-114240256D01*
X102995226Y-114051898D01*
X103035000Y-113851939D01*
X103035000Y-113648061D01*
X102995226Y-113448102D01*
X102917205Y-113259744D01*
X102803937Y-113090226D01*
X102659774Y-112946063D01*
X102490256Y-112832795D01*
X102301898Y-112754774D01*
X102101939Y-112715000D01*
X101898061Y-112715000D01*
X101698102Y-112754774D01*
X101509744Y-112832795D01*
X101340226Y-112946063D01*
X101196063Y-113090226D01*
X101082795Y-113259744D01*
X101004774Y-113448102D01*
X100965000Y-113648061D01*
X66660000Y-113648061D01*
X66660000Y-109898061D01*
X92715000Y-109898061D01*
X92715000Y-110101939D01*
X92754774Y-110301898D01*
X92832795Y-110490256D01*
X92946063Y-110659774D01*
X93090226Y-110803937D01*
X93259744Y-110917205D01*
X93448102Y-110995226D01*
X93648061Y-111035000D01*
X93851939Y-111035000D01*
X94051898Y-110995226D01*
X94240256Y-110917205D01*
X94409774Y-110803937D01*
X94553937Y-110659774D01*
X94667205Y-110490256D01*
X94745226Y-110301898D01*
X94785000Y-110101939D01*
X94785000Y-109898061D01*
X94745226Y-109698102D01*
X94667205Y-109509744D01*
X94553937Y-109340226D01*
X94409774Y-109196063D01*
X94240256Y-109082795D01*
X94051898Y-109004774D01*
X93851939Y-108965000D01*
X93648061Y-108965000D01*
X93448102Y-109004774D01*
X93259744Y-109082795D01*
X93090226Y-109196063D01*
X92946063Y-109340226D01*
X92832795Y-109509744D01*
X92754774Y-109698102D01*
X92715000Y-109898061D01*
X66660000Y-109898061D01*
X66660000Y-108898061D01*
X104215000Y-108898061D01*
X104215000Y-109101939D01*
X104254774Y-109301898D01*
X104332795Y-109490256D01*
X104446063Y-109659774D01*
X104590226Y-109803937D01*
X104759744Y-109917205D01*
X104948102Y-109995226D01*
X105148061Y-110035000D01*
X105351939Y-110035000D01*
X105551898Y-109995226D01*
X105740256Y-109917205D01*
X105909774Y-109803937D01*
X106053937Y-109659774D01*
X106167205Y-109490256D01*
X106245226Y-109301898D01*
X106285000Y-109101939D01*
X106285000Y-108898061D01*
X106245226Y-108698102D01*
X106167205Y-108509744D01*
X106053937Y-108340226D01*
X105909774Y-108196063D01*
X105740256Y-108082795D01*
X105551898Y-108004774D01*
X105351939Y-107965000D01*
X105148061Y-107965000D01*
X104948102Y-108004774D01*
X104759744Y-108082795D01*
X104590226Y-108196063D01*
X104446063Y-108340226D01*
X104332795Y-108509744D01*
X104254774Y-108698102D01*
X104215000Y-108898061D01*
X66660000Y-108898061D01*
X66660000Y-105548061D01*
X137240000Y-105548061D01*
X137240000Y-105751939D01*
X137279774Y-105951898D01*
X137357795Y-106140256D01*
X137471063Y-106309774D01*
X137615226Y-106453937D01*
X137784744Y-106567205D01*
X137973102Y-106645226D01*
X138173061Y-106685000D01*
X138376939Y-106685000D01*
X138576898Y-106645226D01*
X138750000Y-106573524D01*
X138923102Y-106645226D01*
X139123061Y-106685000D01*
X139326939Y-106685000D01*
X139526898Y-106645226D01*
X139715256Y-106567205D01*
X139884774Y-106453937D01*
X140028937Y-106309774D01*
X140142205Y-106140256D01*
X140220226Y-105951898D01*
X140260000Y-105751939D01*
X140260000Y-105548061D01*
X140220226Y-105348102D01*
X140142205Y-105159744D01*
X140028937Y-104990226D01*
X139884774Y-104846063D01*
X139715256Y-104732795D01*
X139691757Y-104723061D01*
X140540000Y-104723061D01*
X140540000Y-104926939D01*
X140579774Y-105126898D01*
X140657795Y-105315256D01*
X140771063Y-105484774D01*
X140915226Y-105628937D01*
X141084744Y-105742205D01*
X141273102Y-105820226D01*
X141473061Y-105860000D01*
X141676939Y-105860000D01*
X141876898Y-105820226D01*
X142065256Y-105742205D01*
X142234774Y-105628937D01*
X142378937Y-105484774D01*
X142492205Y-105315256D01*
X142570226Y-105126898D01*
X142610000Y-104926939D01*
X142610000Y-104723061D01*
X142570226Y-104523102D01*
X142492205Y-104334744D01*
X142378937Y-104165226D01*
X142234774Y-104021063D01*
X142065256Y-103907795D01*
X141876898Y-103829774D01*
X141676939Y-103790000D01*
X141473061Y-103790000D01*
X141273102Y-103829774D01*
X141084744Y-103907795D01*
X140915226Y-104021063D01*
X140771063Y-104165226D01*
X140657795Y-104334744D01*
X140579774Y-104523102D01*
X140540000Y-104723061D01*
X139691757Y-104723061D01*
X139526898Y-104654774D01*
X139326939Y-104615000D01*
X139123061Y-104615000D01*
X138923102Y-104654774D01*
X138750000Y-104726476D01*
X138576898Y-104654774D01*
X138376939Y-104615000D01*
X138173061Y-104615000D01*
X137973102Y-104654774D01*
X137784744Y-104732795D01*
X137615226Y-104846063D01*
X137471063Y-104990226D01*
X137357795Y-105159744D01*
X137279774Y-105348102D01*
X137240000Y-105548061D01*
X66660000Y-105548061D01*
X66660000Y-103898061D01*
X81465000Y-103898061D01*
X81465000Y-104101939D01*
X81504774Y-104301898D01*
X81582795Y-104490256D01*
X81696063Y-104659774D01*
X81840226Y-104803937D01*
X82009744Y-104917205D01*
X82198102Y-104995226D01*
X82398061Y-105035000D01*
X82601939Y-105035000D01*
X82801898Y-104995226D01*
X82990256Y-104917205D01*
X83159774Y-104803937D01*
X83303937Y-104659774D01*
X83417205Y-104490256D01*
X83495226Y-104301898D01*
X83535000Y-104101939D01*
X83535000Y-103898061D01*
X84965000Y-103898061D01*
X84965000Y-104101939D01*
X85004774Y-104301898D01*
X85082795Y-104490256D01*
X85196063Y-104659774D01*
X85340226Y-104803937D01*
X85509744Y-104917205D01*
X85698102Y-104995226D01*
X85898061Y-105035000D01*
X86101939Y-105035000D01*
X86301898Y-104995226D01*
X86490256Y-104917205D01*
X86659774Y-104803937D01*
X86803937Y-104659774D01*
X86917205Y-104490256D01*
X86995226Y-104301898D01*
X87035000Y-104101939D01*
X87035000Y-103898061D01*
X86995226Y-103698102D01*
X86995210Y-103698061D01*
X125790000Y-103698061D01*
X125790000Y-103901939D01*
X125829774Y-104101898D01*
X125907795Y-104290256D01*
X126021063Y-104459774D01*
X126165226Y-104603937D01*
X126334744Y-104717205D01*
X126523102Y-104795226D01*
X126723061Y-104835000D01*
X126926939Y-104835000D01*
X127126898Y-104795226D01*
X127312500Y-104718347D01*
X127498102Y-104795226D01*
X127698061Y-104835000D01*
X127901939Y-104835000D01*
X128101898Y-104795226D01*
X128290256Y-104717205D01*
X128459774Y-104603937D01*
X128603937Y-104459774D01*
X128717205Y-104290256D01*
X128795226Y-104101898D01*
X128835000Y-103901939D01*
X128835000Y-103698061D01*
X128795226Y-103498102D01*
X128717205Y-103309744D01*
X128603937Y-103140226D01*
X128459774Y-102996063D01*
X128290256Y-102882795D01*
X128101898Y-102804774D01*
X127901939Y-102765000D01*
X127698061Y-102765000D01*
X127498102Y-102804774D01*
X127312500Y-102881653D01*
X127126898Y-102804774D01*
X126926939Y-102765000D01*
X126723061Y-102765000D01*
X126523102Y-102804774D01*
X126334744Y-102882795D01*
X126165226Y-102996063D01*
X126021063Y-103140226D01*
X125907795Y-103309744D01*
X125829774Y-103498102D01*
X125790000Y-103698061D01*
X86995210Y-103698061D01*
X86917205Y-103509744D01*
X86803937Y-103340226D01*
X86659774Y-103196063D01*
X86490256Y-103082795D01*
X86301898Y-103004774D01*
X86101939Y-102965000D01*
X85898061Y-102965000D01*
X85698102Y-103004774D01*
X85509744Y-103082795D01*
X85340226Y-103196063D01*
X85196063Y-103340226D01*
X85082795Y-103509744D01*
X85004774Y-103698102D01*
X84965000Y-103898061D01*
X83535000Y-103898061D01*
X83495226Y-103698102D01*
X83417205Y-103509744D01*
X83303937Y-103340226D01*
X83159774Y-103196063D01*
X82990256Y-103082795D01*
X82801898Y-103004774D01*
X82601939Y-102965000D01*
X82398061Y-102965000D01*
X82198102Y-103004774D01*
X82009744Y-103082795D01*
X81840226Y-103196063D01*
X81696063Y-103340226D01*
X81582795Y-103509744D01*
X81504774Y-103698102D01*
X81465000Y-103898061D01*
X66660000Y-103898061D01*
X66660000Y-100898061D01*
X79715000Y-100898061D01*
X79715000Y-101101939D01*
X79754774Y-101301898D01*
X79832795Y-101490256D01*
X79839306Y-101500000D01*
X79832795Y-101509744D01*
X79754774Y-101698102D01*
X79715000Y-101898061D01*
X79715000Y-102101939D01*
X79754774Y-102301898D01*
X79832795Y-102490256D01*
X79946063Y-102659774D01*
X80090226Y-102803937D01*
X80259744Y-102917205D01*
X80448102Y-102995226D01*
X80648061Y-103035000D01*
X80851939Y-103035000D01*
X81051898Y-102995226D01*
X81240256Y-102917205D01*
X81409774Y-102803937D01*
X81553937Y-102659774D01*
X81667205Y-102490256D01*
X81745226Y-102301898D01*
X81760907Y-102223061D01*
X139490000Y-102223061D01*
X139490000Y-102426939D01*
X139529774Y-102626898D01*
X139607795Y-102815256D01*
X139721063Y-102984774D01*
X139865226Y-103128937D01*
X140034744Y-103242205D01*
X140223102Y-103320226D01*
X140423061Y-103360000D01*
X140626939Y-103360000D01*
X140826898Y-103320226D01*
X141015256Y-103242205D01*
X141184774Y-103128937D01*
X141328937Y-102984774D01*
X141442205Y-102815256D01*
X141520226Y-102626898D01*
X141560000Y-102426939D01*
X141560000Y-102223061D01*
X141520226Y-102023102D01*
X141442205Y-101834744D01*
X141328937Y-101665226D01*
X141184774Y-101521063D01*
X141015256Y-101407795D01*
X140826898Y-101329774D01*
X140626939Y-101290000D01*
X140423061Y-101290000D01*
X140223102Y-101329774D01*
X140034744Y-101407795D01*
X139865226Y-101521063D01*
X139721063Y-101665226D01*
X139607795Y-101834744D01*
X139529774Y-102023102D01*
X139490000Y-102223061D01*
X81760907Y-102223061D01*
X81785000Y-102101939D01*
X81785000Y-101898061D01*
X81745226Y-101698102D01*
X81667205Y-101509744D01*
X81660694Y-101500000D01*
X81667205Y-101490256D01*
X81745226Y-101301898D01*
X81785000Y-101101939D01*
X81785000Y-100898061D01*
X81745226Y-100698102D01*
X81667205Y-100509744D01*
X81553937Y-100340226D01*
X81409774Y-100196063D01*
X81240256Y-100082795D01*
X81051898Y-100004774D01*
X80851939Y-99965000D01*
X80648061Y-99965000D01*
X80448102Y-100004774D01*
X80259744Y-100082795D01*
X80090226Y-100196063D01*
X79946063Y-100340226D01*
X79832795Y-100509744D01*
X79754774Y-100698102D01*
X79715000Y-100898061D01*
X66660000Y-100898061D01*
X66660000Y-98148061D01*
X84465000Y-98148061D01*
X84465000Y-98351939D01*
X84504774Y-98551898D01*
X84582795Y-98740256D01*
X84589306Y-98750000D01*
X84582795Y-98759744D01*
X84504774Y-98948102D01*
X84465000Y-99148061D01*
X84465000Y-99351939D01*
X84504774Y-99551898D01*
X84582795Y-99740256D01*
X84696063Y-99909774D01*
X84840226Y-100053937D01*
X85009744Y-100167205D01*
X85198102Y-100245226D01*
X85398061Y-100285000D01*
X85601939Y-100285000D01*
X85801898Y-100245226D01*
X85990256Y-100167205D01*
X86159774Y-100053937D01*
X86303937Y-99909774D01*
X86417205Y-99740256D01*
X86495226Y-99551898D01*
X86535000Y-99351939D01*
X86535000Y-99148061D01*
X86495226Y-98948102D01*
X86474499Y-98898061D01*
X98965000Y-98898061D01*
X98965000Y-99101939D01*
X99004774Y-99301898D01*
X99082795Y-99490256D01*
X99196063Y-99659774D01*
X99340226Y-99803937D01*
X99509744Y-99917205D01*
X99698102Y-99995226D01*
X99898061Y-100035000D01*
X100101939Y-100035000D01*
X100301898Y-99995226D01*
X100490256Y-99917205D01*
X100659774Y-99803937D01*
X100803937Y-99659774D01*
X100917205Y-99490256D01*
X100995226Y-99301898D01*
X101035000Y-99101939D01*
X101035000Y-98948061D01*
X155040000Y-98948061D01*
X155040000Y-99151939D01*
X155079774Y-99351898D01*
X155157795Y-99540256D01*
X155271063Y-99709774D01*
X155415226Y-99853937D01*
X155584744Y-99967205D01*
X155773102Y-100045226D01*
X155973061Y-100085000D01*
X156176939Y-100085000D01*
X156376898Y-100045226D01*
X156555177Y-99971380D01*
X156673102Y-100020226D01*
X156873061Y-100060000D01*
X157076939Y-100060000D01*
X157276898Y-100020226D01*
X157465256Y-99942205D01*
X157634774Y-99828937D01*
X157778937Y-99684774D01*
X157892205Y-99515256D01*
X157970226Y-99326898D01*
X158010000Y-99126939D01*
X158010000Y-98923061D01*
X157970226Y-98723102D01*
X157892205Y-98534744D01*
X157778937Y-98365226D01*
X157634774Y-98221063D01*
X157465256Y-98107795D01*
X157276898Y-98029774D01*
X157076939Y-97990000D01*
X156873061Y-97990000D01*
X156673102Y-98029774D01*
X156494823Y-98103620D01*
X156376898Y-98054774D01*
X156176939Y-98015000D01*
X155973061Y-98015000D01*
X155773102Y-98054774D01*
X155584744Y-98132795D01*
X155415226Y-98246063D01*
X155271063Y-98390226D01*
X155157795Y-98559744D01*
X155079774Y-98748102D01*
X155040000Y-98948061D01*
X101035000Y-98948061D01*
X101035000Y-98898061D01*
X100995226Y-98698102D01*
X100917205Y-98509744D01*
X100803937Y-98340226D01*
X100659774Y-98196063D01*
X100490256Y-98082795D01*
X100301898Y-98004774D01*
X100101939Y-97965000D01*
X99898061Y-97965000D01*
X99698102Y-98004774D01*
X99509744Y-98082795D01*
X99340226Y-98196063D01*
X99196063Y-98340226D01*
X99082795Y-98509744D01*
X99004774Y-98698102D01*
X98965000Y-98898061D01*
X86474499Y-98898061D01*
X86417205Y-98759744D01*
X86410694Y-98750000D01*
X86417205Y-98740256D01*
X86495226Y-98551898D01*
X86535000Y-98351939D01*
X86535000Y-98148061D01*
X86495226Y-97948102D01*
X86417205Y-97759744D01*
X86303937Y-97590226D01*
X86159774Y-97446063D01*
X86087934Y-97398061D01*
X87965000Y-97398061D01*
X87965000Y-97601939D01*
X88004774Y-97801898D01*
X88082795Y-97990256D01*
X88196063Y-98159774D01*
X88340226Y-98303937D01*
X88509744Y-98417205D01*
X88698102Y-98495226D01*
X88898061Y-98535000D01*
X89101939Y-98535000D01*
X89301898Y-98495226D01*
X89490256Y-98417205D01*
X89659774Y-98303937D01*
X89803937Y-98159774D01*
X89917205Y-97990256D01*
X89995226Y-97801898D01*
X90035000Y-97601939D01*
X90035000Y-97398061D01*
X89995226Y-97198102D01*
X89917205Y-97009744D01*
X89803937Y-96840226D01*
X89659774Y-96696063D01*
X89490256Y-96582795D01*
X89301898Y-96504774D01*
X89101939Y-96465000D01*
X88898061Y-96465000D01*
X88698102Y-96504774D01*
X88509744Y-96582795D01*
X88340226Y-96696063D01*
X88196063Y-96840226D01*
X88082795Y-97009744D01*
X88004774Y-97198102D01*
X87965000Y-97398061D01*
X86087934Y-97398061D01*
X85990256Y-97332795D01*
X85801898Y-97254774D01*
X85601939Y-97215000D01*
X85398061Y-97215000D01*
X85198102Y-97254774D01*
X85009744Y-97332795D01*
X84840226Y-97446063D01*
X84696063Y-97590226D01*
X84582795Y-97759744D01*
X84504774Y-97948102D01*
X84465000Y-98148061D01*
X66660000Y-98148061D01*
X66660000Y-95898061D01*
X82465000Y-95898061D01*
X82465000Y-96101939D01*
X82504774Y-96301898D01*
X82582795Y-96490256D01*
X82696063Y-96659774D01*
X82840226Y-96803937D01*
X83009744Y-96917205D01*
X83198102Y-96995226D01*
X83398061Y-97035000D01*
X83601939Y-97035000D01*
X83801898Y-96995226D01*
X83990256Y-96917205D01*
X84159774Y-96803937D01*
X84303937Y-96659774D01*
X84417205Y-96490256D01*
X84495226Y-96301898D01*
X84535000Y-96101939D01*
X84535000Y-95898061D01*
X84495226Y-95698102D01*
X84417205Y-95509744D01*
X84342582Y-95398061D01*
X104715000Y-95398061D01*
X104715000Y-95601939D01*
X104754774Y-95801898D01*
X104832795Y-95990256D01*
X104946063Y-96159774D01*
X105090226Y-96303937D01*
X105259744Y-96417205D01*
X105448102Y-96495226D01*
X105648061Y-96535000D01*
X105851939Y-96535000D01*
X106051898Y-96495226D01*
X106240256Y-96417205D01*
X106409774Y-96303937D01*
X106553937Y-96159774D01*
X106667205Y-95990256D01*
X106745226Y-95801898D01*
X106785000Y-95601939D01*
X106785000Y-95398061D01*
X106745226Y-95198102D01*
X106667205Y-95009744D01*
X106641968Y-94971974D01*
X106698102Y-94995226D01*
X106898061Y-95035000D01*
X107101939Y-95035000D01*
X107301898Y-94995226D01*
X107490256Y-94917205D01*
X107659774Y-94803937D01*
X107803937Y-94659774D01*
X107917205Y-94490256D01*
X107995226Y-94301898D01*
X108035000Y-94101939D01*
X108035000Y-93898061D01*
X107995226Y-93698102D01*
X107917205Y-93509744D01*
X107803937Y-93340226D01*
X107659774Y-93196063D01*
X107490256Y-93082795D01*
X107301898Y-93004774D01*
X107101939Y-92965000D01*
X106898061Y-92965000D01*
X106698102Y-93004774D01*
X106509744Y-93082795D01*
X106340226Y-93196063D01*
X106196063Y-93340226D01*
X106082795Y-93509744D01*
X106004774Y-93698102D01*
X105965000Y-93898061D01*
X105965000Y-94101939D01*
X106004774Y-94301898D01*
X106082795Y-94490256D01*
X106108032Y-94528026D01*
X106051898Y-94504774D01*
X105851939Y-94465000D01*
X105648061Y-94465000D01*
X105448102Y-94504774D01*
X105259744Y-94582795D01*
X105090226Y-94696063D01*
X104946063Y-94840226D01*
X104832795Y-95009744D01*
X104754774Y-95198102D01*
X104715000Y-95398061D01*
X84342582Y-95398061D01*
X84303937Y-95340226D01*
X84159774Y-95196063D01*
X83990256Y-95082795D01*
X83801898Y-95004774D01*
X83601939Y-94965000D01*
X83398061Y-94965000D01*
X83198102Y-95004774D01*
X83009744Y-95082795D01*
X82840226Y-95196063D01*
X82696063Y-95340226D01*
X82582795Y-95509744D01*
X82504774Y-95698102D01*
X82465000Y-95898061D01*
X66660000Y-95898061D01*
X66660000Y-93148061D01*
X88965000Y-93148061D01*
X88965000Y-93351939D01*
X89004774Y-93551898D01*
X89082795Y-93740256D01*
X89196063Y-93909774D01*
X89340226Y-94053937D01*
X89509744Y-94167205D01*
X89698102Y-94245226D01*
X89898061Y-94285000D01*
X90101939Y-94285000D01*
X90301898Y-94245226D01*
X90490256Y-94167205D01*
X90659774Y-94053937D01*
X90803937Y-93909774D01*
X90917205Y-93740256D01*
X90995226Y-93551898D01*
X91035000Y-93351939D01*
X91035000Y-93148061D01*
X94465000Y-93148061D01*
X94465000Y-93351939D01*
X94504774Y-93551898D01*
X94582795Y-93740256D01*
X94696063Y-93909774D01*
X94840226Y-94053937D01*
X95009744Y-94167205D01*
X95198102Y-94245226D01*
X95398061Y-94285000D01*
X95601939Y-94285000D01*
X95801898Y-94245226D01*
X95990256Y-94167205D01*
X96159774Y-94053937D01*
X96303937Y-93909774D01*
X96417205Y-93740256D01*
X96495226Y-93551898D01*
X96535000Y-93351939D01*
X96535000Y-93148061D01*
X96495226Y-92948102D01*
X96417205Y-92759744D01*
X96303937Y-92590226D01*
X96159774Y-92446063D01*
X95990256Y-92332795D01*
X95801898Y-92254774D01*
X95601939Y-92215000D01*
X95398061Y-92215000D01*
X95198102Y-92254774D01*
X95009744Y-92332795D01*
X94840226Y-92446063D01*
X94696063Y-92590226D01*
X94582795Y-92759744D01*
X94504774Y-92948102D01*
X94465000Y-93148061D01*
X91035000Y-93148061D01*
X90995226Y-92948102D01*
X90917205Y-92759744D01*
X90803937Y-92590226D01*
X90659774Y-92446063D01*
X90490256Y-92332795D01*
X90301898Y-92254774D01*
X90101939Y-92215000D01*
X89898061Y-92215000D01*
X89698102Y-92254774D01*
X89509744Y-92332795D01*
X89340226Y-92446063D01*
X89196063Y-92590226D01*
X89082795Y-92759744D01*
X89004774Y-92948102D01*
X88965000Y-93148061D01*
X66660000Y-93148061D01*
X66660000Y-90393137D01*
X67585000Y-90393137D01*
X67585000Y-90606863D01*
X67626696Y-90816483D01*
X67708485Y-91013940D01*
X67827225Y-91191647D01*
X67978353Y-91342775D01*
X68156060Y-91461515D01*
X68353517Y-91543304D01*
X68563137Y-91585000D01*
X68776863Y-91585000D01*
X68986483Y-91543304D01*
X69183940Y-91461515D01*
X69361647Y-91342775D01*
X69512775Y-91191647D01*
X69541898Y-91148061D01*
X70715000Y-91148061D01*
X70715000Y-91351939D01*
X70754774Y-91551898D01*
X70832795Y-91740256D01*
X70946063Y-91909774D01*
X71090226Y-92053937D01*
X71259744Y-92167205D01*
X71448102Y-92245226D01*
X71648061Y-92285000D01*
X71851939Y-92285000D01*
X72051898Y-92245226D01*
X72240256Y-92167205D01*
X72409774Y-92053937D01*
X72553937Y-91909774D01*
X72561763Y-91898061D01*
X103965000Y-91898061D01*
X103965000Y-92101939D01*
X104004774Y-92301898D01*
X104082795Y-92490256D01*
X104196063Y-92659774D01*
X104340226Y-92803937D01*
X104509744Y-92917205D01*
X104698102Y-92995226D01*
X104898061Y-93035000D01*
X105101939Y-93035000D01*
X105301898Y-92995226D01*
X105490256Y-92917205D01*
X105659774Y-92803937D01*
X105803937Y-92659774D01*
X105917205Y-92490256D01*
X105995226Y-92301898D01*
X106035000Y-92101939D01*
X106035000Y-91898061D01*
X105995226Y-91698102D01*
X105974499Y-91648061D01*
X157465000Y-91648061D01*
X157465000Y-91851939D01*
X157504774Y-92051898D01*
X157582795Y-92240256D01*
X157696063Y-92409774D01*
X157840226Y-92553937D01*
X158009744Y-92667205D01*
X158198102Y-92745226D01*
X158398061Y-92785000D01*
X158601939Y-92785000D01*
X158801898Y-92745226D01*
X158990256Y-92667205D01*
X159159774Y-92553937D01*
X159303937Y-92409774D01*
X159417205Y-92240256D01*
X159495226Y-92051898D01*
X159535000Y-91851939D01*
X159535000Y-91648061D01*
X159495226Y-91448102D01*
X159417205Y-91259744D01*
X159303937Y-91090226D01*
X159159774Y-90946063D01*
X158990256Y-90832795D01*
X158801898Y-90754774D01*
X158601939Y-90715000D01*
X158398061Y-90715000D01*
X158198102Y-90754774D01*
X158009744Y-90832795D01*
X157840226Y-90946063D01*
X157696063Y-91090226D01*
X157582795Y-91259744D01*
X157504774Y-91448102D01*
X157465000Y-91648061D01*
X105974499Y-91648061D01*
X105917205Y-91509744D01*
X105803937Y-91340226D01*
X105659774Y-91196063D01*
X105490256Y-91082795D01*
X105301898Y-91004774D01*
X105101939Y-90965000D01*
X104898061Y-90965000D01*
X104698102Y-91004774D01*
X104509744Y-91082795D01*
X104340226Y-91196063D01*
X104196063Y-91340226D01*
X104082795Y-91509744D01*
X104004774Y-91698102D01*
X103965000Y-91898061D01*
X72561763Y-91898061D01*
X72667205Y-91740256D01*
X72745226Y-91551898D01*
X72785000Y-91351939D01*
X72785000Y-91148061D01*
X72745226Y-90948102D01*
X72667205Y-90759744D01*
X72553937Y-90590226D01*
X72409774Y-90446063D01*
X72240256Y-90332795D01*
X72051898Y-90254774D01*
X71851939Y-90215000D01*
X71648061Y-90215000D01*
X71448102Y-90254774D01*
X71259744Y-90332795D01*
X71090226Y-90446063D01*
X70946063Y-90590226D01*
X70832795Y-90759744D01*
X70754774Y-90948102D01*
X70715000Y-91148061D01*
X69541898Y-91148061D01*
X69631515Y-91013940D01*
X69713304Y-90816483D01*
X69755000Y-90606863D01*
X69755000Y-90393137D01*
X69713304Y-90183517D01*
X69631515Y-89986060D01*
X69512775Y-89808353D01*
X69361647Y-89657225D01*
X69183940Y-89538485D01*
X68986483Y-89456696D01*
X68776863Y-89415000D01*
X68563137Y-89415000D01*
X68353517Y-89456696D01*
X68156060Y-89538485D01*
X67978353Y-89657225D01*
X67827225Y-89808353D01*
X67708485Y-89986060D01*
X67626696Y-90183517D01*
X67585000Y-90393137D01*
X66660000Y-90393137D01*
X66660000Y-87393137D01*
X67585000Y-87393137D01*
X67585000Y-87606863D01*
X67626696Y-87816483D01*
X67708485Y-88013940D01*
X67827225Y-88191647D01*
X67978353Y-88342775D01*
X68156060Y-88461515D01*
X68353517Y-88543304D01*
X68563137Y-88585000D01*
X68776863Y-88585000D01*
X68986483Y-88543304D01*
X69183940Y-88461515D01*
X69361647Y-88342775D01*
X69512775Y-88191647D01*
X69631515Y-88013940D01*
X69713304Y-87816483D01*
X69721941Y-87773061D01*
X146015000Y-87773061D01*
X146015000Y-87976939D01*
X146054774Y-88176898D01*
X146132795Y-88365256D01*
X146246063Y-88534774D01*
X146390226Y-88678937D01*
X146559744Y-88792205D01*
X146748102Y-88870226D01*
X146948061Y-88910000D01*
X147151939Y-88910000D01*
X147351898Y-88870226D01*
X147540256Y-88792205D01*
X147709774Y-88678937D01*
X147853937Y-88534774D01*
X147967205Y-88365256D01*
X148045226Y-88176898D01*
X148085000Y-87976939D01*
X148085000Y-87773061D01*
X148045226Y-87573102D01*
X147967205Y-87384744D01*
X147853937Y-87215226D01*
X147709774Y-87071063D01*
X147540256Y-86957795D01*
X147351898Y-86879774D01*
X147151939Y-86840000D01*
X146948061Y-86840000D01*
X146748102Y-86879774D01*
X146559744Y-86957795D01*
X146390226Y-87071063D01*
X146246063Y-87215226D01*
X146132795Y-87384744D01*
X146054774Y-87573102D01*
X146015000Y-87773061D01*
X69721941Y-87773061D01*
X69755000Y-87606863D01*
X69755000Y-87393137D01*
X69713304Y-87183517D01*
X69631515Y-86986060D01*
X69512775Y-86808353D01*
X69361647Y-86657225D01*
X69183940Y-86538485D01*
X68986483Y-86456696D01*
X68776863Y-86415000D01*
X68563137Y-86415000D01*
X68353517Y-86456696D01*
X68156060Y-86538485D01*
X67978353Y-86657225D01*
X67827225Y-86808353D01*
X67708485Y-86986060D01*
X67626696Y-87183517D01*
X67585000Y-87393137D01*
X66660000Y-87393137D01*
X66660000Y-84148061D01*
X110965000Y-84148061D01*
X110965000Y-84351939D01*
X111004774Y-84551898D01*
X111082795Y-84740256D01*
X111172828Y-84875000D01*
X111082795Y-85009744D01*
X111004774Y-85198102D01*
X110965000Y-85398061D01*
X110965000Y-85601939D01*
X111004774Y-85801898D01*
X111082795Y-85990256D01*
X111196063Y-86159774D01*
X111340226Y-86303937D01*
X111509744Y-86417205D01*
X111698102Y-86495226D01*
X111898061Y-86535000D01*
X112101939Y-86535000D01*
X112301898Y-86495226D01*
X112490256Y-86417205D01*
X112659774Y-86303937D01*
X112803937Y-86159774D01*
X112917205Y-85990256D01*
X112995226Y-85801898D01*
X113035000Y-85601939D01*
X113035000Y-85398061D01*
X112995226Y-85198102D01*
X112917205Y-85009744D01*
X112827172Y-84875000D01*
X112917205Y-84740256D01*
X112995226Y-84551898D01*
X113035000Y-84351939D01*
X113035000Y-84148061D01*
X112995226Y-83948102D01*
X112917205Y-83759744D01*
X112803937Y-83590226D01*
X112659774Y-83446063D01*
X112490256Y-83332795D01*
X112301898Y-83254774D01*
X112101939Y-83215000D01*
X111898061Y-83215000D01*
X111698102Y-83254774D01*
X111509744Y-83332795D01*
X111340226Y-83446063D01*
X111196063Y-83590226D01*
X111082795Y-83759744D01*
X111004774Y-83948102D01*
X110965000Y-84148061D01*
X66660000Y-84148061D01*
X66660000Y-81398061D01*
X110965000Y-81398061D01*
X110965000Y-81601939D01*
X111004774Y-81801898D01*
X111082795Y-81990256D01*
X111196063Y-82159774D01*
X111340226Y-82303937D01*
X111509744Y-82417205D01*
X111698102Y-82495226D01*
X111898061Y-82535000D01*
X112101939Y-82535000D01*
X112301898Y-82495226D01*
X112490256Y-82417205D01*
X112659774Y-82303937D01*
X112803937Y-82159774D01*
X112917205Y-81990256D01*
X112995226Y-81801898D01*
X113035000Y-81601939D01*
X113035000Y-81398061D01*
X112995226Y-81198102D01*
X112917205Y-81009744D01*
X112803937Y-80840226D01*
X112659774Y-80696063D01*
X112490256Y-80582795D01*
X112301898Y-80504774D01*
X112101939Y-80465000D01*
X111898061Y-80465000D01*
X111698102Y-80504774D01*
X111509744Y-80582795D01*
X111340226Y-80696063D01*
X111196063Y-80840226D01*
X111082795Y-81009744D01*
X111004774Y-81198102D01*
X110965000Y-81398061D01*
X66660000Y-81398061D01*
X66660000Y-76027089D01*
X66702188Y-75513945D01*
X67065000Y-75513945D01*
X67065000Y-76486055D01*
X67254650Y-77439486D01*
X67626660Y-78337599D01*
X68166735Y-79145879D01*
X68854121Y-79833265D01*
X69662401Y-80373340D01*
X70560514Y-80745350D01*
X71513945Y-80935000D01*
X72486055Y-80935000D01*
X73439486Y-80745350D01*
X74337599Y-80373340D01*
X75145879Y-79833265D01*
X75833265Y-79145879D01*
X76373340Y-78337599D01*
X76745350Y-77439486D01*
X76935000Y-76486055D01*
X76935000Y-76398061D01*
X89965000Y-76398061D01*
X89965000Y-76601939D01*
X90004774Y-76801898D01*
X90082795Y-76990256D01*
X90196063Y-77159774D01*
X90340226Y-77303937D01*
X90509744Y-77417205D01*
X90698102Y-77495226D01*
X90898061Y-77535000D01*
X91101939Y-77535000D01*
X91301898Y-77495226D01*
X91490256Y-77417205D01*
X91659774Y-77303937D01*
X91803937Y-77159774D01*
X91917205Y-76990256D01*
X91995226Y-76801898D01*
X92035000Y-76601939D01*
X92035000Y-76398061D01*
X91995226Y-76198102D01*
X91971639Y-76141158D01*
X92102007Y-76210841D01*
X92297105Y-76270024D01*
X92500000Y-76290007D01*
X92702894Y-76270024D01*
X92897992Y-76210841D01*
X93077797Y-76114734D01*
X93125000Y-76075996D01*
X93172203Y-76114734D01*
X93352007Y-76210841D01*
X93547105Y-76270024D01*
X93750000Y-76290007D01*
X93952894Y-76270024D01*
X94147992Y-76210841D01*
X94229264Y-76167401D01*
X94243658Y-76179298D01*
X94353766Y-76238646D01*
X94473336Y-76275374D01*
X94593250Y-76285000D01*
X94752000Y-76126250D01*
X94752000Y-75512311D01*
X94770024Y-75452895D01*
X94785000Y-75300838D01*
X94785000Y-75248000D01*
X95248000Y-75248000D01*
X95248000Y-76126250D01*
X95406750Y-76285000D01*
X95526664Y-76275374D01*
X95646234Y-76238646D01*
X95756342Y-76179298D01*
X95852756Y-76099608D01*
X95931771Y-76002641D01*
X95990350Y-75892122D01*
X96026242Y-75772298D01*
X96038068Y-75647774D01*
X96035000Y-75406750D01*
X95876250Y-75248000D01*
X95248000Y-75248000D01*
X94785000Y-75248000D01*
X94785000Y-74699163D01*
X94770024Y-74547106D01*
X94752000Y-74487690D01*
X94752000Y-73873750D01*
X95248000Y-73873750D01*
X95248000Y-74752000D01*
X95876250Y-74752000D01*
X96001360Y-74626890D01*
X152874048Y-74626890D01*
X152874048Y-74873110D01*
X152922083Y-75114598D01*
X153016307Y-75342074D01*
X153153099Y-75546798D01*
X153327202Y-75720901D01*
X153531926Y-75857693D01*
X153759402Y-75951917D01*
X154000890Y-75999952D01*
X154247110Y-75999952D01*
X154488598Y-75951917D01*
X154716074Y-75857693D01*
X154920798Y-75720901D01*
X155094901Y-75546798D01*
X155116852Y-75513945D01*
X160065000Y-75513945D01*
X160065000Y-76486055D01*
X160254650Y-77439486D01*
X160626660Y-78337599D01*
X161166735Y-79145879D01*
X161854121Y-79833265D01*
X162662401Y-80373340D01*
X163560514Y-80745350D01*
X164513945Y-80935000D01*
X165486055Y-80935000D01*
X166439486Y-80745350D01*
X167337599Y-80373340D01*
X168145879Y-79833265D01*
X168833265Y-79145879D01*
X169373340Y-78337599D01*
X169745350Y-77439486D01*
X169935000Y-76486055D01*
X169935000Y-75513945D01*
X169745350Y-74560514D01*
X169373340Y-73662401D01*
X168833265Y-72854121D01*
X168145879Y-72166735D01*
X167337599Y-71626660D01*
X166439486Y-71254650D01*
X165486055Y-71065000D01*
X164513945Y-71065000D01*
X163560514Y-71254650D01*
X162662401Y-71626660D01*
X161854121Y-72166735D01*
X161166735Y-72854121D01*
X160626660Y-73662401D01*
X160254650Y-74560514D01*
X160065000Y-75513945D01*
X155116852Y-75513945D01*
X155231693Y-75342074D01*
X155325917Y-75114598D01*
X155373952Y-74873110D01*
X155373952Y-74626890D01*
X155325917Y-74385402D01*
X155231693Y-74157926D01*
X155094901Y-73953202D01*
X154920798Y-73779099D01*
X154716074Y-73642307D01*
X154488598Y-73548083D01*
X154247110Y-73500048D01*
X154000890Y-73500048D01*
X153759402Y-73548083D01*
X153531926Y-73642307D01*
X153327202Y-73779099D01*
X153153099Y-73953202D01*
X153016307Y-74157926D01*
X152922083Y-74385402D01*
X152874048Y-74626890D01*
X96001360Y-74626890D01*
X96035000Y-74593250D01*
X96038068Y-74352226D01*
X96026242Y-74227702D01*
X95990350Y-74107878D01*
X95931771Y-73997359D01*
X95852756Y-73900392D01*
X95756342Y-73820702D01*
X95646234Y-73761354D01*
X95526664Y-73724626D01*
X95406750Y-73715000D01*
X95248000Y-73873750D01*
X94752000Y-73873750D01*
X94593250Y-73715000D01*
X94473336Y-73724626D01*
X94353766Y-73761354D01*
X94243658Y-73820702D01*
X94229264Y-73832599D01*
X94147993Y-73789159D01*
X93952895Y-73729976D01*
X93750000Y-73709993D01*
X93547106Y-73729976D01*
X93352008Y-73789159D01*
X93172204Y-73885266D01*
X93125000Y-73924005D01*
X93077797Y-73885266D01*
X92897993Y-73789159D01*
X92702895Y-73729976D01*
X92500000Y-73709993D01*
X92297106Y-73729976D01*
X92102008Y-73789159D01*
X91922204Y-73885266D01*
X91875000Y-73924005D01*
X91827797Y-73885266D01*
X91647993Y-73789159D01*
X91452895Y-73729976D01*
X91250000Y-73709993D01*
X91047106Y-73729976D01*
X90852008Y-73789159D01*
X90672204Y-73885266D01*
X90514605Y-74014604D01*
X90385267Y-74172203D01*
X90289159Y-74352007D01*
X90229976Y-74547105D01*
X90215000Y-74699162D01*
X90215000Y-75300837D01*
X90229976Y-75452894D01*
X90289159Y-75647992D01*
X90323691Y-75712598D01*
X90196063Y-75840226D01*
X90082795Y-76009744D01*
X90004774Y-76198102D01*
X89965000Y-76398061D01*
X76935000Y-76398061D01*
X76935000Y-75513945D01*
X76758554Y-74626890D01*
X81250048Y-74626890D01*
X81250048Y-74873110D01*
X81298083Y-75114598D01*
X81392307Y-75342074D01*
X81529099Y-75546798D01*
X81703202Y-75720901D01*
X81907926Y-75857693D01*
X82135402Y-75951917D01*
X82376890Y-75999952D01*
X82623110Y-75999952D01*
X82864598Y-75951917D01*
X83092074Y-75857693D01*
X83296798Y-75720901D01*
X83470901Y-75546798D01*
X83607693Y-75342074D01*
X83701917Y-75114598D01*
X83749952Y-74873110D01*
X83749952Y-74626890D01*
X83701917Y-74385402D01*
X83607693Y-74157926D01*
X83470901Y-73953202D01*
X83296798Y-73779099D01*
X83092074Y-73642307D01*
X82864598Y-73548083D01*
X82623110Y-73500048D01*
X82376890Y-73500048D01*
X82135402Y-73548083D01*
X81907926Y-73642307D01*
X81703202Y-73779099D01*
X81529099Y-73953202D01*
X81392307Y-74157926D01*
X81298083Y-74385402D01*
X81250048Y-74626890D01*
X76758554Y-74626890D01*
X76745350Y-74560514D01*
X76373340Y-73662401D01*
X75833265Y-72854121D01*
X75145879Y-72166735D01*
X74337599Y-71626660D01*
X73439486Y-71254650D01*
X72486055Y-71065000D01*
X71513945Y-71065000D01*
X70560514Y-71254650D01*
X69662401Y-71626660D01*
X68854121Y-72166735D01*
X68166735Y-72854121D01*
X67626660Y-73662401D01*
X67254650Y-74560514D01*
X67065000Y-75513945D01*
X66702188Y-75513945D01*
X66733902Y-75128203D01*
X66947001Y-74279818D01*
X67295803Y-73477629D01*
X67770938Y-72743182D01*
X68359646Y-72096202D01*
X69046125Y-71554054D01*
X69811928Y-71131308D01*
X70636491Y-70839316D01*
X71509076Y-70683884D01*
X72015547Y-70660000D01*
X164972911Y-70660000D01*
X165871797Y-70733902D01*
%TA.AperFunction,Conductor*%
D19*
G36*
X165871797Y-70733902D02*
G01*
X166720182Y-70947001D01*
X167522371Y-71295803D01*
X168256818Y-71770938D01*
X168903798Y-72359646D01*
X169445946Y-73046125D01*
X169868692Y-73811928D01*
X170160684Y-74636491D01*
X170316116Y-75509076D01*
X170340000Y-76015547D01*
X170340000Y-87519912D01*
X170276949Y-87468167D01*
X170062401Y-87353489D01*
X169829602Y-87282870D01*
X169648165Y-87265000D01*
X168826835Y-87265000D01*
X168645398Y-87282870D01*
X168412599Y-87353489D01*
X168198051Y-87468167D01*
X168009998Y-87622498D01*
X167855667Y-87810551D01*
X167740989Y-88025099D01*
X167670370Y-88257898D01*
X167646525Y-88500000D01*
X167670370Y-88742102D01*
X167673383Y-88752035D01*
X167593881Y-88633051D01*
X167404449Y-88443619D01*
X167181701Y-88294784D01*
X166934197Y-88192264D01*
X166671448Y-88140000D01*
X166403552Y-88140000D01*
X166140803Y-88192264D01*
X165893299Y-88294784D01*
X165670551Y-88443619D01*
X165481119Y-88633051D01*
X165378567Y-88786532D01*
X165301898Y-88754774D01*
X165101939Y-88715000D01*
X164898061Y-88715000D01*
X164698102Y-88754774D01*
X164509744Y-88832795D01*
X164375000Y-88922828D01*
X164240256Y-88832795D01*
X164051898Y-88754774D01*
X163851939Y-88715000D01*
X163648061Y-88715000D01*
X163448102Y-88754774D01*
X163259744Y-88832795D01*
X163090226Y-88946063D01*
X162946063Y-89090226D01*
X162832795Y-89259744D01*
X162754774Y-89448102D01*
X162715000Y-89648061D01*
X162715000Y-89851939D01*
X162754774Y-90051898D01*
X162832795Y-90240256D01*
X162839306Y-90250000D01*
X162832795Y-90259744D01*
X162754774Y-90448102D01*
X162715000Y-90648061D01*
X162715000Y-90851939D01*
X162754774Y-91051898D01*
X162832795Y-91240256D01*
X162946063Y-91409774D01*
X163090226Y-91553937D01*
X163259744Y-91667205D01*
X163448102Y-91745226D01*
X163648061Y-91785000D01*
X163851939Y-91785000D01*
X164051898Y-91745226D01*
X164240256Y-91667205D01*
X164375000Y-91577172D01*
X164509744Y-91667205D01*
X164698102Y-91745226D01*
X164898061Y-91785000D01*
X165101939Y-91785000D01*
X165301898Y-91745226D01*
X165490256Y-91667205D01*
X165659774Y-91553937D01*
X165803937Y-91409774D01*
X165917205Y-91240256D01*
X165995226Y-91051898D01*
X166035000Y-90851939D01*
X166035000Y-90763911D01*
X166140803Y-90807736D01*
X166403552Y-90860000D01*
X166671448Y-90860000D01*
X166934197Y-90807736D01*
X167181701Y-90705216D01*
X167404449Y-90556381D01*
X167593881Y-90366949D01*
X167742716Y-90144201D01*
X167845236Y-89896697D01*
X167897500Y-89633948D01*
X167897500Y-89366052D01*
X167864516Y-89200232D01*
X168009998Y-89377502D01*
X168198051Y-89531833D01*
X168412599Y-89646511D01*
X168645398Y-89717130D01*
X168826835Y-89735000D01*
X169648165Y-89735000D01*
X169829602Y-89717130D01*
X170062401Y-89646511D01*
X170276949Y-89531833D01*
X170340000Y-89480088D01*
X170340000Y-94519912D01*
X170276949Y-94468167D01*
X170062401Y-94353489D01*
X169829602Y-94282870D01*
X169648165Y-94265000D01*
X168826835Y-94265000D01*
X168645398Y-94282870D01*
X168412599Y-94353489D01*
X168198051Y-94468167D01*
X168009998Y-94622498D01*
X167864516Y-94799768D01*
X167897500Y-94633948D01*
X167897500Y-94366052D01*
X167845236Y-94103303D01*
X167742716Y-93855799D01*
X167593881Y-93633051D01*
X167404449Y-93443619D01*
X167181701Y-93294784D01*
X166934197Y-93192264D01*
X166671448Y-93140000D01*
X166403552Y-93140000D01*
X166140803Y-93192264D01*
X165893299Y-93294784D01*
X165670551Y-93443619D01*
X165481119Y-93633051D01*
X165332284Y-93855799D01*
X165229764Y-94103303D01*
X165177500Y-94366052D01*
X165177500Y-94633948D01*
X165229764Y-94896697D01*
X165332284Y-95144201D01*
X165481119Y-95366949D01*
X165670551Y-95556381D01*
X165893299Y-95705216D01*
X166140803Y-95807736D01*
X166403552Y-95860000D01*
X166671448Y-95860000D01*
X166934197Y-95807736D01*
X167181701Y-95705216D01*
X167404449Y-95556381D01*
X167593881Y-95366949D01*
X167673383Y-95247965D01*
X167670370Y-95257898D01*
X167646525Y-95500000D01*
X167670370Y-95742102D01*
X167740989Y-95974901D01*
X167855667Y-96189449D01*
X168009998Y-96377502D01*
X168198051Y-96531833D01*
X168412599Y-96646511D01*
X168645398Y-96717130D01*
X168826835Y-96735000D01*
X169648165Y-96735000D01*
X169829602Y-96717130D01*
X170062401Y-96646511D01*
X170276949Y-96531833D01*
X170340000Y-96480088D01*
X170340001Y-118972899D01*
X170266098Y-119871802D01*
X170052999Y-120720180D01*
X169704197Y-121522371D01*
X169229062Y-122256818D01*
X168640354Y-122903799D01*
X167953875Y-123445946D01*
X167188076Y-123868691D01*
X166363514Y-124160683D01*
X165490925Y-124316116D01*
X164984453Y-124340000D01*
X72027089Y-124340000D01*
X71128198Y-124266098D01*
X70279820Y-124052999D01*
X69477629Y-123704197D01*
X68743182Y-123229062D01*
X68096201Y-122640354D01*
X67554054Y-121953875D01*
X67131309Y-121188076D01*
X66839317Y-120363514D01*
X66683884Y-119490925D01*
X66660000Y-118984453D01*
X66660000Y-118513945D01*
X67065000Y-118513945D01*
X67065000Y-119486055D01*
X67254650Y-120439486D01*
X67626660Y-121337599D01*
X68166735Y-122145879D01*
X68854121Y-122833265D01*
X69662401Y-123373340D01*
X70560514Y-123745350D01*
X71513945Y-123935000D01*
X72486055Y-123935000D01*
X73439486Y-123745350D01*
X74337599Y-123373340D01*
X75145879Y-122833265D01*
X75833265Y-122145879D01*
X76064373Y-121800000D01*
X110011928Y-121800000D01*
X110011928Y-123500000D01*
X110024188Y-123624482D01*
X110060498Y-123744180D01*
X110119463Y-123854494D01*
X110198815Y-123951185D01*
X110295506Y-124030537D01*
X110405820Y-124089502D01*
X110525518Y-124125812D01*
X110650000Y-124138072D01*
X112350000Y-124138072D01*
X112474482Y-124125812D01*
X112594180Y-124089502D01*
X112704494Y-124030537D01*
X112801185Y-123951185D01*
X112880537Y-123854494D01*
X112939502Y-123744180D01*
X112961513Y-123671620D01*
X113093368Y-123803475D01*
X113336589Y-123965990D01*
X113606842Y-124077932D01*
X113893740Y-124135000D01*
X114186260Y-124135000D01*
X114473158Y-124077932D01*
X114743411Y-123965990D01*
X114986632Y-123803475D01*
X115193475Y-123596632D01*
X115355990Y-123353411D01*
X115467932Y-123083158D01*
X115525000Y-122796260D01*
X115525000Y-122503740D01*
X115467932Y-122216842D01*
X115355990Y-121946589D01*
X115193475Y-121703368D01*
X114986632Y-121496525D01*
X114743411Y-121334010D01*
X114473158Y-121222068D01*
X114186260Y-121165000D01*
X113893740Y-121165000D01*
X113606842Y-121222068D01*
X113336589Y-121334010D01*
X113093368Y-121496525D01*
X112961513Y-121628380D01*
X112939502Y-121555820D01*
X112880537Y-121445506D01*
X112801185Y-121348815D01*
X112704494Y-121269463D01*
X112594180Y-121210498D01*
X112474482Y-121174188D01*
X112350000Y-121161928D01*
X110650000Y-121161928D01*
X110525518Y-121174188D01*
X110405820Y-121210498D01*
X110295506Y-121269463D01*
X110198815Y-121348815D01*
X110119463Y-121445506D01*
X110060498Y-121555820D01*
X110024188Y-121675518D01*
X110011928Y-121800000D01*
X76064373Y-121800000D01*
X76373340Y-121337599D01*
X76659074Y-120647774D01*
X95961932Y-120647774D01*
X95973758Y-120772298D01*
X96009650Y-120892122D01*
X96068229Y-121002641D01*
X96147244Y-121099608D01*
X96243658Y-121179298D01*
X96353766Y-121238646D01*
X96473336Y-121275374D01*
X96593250Y-121285000D01*
X96752000Y-121126250D01*
X96752000Y-120248000D01*
X96123750Y-120248000D01*
X95965000Y-120406750D01*
X95961932Y-120647774D01*
X76659074Y-120647774D01*
X76745350Y-120439486D01*
X76935000Y-119486055D01*
X76935000Y-119352226D01*
X95961932Y-119352226D01*
X95965000Y-119593250D01*
X96123750Y-119752000D01*
X96752000Y-119752000D01*
X96752000Y-119699163D01*
X97215000Y-119699163D01*
X97215000Y-120300838D01*
X97229976Y-120452895D01*
X97248000Y-120512311D01*
X97248000Y-121126250D01*
X97406750Y-121285000D01*
X97526664Y-121275374D01*
X97646234Y-121238646D01*
X97756342Y-121179298D01*
X97770736Y-121167401D01*
X97852008Y-121210841D01*
X98047106Y-121270024D01*
X98250000Y-121290007D01*
X98452895Y-121270024D01*
X98647993Y-121210841D01*
X98827797Y-121114734D01*
X98875001Y-121075995D01*
X98922204Y-121114734D01*
X99102008Y-121210841D01*
X99297106Y-121270024D01*
X99500000Y-121290007D01*
X99702895Y-121270024D01*
X99897993Y-121210841D01*
X100077797Y-121114734D01*
X100125001Y-121075995D01*
X100172204Y-121114734D01*
X100352008Y-121210841D01*
X100547106Y-121270024D01*
X100750000Y-121290007D01*
X100952895Y-121270024D01*
X101147993Y-121210841D01*
X101327797Y-121114734D01*
X101485396Y-120985396D01*
X101614734Y-120827797D01*
X101710841Y-120647992D01*
X101770024Y-120452894D01*
X101785000Y-120300837D01*
X101785000Y-119699162D01*
X101770024Y-119547105D01*
X101710841Y-119352007D01*
X101614734Y-119172203D01*
X101485396Y-119014604D01*
X101327797Y-118885266D01*
X101147992Y-118789159D01*
X100952894Y-118729976D01*
X100750000Y-118709993D01*
X100547105Y-118729976D01*
X100352007Y-118789159D01*
X100172203Y-118885266D01*
X100125000Y-118924004D01*
X100077797Y-118885266D01*
X99897992Y-118789159D01*
X99702894Y-118729976D01*
X99500000Y-118709993D01*
X99297105Y-118729976D01*
X99102007Y-118789159D01*
X98922203Y-118885266D01*
X98875000Y-118924004D01*
X98827797Y-118885266D01*
X98647992Y-118789159D01*
X98452894Y-118729976D01*
X98250000Y-118709993D01*
X98047105Y-118729976D01*
X97852007Y-118789159D01*
X97770736Y-118832599D01*
X97756342Y-118820702D01*
X97646234Y-118761354D01*
X97526664Y-118724626D01*
X97406750Y-118715000D01*
X97248000Y-118873750D01*
X97248000Y-119487690D01*
X97229976Y-119547106D01*
X97215000Y-119699163D01*
X96752000Y-119699163D01*
X96752000Y-118873750D01*
X96593250Y-118715000D01*
X96473336Y-118724626D01*
X96353766Y-118761354D01*
X96243658Y-118820702D01*
X96147244Y-118900392D01*
X96068229Y-118997359D01*
X96009650Y-119107878D01*
X95973758Y-119227702D01*
X95961932Y-119352226D01*
X76935000Y-119352226D01*
X76935000Y-118513945D01*
X76927630Y-118476890D01*
X152874048Y-118476890D01*
X152874048Y-118723110D01*
X152922083Y-118964598D01*
X153016307Y-119192074D01*
X153153099Y-119396798D01*
X153327202Y-119570901D01*
X153531926Y-119707693D01*
X153759402Y-119801917D01*
X154000890Y-119849952D01*
X154247110Y-119849952D01*
X154488598Y-119801917D01*
X154716074Y-119707693D01*
X154920798Y-119570901D01*
X155094901Y-119396798D01*
X155231693Y-119192074D01*
X155325917Y-118964598D01*
X155373952Y-118723110D01*
X155373952Y-118513945D01*
X160065000Y-118513945D01*
X160065000Y-119486055D01*
X160254650Y-120439486D01*
X160626660Y-121337599D01*
X161166735Y-122145879D01*
X161854121Y-122833265D01*
X162662401Y-123373340D01*
X163560514Y-123745350D01*
X164513945Y-123935000D01*
X165486055Y-123935000D01*
X166439486Y-123745350D01*
X167337599Y-123373340D01*
X168145879Y-122833265D01*
X168833265Y-122145879D01*
X169373340Y-121337599D01*
X169745350Y-120439486D01*
X169935000Y-119486055D01*
X169935000Y-118513945D01*
X169745350Y-117560514D01*
X169373340Y-116662401D01*
X168833265Y-115854121D01*
X168145879Y-115166735D01*
X167337599Y-114626660D01*
X166439486Y-114254650D01*
X165486055Y-114065000D01*
X164513945Y-114065000D01*
X163560514Y-114254650D01*
X162662401Y-114626660D01*
X161854121Y-115166735D01*
X161166735Y-115854121D01*
X160626660Y-116662401D01*
X160254650Y-117560514D01*
X160065000Y-118513945D01*
X155373952Y-118513945D01*
X155373952Y-118476890D01*
X155325917Y-118235402D01*
X155231693Y-118007926D01*
X155094901Y-117803202D01*
X154920798Y-117629099D01*
X154716074Y-117492307D01*
X154488598Y-117398083D01*
X154247110Y-117350048D01*
X154000890Y-117350048D01*
X153759402Y-117398083D01*
X153531926Y-117492307D01*
X153327202Y-117629099D01*
X153153099Y-117803202D01*
X153016307Y-118007926D01*
X152922083Y-118235402D01*
X152874048Y-118476890D01*
X76927630Y-118476890D01*
X76745350Y-117560514D01*
X76373340Y-116662401D01*
X75833265Y-115854121D01*
X75627205Y-115648061D01*
X80965000Y-115648061D01*
X80965000Y-115851939D01*
X81004774Y-116051898D01*
X81082795Y-116240256D01*
X81196063Y-116409774D01*
X81340226Y-116553937D01*
X81509744Y-116667205D01*
X81698102Y-116745226D01*
X81898061Y-116785000D01*
X82101939Y-116785000D01*
X82301898Y-116745226D01*
X82490256Y-116667205D01*
X82659774Y-116553937D01*
X82803937Y-116409774D01*
X82917205Y-116240256D01*
X82995226Y-116051898D01*
X83035000Y-115851939D01*
X83035000Y-115648061D01*
X82995226Y-115448102D01*
X82917205Y-115259744D01*
X82803937Y-115090226D01*
X82659774Y-114946063D01*
X82490256Y-114832795D01*
X82301898Y-114754774D01*
X82101939Y-114715000D01*
X81898061Y-114715000D01*
X81698102Y-114754774D01*
X81509744Y-114832795D01*
X81340226Y-114946063D01*
X81196063Y-115090226D01*
X81082795Y-115259744D01*
X81004774Y-115448102D01*
X80965000Y-115648061D01*
X75627205Y-115648061D01*
X75145879Y-115166735D01*
X74337599Y-114626660D01*
X73439486Y-114254650D01*
X72486055Y-114065000D01*
X71513945Y-114065000D01*
X70560514Y-114254650D01*
X69662401Y-114626660D01*
X68854121Y-115166735D01*
X68166735Y-115854121D01*
X67626660Y-116662401D01*
X67254650Y-117560514D01*
X67065000Y-118513945D01*
X66660000Y-118513945D01*
X66660000Y-113648061D01*
X100965000Y-113648061D01*
X100965000Y-113851939D01*
X101004774Y-114051898D01*
X101082795Y-114240256D01*
X101196063Y-114409774D01*
X101340226Y-114553937D01*
X101509744Y-114667205D01*
X101698102Y-114745226D01*
X101898061Y-114785000D01*
X102101939Y-114785000D01*
X102301898Y-114745226D01*
X102490256Y-114667205D01*
X102659774Y-114553937D01*
X102803937Y-114409774D01*
X102917205Y-114240256D01*
X102995226Y-114051898D01*
X103035000Y-113851939D01*
X103035000Y-113648061D01*
X102995226Y-113448102D01*
X102917205Y-113259744D01*
X102803937Y-113090226D01*
X102659774Y-112946063D01*
X102490256Y-112832795D01*
X102301898Y-112754774D01*
X102101939Y-112715000D01*
X101898061Y-112715000D01*
X101698102Y-112754774D01*
X101509744Y-112832795D01*
X101340226Y-112946063D01*
X101196063Y-113090226D01*
X101082795Y-113259744D01*
X101004774Y-113448102D01*
X100965000Y-113648061D01*
X66660000Y-113648061D01*
X66660000Y-109898061D01*
X92715000Y-109898061D01*
X92715000Y-110101939D01*
X92754774Y-110301898D01*
X92832795Y-110490256D01*
X92946063Y-110659774D01*
X93090226Y-110803937D01*
X93259744Y-110917205D01*
X93448102Y-110995226D01*
X93648061Y-111035000D01*
X93851939Y-111035000D01*
X94051898Y-110995226D01*
X94240256Y-110917205D01*
X94409774Y-110803937D01*
X94553937Y-110659774D01*
X94667205Y-110490256D01*
X94745226Y-110301898D01*
X94785000Y-110101939D01*
X94785000Y-109898061D01*
X94745226Y-109698102D01*
X94667205Y-109509744D01*
X94553937Y-109340226D01*
X94409774Y-109196063D01*
X94240256Y-109082795D01*
X94051898Y-109004774D01*
X93851939Y-108965000D01*
X93648061Y-108965000D01*
X93448102Y-109004774D01*
X93259744Y-109082795D01*
X93090226Y-109196063D01*
X92946063Y-109340226D01*
X92832795Y-109509744D01*
X92754774Y-109698102D01*
X92715000Y-109898061D01*
X66660000Y-109898061D01*
X66660000Y-108898061D01*
X104215000Y-108898061D01*
X104215000Y-109101939D01*
X104254774Y-109301898D01*
X104332795Y-109490256D01*
X104446063Y-109659774D01*
X104590226Y-109803937D01*
X104759744Y-109917205D01*
X104948102Y-109995226D01*
X105148061Y-110035000D01*
X105351939Y-110035000D01*
X105551898Y-109995226D01*
X105740256Y-109917205D01*
X105909774Y-109803937D01*
X106053937Y-109659774D01*
X106167205Y-109490256D01*
X106245226Y-109301898D01*
X106285000Y-109101939D01*
X106285000Y-108898061D01*
X106245226Y-108698102D01*
X106167205Y-108509744D01*
X106053937Y-108340226D01*
X105909774Y-108196063D01*
X105740256Y-108082795D01*
X105551898Y-108004774D01*
X105351939Y-107965000D01*
X105148061Y-107965000D01*
X104948102Y-108004774D01*
X104759744Y-108082795D01*
X104590226Y-108196063D01*
X104446063Y-108340226D01*
X104332795Y-108509744D01*
X104254774Y-108698102D01*
X104215000Y-108898061D01*
X66660000Y-108898061D01*
X66660000Y-105548061D01*
X137240000Y-105548061D01*
X137240000Y-105751939D01*
X137279774Y-105951898D01*
X137357795Y-106140256D01*
X137471063Y-106309774D01*
X137615226Y-106453937D01*
X137784744Y-106567205D01*
X137973102Y-106645226D01*
X138173061Y-106685000D01*
X138376939Y-106685000D01*
X138576898Y-106645226D01*
X138750000Y-106573524D01*
X138923102Y-106645226D01*
X139123061Y-106685000D01*
X139326939Y-106685000D01*
X139526898Y-106645226D01*
X139715256Y-106567205D01*
X139884774Y-106453937D01*
X140028937Y-106309774D01*
X140142205Y-106140256D01*
X140220226Y-105951898D01*
X140260000Y-105751939D01*
X140260000Y-105548061D01*
X140220226Y-105348102D01*
X140142205Y-105159744D01*
X140028937Y-104990226D01*
X139884774Y-104846063D01*
X139715256Y-104732795D01*
X139691757Y-104723061D01*
X140540000Y-104723061D01*
X140540000Y-104926939D01*
X140579774Y-105126898D01*
X140657795Y-105315256D01*
X140771063Y-105484774D01*
X140915226Y-105628937D01*
X141084744Y-105742205D01*
X141273102Y-105820226D01*
X141473061Y-105860000D01*
X141676939Y-105860000D01*
X141876898Y-105820226D01*
X142065256Y-105742205D01*
X142234774Y-105628937D01*
X142378937Y-105484774D01*
X142492205Y-105315256D01*
X142570226Y-105126898D01*
X142610000Y-104926939D01*
X142610000Y-104723061D01*
X142570226Y-104523102D01*
X142492205Y-104334744D01*
X142378937Y-104165226D01*
X142234774Y-104021063D01*
X142065256Y-103907795D01*
X141876898Y-103829774D01*
X141676939Y-103790000D01*
X141473061Y-103790000D01*
X141273102Y-103829774D01*
X141084744Y-103907795D01*
X140915226Y-104021063D01*
X140771063Y-104165226D01*
X140657795Y-104334744D01*
X140579774Y-104523102D01*
X140540000Y-104723061D01*
X139691757Y-104723061D01*
X139526898Y-104654774D01*
X139326939Y-104615000D01*
X139123061Y-104615000D01*
X138923102Y-104654774D01*
X138750000Y-104726476D01*
X138576898Y-104654774D01*
X138376939Y-104615000D01*
X138173061Y-104615000D01*
X137973102Y-104654774D01*
X137784744Y-104732795D01*
X137615226Y-104846063D01*
X137471063Y-104990226D01*
X137357795Y-105159744D01*
X137279774Y-105348102D01*
X137240000Y-105548061D01*
X66660000Y-105548061D01*
X66660000Y-103898061D01*
X81465000Y-103898061D01*
X81465000Y-104101939D01*
X81504774Y-104301898D01*
X81582795Y-104490256D01*
X81696063Y-104659774D01*
X81840226Y-104803937D01*
X82009744Y-104917205D01*
X82198102Y-104995226D01*
X82398061Y-105035000D01*
X82601939Y-105035000D01*
X82801898Y-104995226D01*
X82990256Y-104917205D01*
X83159774Y-104803937D01*
X83303937Y-104659774D01*
X83417205Y-104490256D01*
X83495226Y-104301898D01*
X83535000Y-104101939D01*
X83535000Y-103898061D01*
X84965000Y-103898061D01*
X84965000Y-104101939D01*
X85004774Y-104301898D01*
X85082795Y-104490256D01*
X85196063Y-104659774D01*
X85340226Y-104803937D01*
X85509744Y-104917205D01*
X85698102Y-104995226D01*
X85898061Y-105035000D01*
X86101939Y-105035000D01*
X86301898Y-104995226D01*
X86490256Y-104917205D01*
X86659774Y-104803937D01*
X86803937Y-104659774D01*
X86917205Y-104490256D01*
X86995226Y-104301898D01*
X87035000Y-104101939D01*
X87035000Y-103898061D01*
X86995226Y-103698102D01*
X86995210Y-103698061D01*
X125790000Y-103698061D01*
X125790000Y-103901939D01*
X125829774Y-104101898D01*
X125907795Y-104290256D01*
X126021063Y-104459774D01*
X126165226Y-104603937D01*
X126334744Y-104717205D01*
X126523102Y-104795226D01*
X126723061Y-104835000D01*
X126926939Y-104835000D01*
X127126898Y-104795226D01*
X127312500Y-104718347D01*
X127498102Y-104795226D01*
X127698061Y-104835000D01*
X127901939Y-104835000D01*
X128101898Y-104795226D01*
X128290256Y-104717205D01*
X128459774Y-104603937D01*
X128603937Y-104459774D01*
X128717205Y-104290256D01*
X128795226Y-104101898D01*
X128835000Y-103901939D01*
X128835000Y-103698061D01*
X128795226Y-103498102D01*
X128717205Y-103309744D01*
X128603937Y-103140226D01*
X128459774Y-102996063D01*
X128290256Y-102882795D01*
X128101898Y-102804774D01*
X127901939Y-102765000D01*
X127698061Y-102765000D01*
X127498102Y-102804774D01*
X127312500Y-102881653D01*
X127126898Y-102804774D01*
X126926939Y-102765000D01*
X126723061Y-102765000D01*
X126523102Y-102804774D01*
X126334744Y-102882795D01*
X126165226Y-102996063D01*
X126021063Y-103140226D01*
X125907795Y-103309744D01*
X125829774Y-103498102D01*
X125790000Y-103698061D01*
X86995210Y-103698061D01*
X86917205Y-103509744D01*
X86803937Y-103340226D01*
X86659774Y-103196063D01*
X86490256Y-103082795D01*
X86301898Y-103004774D01*
X86101939Y-102965000D01*
X85898061Y-102965000D01*
X85698102Y-103004774D01*
X85509744Y-103082795D01*
X85340226Y-103196063D01*
X85196063Y-103340226D01*
X85082795Y-103509744D01*
X85004774Y-103698102D01*
X84965000Y-103898061D01*
X83535000Y-103898061D01*
X83495226Y-103698102D01*
X83417205Y-103509744D01*
X83303937Y-103340226D01*
X83159774Y-103196063D01*
X82990256Y-103082795D01*
X82801898Y-103004774D01*
X82601939Y-102965000D01*
X82398061Y-102965000D01*
X82198102Y-103004774D01*
X82009744Y-103082795D01*
X81840226Y-103196063D01*
X81696063Y-103340226D01*
X81582795Y-103509744D01*
X81504774Y-103698102D01*
X81465000Y-103898061D01*
X66660000Y-103898061D01*
X66660000Y-100898061D01*
X79715000Y-100898061D01*
X79715000Y-101101939D01*
X79754774Y-101301898D01*
X79832795Y-101490256D01*
X79839306Y-101500000D01*
X79832795Y-101509744D01*
X79754774Y-101698102D01*
X79715000Y-101898061D01*
X79715000Y-102101939D01*
X79754774Y-102301898D01*
X79832795Y-102490256D01*
X79946063Y-102659774D01*
X80090226Y-102803937D01*
X80259744Y-102917205D01*
X80448102Y-102995226D01*
X80648061Y-103035000D01*
X80851939Y-103035000D01*
X81051898Y-102995226D01*
X81240256Y-102917205D01*
X81409774Y-102803937D01*
X81553937Y-102659774D01*
X81667205Y-102490256D01*
X81745226Y-102301898D01*
X81760907Y-102223061D01*
X139490000Y-102223061D01*
X139490000Y-102426939D01*
X139529774Y-102626898D01*
X139607795Y-102815256D01*
X139721063Y-102984774D01*
X139865226Y-103128937D01*
X140034744Y-103242205D01*
X140223102Y-103320226D01*
X140423061Y-103360000D01*
X140626939Y-103360000D01*
X140826898Y-103320226D01*
X141015256Y-103242205D01*
X141184774Y-103128937D01*
X141328937Y-102984774D01*
X141442205Y-102815256D01*
X141520226Y-102626898D01*
X141560000Y-102426939D01*
X141560000Y-102223061D01*
X141520226Y-102023102D01*
X141442205Y-101834744D01*
X141328937Y-101665226D01*
X141184774Y-101521063D01*
X141015256Y-101407795D01*
X140826898Y-101329774D01*
X140626939Y-101290000D01*
X140423061Y-101290000D01*
X140223102Y-101329774D01*
X140034744Y-101407795D01*
X139865226Y-101521063D01*
X139721063Y-101665226D01*
X139607795Y-101834744D01*
X139529774Y-102023102D01*
X139490000Y-102223061D01*
X81760907Y-102223061D01*
X81785000Y-102101939D01*
X81785000Y-101898061D01*
X81745226Y-101698102D01*
X81667205Y-101509744D01*
X81660694Y-101500000D01*
X81667205Y-101490256D01*
X81745226Y-101301898D01*
X81785000Y-101101939D01*
X81785000Y-100898061D01*
X81745226Y-100698102D01*
X81667205Y-100509744D01*
X81553937Y-100340226D01*
X81409774Y-100196063D01*
X81240256Y-100082795D01*
X81051898Y-100004774D01*
X80851939Y-99965000D01*
X80648061Y-99965000D01*
X80448102Y-100004774D01*
X80259744Y-100082795D01*
X80090226Y-100196063D01*
X79946063Y-100340226D01*
X79832795Y-100509744D01*
X79754774Y-100698102D01*
X79715000Y-100898061D01*
X66660000Y-100898061D01*
X66660000Y-98148061D01*
X84465000Y-98148061D01*
X84465000Y-98351939D01*
X84504774Y-98551898D01*
X84582795Y-98740256D01*
X84589306Y-98750000D01*
X84582795Y-98759744D01*
X84504774Y-98948102D01*
X84465000Y-99148061D01*
X84465000Y-99351939D01*
X84504774Y-99551898D01*
X84582795Y-99740256D01*
X84696063Y-99909774D01*
X84840226Y-100053937D01*
X85009744Y-100167205D01*
X85198102Y-100245226D01*
X85398061Y-100285000D01*
X85601939Y-100285000D01*
X85801898Y-100245226D01*
X85990256Y-100167205D01*
X86159774Y-100053937D01*
X86303937Y-99909774D01*
X86417205Y-99740256D01*
X86495226Y-99551898D01*
X86535000Y-99351939D01*
X86535000Y-99148061D01*
X86495226Y-98948102D01*
X86474499Y-98898061D01*
X98965000Y-98898061D01*
X98965000Y-99101939D01*
X99004774Y-99301898D01*
X99082795Y-99490256D01*
X99196063Y-99659774D01*
X99340226Y-99803937D01*
X99509744Y-99917205D01*
X99698102Y-99995226D01*
X99898061Y-100035000D01*
X100101939Y-100035000D01*
X100301898Y-99995226D01*
X100490256Y-99917205D01*
X100659774Y-99803937D01*
X100803937Y-99659774D01*
X100917205Y-99490256D01*
X100995226Y-99301898D01*
X101035000Y-99101939D01*
X101035000Y-98948061D01*
X155040000Y-98948061D01*
X155040000Y-99151939D01*
X155079774Y-99351898D01*
X155157795Y-99540256D01*
X155271063Y-99709774D01*
X155415226Y-99853937D01*
X155584744Y-99967205D01*
X155773102Y-100045226D01*
X155973061Y-100085000D01*
X156176939Y-100085000D01*
X156376898Y-100045226D01*
X156555177Y-99971380D01*
X156673102Y-100020226D01*
X156873061Y-100060000D01*
X157076939Y-100060000D01*
X157276898Y-100020226D01*
X157465256Y-99942205D01*
X157634774Y-99828937D01*
X157778937Y-99684774D01*
X157892205Y-99515256D01*
X157970226Y-99326898D01*
X158010000Y-99126939D01*
X158010000Y-98923061D01*
X157970226Y-98723102D01*
X157892205Y-98534744D01*
X157778937Y-98365226D01*
X157634774Y-98221063D01*
X157465256Y-98107795D01*
X157276898Y-98029774D01*
X157076939Y-97990000D01*
X156873061Y-97990000D01*
X156673102Y-98029774D01*
X156494823Y-98103620D01*
X156376898Y-98054774D01*
X156176939Y-98015000D01*
X155973061Y-98015000D01*
X155773102Y-98054774D01*
X155584744Y-98132795D01*
X155415226Y-98246063D01*
X155271063Y-98390226D01*
X155157795Y-98559744D01*
X155079774Y-98748102D01*
X155040000Y-98948061D01*
X101035000Y-98948061D01*
X101035000Y-98898061D01*
X100995226Y-98698102D01*
X100917205Y-98509744D01*
X100803937Y-98340226D01*
X100659774Y-98196063D01*
X100490256Y-98082795D01*
X100301898Y-98004774D01*
X100101939Y-97965000D01*
X99898061Y-97965000D01*
X99698102Y-98004774D01*
X99509744Y-98082795D01*
X99340226Y-98196063D01*
X99196063Y-98340226D01*
X99082795Y-98509744D01*
X99004774Y-98698102D01*
X98965000Y-98898061D01*
X86474499Y-98898061D01*
X86417205Y-98759744D01*
X86410694Y-98750000D01*
X86417205Y-98740256D01*
X86495226Y-98551898D01*
X86535000Y-98351939D01*
X86535000Y-98148061D01*
X86495226Y-97948102D01*
X86417205Y-97759744D01*
X86303937Y-97590226D01*
X86159774Y-97446063D01*
X86087934Y-97398061D01*
X87965000Y-97398061D01*
X87965000Y-97601939D01*
X88004774Y-97801898D01*
X88082795Y-97990256D01*
X88196063Y-98159774D01*
X88340226Y-98303937D01*
X88509744Y-98417205D01*
X88698102Y-98495226D01*
X88898061Y-98535000D01*
X89101939Y-98535000D01*
X89301898Y-98495226D01*
X89490256Y-98417205D01*
X89659774Y-98303937D01*
X89803937Y-98159774D01*
X89917205Y-97990256D01*
X89995226Y-97801898D01*
X90035000Y-97601939D01*
X90035000Y-97398061D01*
X89995226Y-97198102D01*
X89917205Y-97009744D01*
X89803937Y-96840226D01*
X89659774Y-96696063D01*
X89490256Y-96582795D01*
X89301898Y-96504774D01*
X89101939Y-96465000D01*
X88898061Y-96465000D01*
X88698102Y-96504774D01*
X88509744Y-96582795D01*
X88340226Y-96696063D01*
X88196063Y-96840226D01*
X88082795Y-97009744D01*
X88004774Y-97198102D01*
X87965000Y-97398061D01*
X86087934Y-97398061D01*
X85990256Y-97332795D01*
X85801898Y-97254774D01*
X85601939Y-97215000D01*
X85398061Y-97215000D01*
X85198102Y-97254774D01*
X85009744Y-97332795D01*
X84840226Y-97446063D01*
X84696063Y-97590226D01*
X84582795Y-97759744D01*
X84504774Y-97948102D01*
X84465000Y-98148061D01*
X66660000Y-98148061D01*
X66660000Y-95898061D01*
X82465000Y-95898061D01*
X82465000Y-96101939D01*
X82504774Y-96301898D01*
X82582795Y-96490256D01*
X82696063Y-96659774D01*
X82840226Y-96803937D01*
X83009744Y-96917205D01*
X83198102Y-96995226D01*
X83398061Y-97035000D01*
X83601939Y-97035000D01*
X83801898Y-96995226D01*
X83990256Y-96917205D01*
X84159774Y-96803937D01*
X84303937Y-96659774D01*
X84417205Y-96490256D01*
X84495226Y-96301898D01*
X84535000Y-96101939D01*
X84535000Y-95898061D01*
X84495226Y-95698102D01*
X84417205Y-95509744D01*
X84342582Y-95398061D01*
X104715000Y-95398061D01*
X104715000Y-95601939D01*
X104754774Y-95801898D01*
X104832795Y-95990256D01*
X104946063Y-96159774D01*
X105090226Y-96303937D01*
X105259744Y-96417205D01*
X105448102Y-96495226D01*
X105648061Y-96535000D01*
X105851939Y-96535000D01*
X106051898Y-96495226D01*
X106240256Y-96417205D01*
X106409774Y-96303937D01*
X106553937Y-96159774D01*
X106667205Y-95990256D01*
X106745226Y-95801898D01*
X106785000Y-95601939D01*
X106785000Y-95398061D01*
X106745226Y-95198102D01*
X106667205Y-95009744D01*
X106641968Y-94971974D01*
X106698102Y-94995226D01*
X106898061Y-95035000D01*
X107101939Y-95035000D01*
X107301898Y-94995226D01*
X107490256Y-94917205D01*
X107659774Y-94803937D01*
X107803937Y-94659774D01*
X107917205Y-94490256D01*
X107995226Y-94301898D01*
X108035000Y-94101939D01*
X108035000Y-93898061D01*
X107995226Y-93698102D01*
X107917205Y-93509744D01*
X107803937Y-93340226D01*
X107659774Y-93196063D01*
X107490256Y-93082795D01*
X107301898Y-93004774D01*
X107101939Y-92965000D01*
X106898061Y-92965000D01*
X106698102Y-93004774D01*
X106509744Y-93082795D01*
X106340226Y-93196063D01*
X106196063Y-93340226D01*
X106082795Y-93509744D01*
X106004774Y-93698102D01*
X105965000Y-93898061D01*
X105965000Y-94101939D01*
X106004774Y-94301898D01*
X106082795Y-94490256D01*
X106108032Y-94528026D01*
X106051898Y-94504774D01*
X105851939Y-94465000D01*
X105648061Y-94465000D01*
X105448102Y-94504774D01*
X105259744Y-94582795D01*
X105090226Y-94696063D01*
X104946063Y-94840226D01*
X104832795Y-95009744D01*
X104754774Y-95198102D01*
X104715000Y-95398061D01*
X84342582Y-95398061D01*
X84303937Y-95340226D01*
X84159774Y-95196063D01*
X83990256Y-95082795D01*
X83801898Y-95004774D01*
X83601939Y-94965000D01*
X83398061Y-94965000D01*
X83198102Y-95004774D01*
X83009744Y-95082795D01*
X82840226Y-95196063D01*
X82696063Y-95340226D01*
X82582795Y-95509744D01*
X82504774Y-95698102D01*
X82465000Y-95898061D01*
X66660000Y-95898061D01*
X66660000Y-93148061D01*
X88965000Y-93148061D01*
X88965000Y-93351939D01*
X89004774Y-93551898D01*
X89082795Y-93740256D01*
X89196063Y-93909774D01*
X89340226Y-94053937D01*
X89509744Y-94167205D01*
X89698102Y-94245226D01*
X89898061Y-94285000D01*
X90101939Y-94285000D01*
X90301898Y-94245226D01*
X90490256Y-94167205D01*
X90659774Y-94053937D01*
X90803937Y-93909774D01*
X90917205Y-93740256D01*
X90995226Y-93551898D01*
X91035000Y-93351939D01*
X91035000Y-93148061D01*
X94465000Y-93148061D01*
X94465000Y-93351939D01*
X94504774Y-93551898D01*
X94582795Y-93740256D01*
X94696063Y-93909774D01*
X94840226Y-94053937D01*
X95009744Y-94167205D01*
X95198102Y-94245226D01*
X95398061Y-94285000D01*
X95601939Y-94285000D01*
X95801898Y-94245226D01*
X95990256Y-94167205D01*
X96159774Y-94053937D01*
X96303937Y-93909774D01*
X96417205Y-93740256D01*
X96495226Y-93551898D01*
X96535000Y-93351939D01*
X96535000Y-93148061D01*
X96495226Y-92948102D01*
X96417205Y-92759744D01*
X96303937Y-92590226D01*
X96159774Y-92446063D01*
X95990256Y-92332795D01*
X95801898Y-92254774D01*
X95601939Y-92215000D01*
X95398061Y-92215000D01*
X95198102Y-92254774D01*
X95009744Y-92332795D01*
X94840226Y-92446063D01*
X94696063Y-92590226D01*
X94582795Y-92759744D01*
X94504774Y-92948102D01*
X94465000Y-93148061D01*
X91035000Y-93148061D01*
X90995226Y-92948102D01*
X90917205Y-92759744D01*
X90803937Y-92590226D01*
X90659774Y-92446063D01*
X90490256Y-92332795D01*
X90301898Y-92254774D01*
X90101939Y-92215000D01*
X89898061Y-92215000D01*
X89698102Y-92254774D01*
X89509744Y-92332795D01*
X89340226Y-92446063D01*
X89196063Y-92590226D01*
X89082795Y-92759744D01*
X89004774Y-92948102D01*
X88965000Y-93148061D01*
X66660000Y-93148061D01*
X66660000Y-90393137D01*
X67585000Y-90393137D01*
X67585000Y-90606863D01*
X67626696Y-90816483D01*
X67708485Y-91013940D01*
X67827225Y-91191647D01*
X67978353Y-91342775D01*
X68156060Y-91461515D01*
X68353517Y-91543304D01*
X68563137Y-91585000D01*
X68776863Y-91585000D01*
X68986483Y-91543304D01*
X69183940Y-91461515D01*
X69361647Y-91342775D01*
X69512775Y-91191647D01*
X69541898Y-91148061D01*
X70715000Y-91148061D01*
X70715000Y-91351939D01*
X70754774Y-91551898D01*
X70832795Y-91740256D01*
X70946063Y-91909774D01*
X71090226Y-92053937D01*
X71259744Y-92167205D01*
X71448102Y-92245226D01*
X71648061Y-92285000D01*
X71851939Y-92285000D01*
X72051898Y-92245226D01*
X72240256Y-92167205D01*
X72409774Y-92053937D01*
X72553937Y-91909774D01*
X72561763Y-91898061D01*
X103965000Y-91898061D01*
X103965000Y-92101939D01*
X104004774Y-92301898D01*
X104082795Y-92490256D01*
X104196063Y-92659774D01*
X104340226Y-92803937D01*
X104509744Y-92917205D01*
X104698102Y-92995226D01*
X104898061Y-93035000D01*
X105101939Y-93035000D01*
X105301898Y-92995226D01*
X105490256Y-92917205D01*
X105659774Y-92803937D01*
X105803937Y-92659774D01*
X105917205Y-92490256D01*
X105995226Y-92301898D01*
X106035000Y-92101939D01*
X106035000Y-91898061D01*
X105995226Y-91698102D01*
X105974499Y-91648061D01*
X157465000Y-91648061D01*
X157465000Y-91851939D01*
X157504774Y-92051898D01*
X157582795Y-92240256D01*
X157696063Y-92409774D01*
X157840226Y-92553937D01*
X158009744Y-92667205D01*
X158198102Y-92745226D01*
X158398061Y-92785000D01*
X158601939Y-92785000D01*
X158801898Y-92745226D01*
X158990256Y-92667205D01*
X159159774Y-92553937D01*
X159303937Y-92409774D01*
X159417205Y-92240256D01*
X159495226Y-92051898D01*
X159535000Y-91851939D01*
X159535000Y-91648061D01*
X159495226Y-91448102D01*
X159417205Y-91259744D01*
X159303937Y-91090226D01*
X159159774Y-90946063D01*
X158990256Y-90832795D01*
X158801898Y-90754774D01*
X158601939Y-90715000D01*
X158398061Y-90715000D01*
X158198102Y-90754774D01*
X158009744Y-90832795D01*
X157840226Y-90946063D01*
X157696063Y-91090226D01*
X157582795Y-91259744D01*
X157504774Y-91448102D01*
X157465000Y-91648061D01*
X105974499Y-91648061D01*
X105917205Y-91509744D01*
X105803937Y-91340226D01*
X105659774Y-91196063D01*
X105490256Y-91082795D01*
X105301898Y-91004774D01*
X105101939Y-90965000D01*
X104898061Y-90965000D01*
X104698102Y-91004774D01*
X104509744Y-91082795D01*
X104340226Y-91196063D01*
X104196063Y-91340226D01*
X104082795Y-91509744D01*
X104004774Y-91698102D01*
X103965000Y-91898061D01*
X72561763Y-91898061D01*
X72667205Y-91740256D01*
X72745226Y-91551898D01*
X72785000Y-91351939D01*
X72785000Y-91148061D01*
X72745226Y-90948102D01*
X72667205Y-90759744D01*
X72553937Y-90590226D01*
X72409774Y-90446063D01*
X72240256Y-90332795D01*
X72051898Y-90254774D01*
X71851939Y-90215000D01*
X71648061Y-90215000D01*
X71448102Y-90254774D01*
X71259744Y-90332795D01*
X71090226Y-90446063D01*
X70946063Y-90590226D01*
X70832795Y-90759744D01*
X70754774Y-90948102D01*
X70715000Y-91148061D01*
X69541898Y-91148061D01*
X69631515Y-91013940D01*
X69713304Y-90816483D01*
X69755000Y-90606863D01*
X69755000Y-90393137D01*
X69713304Y-90183517D01*
X69631515Y-89986060D01*
X69512775Y-89808353D01*
X69361647Y-89657225D01*
X69183940Y-89538485D01*
X68986483Y-89456696D01*
X68776863Y-89415000D01*
X68563137Y-89415000D01*
X68353517Y-89456696D01*
X68156060Y-89538485D01*
X67978353Y-89657225D01*
X67827225Y-89808353D01*
X67708485Y-89986060D01*
X67626696Y-90183517D01*
X67585000Y-90393137D01*
X66660000Y-90393137D01*
X66660000Y-87393137D01*
X67585000Y-87393137D01*
X67585000Y-87606863D01*
X67626696Y-87816483D01*
X67708485Y-88013940D01*
X67827225Y-88191647D01*
X67978353Y-88342775D01*
X68156060Y-88461515D01*
X68353517Y-88543304D01*
X68563137Y-88585000D01*
X68776863Y-88585000D01*
X68986483Y-88543304D01*
X69183940Y-88461515D01*
X69361647Y-88342775D01*
X69512775Y-88191647D01*
X69631515Y-88013940D01*
X69713304Y-87816483D01*
X69721941Y-87773061D01*
X146015000Y-87773061D01*
X146015000Y-87976939D01*
X146054774Y-88176898D01*
X146132795Y-88365256D01*
X146246063Y-88534774D01*
X146390226Y-88678937D01*
X146559744Y-88792205D01*
X146748102Y-88870226D01*
X146948061Y-88910000D01*
X147151939Y-88910000D01*
X147351898Y-88870226D01*
X147540256Y-88792205D01*
X147709774Y-88678937D01*
X147853937Y-88534774D01*
X147967205Y-88365256D01*
X148045226Y-88176898D01*
X148085000Y-87976939D01*
X148085000Y-87773061D01*
X148045226Y-87573102D01*
X147967205Y-87384744D01*
X147853937Y-87215226D01*
X147709774Y-87071063D01*
X147540256Y-86957795D01*
X147351898Y-86879774D01*
X147151939Y-86840000D01*
X146948061Y-86840000D01*
X146748102Y-86879774D01*
X146559744Y-86957795D01*
X146390226Y-87071063D01*
X146246063Y-87215226D01*
X146132795Y-87384744D01*
X146054774Y-87573102D01*
X146015000Y-87773061D01*
X69721941Y-87773061D01*
X69755000Y-87606863D01*
X69755000Y-87393137D01*
X69713304Y-87183517D01*
X69631515Y-86986060D01*
X69512775Y-86808353D01*
X69361647Y-86657225D01*
X69183940Y-86538485D01*
X68986483Y-86456696D01*
X68776863Y-86415000D01*
X68563137Y-86415000D01*
X68353517Y-86456696D01*
X68156060Y-86538485D01*
X67978353Y-86657225D01*
X67827225Y-86808353D01*
X67708485Y-86986060D01*
X67626696Y-87183517D01*
X67585000Y-87393137D01*
X66660000Y-87393137D01*
X66660000Y-84148061D01*
X110965000Y-84148061D01*
X110965000Y-84351939D01*
X111004774Y-84551898D01*
X111082795Y-84740256D01*
X111172828Y-84875000D01*
X111082795Y-85009744D01*
X111004774Y-85198102D01*
X110965000Y-85398061D01*
X110965000Y-85601939D01*
X111004774Y-85801898D01*
X111082795Y-85990256D01*
X111196063Y-86159774D01*
X111340226Y-86303937D01*
X111509744Y-86417205D01*
X111698102Y-86495226D01*
X111898061Y-86535000D01*
X112101939Y-86535000D01*
X112301898Y-86495226D01*
X112490256Y-86417205D01*
X112659774Y-86303937D01*
X112803937Y-86159774D01*
X112917205Y-85990256D01*
X112995226Y-85801898D01*
X113035000Y-85601939D01*
X113035000Y-85398061D01*
X112995226Y-85198102D01*
X112917205Y-85009744D01*
X112827172Y-84875000D01*
X112917205Y-84740256D01*
X112995226Y-84551898D01*
X113035000Y-84351939D01*
X113035000Y-84148061D01*
X112995226Y-83948102D01*
X112917205Y-83759744D01*
X112803937Y-83590226D01*
X112659774Y-83446063D01*
X112490256Y-83332795D01*
X112301898Y-83254774D01*
X112101939Y-83215000D01*
X111898061Y-83215000D01*
X111698102Y-83254774D01*
X111509744Y-83332795D01*
X111340226Y-83446063D01*
X111196063Y-83590226D01*
X111082795Y-83759744D01*
X111004774Y-83948102D01*
X110965000Y-84148061D01*
X66660000Y-84148061D01*
X66660000Y-81398061D01*
X110965000Y-81398061D01*
X110965000Y-81601939D01*
X111004774Y-81801898D01*
X111082795Y-81990256D01*
X111196063Y-82159774D01*
X111340226Y-82303937D01*
X111509744Y-82417205D01*
X111698102Y-82495226D01*
X111898061Y-82535000D01*
X112101939Y-82535000D01*
X112301898Y-82495226D01*
X112490256Y-82417205D01*
X112659774Y-82303937D01*
X112803937Y-82159774D01*
X112917205Y-81990256D01*
X112995226Y-81801898D01*
X113035000Y-81601939D01*
X113035000Y-81398061D01*
X112995226Y-81198102D01*
X112917205Y-81009744D01*
X112803937Y-80840226D01*
X112659774Y-80696063D01*
X112490256Y-80582795D01*
X112301898Y-80504774D01*
X112101939Y-80465000D01*
X111898061Y-80465000D01*
X111698102Y-80504774D01*
X111509744Y-80582795D01*
X111340226Y-80696063D01*
X111196063Y-80840226D01*
X111082795Y-81009744D01*
X111004774Y-81198102D01*
X110965000Y-81398061D01*
X66660000Y-81398061D01*
X66660000Y-76027089D01*
X66702188Y-75513945D01*
X67065000Y-75513945D01*
X67065000Y-76486055D01*
X67254650Y-77439486D01*
X67626660Y-78337599D01*
X68166735Y-79145879D01*
X68854121Y-79833265D01*
X69662401Y-80373340D01*
X70560514Y-80745350D01*
X71513945Y-80935000D01*
X72486055Y-80935000D01*
X73439486Y-80745350D01*
X74337599Y-80373340D01*
X75145879Y-79833265D01*
X75833265Y-79145879D01*
X76373340Y-78337599D01*
X76745350Y-77439486D01*
X76935000Y-76486055D01*
X76935000Y-76398061D01*
X89965000Y-76398061D01*
X89965000Y-76601939D01*
X90004774Y-76801898D01*
X90082795Y-76990256D01*
X90196063Y-77159774D01*
X90340226Y-77303937D01*
X90509744Y-77417205D01*
X90698102Y-77495226D01*
X90898061Y-77535000D01*
X91101939Y-77535000D01*
X91301898Y-77495226D01*
X91490256Y-77417205D01*
X91659774Y-77303937D01*
X91803937Y-77159774D01*
X91917205Y-76990256D01*
X91995226Y-76801898D01*
X92035000Y-76601939D01*
X92035000Y-76398061D01*
X91995226Y-76198102D01*
X91971639Y-76141158D01*
X92102007Y-76210841D01*
X92297105Y-76270024D01*
X92500000Y-76290007D01*
X92702894Y-76270024D01*
X92897992Y-76210841D01*
X93077797Y-76114734D01*
X93125000Y-76075996D01*
X93172203Y-76114734D01*
X93352007Y-76210841D01*
X93547105Y-76270024D01*
X93750000Y-76290007D01*
X93952894Y-76270024D01*
X94147992Y-76210841D01*
X94229264Y-76167401D01*
X94243658Y-76179298D01*
X94353766Y-76238646D01*
X94473336Y-76275374D01*
X94593250Y-76285000D01*
X94752000Y-76126250D01*
X94752000Y-75512311D01*
X94770024Y-75452895D01*
X94785000Y-75300838D01*
X94785000Y-75248000D01*
X95248000Y-75248000D01*
X95248000Y-76126250D01*
X95406750Y-76285000D01*
X95526664Y-76275374D01*
X95646234Y-76238646D01*
X95756342Y-76179298D01*
X95852756Y-76099608D01*
X95931771Y-76002641D01*
X95990350Y-75892122D01*
X96026242Y-75772298D01*
X96038068Y-75647774D01*
X96035000Y-75406750D01*
X95876250Y-75248000D01*
X95248000Y-75248000D01*
X94785000Y-75248000D01*
X94785000Y-74699163D01*
X94770024Y-74547106D01*
X94752000Y-74487690D01*
X94752000Y-73873750D01*
X95248000Y-73873750D01*
X95248000Y-74752000D01*
X95876250Y-74752000D01*
X96001360Y-74626890D01*
X152874048Y-74626890D01*
X152874048Y-74873110D01*
X152922083Y-75114598D01*
X153016307Y-75342074D01*
X153153099Y-75546798D01*
X153327202Y-75720901D01*
X153531926Y-75857693D01*
X153759402Y-75951917D01*
X154000890Y-75999952D01*
X154247110Y-75999952D01*
X154488598Y-75951917D01*
X154716074Y-75857693D01*
X154920798Y-75720901D01*
X155094901Y-75546798D01*
X155116852Y-75513945D01*
X160065000Y-75513945D01*
X160065000Y-76486055D01*
X160254650Y-77439486D01*
X160626660Y-78337599D01*
X161166735Y-79145879D01*
X161854121Y-79833265D01*
X162662401Y-80373340D01*
X163560514Y-80745350D01*
X164513945Y-80935000D01*
X165486055Y-80935000D01*
X166439486Y-80745350D01*
X167337599Y-80373340D01*
X168145879Y-79833265D01*
X168833265Y-79145879D01*
X169373340Y-78337599D01*
X169745350Y-77439486D01*
X169935000Y-76486055D01*
X169935000Y-75513945D01*
X169745350Y-74560514D01*
X169373340Y-73662401D01*
X168833265Y-72854121D01*
X168145879Y-72166735D01*
X167337599Y-71626660D01*
X166439486Y-71254650D01*
X165486055Y-71065000D01*
X164513945Y-71065000D01*
X163560514Y-71254650D01*
X162662401Y-71626660D01*
X161854121Y-72166735D01*
X161166735Y-72854121D01*
X160626660Y-73662401D01*
X160254650Y-74560514D01*
X160065000Y-75513945D01*
X155116852Y-75513945D01*
X155231693Y-75342074D01*
X155325917Y-75114598D01*
X155373952Y-74873110D01*
X155373952Y-74626890D01*
X155325917Y-74385402D01*
X155231693Y-74157926D01*
X155094901Y-73953202D01*
X154920798Y-73779099D01*
X154716074Y-73642307D01*
X154488598Y-73548083D01*
X154247110Y-73500048D01*
X154000890Y-73500048D01*
X153759402Y-73548083D01*
X153531926Y-73642307D01*
X153327202Y-73779099D01*
X153153099Y-73953202D01*
X153016307Y-74157926D01*
X152922083Y-74385402D01*
X152874048Y-74626890D01*
X96001360Y-74626890D01*
X96035000Y-74593250D01*
X96038068Y-74352226D01*
X96026242Y-74227702D01*
X95990350Y-74107878D01*
X95931771Y-73997359D01*
X95852756Y-73900392D01*
X95756342Y-73820702D01*
X95646234Y-73761354D01*
X95526664Y-73724626D01*
X95406750Y-73715000D01*
X95248000Y-73873750D01*
X94752000Y-73873750D01*
X94593250Y-73715000D01*
X94473336Y-73724626D01*
X94353766Y-73761354D01*
X94243658Y-73820702D01*
X94229264Y-73832599D01*
X94147993Y-73789159D01*
X93952895Y-73729976D01*
X93750000Y-73709993D01*
X93547106Y-73729976D01*
X93352008Y-73789159D01*
X93172204Y-73885266D01*
X93125000Y-73924005D01*
X93077797Y-73885266D01*
X92897993Y-73789159D01*
X92702895Y-73729976D01*
X92500000Y-73709993D01*
X92297106Y-73729976D01*
X92102008Y-73789159D01*
X91922204Y-73885266D01*
X91875000Y-73924005D01*
X91827797Y-73885266D01*
X91647993Y-73789159D01*
X91452895Y-73729976D01*
X91250000Y-73709993D01*
X91047106Y-73729976D01*
X90852008Y-73789159D01*
X90672204Y-73885266D01*
X90514605Y-74014604D01*
X90385267Y-74172203D01*
X90289159Y-74352007D01*
X90229976Y-74547105D01*
X90215000Y-74699162D01*
X90215000Y-75300837D01*
X90229976Y-75452894D01*
X90289159Y-75647992D01*
X90323691Y-75712598D01*
X90196063Y-75840226D01*
X90082795Y-76009744D01*
X90004774Y-76198102D01*
X89965000Y-76398061D01*
X76935000Y-76398061D01*
X76935000Y-75513945D01*
X76758554Y-74626890D01*
X81250048Y-74626890D01*
X81250048Y-74873110D01*
X81298083Y-75114598D01*
X81392307Y-75342074D01*
X81529099Y-75546798D01*
X81703202Y-75720901D01*
X81907926Y-75857693D01*
X82135402Y-75951917D01*
X82376890Y-75999952D01*
X82623110Y-75999952D01*
X82864598Y-75951917D01*
X83092074Y-75857693D01*
X83296798Y-75720901D01*
X83470901Y-75546798D01*
X83607693Y-75342074D01*
X83701917Y-75114598D01*
X83749952Y-74873110D01*
X83749952Y-74626890D01*
X83701917Y-74385402D01*
X83607693Y-74157926D01*
X83470901Y-73953202D01*
X83296798Y-73779099D01*
X83092074Y-73642307D01*
X82864598Y-73548083D01*
X82623110Y-73500048D01*
X82376890Y-73500048D01*
X82135402Y-73548083D01*
X81907926Y-73642307D01*
X81703202Y-73779099D01*
X81529099Y-73953202D01*
X81392307Y-74157926D01*
X81298083Y-74385402D01*
X81250048Y-74626890D01*
X76758554Y-74626890D01*
X76745350Y-74560514D01*
X76373340Y-73662401D01*
X75833265Y-72854121D01*
X75145879Y-72166735D01*
X74337599Y-71626660D01*
X73439486Y-71254650D01*
X72486055Y-71065000D01*
X71513945Y-71065000D01*
X70560514Y-71254650D01*
X69662401Y-71626660D01*
X68854121Y-72166735D01*
X68166735Y-72854121D01*
X67626660Y-73662401D01*
X67254650Y-74560514D01*
X67065000Y-75513945D01*
X66702188Y-75513945D01*
X66733902Y-75128203D01*
X66947001Y-74279818D01*
X67295803Y-73477629D01*
X67770938Y-72743182D01*
X68359646Y-72096202D01*
X69046125Y-71554054D01*
X69811928Y-71131308D01*
X70636491Y-70839316D01*
X71509076Y-70683884D01*
X72015547Y-70660000D01*
X164972911Y-70660000D01*
X165871797Y-70733902D01*
G37*
%TD.AperFunction*%
%TD*%
M02*
