%TF.GenerationSoftware,KiCad,Pcbnew,(5.1.8)-1*%
%TF.CreationDate,2021-03-29T14:59:59+03:00*%
%TF.ProjectId,STM32_PCB,53544d33-325f-4504-9342-2e6b69636164,rev?*%
%TF.SameCoordinates,Original*%
%TF.FileFunction,Legend,Top*%
%TF.FilePolarity,Positive*%
%FSLAX46Y46*%
G04 Gerber Fmt 4.6, Leading zero omitted, Abs format (unit mm)*
G04 Created by KiCad (PCBNEW (5.1.8)-1) date 2021-03-29 14:59:59*
%MOMM*%
%LPD*%
G01*
G04 APERTURE LIST*
%ADD10C,0.120000*%
%ADD11C,0.150000*%
%ADD12C,0.100000*%
%ADD13C,0.010000*%
G04 APERTURE END LIST*
D10*
X140670156Y-105350000D02*
G75*
G03*
X140670156Y-105350000I-320156J0D01*
G01*
X146000000Y-79300000D02*
G75*
G03*
X146000000Y-79300000I-200000J0D01*
G01*
D11*
X93792857Y-101707142D02*
X93792857Y-102350000D01*
X93750000Y-102478571D01*
X93664285Y-102564285D01*
X93535714Y-102607142D01*
X93450000Y-102607142D01*
X94650000Y-102607142D02*
X94221428Y-102607142D01*
X94221428Y-101707142D01*
X95464285Y-102521428D02*
X95421428Y-102564285D01*
X95292857Y-102607142D01*
X95207142Y-102607142D01*
X95078571Y-102564285D01*
X94992857Y-102478571D01*
X94950000Y-102392857D01*
X94907142Y-102221428D01*
X94907142Y-102092857D01*
X94950000Y-101921428D01*
X94992857Y-101835714D01*
X95078571Y-101750000D01*
X95207142Y-101707142D01*
X95292857Y-101707142D01*
X95421428Y-101750000D01*
X95464285Y-101792857D01*
X96107142Y-101707142D02*
X96107142Y-102350000D01*
X96064285Y-102478571D01*
X95978571Y-102564285D01*
X95850000Y-102607142D01*
X95764285Y-102607142D01*
X96964285Y-102607142D02*
X96535714Y-102607142D01*
X96535714Y-101707142D01*
X97778571Y-102521428D02*
X97735714Y-102564285D01*
X97607142Y-102607142D01*
X97521428Y-102607142D01*
X97392857Y-102564285D01*
X97307142Y-102478571D01*
X97264285Y-102392857D01*
X97221428Y-102221428D01*
X97221428Y-102092857D01*
X97264285Y-101921428D01*
X97307142Y-101835714D01*
X97392857Y-101750000D01*
X97521428Y-101707142D01*
X97607142Y-101707142D01*
X97735714Y-101750000D01*
X97778571Y-101792857D01*
X98421428Y-101707142D02*
X98421428Y-102350000D01*
X98378571Y-102478571D01*
X98292857Y-102564285D01*
X98164285Y-102607142D01*
X98078571Y-102607142D01*
X99278571Y-102607142D02*
X98850000Y-102607142D01*
X98850000Y-101707142D01*
X100092857Y-102521428D02*
X100050000Y-102564285D01*
X99921428Y-102607142D01*
X99835714Y-102607142D01*
X99707142Y-102564285D01*
X99621428Y-102478571D01*
X99578571Y-102392857D01*
X99535714Y-102221428D01*
X99535714Y-102092857D01*
X99578571Y-101921428D01*
X99621428Y-101835714D01*
X99707142Y-101750000D01*
X99835714Y-101707142D01*
X99921428Y-101707142D01*
X100050000Y-101750000D01*
X100092857Y-101792857D01*
X100735714Y-101707142D02*
X100735714Y-102350000D01*
X100692857Y-102478571D01*
X100607142Y-102564285D01*
X100478571Y-102607142D01*
X100392857Y-102607142D01*
X101592857Y-102607142D02*
X101164285Y-102607142D01*
X101164285Y-101707142D01*
X102407142Y-102521428D02*
X102364285Y-102564285D01*
X102235714Y-102607142D01*
X102150000Y-102607142D01*
X102021428Y-102564285D01*
X101935714Y-102478571D01*
X101892857Y-102392857D01*
X101850000Y-102221428D01*
X101850000Y-102092857D01*
X101892857Y-101921428D01*
X101935714Y-101835714D01*
X102021428Y-101750000D01*
X102150000Y-101707142D01*
X102235714Y-101707142D01*
X102364285Y-101750000D01*
X102407142Y-101792857D01*
X127816666Y-123604761D02*
X127959523Y-123652380D01*
X128197619Y-123652380D01*
X128292857Y-123604761D01*
X128340476Y-123557142D01*
X128388095Y-123461904D01*
X128388095Y-123366666D01*
X128340476Y-123271428D01*
X128292857Y-123223809D01*
X128197619Y-123176190D01*
X128007142Y-123128571D01*
X127911904Y-123080952D01*
X127864285Y-123033333D01*
X127816666Y-122938095D01*
X127816666Y-122842857D01*
X127864285Y-122747619D01*
X127911904Y-122700000D01*
X128007142Y-122652380D01*
X128245238Y-122652380D01*
X128388095Y-122700000D01*
X128673809Y-122652380D02*
X129245238Y-122652380D01*
X128959523Y-123652380D02*
X128959523Y-122652380D01*
X129578571Y-123652380D02*
X129578571Y-122652380D01*
X129911904Y-123366666D01*
X130245238Y-122652380D01*
X130245238Y-123652380D01*
X130626190Y-122652380D02*
X131245238Y-122652380D01*
X130911904Y-123033333D01*
X131054761Y-123033333D01*
X131150000Y-123080952D01*
X131197619Y-123128571D01*
X131245238Y-123223809D01*
X131245238Y-123461904D01*
X131197619Y-123557142D01*
X131150000Y-123604761D01*
X131054761Y-123652380D01*
X130769047Y-123652380D01*
X130673809Y-123604761D01*
X130626190Y-123557142D01*
X131626190Y-122747619D02*
X131673809Y-122700000D01*
X131769047Y-122652380D01*
X132007142Y-122652380D01*
X132102380Y-122700000D01*
X132150000Y-122747619D01*
X132197619Y-122842857D01*
X132197619Y-122938095D01*
X132150000Y-123080952D01*
X131578571Y-123652380D01*
X132197619Y-123652380D01*
X132959523Y-123128571D02*
X132626190Y-123128571D01*
X132626190Y-123652380D02*
X132626190Y-122652380D01*
X133102380Y-122652380D01*
X133911904Y-122985714D02*
X133911904Y-123652380D01*
X133673809Y-122604761D02*
X133435714Y-123319047D01*
X134054761Y-123319047D01*
X135054761Y-122652380D02*
X135626190Y-122652380D01*
X135340476Y-123652380D02*
X135340476Y-122652380D01*
X135959523Y-123128571D02*
X136292857Y-123128571D01*
X136435714Y-123652380D02*
X135959523Y-123652380D01*
X135959523Y-122652380D01*
X136435714Y-122652380D01*
X136816666Y-123604761D02*
X136959523Y-123652380D01*
X137197619Y-123652380D01*
X137292857Y-123604761D01*
X137340476Y-123557142D01*
X137388095Y-123461904D01*
X137388095Y-123366666D01*
X137340476Y-123271428D01*
X137292857Y-123223809D01*
X137197619Y-123176190D01*
X137007142Y-123128571D01*
X136911904Y-123080952D01*
X136864285Y-123033333D01*
X136816666Y-122938095D01*
X136816666Y-122842857D01*
X136864285Y-122747619D01*
X136911904Y-122700000D01*
X137007142Y-122652380D01*
X137245238Y-122652380D01*
X137388095Y-122700000D01*
X137673809Y-122652380D02*
X138245238Y-122652380D01*
X137959523Y-123652380D02*
X137959523Y-122652380D01*
X139673809Y-123128571D02*
X139816666Y-123176190D01*
X139864285Y-123223809D01*
X139911904Y-123319047D01*
X139911904Y-123461904D01*
X139864285Y-123557142D01*
X139816666Y-123604761D01*
X139721428Y-123652380D01*
X139340476Y-123652380D01*
X139340476Y-122652380D01*
X139673809Y-122652380D01*
X139769047Y-122700000D01*
X139816666Y-122747619D01*
X139864285Y-122842857D01*
X139864285Y-122938095D01*
X139816666Y-123033333D01*
X139769047Y-123080952D01*
X139673809Y-123128571D01*
X139340476Y-123128571D01*
X140530952Y-122652380D02*
X140721428Y-122652380D01*
X140816666Y-122700000D01*
X140911904Y-122795238D01*
X140959523Y-122985714D01*
X140959523Y-123319047D01*
X140911904Y-123509523D01*
X140816666Y-123604761D01*
X140721428Y-123652380D01*
X140530952Y-123652380D01*
X140435714Y-123604761D01*
X140340476Y-123509523D01*
X140292857Y-123319047D01*
X140292857Y-122985714D01*
X140340476Y-122795238D01*
X140435714Y-122700000D01*
X140530952Y-122652380D01*
X141340476Y-123366666D02*
X141816666Y-123366666D01*
X141245238Y-123652380D02*
X141578571Y-122652380D01*
X141911904Y-123652380D01*
X142816666Y-123652380D02*
X142483333Y-123176190D01*
X142245238Y-123652380D02*
X142245238Y-122652380D01*
X142626190Y-122652380D01*
X142721428Y-122700000D01*
X142769047Y-122747619D01*
X142816666Y-122842857D01*
X142816666Y-122985714D01*
X142769047Y-123080952D01*
X142721428Y-123128571D01*
X142626190Y-123176190D01*
X142245238Y-123176190D01*
X143245238Y-123652380D02*
X143245238Y-122652380D01*
X143483333Y-122652380D01*
X143626190Y-122700000D01*
X143721428Y-122795238D01*
X143769047Y-122890476D01*
X143816666Y-123080952D01*
X143816666Y-123223809D01*
X143769047Y-123414285D01*
X143721428Y-123509523D01*
X143626190Y-123604761D01*
X143483333Y-123652380D01*
X143245238Y-123652380D01*
X144911904Y-122985714D02*
X145150000Y-123652380D01*
X145388095Y-122985714D01*
X145959523Y-122652380D02*
X146054761Y-122652380D01*
X146150000Y-122700000D01*
X146197619Y-122747619D01*
X146245238Y-122842857D01*
X146292857Y-123033333D01*
X146292857Y-123271428D01*
X146245238Y-123461904D01*
X146197619Y-123557142D01*
X146150000Y-123604761D01*
X146054761Y-123652380D01*
X145959523Y-123652380D01*
X145864285Y-123604761D01*
X145816666Y-123557142D01*
X145769047Y-123461904D01*
X145721428Y-123271428D01*
X145721428Y-123033333D01*
X145769047Y-122842857D01*
X145816666Y-122747619D01*
X145864285Y-122700000D01*
X145959523Y-122652380D01*
X146721428Y-123557142D02*
X146769047Y-123604761D01*
X146721428Y-123652380D01*
X146673809Y-123604761D01*
X146721428Y-123557142D01*
X146721428Y-123652380D01*
X147721428Y-123652380D02*
X147150000Y-123652380D01*
X147435714Y-123652380D02*
X147435714Y-122652380D01*
X147340476Y-122795238D01*
X147245238Y-122890476D01*
X147150000Y-122938095D01*
X68911904Y-96302380D02*
X68578571Y-95826190D01*
X68340476Y-96302380D02*
X68340476Y-95302380D01*
X68721428Y-95302380D01*
X68816666Y-95350000D01*
X68864285Y-95397619D01*
X68911904Y-95492857D01*
X68911904Y-95635714D01*
X68864285Y-95730952D01*
X68816666Y-95778571D01*
X68721428Y-95826190D01*
X68340476Y-95826190D01*
X69340476Y-95302380D02*
X69340476Y-96111904D01*
X69388095Y-96207142D01*
X69435714Y-96254761D01*
X69530952Y-96302380D01*
X69721428Y-96302380D01*
X69816666Y-96254761D01*
X69864285Y-96207142D01*
X69911904Y-96111904D01*
X69911904Y-95302380D01*
X70388095Y-96302380D02*
X70388095Y-95302380D01*
X70959523Y-96302380D01*
X70959523Y-95302380D01*
X117216666Y-124116666D02*
X116516666Y-124116666D01*
X116516666Y-123850000D01*
X116550000Y-123783333D01*
X116583333Y-123750000D01*
X116650000Y-123716666D01*
X116750000Y-123716666D01*
X116816666Y-123750000D01*
X116850000Y-123783333D01*
X116883333Y-123850000D01*
X116883333Y-124116666D01*
X117016666Y-123450000D02*
X117016666Y-123116666D01*
X117216666Y-123516666D02*
X116516666Y-123283333D01*
X117216666Y-123050000D01*
X117216666Y-122783333D02*
X117216666Y-122650000D01*
X117183333Y-122583333D01*
X117150000Y-122550000D01*
X117050000Y-122483333D01*
X116916666Y-122450000D01*
X116650000Y-122450000D01*
X116583333Y-122483333D01*
X116550000Y-122516666D01*
X116516666Y-122583333D01*
X116516666Y-122716666D01*
X116550000Y-122783333D01*
X116583333Y-122816666D01*
X116650000Y-122850000D01*
X116816666Y-122850000D01*
X116883333Y-122816666D01*
X116916666Y-122783333D01*
X116950000Y-122716666D01*
X116950000Y-122583333D01*
X116916666Y-122516666D01*
X116883333Y-122483333D01*
X116816666Y-122450000D01*
X117283333Y-122316666D02*
X117283333Y-121783333D01*
X116550000Y-121250000D02*
X116516666Y-121316666D01*
X116516666Y-121416666D01*
X116550000Y-121516666D01*
X116616666Y-121583333D01*
X116683333Y-121616666D01*
X116816666Y-121650000D01*
X116916666Y-121650000D01*
X117050000Y-121616666D01*
X117116666Y-121583333D01*
X117183333Y-121516666D01*
X117216666Y-121416666D01*
X117216666Y-121350000D01*
X117183333Y-121250000D01*
X117150000Y-121216666D01*
X116916666Y-121216666D01*
X116916666Y-121350000D01*
X117216666Y-120916666D02*
X116516666Y-120916666D01*
X116516666Y-120650000D01*
X116550000Y-120583333D01*
X116583333Y-120550000D01*
X116650000Y-120516666D01*
X116750000Y-120516666D01*
X116816666Y-120550000D01*
X116850000Y-120583333D01*
X116883333Y-120650000D01*
X116883333Y-120916666D01*
X117216666Y-120216666D02*
X116516666Y-120216666D01*
X116516666Y-119750000D02*
X116516666Y-119616666D01*
X116550000Y-119550000D01*
X116616666Y-119483333D01*
X116750000Y-119450000D01*
X116983333Y-119450000D01*
X117116666Y-119483333D01*
X117183333Y-119550000D01*
X117216666Y-119616666D01*
X117216666Y-119750000D01*
X117183333Y-119816666D01*
X117116666Y-119883333D01*
X116983333Y-119916666D01*
X116750000Y-119916666D01*
X116616666Y-119883333D01*
X116550000Y-119816666D01*
X116516666Y-119750000D01*
X108766666Y-124166666D02*
X108066666Y-124166666D01*
X108066666Y-123900000D01*
X108100000Y-123833333D01*
X108133333Y-123800000D01*
X108200000Y-123766666D01*
X108300000Y-123766666D01*
X108366666Y-123800000D01*
X108400000Y-123833333D01*
X108433333Y-123900000D01*
X108433333Y-124166666D01*
X108566666Y-123500000D02*
X108566666Y-123166666D01*
X108766666Y-123566666D02*
X108066666Y-123333333D01*
X108766666Y-123100000D01*
X108366666Y-122766666D02*
X108333333Y-122833333D01*
X108300000Y-122866666D01*
X108233333Y-122900000D01*
X108200000Y-122900000D01*
X108133333Y-122866666D01*
X108100000Y-122833333D01*
X108066666Y-122766666D01*
X108066666Y-122633333D01*
X108100000Y-122566666D01*
X108133333Y-122533333D01*
X108200000Y-122500000D01*
X108233333Y-122500000D01*
X108300000Y-122533333D01*
X108333333Y-122566666D01*
X108366666Y-122633333D01*
X108366666Y-122766666D01*
X108400000Y-122833333D01*
X108433333Y-122866666D01*
X108500000Y-122900000D01*
X108633333Y-122900000D01*
X108700000Y-122866666D01*
X108733333Y-122833333D01*
X108766666Y-122766666D01*
X108766666Y-122633333D01*
X108733333Y-122566666D01*
X108700000Y-122533333D01*
X108633333Y-122500000D01*
X108500000Y-122500000D01*
X108433333Y-122533333D01*
X108400000Y-122566666D01*
X108366666Y-122633333D01*
X108833333Y-122366666D02*
X108833333Y-121833333D01*
X108066666Y-121766666D02*
X108066666Y-121366666D01*
X108766666Y-121566666D02*
X108066666Y-121566666D01*
X108766666Y-121133333D02*
X108066666Y-121133333D01*
X108766666Y-120800000D02*
X108066666Y-120800000D01*
X108566666Y-120566666D01*
X108066666Y-120333333D01*
X108766666Y-120333333D01*
X108766666Y-119633333D02*
X108766666Y-120033333D01*
X108766666Y-119833333D02*
X108066666Y-119833333D01*
X108166666Y-119900000D01*
X108233333Y-119966666D01*
X108266666Y-120033333D01*
X108833333Y-119500000D02*
X108833333Y-118966666D01*
X108700000Y-118400000D02*
X108733333Y-118433333D01*
X108766666Y-118533333D01*
X108766666Y-118600000D01*
X108733333Y-118700000D01*
X108666666Y-118766666D01*
X108600000Y-118800000D01*
X108466666Y-118833333D01*
X108366666Y-118833333D01*
X108233333Y-118800000D01*
X108166666Y-118766666D01*
X108100000Y-118700000D01*
X108066666Y-118600000D01*
X108066666Y-118533333D01*
X108100000Y-118433333D01*
X108133333Y-118400000D01*
X108766666Y-118100000D02*
X108066666Y-118100000D01*
X108400000Y-118100000D02*
X108400000Y-117700000D01*
X108766666Y-117700000D02*
X108066666Y-117700000D01*
X108766666Y-117000000D02*
X108766666Y-117400000D01*
X108766666Y-117200000D02*
X108066666Y-117200000D01*
X108166666Y-117266666D01*
X108233333Y-117333333D01*
X108266666Y-117400000D01*
D12*
X84619047Y-116021428D02*
X85380952Y-116021428D01*
X85000000Y-116402380D02*
X85000000Y-115640476D01*
D10*
X115000000Y-87000000D02*
X117400000Y-87000000D01*
X114950000Y-87050000D02*
X115900000Y-86150000D01*
X115950000Y-88000000D02*
X114950000Y-87050000D01*
D11*
X115290476Y-85302380D02*
X115290476Y-84302380D01*
X115671428Y-84302380D01*
X115766666Y-84350000D01*
X115814285Y-84397619D01*
X115861904Y-84492857D01*
X115861904Y-84635714D01*
X115814285Y-84730952D01*
X115766666Y-84778571D01*
X115671428Y-84826190D01*
X115290476Y-84826190D01*
X116290476Y-85302380D02*
X116290476Y-84635714D01*
X116290476Y-84302380D02*
X116242857Y-84350000D01*
X116290476Y-84397619D01*
X116338095Y-84350000D01*
X116290476Y-84302380D01*
X116290476Y-84397619D01*
X116766666Y-84635714D02*
X116766666Y-85302380D01*
X116766666Y-84730952D02*
X116814285Y-84683333D01*
X116909523Y-84635714D01*
X117052380Y-84635714D01*
X117147619Y-84683333D01*
X117195238Y-84778571D01*
X117195238Y-85302380D01*
X118957142Y-85302380D02*
X118385714Y-85302380D01*
X118671428Y-85302380D02*
X118671428Y-84302380D01*
X118576190Y-84445238D01*
X118480952Y-84540476D01*
X118385714Y-84588095D01*
D10*
X160811803Y-95800000D02*
G75*
G03*
X160811803Y-95800000I-111803J0D01*
G01*
X165461803Y-94150000D02*
G75*
G03*
X165461803Y-94150000I-111803J0D01*
G01*
X158150000Y-99150000D02*
G75*
G03*
X158150000Y-99150000I-100000J0D01*
G01*
D11*
X79916666Y-117654761D02*
X80059523Y-117702380D01*
X80297619Y-117702380D01*
X80392857Y-117654761D01*
X80440476Y-117607142D01*
X80488095Y-117511904D01*
X80488095Y-117416666D01*
X80440476Y-117321428D01*
X80392857Y-117273809D01*
X80297619Y-117226190D01*
X80107142Y-117178571D01*
X80011904Y-117130952D01*
X79964285Y-117083333D01*
X79916666Y-116988095D01*
X79916666Y-116892857D01*
X79964285Y-116797619D01*
X80011904Y-116750000D01*
X80107142Y-116702380D01*
X80345238Y-116702380D01*
X80488095Y-116750000D01*
X80773809Y-117035714D02*
X81154761Y-117035714D01*
X80916666Y-116702380D02*
X80916666Y-117559523D01*
X80964285Y-117654761D01*
X81059523Y-117702380D01*
X81154761Y-117702380D01*
X81916666Y-117702380D02*
X81916666Y-117178571D01*
X81869047Y-117083333D01*
X81773809Y-117035714D01*
X81583333Y-117035714D01*
X81488095Y-117083333D01*
X81916666Y-117654761D02*
X81821428Y-117702380D01*
X81583333Y-117702380D01*
X81488095Y-117654761D01*
X81440476Y-117559523D01*
X81440476Y-117464285D01*
X81488095Y-117369047D01*
X81583333Y-117321428D01*
X81821428Y-117321428D01*
X81916666Y-117273809D01*
X82250000Y-117035714D02*
X82630952Y-117035714D01*
X82392857Y-116702380D02*
X82392857Y-117559523D01*
X82440476Y-117654761D01*
X82535714Y-117702380D01*
X82630952Y-117702380D01*
X83392857Y-117035714D02*
X83392857Y-117702380D01*
X82964285Y-117035714D02*
X82964285Y-117559523D01*
X83011904Y-117654761D01*
X83107142Y-117702380D01*
X83250000Y-117702380D01*
X83345238Y-117654761D01*
X83392857Y-117607142D01*
X83821428Y-117654761D02*
X83916666Y-117702380D01*
X84107142Y-117702380D01*
X84202380Y-117654761D01*
X84250000Y-117559523D01*
X84250000Y-117511904D01*
X84202380Y-117416666D01*
X84107142Y-117369047D01*
X83964285Y-117369047D01*
X83869047Y-117321428D01*
X83821428Y-117226190D01*
X83821428Y-117178571D01*
X83869047Y-117083333D01*
X83964285Y-117035714D01*
X84107142Y-117035714D01*
X84202380Y-117083333D01*
X85916666Y-117702380D02*
X85440476Y-117702380D01*
X85440476Y-116702380D01*
X86630952Y-117654761D02*
X86535714Y-117702380D01*
X86345238Y-117702380D01*
X86250000Y-117654761D01*
X86202380Y-117559523D01*
X86202380Y-117178571D01*
X86250000Y-117083333D01*
X86345238Y-117035714D01*
X86535714Y-117035714D01*
X86630952Y-117083333D01*
X86678571Y-117178571D01*
X86678571Y-117273809D01*
X86202380Y-117369047D01*
X87535714Y-117702380D02*
X87535714Y-116702380D01*
X87535714Y-117654761D02*
X87440476Y-117702380D01*
X87250000Y-117702380D01*
X87154761Y-117654761D01*
X87107142Y-117607142D01*
X87059523Y-117511904D01*
X87059523Y-117226190D01*
X87107142Y-117130952D01*
X87154761Y-117083333D01*
X87250000Y-117035714D01*
X87440476Y-117035714D01*
X87535714Y-117083333D01*
X106392857Y-89404761D02*
X106535714Y-89452380D01*
X106773809Y-89452380D01*
X106869047Y-89404761D01*
X106916666Y-89357142D01*
X106964285Y-89261904D01*
X106964285Y-89166666D01*
X106916666Y-89071428D01*
X106869047Y-89023809D01*
X106773809Y-88976190D01*
X106583333Y-88928571D01*
X106488095Y-88880952D01*
X106440476Y-88833333D01*
X106392857Y-88738095D01*
X106392857Y-88642857D01*
X106440476Y-88547619D01*
X106488095Y-88500000D01*
X106583333Y-88452380D01*
X106821428Y-88452380D01*
X106964285Y-88500000D01*
X107297619Y-88452380D02*
X107535714Y-89452380D01*
X107726190Y-88738095D01*
X107916666Y-89452380D01*
X108154761Y-88452380D01*
X108535714Y-89452380D02*
X108535714Y-88452380D01*
X108773809Y-88452380D01*
X108916666Y-88500000D01*
X109011904Y-88595238D01*
X109059523Y-88690476D01*
X109107142Y-88880952D01*
X109107142Y-89023809D01*
X109059523Y-89214285D01*
X109011904Y-89309523D01*
X108916666Y-89404761D01*
X108773809Y-89452380D01*
X108535714Y-89452380D01*
X68542857Y-82828571D02*
X68685714Y-82876190D01*
X68733333Y-82923809D01*
X68780952Y-83019047D01*
X68780952Y-83161904D01*
X68733333Y-83257142D01*
X68685714Y-83304761D01*
X68590476Y-83352380D01*
X68209523Y-83352380D01*
X68209523Y-82352380D01*
X68542857Y-82352380D01*
X68638095Y-82400000D01*
X68685714Y-82447619D01*
X68733333Y-82542857D01*
X68733333Y-82638095D01*
X68685714Y-82733333D01*
X68638095Y-82780952D01*
X68542857Y-82828571D01*
X68209523Y-82828571D01*
X69400000Y-82352380D02*
X69590476Y-82352380D01*
X69685714Y-82400000D01*
X69780952Y-82495238D01*
X69828571Y-82685714D01*
X69828571Y-83019047D01*
X69780952Y-83209523D01*
X69685714Y-83304761D01*
X69590476Y-83352380D01*
X69400000Y-83352380D01*
X69304761Y-83304761D01*
X69209523Y-83209523D01*
X69161904Y-83019047D01*
X69161904Y-82685714D01*
X69209523Y-82495238D01*
X69304761Y-82400000D01*
X69400000Y-82352380D01*
X70447619Y-82352380D02*
X70638095Y-82352380D01*
X70733333Y-82400000D01*
X70828571Y-82495238D01*
X70876190Y-82685714D01*
X70876190Y-83019047D01*
X70828571Y-83209523D01*
X70733333Y-83304761D01*
X70638095Y-83352380D01*
X70447619Y-83352380D01*
X70352380Y-83304761D01*
X70257142Y-83209523D01*
X70209523Y-83019047D01*
X70209523Y-82685714D01*
X70257142Y-82495238D01*
X70352380Y-82400000D01*
X70447619Y-82352380D01*
X71161904Y-82352380D02*
X71733333Y-82352380D01*
X71447619Y-83352380D02*
X71447619Y-82352380D01*
X154290476Y-107252380D02*
X154290476Y-106252380D01*
X154671428Y-106252380D01*
X154766666Y-106300000D01*
X154814285Y-106347619D01*
X154861904Y-106442857D01*
X154861904Y-106585714D01*
X154814285Y-106680952D01*
X154766666Y-106728571D01*
X154671428Y-106776190D01*
X154290476Y-106776190D01*
X155480952Y-106252380D02*
X155671428Y-106252380D01*
X155766666Y-106300000D01*
X155861904Y-106395238D01*
X155909523Y-106585714D01*
X155909523Y-106919047D01*
X155861904Y-107109523D01*
X155766666Y-107204761D01*
X155671428Y-107252380D01*
X155480952Y-107252380D01*
X155385714Y-107204761D01*
X155290476Y-107109523D01*
X155242857Y-106919047D01*
X155242857Y-106585714D01*
X155290476Y-106395238D01*
X155385714Y-106300000D01*
X155480952Y-106252380D01*
X156242857Y-106252380D02*
X156480952Y-107252380D01*
X156671428Y-106538095D01*
X156861904Y-107252380D01*
X157100000Y-106252380D01*
X157480952Y-106728571D02*
X157814285Y-106728571D01*
X157957142Y-107252380D02*
X157480952Y-107252380D01*
X157480952Y-106252380D01*
X157957142Y-106252380D01*
X158957142Y-107252380D02*
X158623809Y-106776190D01*
X158385714Y-107252380D02*
X158385714Y-106252380D01*
X158766666Y-106252380D01*
X158861904Y-106300000D01*
X158909523Y-106347619D01*
X158957142Y-106442857D01*
X158957142Y-106585714D01*
X158909523Y-106680952D01*
X158861904Y-106728571D01*
X158766666Y-106776190D01*
X158385714Y-106776190D01*
X166988095Y-96952380D02*
X166988095Y-97761904D01*
X167035714Y-97857142D01*
X167083333Y-97904761D01*
X167178571Y-97952380D01*
X167369047Y-97952380D01*
X167464285Y-97904761D01*
X167511904Y-97857142D01*
X167559523Y-97761904D01*
X167559523Y-96952380D01*
X167988095Y-97904761D02*
X168130952Y-97952380D01*
X168369047Y-97952380D01*
X168464285Y-97904761D01*
X168511904Y-97857142D01*
X168559523Y-97761904D01*
X168559523Y-97666666D01*
X168511904Y-97571428D01*
X168464285Y-97523809D01*
X168369047Y-97476190D01*
X168178571Y-97428571D01*
X168083333Y-97380952D01*
X168035714Y-97333333D01*
X167988095Y-97238095D01*
X167988095Y-97142857D01*
X168035714Y-97047619D01*
X168083333Y-97000000D01*
X168178571Y-96952380D01*
X168416666Y-96952380D01*
X168559523Y-97000000D01*
X169321428Y-97428571D02*
X169464285Y-97476190D01*
X169511904Y-97523809D01*
X169559523Y-97619047D01*
X169559523Y-97761904D01*
X169511904Y-97857142D01*
X169464285Y-97904761D01*
X169369047Y-97952380D01*
X168988095Y-97952380D01*
X168988095Y-96952380D01*
X169321428Y-96952380D01*
X169416666Y-97000000D01*
X169464285Y-97047619D01*
X169511904Y-97142857D01*
X169511904Y-97238095D01*
X169464285Y-97333333D01*
X169416666Y-97380952D01*
X169321428Y-97428571D01*
X168988095Y-97428571D01*
X166988095Y-96952380D02*
X166988095Y-97761904D01*
X167035714Y-97857142D01*
X167083333Y-97904761D01*
X167178571Y-97952380D01*
X167369047Y-97952380D01*
X167464285Y-97904761D01*
X167511904Y-97857142D01*
X167559523Y-97761904D01*
X167559523Y-96952380D01*
X167988095Y-97904761D02*
X168130952Y-97952380D01*
X168369047Y-97952380D01*
X168464285Y-97904761D01*
X168511904Y-97857142D01*
X168559523Y-97761904D01*
X168559523Y-97666666D01*
X168511904Y-97571428D01*
X168464285Y-97523809D01*
X168369047Y-97476190D01*
X168178571Y-97428571D01*
X168083333Y-97380952D01*
X168035714Y-97333333D01*
X167988095Y-97238095D01*
X167988095Y-97142857D01*
X168035714Y-97047619D01*
X168083333Y-97000000D01*
X168178571Y-96952380D01*
X168416666Y-96952380D01*
X168559523Y-97000000D01*
X169321428Y-97428571D02*
X169464285Y-97476190D01*
X169511904Y-97523809D01*
X169559523Y-97619047D01*
X169559523Y-97761904D01*
X169511904Y-97857142D01*
X169464285Y-97904761D01*
X169369047Y-97952380D01*
X168988095Y-97952380D01*
X168988095Y-96952380D01*
X169321428Y-96952380D01*
X169416666Y-97000000D01*
X169464285Y-97047619D01*
X169511904Y-97142857D01*
X169511904Y-97238095D01*
X169464285Y-97333333D01*
X169416666Y-97380952D01*
X169321428Y-97428571D01*
X168988095Y-97428571D01*
X97154761Y-116452380D02*
X97154761Y-117261904D01*
X97202380Y-117357142D01*
X97250000Y-117404761D01*
X97345238Y-117452380D01*
X97535714Y-117452380D01*
X97630952Y-117404761D01*
X97678571Y-117357142D01*
X97726190Y-117261904D01*
X97726190Y-116452380D01*
X98154761Y-117166666D02*
X98630952Y-117166666D01*
X98059523Y-117452380D02*
X98392857Y-116452380D01*
X98726190Y-117452380D01*
X99630952Y-117452380D02*
X99297619Y-116976190D01*
X99059523Y-117452380D02*
X99059523Y-116452380D01*
X99440476Y-116452380D01*
X99535714Y-116500000D01*
X99583333Y-116547619D01*
X99630952Y-116642857D01*
X99630952Y-116785714D01*
X99583333Y-116880952D01*
X99535714Y-116928571D01*
X99440476Y-116976190D01*
X99059523Y-116976190D01*
X99916666Y-116452380D02*
X100488095Y-116452380D01*
X100202380Y-117452380D02*
X100202380Y-116452380D01*
X92023809Y-77952380D02*
X92023809Y-76952380D01*
X92452380Y-77047619D02*
X92500000Y-77000000D01*
X92595238Y-76952380D01*
X92833333Y-76952380D01*
X92928571Y-77000000D01*
X92976190Y-77047619D01*
X93023809Y-77142857D01*
X93023809Y-77238095D01*
X92976190Y-77380952D01*
X92404761Y-77952380D01*
X93023809Y-77952380D01*
X94023809Y-77857142D02*
X93976190Y-77904761D01*
X93833333Y-77952380D01*
X93738095Y-77952380D01*
X93595238Y-77904761D01*
X93500000Y-77809523D01*
X93452380Y-77714285D01*
X93404761Y-77523809D01*
X93404761Y-77380952D01*
X93452380Y-77190476D01*
X93500000Y-77095238D01*
X93595238Y-77000000D01*
X93738095Y-76952380D01*
X93833333Y-76952380D01*
X93976190Y-77000000D01*
X94023809Y-77047619D01*
D10*
%TO.C,U3*%
X133490000Y-97890000D02*
X133490000Y-99150000D01*
X133490000Y-104710000D02*
X133490000Y-103450000D01*
X137250000Y-97890000D02*
X133490000Y-97890000D01*
X139500000Y-104710000D02*
X133490000Y-104710000D01*
%TO.C,C4*%
X126990000Y-101561252D02*
X126990000Y-100138748D01*
X128810000Y-101561252D02*
X128810000Y-100138748D01*
%TO.C,R11*%
X146527500Y-85062742D02*
X146527500Y-85537258D01*
X147572500Y-85062742D02*
X147572500Y-85537258D01*
%TO.C,FB1*%
X146590000Y-100400378D02*
X146590000Y-101199622D01*
X147710000Y-100400378D02*
X147710000Y-101199622D01*
%TO.C,F1*%
X149840000Y-100117936D02*
X149840000Y-101322064D01*
X151660000Y-100117936D02*
X151660000Y-101322064D01*
%TO.C,D4*%
X147825000Y-82385000D02*
X147825000Y-80100000D01*
X146355000Y-82385000D02*
X147825000Y-82385000D01*
X146355000Y-80100000D02*
X146355000Y-82385000D01*
%TO.C,C6*%
X142290000Y-99788748D02*
X142290000Y-101211252D01*
X144110000Y-99788748D02*
X144110000Y-101211252D01*
D13*
%TO.C,G\u002A\u002A\u002A*%
G36*
X135738431Y-79772535D02*
G01*
X136089618Y-79774475D01*
X136359511Y-79778319D01*
X136558259Y-79784565D01*
X136696015Y-79793713D01*
X136782929Y-79806263D01*
X136829152Y-79822713D01*
X136844834Y-79843562D01*
X136845200Y-79848200D01*
X136834306Y-79869968D01*
X136794859Y-79887240D01*
X136716706Y-79900513D01*
X136589698Y-79910288D01*
X136403684Y-79917063D01*
X136148513Y-79921337D01*
X135814033Y-79923610D01*
X135390095Y-79924382D01*
X135295800Y-79924400D01*
X134853168Y-79923864D01*
X134501981Y-79921924D01*
X134232088Y-79918080D01*
X134033340Y-79911834D01*
X133895584Y-79902686D01*
X133808670Y-79890136D01*
X133762447Y-79873686D01*
X133746765Y-79852837D01*
X133746400Y-79848200D01*
X133757293Y-79826431D01*
X133796740Y-79809159D01*
X133874893Y-79795886D01*
X134001901Y-79786111D01*
X134187915Y-79779336D01*
X134443086Y-79775062D01*
X134777566Y-79772789D01*
X135201504Y-79772017D01*
X135295800Y-79772000D01*
X135738431Y-79772535D01*
G37*
X135738431Y-79772535D02*
X136089618Y-79774475D01*
X136359511Y-79778319D01*
X136558259Y-79784565D01*
X136696015Y-79793713D01*
X136782929Y-79806263D01*
X136829152Y-79822713D01*
X136844834Y-79843562D01*
X136845200Y-79848200D01*
X136834306Y-79869968D01*
X136794859Y-79887240D01*
X136716706Y-79900513D01*
X136589698Y-79910288D01*
X136403684Y-79917063D01*
X136148513Y-79921337D01*
X135814033Y-79923610D01*
X135390095Y-79924382D01*
X135295800Y-79924400D01*
X134853168Y-79923864D01*
X134501981Y-79921924D01*
X134232088Y-79918080D01*
X134033340Y-79911834D01*
X133895584Y-79902686D01*
X133808670Y-79890136D01*
X133762447Y-79873686D01*
X133746765Y-79852837D01*
X133746400Y-79848200D01*
X133757293Y-79826431D01*
X133796740Y-79809159D01*
X133874893Y-79795886D01*
X134001901Y-79786111D01*
X134187915Y-79779336D01*
X134443086Y-79775062D01*
X134777566Y-79772789D01*
X135201504Y-79772017D01*
X135295800Y-79772000D01*
X135738431Y-79772535D01*
G36*
X137198613Y-79762806D02*
G01*
X137224664Y-79860201D01*
X137214483Y-79911700D01*
X137153796Y-79968958D01*
X137069455Y-79960125D01*
X137016904Y-79901432D01*
X137014653Y-79793578D01*
X137082620Y-79727551D01*
X137122163Y-79721200D01*
X137198613Y-79762806D01*
G37*
X137198613Y-79762806D02*
X137224664Y-79860201D01*
X137214483Y-79911700D01*
X137153796Y-79968958D01*
X137069455Y-79960125D01*
X137016904Y-79901432D01*
X137014653Y-79793578D01*
X137082620Y-79727551D01*
X137122163Y-79721200D01*
X137198613Y-79762806D01*
G36*
X139125672Y-71472190D02*
G01*
X139131200Y-71492832D01*
X139117584Y-71551346D01*
X139078690Y-71697024D01*
X139017443Y-71919422D01*
X138936768Y-72208098D01*
X138839593Y-72552608D01*
X138728843Y-72942510D01*
X138607444Y-73367360D01*
X138544038Y-73588332D01*
X138417438Y-74029065D01*
X138298903Y-74441983D01*
X138191522Y-74816301D01*
X138098386Y-75141236D01*
X138022585Y-75406004D01*
X137967209Y-75599820D01*
X137935348Y-75711902D01*
X137929344Y-75733400D01*
X137953794Y-75733290D01*
X138038676Y-75670066D01*
X138173187Y-75553059D01*
X138346523Y-75391600D01*
X138516505Y-75226194D01*
X139131200Y-74617388D01*
X139131200Y-73445156D01*
X139565091Y-73014478D01*
X139765308Y-72809303D01*
X139895188Y-72659560D01*
X139962308Y-72555472D01*
X139974243Y-72487262D01*
X139974099Y-72486687D01*
X139979216Y-72395328D01*
X140152508Y-72395328D01*
X140165570Y-72482200D01*
X140234251Y-72544944D01*
X140336448Y-72552715D01*
X140420314Y-72505638D01*
X140433877Y-72481553D01*
X140427247Y-72378848D01*
X140357259Y-72288108D01*
X140266385Y-72253600D01*
X140187653Y-72295910D01*
X140152508Y-72395328D01*
X139979216Y-72395328D01*
X139981578Y-72353176D01*
X140045634Y-72213968D01*
X140116704Y-72140077D01*
X140249816Y-72102613D01*
X140403879Y-72124120D01*
X140520326Y-72194100D01*
X140587562Y-72325972D01*
X140600651Y-72481173D01*
X140565522Y-72588895D01*
X140467398Y-72675555D01*
X140335753Y-72729106D01*
X140222623Y-72728872D01*
X140157249Y-72738957D01*
X140049785Y-72809410D01*
X139892187Y-72946406D01*
X139710943Y-73121633D01*
X139283600Y-73546756D01*
X139283600Y-74716208D01*
X137771714Y-76241400D01*
X137664057Y-76651259D01*
X137610586Y-76889098D01*
X137577132Y-77132962D01*
X137560263Y-77416455D01*
X137556400Y-77705359D01*
X137556400Y-78349600D01*
X138115200Y-78349600D01*
X138115200Y-77408609D01*
X138915877Y-76609104D01*
X139202175Y-76326431D01*
X139427014Y-76112191D01*
X139597722Y-75960048D01*
X139708391Y-75873959D01*
X142484000Y-75873959D01*
X142505552Y-76004195D01*
X142579846Y-76055052D01*
X142659709Y-76053042D01*
X142743554Y-76004552D01*
X142763400Y-75911200D01*
X142741062Y-75813500D01*
X142654700Y-75772536D01*
X142623700Y-75768125D01*
X142522031Y-75770411D01*
X142486568Y-75826209D01*
X142484000Y-75873959D01*
X139708391Y-75873959D01*
X139721629Y-75863662D01*
X139806063Y-75816696D01*
X139840399Y-75809600D01*
X139916096Y-75785348D01*
X140030651Y-75708254D01*
X140192023Y-75571810D01*
X140408172Y-75369508D01*
X140560242Y-75220942D01*
X141074135Y-74713378D01*
X142489121Y-74713378D01*
X142503737Y-74822562D01*
X142574945Y-74882150D01*
X142648872Y-74886062D01*
X142739668Y-74842209D01*
X142763400Y-74742800D01*
X142735479Y-74638151D01*
X142648872Y-74599537D01*
X142540356Y-74623150D01*
X142489121Y-74713378D01*
X141074135Y-74713378D01*
X141156240Y-74632285D01*
X141744600Y-74649442D01*
X141999327Y-74655361D01*
X142170304Y-74654100D01*
X142275254Y-74643602D01*
X142331898Y-74621807D01*
X142357957Y-74586656D01*
X142361066Y-74577818D01*
X142435993Y-74493040D01*
X142573684Y-74448203D01*
X142739752Y-74453512D01*
X142762626Y-74458666D01*
X142872972Y-74530834D01*
X142930659Y-74656413D01*
X142935685Y-74801925D01*
X142888050Y-74933893D01*
X142787755Y-75018841D01*
X142762626Y-75026933D01*
X142595354Y-75039845D01*
X142451784Y-75001225D01*
X142366304Y-74921274D01*
X142361061Y-74907781D01*
X142338601Y-74869239D01*
X142288567Y-74844794D01*
X142192983Y-74832275D01*
X142033874Y-74829510D01*
X141793266Y-74834326D01*
X141760775Y-74835233D01*
X141188600Y-74851467D01*
X140717574Y-75317833D01*
X140246549Y-75784200D01*
X141276374Y-75809600D01*
X141625940Y-75817622D01*
X141887349Y-75821514D01*
X142073986Y-75820468D01*
X142199241Y-75813679D01*
X142276500Y-75800340D01*
X142319151Y-75779645D01*
X142340582Y-75750788D01*
X142342936Y-75745361D01*
X142435094Y-75640447D01*
X142580780Y-75589353D01*
X142741305Y-75603248D01*
X142780788Y-75618928D01*
X142896057Y-75719664D01*
X142940087Y-75856878D01*
X142919918Y-76002283D01*
X142842593Y-76127589D01*
X142715152Y-76204511D01*
X142632155Y-76216000D01*
X142496562Y-76185080D01*
X142384126Y-76109609D01*
X142332055Y-76015523D01*
X142331600Y-76006515D01*
X142281775Y-75990264D01*
X142136092Y-75977623D01*
X141900233Y-75968786D01*
X141579881Y-75963945D01*
X141180720Y-75963294D01*
X141074300Y-75963780D01*
X139817000Y-75970873D01*
X139042300Y-76740522D01*
X138267600Y-77510170D01*
X138267600Y-78349600D01*
X140096400Y-78349600D01*
X140097177Y-77828900D01*
X140101430Y-77603734D01*
X140112273Y-77413478D01*
X140122410Y-77328803D01*
X141730430Y-77328803D01*
X141791289Y-77410827D01*
X141886872Y-77426062D01*
X141977668Y-77382209D01*
X142001400Y-77282800D01*
X141973479Y-77178151D01*
X141886872Y-77139537D01*
X141779715Y-77157988D01*
X141741737Y-77203037D01*
X141730430Y-77328803D01*
X140122410Y-77328803D01*
X140127879Y-77283132D01*
X140140037Y-77241849D01*
X140183620Y-77214079D01*
X140281172Y-77196407D01*
X140445919Y-77187923D01*
X140691091Y-77187713D01*
X140876561Y-77191049D01*
X141158800Y-77195954D01*
X141355369Y-77194909D01*
X141482096Y-77186474D01*
X141554810Y-77169204D01*
X141589342Y-77141658D01*
X141596678Y-77125409D01*
X141676334Y-77017871D01*
X141807761Y-76967275D01*
X141958752Y-76973374D01*
X142097104Y-77035919D01*
X142178925Y-77129887D01*
X142216568Y-77283143D01*
X142175076Y-77417609D01*
X142076774Y-77519847D01*
X141943985Y-77576420D01*
X141799033Y-77573893D01*
X141664243Y-77498826D01*
X141629475Y-77460599D01*
X141582862Y-77407135D01*
X141529657Y-77371262D01*
X141450133Y-77349478D01*
X141324566Y-77338277D01*
X141133227Y-77334155D01*
X140914588Y-77333600D01*
X140299600Y-77333600D01*
X140299600Y-77841600D01*
X140302011Y-78077711D01*
X140310979Y-78229268D01*
X140329100Y-78313236D01*
X140358974Y-78346585D01*
X140377394Y-78349600D01*
X140462436Y-78385903D01*
X140481371Y-78480836D01*
X140431234Y-78613427D01*
X140417760Y-78634982D01*
X140351032Y-78801458D01*
X140308166Y-79056913D01*
X140299600Y-79159786D01*
X140274200Y-79543400D01*
X140048428Y-79568800D01*
X139954547Y-79581627D01*
X139881175Y-79605244D01*
X139813961Y-79654115D01*
X139738550Y-79742702D01*
X139640591Y-79885471D01*
X139505729Y-80096883D01*
X139473199Y-80148464D01*
X139123740Y-80702729D01*
X139698141Y-81278764D01*
X140272542Y-81854800D01*
X140672460Y-81854800D01*
X140877229Y-81851982D01*
X141007193Y-81838999D01*
X141089093Y-81809056D01*
X141149669Y-81755359D01*
X141172275Y-81727800D01*
X141305083Y-81626711D01*
X141460819Y-81604073D01*
X141604548Y-81662443D01*
X141637926Y-81693700D01*
X141710666Y-81835658D01*
X141715987Y-81997157D01*
X141656312Y-82137181D01*
X141609096Y-82182119D01*
X141452098Y-82253433D01*
X141307576Y-82228950D01*
X141183981Y-82134200D01*
X141113033Y-82072169D01*
X141034816Y-82034376D01*
X140922929Y-82014919D01*
X140750968Y-82007899D01*
X140615699Y-82007200D01*
X140174417Y-82007200D01*
X140105033Y-81938076D01*
X141267015Y-81938076D01*
X141325760Y-82047840D01*
X141382169Y-82099228D01*
X141431656Y-82099489D01*
X141489245Y-82077964D01*
X141552653Y-82008905D01*
X141566088Y-81902921D01*
X141528834Y-81810310D01*
X141493400Y-81785629D01*
X141369716Y-81777102D01*
X141287917Y-81837831D01*
X141267015Y-81938076D01*
X140105033Y-81938076D01*
X139678208Y-81512853D01*
X139182000Y-81018506D01*
X139182000Y-83582000D01*
X140084180Y-83582000D01*
X140408354Y-83581339D01*
X140645835Y-83578312D01*
X140811527Y-83571350D01*
X140920331Y-83558885D01*
X140987153Y-83539349D01*
X141026896Y-83511175D01*
X141049810Y-83480400D01*
X141151588Y-83402247D01*
X141297754Y-83378325D01*
X141446312Y-83409383D01*
X141536326Y-83471700D01*
X141609348Y-83616306D01*
X141605251Y-83775165D01*
X141527499Y-83904326D01*
X141394296Y-83973607D01*
X141239802Y-83985441D01*
X141105148Y-83941338D01*
X141049810Y-83886800D01*
X141012013Y-83841447D01*
X140953245Y-83811932D01*
X140853559Y-83794935D01*
X140693010Y-83787132D01*
X140451650Y-83785202D01*
X140439780Y-83785200D01*
X139893200Y-83785200D01*
X139893200Y-84995936D01*
X140352501Y-85424521D01*
X140554917Y-85609532D01*
X140701186Y-85732005D01*
X140806104Y-85802132D01*
X140884466Y-85830105D01*
X140939295Y-85828735D01*
X141077136Y-85848031D01*
X141207254Y-85936289D01*
X141296013Y-86064232D01*
X141315600Y-86156255D01*
X141270566Y-86300529D01*
X141158123Y-86418159D01*
X141012257Y-86476070D01*
X140985400Y-86477600D01*
X140829581Y-86433546D01*
X140713532Y-86321327D01*
X140669082Y-86186560D01*
X140824737Y-86186560D01*
X140858936Y-86249646D01*
X140961514Y-86319540D01*
X141060045Y-86290242D01*
X141115571Y-86217673D01*
X141145674Y-86116356D01*
X141095980Y-86033008D01*
X141095898Y-86032926D01*
X140994420Y-85983530D01*
X140897620Y-86008932D01*
X140832169Y-86084740D01*
X140824737Y-86186560D01*
X140669082Y-86186560D01*
X140663902Y-86170855D01*
X140666398Y-86119532D01*
X140667033Y-86051389D01*
X140640947Y-85978448D01*
X140577272Y-85885896D01*
X140465139Y-85758922D01*
X140293681Y-85582714D01*
X140214225Y-85503264D01*
X139740800Y-85031806D01*
X139740800Y-83789842D01*
X139055000Y-83759800D01*
X139053264Y-83662559D01*
X141139074Y-83662559D01*
X141142358Y-83753361D01*
X141211310Y-83814831D01*
X141321287Y-83835221D01*
X141419260Y-83808993D01*
X141442880Y-83784745D01*
X141457060Y-83685237D01*
X141412067Y-83585202D01*
X141331236Y-83532168D01*
X141318396Y-83531200D01*
X141204149Y-83570021D01*
X141139074Y-83662559D01*
X139053264Y-83662559D01*
X139004200Y-80915000D01*
X138872420Y-81118200D01*
X138805490Y-81222643D01*
X138694901Y-81396629D01*
X138551078Y-81623694D01*
X138384447Y-81887372D01*
X138205433Y-82171199D01*
X138164737Y-82235800D01*
X137973743Y-82540001D01*
X137830101Y-82773335D01*
X137726715Y-82950709D01*
X137656486Y-83087032D01*
X137612315Y-83197211D01*
X137587103Y-83296156D01*
X137573753Y-83398774D01*
X137566992Y-83491195D01*
X137545149Y-83832191D01*
X138220523Y-84519895D01*
X138471997Y-84772899D01*
X138665054Y-84959172D01*
X138809637Y-85087150D01*
X138915686Y-85165266D01*
X138993143Y-85201957D01*
X139031075Y-85207600D01*
X139180872Y-85249019D01*
X139282892Y-85354090D01*
X139330498Y-85494033D01*
X139317053Y-85640068D01*
X139235917Y-85763414D01*
X139169300Y-85806918D01*
X139044182Y-85847527D01*
X138928324Y-85823539D01*
X138889900Y-85806063D01*
X138803288Y-85751324D01*
X138762108Y-85674246D01*
X138751846Y-85558403D01*
X138885630Y-85558403D01*
X138946489Y-85640427D01*
X139042072Y-85655662D01*
X139132868Y-85611809D01*
X139156600Y-85512400D01*
X139128679Y-85407751D01*
X139042072Y-85369137D01*
X138934915Y-85387588D01*
X138896937Y-85432637D01*
X138885630Y-85558403D01*
X138751846Y-85558403D01*
X138750152Y-85539281D01*
X138749835Y-85498833D01*
X138748098Y-85413532D01*
X138736796Y-85340778D01*
X138706351Y-85267572D01*
X138647189Y-85180911D01*
X138549733Y-85067795D01*
X138404408Y-84915222D01*
X138201637Y-84710191D01*
X138076735Y-84584961D01*
X137841566Y-84348552D01*
X137668773Y-84170990D01*
X137548748Y-84039422D01*
X137471882Y-83940994D01*
X137428567Y-83862855D01*
X137409194Y-83792151D01*
X137404155Y-83716030D01*
X137404000Y-83685075D01*
X137402437Y-83632730D01*
X137394582Y-83600142D01*
X137375689Y-83593974D01*
X137341007Y-83620889D01*
X137285789Y-83687551D01*
X137205286Y-83800622D01*
X137094751Y-83966766D01*
X136949435Y-84192645D01*
X136764589Y-84484924D01*
X136535466Y-84850264D01*
X136263170Y-85285956D01*
X135951681Y-85782017D01*
X135688789Y-86194531D01*
X135471615Y-86527549D01*
X135297283Y-86785118D01*
X135162913Y-86971289D01*
X135065630Y-87090110D01*
X135002555Y-87145630D01*
X134970810Y-87141900D01*
X134965600Y-87111725D01*
X134979934Y-87060367D01*
X135021090Y-86920960D01*
X135086298Y-86702650D01*
X135172788Y-86414584D01*
X135277788Y-86065908D01*
X135398529Y-85665768D01*
X135532240Y-85223310D01*
X135676151Y-84747680D01*
X135827491Y-84248025D01*
X135983491Y-83733491D01*
X136141379Y-83213224D01*
X136298386Y-82696370D01*
X136451741Y-82192075D01*
X136598674Y-81709486D01*
X136736415Y-81257748D01*
X136862192Y-80846009D01*
X136973236Y-80483413D01*
X136977580Y-80469254D01*
X136981523Y-80436342D01*
X136960856Y-80412983D01*
X136901911Y-80397916D01*
X136791020Y-80389883D01*
X136614515Y-80387623D01*
X136358726Y-80389879D01*
X136150518Y-80393054D01*
X135295800Y-80407000D01*
X135269054Y-83962986D01*
X134610306Y-84623393D01*
X134378064Y-84857018D01*
X134208591Y-85031401D01*
X134092625Y-85158955D01*
X134020905Y-85252092D01*
X133984170Y-85323225D01*
X133973158Y-85384766D01*
X133978610Y-85449128D01*
X133981342Y-85466393D01*
X133989655Y-85601916D01*
X133944632Y-85693501D01*
X133871912Y-85758493D01*
X133760644Y-85832861D01*
X133675650Y-85867649D01*
X133670200Y-85868000D01*
X133556723Y-85826986D01*
X133440877Y-85728138D01*
X133358547Y-85607741D01*
X133340000Y-85534112D01*
X133355770Y-85481657D01*
X133515306Y-85481657D01*
X133525603Y-85578274D01*
X133569859Y-85633402D01*
X133662007Y-85687254D01*
X133749927Y-85662911D01*
X133828907Y-85592756D01*
X133848000Y-85542232D01*
X133807940Y-85441435D01*
X133715840Y-85381057D01*
X133613819Y-85387190D01*
X133605465Y-85391975D01*
X133515306Y-85481657D01*
X133355770Y-85481657D01*
X133383413Y-85389716D01*
X133491095Y-85269881D01*
X133629212Y-85209480D01*
X133656818Y-85207600D01*
X133736336Y-85174683D01*
X133871102Y-85074105D01*
X134064331Y-84903117D01*
X134319239Y-84658974D01*
X134444218Y-84535205D01*
X135118000Y-83862811D01*
X135118000Y-80381600D01*
X134123153Y-80381600D01*
X133910175Y-80598609D01*
X133697196Y-80815619D01*
X133683698Y-82287709D01*
X133670200Y-83759800D01*
X132984400Y-83789842D01*
X132984400Y-85031806D01*
X132505427Y-85508787D01*
X132302333Y-85715122D01*
X132164007Y-85867353D01*
X132079783Y-85979438D01*
X132038996Y-86065336D01*
X132030562Y-86130237D01*
X131992581Y-86297323D01*
X131885067Y-86422035D01*
X131732945Y-86476989D01*
X131714400Y-86477600D01*
X131563602Y-86435367D01*
X131458761Y-86328187D01*
X131408712Y-86185337D01*
X131415493Y-86110796D01*
X131574388Y-86110796D01*
X131586199Y-86211951D01*
X131622959Y-86264240D01*
X131679369Y-86315628D01*
X131728856Y-86315889D01*
X131786445Y-86294364D01*
X131855087Y-86223831D01*
X131856067Y-86118242D01*
X131790600Y-86020400D01*
X131696043Y-85986721D01*
X131617488Y-86026286D01*
X131574388Y-86110796D01*
X131415493Y-86110796D01*
X131422289Y-86036092D01*
X131508327Y-85909730D01*
X131536689Y-85888669D01*
X131678416Y-85833668D01*
X131777989Y-85835432D01*
X131838350Y-85836095D01*
X131914728Y-85801534D01*
X132020481Y-85721743D01*
X132168966Y-85586716D01*
X132362100Y-85397837D01*
X132832000Y-84930206D01*
X132832000Y-83785200D01*
X132284489Y-83785200D01*
X132037028Y-83787193D01*
X131870328Y-83795394D01*
X131763591Y-83813132D01*
X131696020Y-83843739D01*
X131649987Y-83886800D01*
X131522855Y-83967178D01*
X131363274Y-83984279D01*
X131218101Y-83935911D01*
X131184628Y-83908571D01*
X131118639Y-83780180D01*
X131113551Y-83654178D01*
X131262321Y-83654178D01*
X131276937Y-83763362D01*
X131348145Y-83822950D01*
X131422072Y-83826862D01*
X131512868Y-83783009D01*
X131536600Y-83683600D01*
X131508679Y-83578951D01*
X131422072Y-83540337D01*
X131313556Y-83563950D01*
X131262321Y-83654178D01*
X131113551Y-83654178D01*
X131112197Y-83620656D01*
X131165301Y-83481189D01*
X131184628Y-83458628D01*
X131316475Y-83390366D01*
X131476667Y-83388225D01*
X131618345Y-83450013D01*
X131649987Y-83480400D01*
X131687719Y-83516918D01*
X131739156Y-83543486D01*
X131819585Y-83561673D01*
X131944292Y-83573046D01*
X132128567Y-83579175D01*
X132387695Y-83581628D01*
X132640089Y-83582000D01*
X133543200Y-83582000D01*
X133540764Y-82273900D01*
X133538329Y-80965800D01*
X133045464Y-81486969D01*
X132552600Y-82008139D01*
X132101225Y-82007669D01*
X131881429Y-82009724D01*
X131737791Y-82020210D01*
X131644904Y-82044775D01*
X131577363Y-82089068D01*
X131532150Y-82134200D01*
X131381869Y-82240141D01*
X131228023Y-82248664D01*
X131085936Y-82159992D01*
X131057687Y-82127349D01*
X130972520Y-81995140D01*
X130970457Y-81963681D01*
X131143084Y-81963681D01*
X131189054Y-82033397D01*
X131290832Y-82093399D01*
X131382970Y-82053926D01*
X131430509Y-81992429D01*
X131444206Y-81894875D01*
X131388860Y-81809959D01*
X131294664Y-81772099D01*
X131244746Y-81780661D01*
X131149832Y-81857751D01*
X131143084Y-81963681D01*
X130970457Y-81963681D01*
X130965433Y-81887075D01*
X131036425Y-81762286D01*
X131057687Y-81734650D01*
X131195115Y-81624555D01*
X131347683Y-81611607D01*
X131500069Y-81696027D01*
X131532150Y-81727800D01*
X131601105Y-81791877D01*
X131679304Y-81829929D01*
X131794241Y-81848594D01*
X131973410Y-81854511D01*
X132058079Y-81854800D01*
X132466307Y-81854800D01*
X133163837Y-81130900D01*
X133861366Y-80407000D01*
X133016483Y-80393071D01*
X132736350Y-80386130D01*
X132495472Y-80375727D01*
X132310523Y-80362945D01*
X132198182Y-80348864D01*
X132171600Y-80338267D01*
X132200896Y-80282508D01*
X132267534Y-80184868D01*
X132484866Y-80184868D01*
X132530455Y-80194132D01*
X132668284Y-80202688D01*
X132888995Y-80210358D01*
X133183230Y-80216964D01*
X133541631Y-80222325D01*
X133954839Y-80226264D01*
X134413496Y-80228602D01*
X134805968Y-80229200D01*
X135295855Y-80230153D01*
X135749510Y-80232892D01*
X136157294Y-80237232D01*
X136509568Y-80242989D01*
X136796694Y-80249978D01*
X137009033Y-80258017D01*
X137136944Y-80266921D01*
X137171916Y-80274363D01*
X137162468Y-80329766D01*
X137125541Y-80473686D01*
X137063629Y-80697561D01*
X136979229Y-80992829D01*
X136874835Y-81350930D01*
X136752943Y-81763302D01*
X136616048Y-82221383D01*
X136466647Y-82716614D01*
X136309364Y-83233463D01*
X136148595Y-83760082D01*
X135996196Y-84260288D01*
X135854857Y-84725190D01*
X135727266Y-85145896D01*
X135616111Y-85513518D01*
X135524081Y-85819163D01*
X135453863Y-86053943D01*
X135408147Y-86208965D01*
X135389828Y-86274400D01*
X135411755Y-86251139D01*
X135483707Y-86147459D01*
X135601973Y-85969164D01*
X135762839Y-85722059D01*
X135962595Y-85411950D01*
X136197527Y-85044643D01*
X136463925Y-84625942D01*
X136758075Y-84161653D01*
X137076266Y-83657582D01*
X137414785Y-83119534D01*
X137769921Y-82553313D01*
X137804778Y-82497645D01*
X138162992Y-81924986D01*
X138505402Y-81376626D01*
X138828207Y-80858708D01*
X139127605Y-80377376D01*
X139399795Y-79938772D01*
X139640978Y-79549039D01*
X139737229Y-79392927D01*
X139966467Y-79392927D01*
X140007081Y-79416133D01*
X140018412Y-79416400D01*
X140082444Y-79373949D01*
X140096400Y-79314800D01*
X140086468Y-79232118D01*
X140072787Y-79213200D01*
X140033431Y-79252087D01*
X139994800Y-79314800D01*
X139966467Y-79392927D01*
X139737229Y-79392927D01*
X139847350Y-79214319D01*
X140015112Y-78940756D01*
X140140462Y-78734491D01*
X140219600Y-78601667D01*
X140248724Y-78548428D01*
X140248800Y-78547945D01*
X140199712Y-78536081D01*
X140059291Y-78525527D01*
X139837796Y-78516573D01*
X139545489Y-78509508D01*
X139192631Y-78504624D01*
X138789482Y-78502209D01*
X138623200Y-78502000D01*
X138160582Y-78501293D01*
X137790413Y-78498922D01*
X137503548Y-78494505D01*
X137290844Y-78487664D01*
X137143157Y-78478019D01*
X137051343Y-78465190D01*
X137006259Y-78448799D01*
X136997600Y-78434525D01*
X137011282Y-78375219D01*
X137044068Y-78251832D01*
X137209349Y-78251832D01*
X137216977Y-78320161D01*
X137259609Y-78346510D01*
X137302400Y-78349600D01*
X137354901Y-78340629D01*
X137384901Y-78299442D01*
X137398036Y-78204630D01*
X137399942Y-78034782D01*
X137399366Y-77981300D01*
X137394732Y-77613000D01*
X137298456Y-77917800D01*
X137236563Y-78123665D01*
X137209349Y-78251832D01*
X137044068Y-78251832D01*
X137050773Y-78226601D01*
X137113736Y-77996983D01*
X137197836Y-77694676D01*
X137300738Y-77327993D01*
X137420105Y-76905245D01*
X137553603Y-76434745D01*
X137698896Y-75924804D01*
X137853647Y-75383735D01*
X137913196Y-75176055D01*
X138070369Y-74627390D01*
X138218599Y-74108205D01*
X138355600Y-73626622D01*
X138479085Y-73190764D01*
X138586767Y-72808751D01*
X138676359Y-72488708D01*
X138745575Y-72238755D01*
X138792127Y-72067016D01*
X138813729Y-71981612D01*
X138814896Y-71973459D01*
X138782858Y-72011052D01*
X138693966Y-72122733D01*
X138553231Y-72302000D01*
X138365668Y-72542349D01*
X138136289Y-72837277D01*
X137870106Y-73180282D01*
X137572134Y-73564861D01*
X137247385Y-73984511D01*
X136900872Y-74432728D01*
X136537607Y-74903011D01*
X136162605Y-75388855D01*
X135780877Y-75883759D01*
X135397437Y-76381219D01*
X135017299Y-76874733D01*
X134645473Y-77357796D01*
X134286975Y-77823908D01*
X133946817Y-78266564D01*
X133630011Y-78679262D01*
X133341571Y-79055499D01*
X133086509Y-79388771D01*
X132869839Y-79672577D01*
X132696574Y-79900413D01*
X132571727Y-80065776D01*
X132500310Y-80162164D01*
X132484866Y-80184868D01*
X132267534Y-80184868D01*
X132279334Y-80167580D01*
X132392741Y-80013776D01*
X132454658Y-79933096D01*
X132737717Y-79568800D01*
X132427581Y-79568800D01*
X132413890Y-78463900D01*
X132400200Y-77359000D01*
X131797962Y-77344641D01*
X131541576Y-77339434D01*
X131366215Y-77340465D01*
X131251348Y-77350985D01*
X131176444Y-77374249D01*
X131120971Y-77413508D01*
X131076487Y-77458941D01*
X130928737Y-77561309D01*
X130771393Y-77583672D01*
X130629828Y-77534287D01*
X130529418Y-77421410D01*
X130495942Y-77273074D01*
X130651899Y-77273074D01*
X130665970Y-77359000D01*
X130734809Y-77423938D01*
X130837410Y-77426253D01*
X130929758Y-77368691D01*
X130948235Y-77341382D01*
X130963351Y-77231946D01*
X130895214Y-77154049D01*
X130788245Y-77130400D01*
X130692427Y-77171945D01*
X130651899Y-77273074D01*
X130495942Y-77273074D01*
X130495200Y-77269787D01*
X130536756Y-77137084D01*
X130639326Y-77023656D01*
X130769767Y-76957131D01*
X130871482Y-76956124D01*
X130987876Y-77018521D01*
X131065437Y-77088083D01*
X131109889Y-77129035D01*
X131172157Y-77157698D01*
X131270056Y-77176556D01*
X131421399Y-77188096D01*
X131643999Y-77194804D01*
X131852837Y-77197969D01*
X132552600Y-77206600D01*
X132566290Y-78311500D01*
X132579981Y-79416400D01*
X132718690Y-79416358D01*
X132770987Y-79407178D01*
X132831413Y-79373375D01*
X132908654Y-79305510D01*
X133011397Y-79194145D01*
X133148329Y-79029841D01*
X133328136Y-78803158D01*
X133559505Y-78504658D01*
X133568600Y-78492852D01*
X133774552Y-78224755D01*
X133960976Y-77980795D01*
X134118445Y-77773414D01*
X134237529Y-77615055D01*
X134308802Y-77518157D01*
X134323843Y-77496183D01*
X134319787Y-77449414D01*
X134267296Y-77364826D01*
X134160392Y-77235402D01*
X133993099Y-77054124D01*
X133759439Y-76813973D01*
X133643165Y-76696962D01*
X132918442Y-75970944D01*
X131677442Y-75964680D01*
X130436441Y-75958415D01*
X130335133Y-76087207D01*
X130202194Y-76190015D01*
X130046794Y-76217806D01*
X129900436Y-76173764D01*
X129794625Y-76061070D01*
X129781365Y-76031271D01*
X129765844Y-75864701D01*
X129918361Y-75864701D01*
X129943381Y-75975045D01*
X130026310Y-76051333D01*
X130124172Y-76052215D01*
X130198432Y-75986721D01*
X130215800Y-75911200D01*
X130188714Y-75807602D01*
X130094544Y-75767055D01*
X129972169Y-75784474D01*
X129918361Y-75864701D01*
X129765844Y-75864701D01*
X129765601Y-75862100D01*
X129829965Y-75702911D01*
X129938577Y-75605234D01*
X130070377Y-75580448D01*
X130215554Y-75614403D01*
X130330351Y-75692117D01*
X130365845Y-75751563D01*
X130384023Y-75779904D01*
X130426741Y-75800610D01*
X130507095Y-75814535D01*
X130638184Y-75822531D01*
X130833108Y-75825454D01*
X131104963Y-75824157D01*
X131418540Y-75820200D01*
X132444811Y-75805400D01*
X131491025Y-74847632D01*
X130955012Y-74833316D01*
X130714475Y-74828266D01*
X130554000Y-74830816D01*
X130452130Y-74844458D01*
X130387411Y-74872686D01*
X130338387Y-74918994D01*
X130324273Y-74936019D01*
X130194244Y-75027608D01*
X130038017Y-75045488D01*
X129891522Y-74993287D01*
X129794288Y-74882499D01*
X129755945Y-74764083D01*
X129902941Y-74764083D01*
X129945094Y-74850386D01*
X130052086Y-74886869D01*
X130082589Y-74885248D01*
X130184149Y-74850774D01*
X130215425Y-74761145D01*
X130215800Y-74742800D01*
X130177292Y-74638945D01*
X130086965Y-74594789D01*
X129982610Y-74622153D01*
X129943778Y-74657709D01*
X129902941Y-74764083D01*
X129755945Y-74764083D01*
X129753587Y-74756802D01*
X129777687Y-74639990D01*
X129794288Y-74603099D01*
X129898429Y-74487863D01*
X130046337Y-74439271D01*
X130202079Y-74460951D01*
X130324273Y-74549580D01*
X130371715Y-74600795D01*
X130428430Y-74633686D01*
X130515283Y-74651544D01*
X130653142Y-74657658D01*
X130862872Y-74655316D01*
X130977800Y-74652592D01*
X131536600Y-74638585D01*
X132119971Y-75224092D01*
X132347403Y-75449474D01*
X132518096Y-75610409D01*
X132644528Y-75716826D01*
X132739177Y-75778651D01*
X132814523Y-75805812D01*
X132855956Y-75809600D01*
X132918497Y-75819449D01*
X132993309Y-75854868D01*
X133091031Y-75924666D01*
X133222302Y-76037650D01*
X133397762Y-76202629D01*
X133628051Y-76428409D01*
X133749637Y-76549431D01*
X134490704Y-77289263D01*
X134804352Y-76883820D01*
X134936364Y-76709168D01*
X135040963Y-76563162D01*
X135104755Y-76464946D01*
X135118000Y-76435528D01*
X135083506Y-76389111D01*
X134986626Y-76281677D01*
X134837258Y-76123603D01*
X134645302Y-75925265D01*
X134420656Y-75697043D01*
X134254400Y-75530200D01*
X133390799Y-74667720D01*
X133390799Y-73495816D01*
X132988807Y-73096181D01*
X132781147Y-72898405D01*
X132631624Y-72776515D01*
X132535301Y-72726748D01*
X132505766Y-72727648D01*
X132360704Y-72736853D01*
X132230114Y-72669966D01*
X132135689Y-72552242D01*
X132099123Y-72408930D01*
X132102425Y-72395328D01*
X132278508Y-72395328D01*
X132291570Y-72482200D01*
X132360251Y-72544944D01*
X132462448Y-72552715D01*
X132546314Y-72505638D01*
X132559877Y-72481553D01*
X132553247Y-72378848D01*
X132483259Y-72288108D01*
X132392385Y-72253600D01*
X132313653Y-72295910D01*
X132278508Y-72395328D01*
X132102425Y-72395328D01*
X132128397Y-72288373D01*
X132221806Y-72160138D01*
X132345581Y-72107680D01*
X132430426Y-72101977D01*
X132584346Y-72145813D01*
X132689151Y-72267715D01*
X132730275Y-72450205D01*
X132730400Y-72461921D01*
X132739071Y-72546367D01*
X132773173Y-72630778D01*
X132844842Y-72732141D01*
X132966209Y-72867441D01*
X133149409Y-73053667D01*
X133162200Y-73066400D01*
X133594000Y-73495956D01*
X133594000Y-74617070D01*
X134356000Y-75377800D01*
X135118000Y-76138529D01*
X135118000Y-75401154D01*
X135116917Y-75110338D01*
X135112249Y-74903843D01*
X135101869Y-74764404D01*
X135083649Y-74674752D01*
X135055459Y-74617620D01*
X135016400Y-74576787D01*
X134941531Y-74459189D01*
X134928560Y-74382403D01*
X135075630Y-74382403D01*
X135136489Y-74464427D01*
X135232072Y-74479662D01*
X135322868Y-74435809D01*
X135346600Y-74336400D01*
X135318679Y-74231751D01*
X135232072Y-74193137D01*
X135124915Y-74211588D01*
X135086937Y-74256637D01*
X135075630Y-74382403D01*
X134928560Y-74382403D01*
X134915466Y-74304896D01*
X134940238Y-74158398D01*
X134993706Y-74080153D01*
X135123343Y-74023750D01*
X135278378Y-74020891D01*
X135412167Y-74068656D01*
X135455390Y-74109042D01*
X135519099Y-74274492D01*
X135495300Y-74450007D01*
X135421396Y-74566493D01*
X135381441Y-74616191D01*
X135353908Y-74677435D01*
X135336986Y-74767814D01*
X135328863Y-74904913D01*
X135327726Y-75106318D01*
X135331764Y-75389616D01*
X135332496Y-75429218D01*
X135346600Y-76182300D01*
X137171929Y-73811550D01*
X137503495Y-73382348D01*
X137817895Y-72978145D01*
X138109500Y-72605993D01*
X138372680Y-72272946D01*
X138601805Y-71986059D01*
X138791243Y-71752384D01*
X138935365Y-71578976D01*
X139028540Y-71472889D01*
X139064229Y-71440800D01*
X139125672Y-71472190D01*
G37*
X139125672Y-71472190D02*
X139131200Y-71492832D01*
X139117584Y-71551346D01*
X139078690Y-71697024D01*
X139017443Y-71919422D01*
X138936768Y-72208098D01*
X138839593Y-72552608D01*
X138728843Y-72942510D01*
X138607444Y-73367360D01*
X138544038Y-73588332D01*
X138417438Y-74029065D01*
X138298903Y-74441983D01*
X138191522Y-74816301D01*
X138098386Y-75141236D01*
X138022585Y-75406004D01*
X137967209Y-75599820D01*
X137935348Y-75711902D01*
X137929344Y-75733400D01*
X137953794Y-75733290D01*
X138038676Y-75670066D01*
X138173187Y-75553059D01*
X138346523Y-75391600D01*
X138516505Y-75226194D01*
X139131200Y-74617388D01*
X139131200Y-73445156D01*
X139565091Y-73014478D01*
X139765308Y-72809303D01*
X139895188Y-72659560D01*
X139962308Y-72555472D01*
X139974243Y-72487262D01*
X139974099Y-72486687D01*
X139979216Y-72395328D01*
X140152508Y-72395328D01*
X140165570Y-72482200D01*
X140234251Y-72544944D01*
X140336448Y-72552715D01*
X140420314Y-72505638D01*
X140433877Y-72481553D01*
X140427247Y-72378848D01*
X140357259Y-72288108D01*
X140266385Y-72253600D01*
X140187653Y-72295910D01*
X140152508Y-72395328D01*
X139979216Y-72395328D01*
X139981578Y-72353176D01*
X140045634Y-72213968D01*
X140116704Y-72140077D01*
X140249816Y-72102613D01*
X140403879Y-72124120D01*
X140520326Y-72194100D01*
X140587562Y-72325972D01*
X140600651Y-72481173D01*
X140565522Y-72588895D01*
X140467398Y-72675555D01*
X140335753Y-72729106D01*
X140222623Y-72728872D01*
X140157249Y-72738957D01*
X140049785Y-72809410D01*
X139892187Y-72946406D01*
X139710943Y-73121633D01*
X139283600Y-73546756D01*
X139283600Y-74716208D01*
X137771714Y-76241400D01*
X137664057Y-76651259D01*
X137610586Y-76889098D01*
X137577132Y-77132962D01*
X137560263Y-77416455D01*
X137556400Y-77705359D01*
X137556400Y-78349600D01*
X138115200Y-78349600D01*
X138115200Y-77408609D01*
X138915877Y-76609104D01*
X139202175Y-76326431D01*
X139427014Y-76112191D01*
X139597722Y-75960048D01*
X139708391Y-75873959D01*
X142484000Y-75873959D01*
X142505552Y-76004195D01*
X142579846Y-76055052D01*
X142659709Y-76053042D01*
X142743554Y-76004552D01*
X142763400Y-75911200D01*
X142741062Y-75813500D01*
X142654700Y-75772536D01*
X142623700Y-75768125D01*
X142522031Y-75770411D01*
X142486568Y-75826209D01*
X142484000Y-75873959D01*
X139708391Y-75873959D01*
X139721629Y-75863662D01*
X139806063Y-75816696D01*
X139840399Y-75809600D01*
X139916096Y-75785348D01*
X140030651Y-75708254D01*
X140192023Y-75571810D01*
X140408172Y-75369508D01*
X140560242Y-75220942D01*
X141074135Y-74713378D01*
X142489121Y-74713378D01*
X142503737Y-74822562D01*
X142574945Y-74882150D01*
X142648872Y-74886062D01*
X142739668Y-74842209D01*
X142763400Y-74742800D01*
X142735479Y-74638151D01*
X142648872Y-74599537D01*
X142540356Y-74623150D01*
X142489121Y-74713378D01*
X141074135Y-74713378D01*
X141156240Y-74632285D01*
X141744600Y-74649442D01*
X141999327Y-74655361D01*
X142170304Y-74654100D01*
X142275254Y-74643602D01*
X142331898Y-74621807D01*
X142357957Y-74586656D01*
X142361066Y-74577818D01*
X142435993Y-74493040D01*
X142573684Y-74448203D01*
X142739752Y-74453512D01*
X142762626Y-74458666D01*
X142872972Y-74530834D01*
X142930659Y-74656413D01*
X142935685Y-74801925D01*
X142888050Y-74933893D01*
X142787755Y-75018841D01*
X142762626Y-75026933D01*
X142595354Y-75039845D01*
X142451784Y-75001225D01*
X142366304Y-74921274D01*
X142361061Y-74907781D01*
X142338601Y-74869239D01*
X142288567Y-74844794D01*
X142192983Y-74832275D01*
X142033874Y-74829510D01*
X141793266Y-74834326D01*
X141760775Y-74835233D01*
X141188600Y-74851467D01*
X140717574Y-75317833D01*
X140246549Y-75784200D01*
X141276374Y-75809600D01*
X141625940Y-75817622D01*
X141887349Y-75821514D01*
X142073986Y-75820468D01*
X142199241Y-75813679D01*
X142276500Y-75800340D01*
X142319151Y-75779645D01*
X142340582Y-75750788D01*
X142342936Y-75745361D01*
X142435094Y-75640447D01*
X142580780Y-75589353D01*
X142741305Y-75603248D01*
X142780788Y-75618928D01*
X142896057Y-75719664D01*
X142940087Y-75856878D01*
X142919918Y-76002283D01*
X142842593Y-76127589D01*
X142715152Y-76204511D01*
X142632155Y-76216000D01*
X142496562Y-76185080D01*
X142384126Y-76109609D01*
X142332055Y-76015523D01*
X142331600Y-76006515D01*
X142281775Y-75990264D01*
X142136092Y-75977623D01*
X141900233Y-75968786D01*
X141579881Y-75963945D01*
X141180720Y-75963294D01*
X141074300Y-75963780D01*
X139817000Y-75970873D01*
X139042300Y-76740522D01*
X138267600Y-77510170D01*
X138267600Y-78349600D01*
X140096400Y-78349600D01*
X140097177Y-77828900D01*
X140101430Y-77603734D01*
X140112273Y-77413478D01*
X140122410Y-77328803D01*
X141730430Y-77328803D01*
X141791289Y-77410827D01*
X141886872Y-77426062D01*
X141977668Y-77382209D01*
X142001400Y-77282800D01*
X141973479Y-77178151D01*
X141886872Y-77139537D01*
X141779715Y-77157988D01*
X141741737Y-77203037D01*
X141730430Y-77328803D01*
X140122410Y-77328803D01*
X140127879Y-77283132D01*
X140140037Y-77241849D01*
X140183620Y-77214079D01*
X140281172Y-77196407D01*
X140445919Y-77187923D01*
X140691091Y-77187713D01*
X140876561Y-77191049D01*
X141158800Y-77195954D01*
X141355369Y-77194909D01*
X141482096Y-77186474D01*
X141554810Y-77169204D01*
X141589342Y-77141658D01*
X141596678Y-77125409D01*
X141676334Y-77017871D01*
X141807761Y-76967275D01*
X141958752Y-76973374D01*
X142097104Y-77035919D01*
X142178925Y-77129887D01*
X142216568Y-77283143D01*
X142175076Y-77417609D01*
X142076774Y-77519847D01*
X141943985Y-77576420D01*
X141799033Y-77573893D01*
X141664243Y-77498826D01*
X141629475Y-77460599D01*
X141582862Y-77407135D01*
X141529657Y-77371262D01*
X141450133Y-77349478D01*
X141324566Y-77338277D01*
X141133227Y-77334155D01*
X140914588Y-77333600D01*
X140299600Y-77333600D01*
X140299600Y-77841600D01*
X140302011Y-78077711D01*
X140310979Y-78229268D01*
X140329100Y-78313236D01*
X140358974Y-78346585D01*
X140377394Y-78349600D01*
X140462436Y-78385903D01*
X140481371Y-78480836D01*
X140431234Y-78613427D01*
X140417760Y-78634982D01*
X140351032Y-78801458D01*
X140308166Y-79056913D01*
X140299600Y-79159786D01*
X140274200Y-79543400D01*
X140048428Y-79568800D01*
X139954547Y-79581627D01*
X139881175Y-79605244D01*
X139813961Y-79654115D01*
X139738550Y-79742702D01*
X139640591Y-79885471D01*
X139505729Y-80096883D01*
X139473199Y-80148464D01*
X139123740Y-80702729D01*
X139698141Y-81278764D01*
X140272542Y-81854800D01*
X140672460Y-81854800D01*
X140877229Y-81851982D01*
X141007193Y-81838999D01*
X141089093Y-81809056D01*
X141149669Y-81755359D01*
X141172275Y-81727800D01*
X141305083Y-81626711D01*
X141460819Y-81604073D01*
X141604548Y-81662443D01*
X141637926Y-81693700D01*
X141710666Y-81835658D01*
X141715987Y-81997157D01*
X141656312Y-82137181D01*
X141609096Y-82182119D01*
X141452098Y-82253433D01*
X141307576Y-82228950D01*
X141183981Y-82134200D01*
X141113033Y-82072169D01*
X141034816Y-82034376D01*
X140922929Y-82014919D01*
X140750968Y-82007899D01*
X140615699Y-82007200D01*
X140174417Y-82007200D01*
X140105033Y-81938076D01*
X141267015Y-81938076D01*
X141325760Y-82047840D01*
X141382169Y-82099228D01*
X141431656Y-82099489D01*
X141489245Y-82077964D01*
X141552653Y-82008905D01*
X141566088Y-81902921D01*
X141528834Y-81810310D01*
X141493400Y-81785629D01*
X141369716Y-81777102D01*
X141287917Y-81837831D01*
X141267015Y-81938076D01*
X140105033Y-81938076D01*
X139678208Y-81512853D01*
X139182000Y-81018506D01*
X139182000Y-83582000D01*
X140084180Y-83582000D01*
X140408354Y-83581339D01*
X140645835Y-83578312D01*
X140811527Y-83571350D01*
X140920331Y-83558885D01*
X140987153Y-83539349D01*
X141026896Y-83511175D01*
X141049810Y-83480400D01*
X141151588Y-83402247D01*
X141297754Y-83378325D01*
X141446312Y-83409383D01*
X141536326Y-83471700D01*
X141609348Y-83616306D01*
X141605251Y-83775165D01*
X141527499Y-83904326D01*
X141394296Y-83973607D01*
X141239802Y-83985441D01*
X141105148Y-83941338D01*
X141049810Y-83886800D01*
X141012013Y-83841447D01*
X140953245Y-83811932D01*
X140853559Y-83794935D01*
X140693010Y-83787132D01*
X140451650Y-83785202D01*
X140439780Y-83785200D01*
X139893200Y-83785200D01*
X139893200Y-84995936D01*
X140352501Y-85424521D01*
X140554917Y-85609532D01*
X140701186Y-85732005D01*
X140806104Y-85802132D01*
X140884466Y-85830105D01*
X140939295Y-85828735D01*
X141077136Y-85848031D01*
X141207254Y-85936289D01*
X141296013Y-86064232D01*
X141315600Y-86156255D01*
X141270566Y-86300529D01*
X141158123Y-86418159D01*
X141012257Y-86476070D01*
X140985400Y-86477600D01*
X140829581Y-86433546D01*
X140713532Y-86321327D01*
X140669082Y-86186560D01*
X140824737Y-86186560D01*
X140858936Y-86249646D01*
X140961514Y-86319540D01*
X141060045Y-86290242D01*
X141115571Y-86217673D01*
X141145674Y-86116356D01*
X141095980Y-86033008D01*
X141095898Y-86032926D01*
X140994420Y-85983530D01*
X140897620Y-86008932D01*
X140832169Y-86084740D01*
X140824737Y-86186560D01*
X140669082Y-86186560D01*
X140663902Y-86170855D01*
X140666398Y-86119532D01*
X140667033Y-86051389D01*
X140640947Y-85978448D01*
X140577272Y-85885896D01*
X140465139Y-85758922D01*
X140293681Y-85582714D01*
X140214225Y-85503264D01*
X139740800Y-85031806D01*
X139740800Y-83789842D01*
X139055000Y-83759800D01*
X139053264Y-83662559D01*
X141139074Y-83662559D01*
X141142358Y-83753361D01*
X141211310Y-83814831D01*
X141321287Y-83835221D01*
X141419260Y-83808993D01*
X141442880Y-83784745D01*
X141457060Y-83685237D01*
X141412067Y-83585202D01*
X141331236Y-83532168D01*
X141318396Y-83531200D01*
X141204149Y-83570021D01*
X141139074Y-83662559D01*
X139053264Y-83662559D01*
X139004200Y-80915000D01*
X138872420Y-81118200D01*
X138805490Y-81222643D01*
X138694901Y-81396629D01*
X138551078Y-81623694D01*
X138384447Y-81887372D01*
X138205433Y-82171199D01*
X138164737Y-82235800D01*
X137973743Y-82540001D01*
X137830101Y-82773335D01*
X137726715Y-82950709D01*
X137656486Y-83087032D01*
X137612315Y-83197211D01*
X137587103Y-83296156D01*
X137573753Y-83398774D01*
X137566992Y-83491195D01*
X137545149Y-83832191D01*
X138220523Y-84519895D01*
X138471997Y-84772899D01*
X138665054Y-84959172D01*
X138809637Y-85087150D01*
X138915686Y-85165266D01*
X138993143Y-85201957D01*
X139031075Y-85207600D01*
X139180872Y-85249019D01*
X139282892Y-85354090D01*
X139330498Y-85494033D01*
X139317053Y-85640068D01*
X139235917Y-85763414D01*
X139169300Y-85806918D01*
X139044182Y-85847527D01*
X138928324Y-85823539D01*
X138889900Y-85806063D01*
X138803288Y-85751324D01*
X138762108Y-85674246D01*
X138751846Y-85558403D01*
X138885630Y-85558403D01*
X138946489Y-85640427D01*
X139042072Y-85655662D01*
X139132868Y-85611809D01*
X139156600Y-85512400D01*
X139128679Y-85407751D01*
X139042072Y-85369137D01*
X138934915Y-85387588D01*
X138896937Y-85432637D01*
X138885630Y-85558403D01*
X138751846Y-85558403D01*
X138750152Y-85539281D01*
X138749835Y-85498833D01*
X138748098Y-85413532D01*
X138736796Y-85340778D01*
X138706351Y-85267572D01*
X138647189Y-85180911D01*
X138549733Y-85067795D01*
X138404408Y-84915222D01*
X138201637Y-84710191D01*
X138076735Y-84584961D01*
X137841566Y-84348552D01*
X137668773Y-84170990D01*
X137548748Y-84039422D01*
X137471882Y-83940994D01*
X137428567Y-83862855D01*
X137409194Y-83792151D01*
X137404155Y-83716030D01*
X137404000Y-83685075D01*
X137402437Y-83632730D01*
X137394582Y-83600142D01*
X137375689Y-83593974D01*
X137341007Y-83620889D01*
X137285789Y-83687551D01*
X137205286Y-83800622D01*
X137094751Y-83966766D01*
X136949435Y-84192645D01*
X136764589Y-84484924D01*
X136535466Y-84850264D01*
X136263170Y-85285956D01*
X135951681Y-85782017D01*
X135688789Y-86194531D01*
X135471615Y-86527549D01*
X135297283Y-86785118D01*
X135162913Y-86971289D01*
X135065630Y-87090110D01*
X135002555Y-87145630D01*
X134970810Y-87141900D01*
X134965600Y-87111725D01*
X134979934Y-87060367D01*
X135021090Y-86920960D01*
X135086298Y-86702650D01*
X135172788Y-86414584D01*
X135277788Y-86065908D01*
X135398529Y-85665768D01*
X135532240Y-85223310D01*
X135676151Y-84747680D01*
X135827491Y-84248025D01*
X135983491Y-83733491D01*
X136141379Y-83213224D01*
X136298386Y-82696370D01*
X136451741Y-82192075D01*
X136598674Y-81709486D01*
X136736415Y-81257748D01*
X136862192Y-80846009D01*
X136973236Y-80483413D01*
X136977580Y-80469254D01*
X136981523Y-80436342D01*
X136960856Y-80412983D01*
X136901911Y-80397916D01*
X136791020Y-80389883D01*
X136614515Y-80387623D01*
X136358726Y-80389879D01*
X136150518Y-80393054D01*
X135295800Y-80407000D01*
X135269054Y-83962986D01*
X134610306Y-84623393D01*
X134378064Y-84857018D01*
X134208591Y-85031401D01*
X134092625Y-85158955D01*
X134020905Y-85252092D01*
X133984170Y-85323225D01*
X133973158Y-85384766D01*
X133978610Y-85449128D01*
X133981342Y-85466393D01*
X133989655Y-85601916D01*
X133944632Y-85693501D01*
X133871912Y-85758493D01*
X133760644Y-85832861D01*
X133675650Y-85867649D01*
X133670200Y-85868000D01*
X133556723Y-85826986D01*
X133440877Y-85728138D01*
X133358547Y-85607741D01*
X133340000Y-85534112D01*
X133355770Y-85481657D01*
X133515306Y-85481657D01*
X133525603Y-85578274D01*
X133569859Y-85633402D01*
X133662007Y-85687254D01*
X133749927Y-85662911D01*
X133828907Y-85592756D01*
X133848000Y-85542232D01*
X133807940Y-85441435D01*
X133715840Y-85381057D01*
X133613819Y-85387190D01*
X133605465Y-85391975D01*
X133515306Y-85481657D01*
X133355770Y-85481657D01*
X133383413Y-85389716D01*
X133491095Y-85269881D01*
X133629212Y-85209480D01*
X133656818Y-85207600D01*
X133736336Y-85174683D01*
X133871102Y-85074105D01*
X134064331Y-84903117D01*
X134319239Y-84658974D01*
X134444218Y-84535205D01*
X135118000Y-83862811D01*
X135118000Y-80381600D01*
X134123153Y-80381600D01*
X133910175Y-80598609D01*
X133697196Y-80815619D01*
X133683698Y-82287709D01*
X133670200Y-83759800D01*
X132984400Y-83789842D01*
X132984400Y-85031806D01*
X132505427Y-85508787D01*
X132302333Y-85715122D01*
X132164007Y-85867353D01*
X132079783Y-85979438D01*
X132038996Y-86065336D01*
X132030562Y-86130237D01*
X131992581Y-86297323D01*
X131885067Y-86422035D01*
X131732945Y-86476989D01*
X131714400Y-86477600D01*
X131563602Y-86435367D01*
X131458761Y-86328187D01*
X131408712Y-86185337D01*
X131415493Y-86110796D01*
X131574388Y-86110796D01*
X131586199Y-86211951D01*
X131622959Y-86264240D01*
X131679369Y-86315628D01*
X131728856Y-86315889D01*
X131786445Y-86294364D01*
X131855087Y-86223831D01*
X131856067Y-86118242D01*
X131790600Y-86020400D01*
X131696043Y-85986721D01*
X131617488Y-86026286D01*
X131574388Y-86110796D01*
X131415493Y-86110796D01*
X131422289Y-86036092D01*
X131508327Y-85909730D01*
X131536689Y-85888669D01*
X131678416Y-85833668D01*
X131777989Y-85835432D01*
X131838350Y-85836095D01*
X131914728Y-85801534D01*
X132020481Y-85721743D01*
X132168966Y-85586716D01*
X132362100Y-85397837D01*
X132832000Y-84930206D01*
X132832000Y-83785200D01*
X132284489Y-83785200D01*
X132037028Y-83787193D01*
X131870328Y-83795394D01*
X131763591Y-83813132D01*
X131696020Y-83843739D01*
X131649987Y-83886800D01*
X131522855Y-83967178D01*
X131363274Y-83984279D01*
X131218101Y-83935911D01*
X131184628Y-83908571D01*
X131118639Y-83780180D01*
X131113551Y-83654178D01*
X131262321Y-83654178D01*
X131276937Y-83763362D01*
X131348145Y-83822950D01*
X131422072Y-83826862D01*
X131512868Y-83783009D01*
X131536600Y-83683600D01*
X131508679Y-83578951D01*
X131422072Y-83540337D01*
X131313556Y-83563950D01*
X131262321Y-83654178D01*
X131113551Y-83654178D01*
X131112197Y-83620656D01*
X131165301Y-83481189D01*
X131184628Y-83458628D01*
X131316475Y-83390366D01*
X131476667Y-83388225D01*
X131618345Y-83450013D01*
X131649987Y-83480400D01*
X131687719Y-83516918D01*
X131739156Y-83543486D01*
X131819585Y-83561673D01*
X131944292Y-83573046D01*
X132128567Y-83579175D01*
X132387695Y-83581628D01*
X132640089Y-83582000D01*
X133543200Y-83582000D01*
X133540764Y-82273900D01*
X133538329Y-80965800D01*
X133045464Y-81486969D01*
X132552600Y-82008139D01*
X132101225Y-82007669D01*
X131881429Y-82009724D01*
X131737791Y-82020210D01*
X131644904Y-82044775D01*
X131577363Y-82089068D01*
X131532150Y-82134200D01*
X131381869Y-82240141D01*
X131228023Y-82248664D01*
X131085936Y-82159992D01*
X131057687Y-82127349D01*
X130972520Y-81995140D01*
X130970457Y-81963681D01*
X131143084Y-81963681D01*
X131189054Y-82033397D01*
X131290832Y-82093399D01*
X131382970Y-82053926D01*
X131430509Y-81992429D01*
X131444206Y-81894875D01*
X131388860Y-81809959D01*
X131294664Y-81772099D01*
X131244746Y-81780661D01*
X131149832Y-81857751D01*
X131143084Y-81963681D01*
X130970457Y-81963681D01*
X130965433Y-81887075D01*
X131036425Y-81762286D01*
X131057687Y-81734650D01*
X131195115Y-81624555D01*
X131347683Y-81611607D01*
X131500069Y-81696027D01*
X131532150Y-81727800D01*
X131601105Y-81791877D01*
X131679304Y-81829929D01*
X131794241Y-81848594D01*
X131973410Y-81854511D01*
X132058079Y-81854800D01*
X132466307Y-81854800D01*
X133163837Y-81130900D01*
X133861366Y-80407000D01*
X133016483Y-80393071D01*
X132736350Y-80386130D01*
X132495472Y-80375727D01*
X132310523Y-80362945D01*
X132198182Y-80348864D01*
X132171600Y-80338267D01*
X132200896Y-80282508D01*
X132267534Y-80184868D01*
X132484866Y-80184868D01*
X132530455Y-80194132D01*
X132668284Y-80202688D01*
X132888995Y-80210358D01*
X133183230Y-80216964D01*
X133541631Y-80222325D01*
X133954839Y-80226264D01*
X134413496Y-80228602D01*
X134805968Y-80229200D01*
X135295855Y-80230153D01*
X135749510Y-80232892D01*
X136157294Y-80237232D01*
X136509568Y-80242989D01*
X136796694Y-80249978D01*
X137009033Y-80258017D01*
X137136944Y-80266921D01*
X137171916Y-80274363D01*
X137162468Y-80329766D01*
X137125541Y-80473686D01*
X137063629Y-80697561D01*
X136979229Y-80992829D01*
X136874835Y-81350930D01*
X136752943Y-81763302D01*
X136616048Y-82221383D01*
X136466647Y-82716614D01*
X136309364Y-83233463D01*
X136148595Y-83760082D01*
X135996196Y-84260288D01*
X135854857Y-84725190D01*
X135727266Y-85145896D01*
X135616111Y-85513518D01*
X135524081Y-85819163D01*
X135453863Y-86053943D01*
X135408147Y-86208965D01*
X135389828Y-86274400D01*
X135411755Y-86251139D01*
X135483707Y-86147459D01*
X135601973Y-85969164D01*
X135762839Y-85722059D01*
X135962595Y-85411950D01*
X136197527Y-85044643D01*
X136463925Y-84625942D01*
X136758075Y-84161653D01*
X137076266Y-83657582D01*
X137414785Y-83119534D01*
X137769921Y-82553313D01*
X137804778Y-82497645D01*
X138162992Y-81924986D01*
X138505402Y-81376626D01*
X138828207Y-80858708D01*
X139127605Y-80377376D01*
X139399795Y-79938772D01*
X139640978Y-79549039D01*
X139737229Y-79392927D01*
X139966467Y-79392927D01*
X140007081Y-79416133D01*
X140018412Y-79416400D01*
X140082444Y-79373949D01*
X140096400Y-79314800D01*
X140086468Y-79232118D01*
X140072787Y-79213200D01*
X140033431Y-79252087D01*
X139994800Y-79314800D01*
X139966467Y-79392927D01*
X139737229Y-79392927D01*
X139847350Y-79214319D01*
X140015112Y-78940756D01*
X140140462Y-78734491D01*
X140219600Y-78601667D01*
X140248724Y-78548428D01*
X140248800Y-78547945D01*
X140199712Y-78536081D01*
X140059291Y-78525527D01*
X139837796Y-78516573D01*
X139545489Y-78509508D01*
X139192631Y-78504624D01*
X138789482Y-78502209D01*
X138623200Y-78502000D01*
X138160582Y-78501293D01*
X137790413Y-78498922D01*
X137503548Y-78494505D01*
X137290844Y-78487664D01*
X137143157Y-78478019D01*
X137051343Y-78465190D01*
X137006259Y-78448799D01*
X136997600Y-78434525D01*
X137011282Y-78375219D01*
X137044068Y-78251832D01*
X137209349Y-78251832D01*
X137216977Y-78320161D01*
X137259609Y-78346510D01*
X137302400Y-78349600D01*
X137354901Y-78340629D01*
X137384901Y-78299442D01*
X137398036Y-78204630D01*
X137399942Y-78034782D01*
X137399366Y-77981300D01*
X137394732Y-77613000D01*
X137298456Y-77917800D01*
X137236563Y-78123665D01*
X137209349Y-78251832D01*
X137044068Y-78251832D01*
X137050773Y-78226601D01*
X137113736Y-77996983D01*
X137197836Y-77694676D01*
X137300738Y-77327993D01*
X137420105Y-76905245D01*
X137553603Y-76434745D01*
X137698896Y-75924804D01*
X137853647Y-75383735D01*
X137913196Y-75176055D01*
X138070369Y-74627390D01*
X138218599Y-74108205D01*
X138355600Y-73626622D01*
X138479085Y-73190764D01*
X138586767Y-72808751D01*
X138676359Y-72488708D01*
X138745575Y-72238755D01*
X138792127Y-72067016D01*
X138813729Y-71981612D01*
X138814896Y-71973459D01*
X138782858Y-72011052D01*
X138693966Y-72122733D01*
X138553231Y-72302000D01*
X138365668Y-72542349D01*
X138136289Y-72837277D01*
X137870106Y-73180282D01*
X137572134Y-73564861D01*
X137247385Y-73984511D01*
X136900872Y-74432728D01*
X136537607Y-74903011D01*
X136162605Y-75388855D01*
X135780877Y-75883759D01*
X135397437Y-76381219D01*
X135017299Y-76874733D01*
X134645473Y-77357796D01*
X134286975Y-77823908D01*
X133946817Y-78266564D01*
X133630011Y-78679262D01*
X133341571Y-79055499D01*
X133086509Y-79388771D01*
X132869839Y-79672577D01*
X132696574Y-79900413D01*
X132571727Y-80065776D01*
X132500310Y-80162164D01*
X132484866Y-80184868D01*
X132267534Y-80184868D01*
X132279334Y-80167580D01*
X132392741Y-80013776D01*
X132454658Y-79933096D01*
X132737717Y-79568800D01*
X132427581Y-79568800D01*
X132413890Y-78463900D01*
X132400200Y-77359000D01*
X131797962Y-77344641D01*
X131541576Y-77339434D01*
X131366215Y-77340465D01*
X131251348Y-77350985D01*
X131176444Y-77374249D01*
X131120971Y-77413508D01*
X131076487Y-77458941D01*
X130928737Y-77561309D01*
X130771393Y-77583672D01*
X130629828Y-77534287D01*
X130529418Y-77421410D01*
X130495942Y-77273074D01*
X130651899Y-77273074D01*
X130665970Y-77359000D01*
X130734809Y-77423938D01*
X130837410Y-77426253D01*
X130929758Y-77368691D01*
X130948235Y-77341382D01*
X130963351Y-77231946D01*
X130895214Y-77154049D01*
X130788245Y-77130400D01*
X130692427Y-77171945D01*
X130651899Y-77273074D01*
X130495942Y-77273074D01*
X130495200Y-77269787D01*
X130536756Y-77137084D01*
X130639326Y-77023656D01*
X130769767Y-76957131D01*
X130871482Y-76956124D01*
X130987876Y-77018521D01*
X131065437Y-77088083D01*
X131109889Y-77129035D01*
X131172157Y-77157698D01*
X131270056Y-77176556D01*
X131421399Y-77188096D01*
X131643999Y-77194804D01*
X131852837Y-77197969D01*
X132552600Y-77206600D01*
X132566290Y-78311500D01*
X132579981Y-79416400D01*
X132718690Y-79416358D01*
X132770987Y-79407178D01*
X132831413Y-79373375D01*
X132908654Y-79305510D01*
X133011397Y-79194145D01*
X133148329Y-79029841D01*
X133328136Y-78803158D01*
X133559505Y-78504658D01*
X133568600Y-78492852D01*
X133774552Y-78224755D01*
X133960976Y-77980795D01*
X134118445Y-77773414D01*
X134237529Y-77615055D01*
X134308802Y-77518157D01*
X134323843Y-77496183D01*
X134319787Y-77449414D01*
X134267296Y-77364826D01*
X134160392Y-77235402D01*
X133993099Y-77054124D01*
X133759439Y-76813973D01*
X133643165Y-76696962D01*
X132918442Y-75970944D01*
X131677442Y-75964680D01*
X130436441Y-75958415D01*
X130335133Y-76087207D01*
X130202194Y-76190015D01*
X130046794Y-76217806D01*
X129900436Y-76173764D01*
X129794625Y-76061070D01*
X129781365Y-76031271D01*
X129765844Y-75864701D01*
X129918361Y-75864701D01*
X129943381Y-75975045D01*
X130026310Y-76051333D01*
X130124172Y-76052215D01*
X130198432Y-75986721D01*
X130215800Y-75911200D01*
X130188714Y-75807602D01*
X130094544Y-75767055D01*
X129972169Y-75784474D01*
X129918361Y-75864701D01*
X129765844Y-75864701D01*
X129765601Y-75862100D01*
X129829965Y-75702911D01*
X129938577Y-75605234D01*
X130070377Y-75580448D01*
X130215554Y-75614403D01*
X130330351Y-75692117D01*
X130365845Y-75751563D01*
X130384023Y-75779904D01*
X130426741Y-75800610D01*
X130507095Y-75814535D01*
X130638184Y-75822531D01*
X130833108Y-75825454D01*
X131104963Y-75824157D01*
X131418540Y-75820200D01*
X132444811Y-75805400D01*
X131491025Y-74847632D01*
X130955012Y-74833316D01*
X130714475Y-74828266D01*
X130554000Y-74830816D01*
X130452130Y-74844458D01*
X130387411Y-74872686D01*
X130338387Y-74918994D01*
X130324273Y-74936019D01*
X130194244Y-75027608D01*
X130038017Y-75045488D01*
X129891522Y-74993287D01*
X129794288Y-74882499D01*
X129755945Y-74764083D01*
X129902941Y-74764083D01*
X129945094Y-74850386D01*
X130052086Y-74886869D01*
X130082589Y-74885248D01*
X130184149Y-74850774D01*
X130215425Y-74761145D01*
X130215800Y-74742800D01*
X130177292Y-74638945D01*
X130086965Y-74594789D01*
X129982610Y-74622153D01*
X129943778Y-74657709D01*
X129902941Y-74764083D01*
X129755945Y-74764083D01*
X129753587Y-74756802D01*
X129777687Y-74639990D01*
X129794288Y-74603099D01*
X129898429Y-74487863D01*
X130046337Y-74439271D01*
X130202079Y-74460951D01*
X130324273Y-74549580D01*
X130371715Y-74600795D01*
X130428430Y-74633686D01*
X130515283Y-74651544D01*
X130653142Y-74657658D01*
X130862872Y-74655316D01*
X130977800Y-74652592D01*
X131536600Y-74638585D01*
X132119971Y-75224092D01*
X132347403Y-75449474D01*
X132518096Y-75610409D01*
X132644528Y-75716826D01*
X132739177Y-75778651D01*
X132814523Y-75805812D01*
X132855956Y-75809600D01*
X132918497Y-75819449D01*
X132993309Y-75854868D01*
X133091031Y-75924666D01*
X133222302Y-76037650D01*
X133397762Y-76202629D01*
X133628051Y-76428409D01*
X133749637Y-76549431D01*
X134490704Y-77289263D01*
X134804352Y-76883820D01*
X134936364Y-76709168D01*
X135040963Y-76563162D01*
X135104755Y-76464946D01*
X135118000Y-76435528D01*
X135083506Y-76389111D01*
X134986626Y-76281677D01*
X134837258Y-76123603D01*
X134645302Y-75925265D01*
X134420656Y-75697043D01*
X134254400Y-75530200D01*
X133390799Y-74667720D01*
X133390799Y-73495816D01*
X132988807Y-73096181D01*
X132781147Y-72898405D01*
X132631624Y-72776515D01*
X132535301Y-72726748D01*
X132505766Y-72727648D01*
X132360704Y-72736853D01*
X132230114Y-72669966D01*
X132135689Y-72552242D01*
X132099123Y-72408930D01*
X132102425Y-72395328D01*
X132278508Y-72395328D01*
X132291570Y-72482200D01*
X132360251Y-72544944D01*
X132462448Y-72552715D01*
X132546314Y-72505638D01*
X132559877Y-72481553D01*
X132553247Y-72378848D01*
X132483259Y-72288108D01*
X132392385Y-72253600D01*
X132313653Y-72295910D01*
X132278508Y-72395328D01*
X132102425Y-72395328D01*
X132128397Y-72288373D01*
X132221806Y-72160138D01*
X132345581Y-72107680D01*
X132430426Y-72101977D01*
X132584346Y-72145813D01*
X132689151Y-72267715D01*
X132730275Y-72450205D01*
X132730400Y-72461921D01*
X132739071Y-72546367D01*
X132773173Y-72630778D01*
X132844842Y-72732141D01*
X132966209Y-72867441D01*
X133149409Y-73053667D01*
X133162200Y-73066400D01*
X133594000Y-73495956D01*
X133594000Y-74617070D01*
X134356000Y-75377800D01*
X135118000Y-76138529D01*
X135118000Y-75401154D01*
X135116917Y-75110338D01*
X135112249Y-74903843D01*
X135101869Y-74764404D01*
X135083649Y-74674752D01*
X135055459Y-74617620D01*
X135016400Y-74576787D01*
X134941531Y-74459189D01*
X134928560Y-74382403D01*
X135075630Y-74382403D01*
X135136489Y-74464427D01*
X135232072Y-74479662D01*
X135322868Y-74435809D01*
X135346600Y-74336400D01*
X135318679Y-74231751D01*
X135232072Y-74193137D01*
X135124915Y-74211588D01*
X135086937Y-74256637D01*
X135075630Y-74382403D01*
X134928560Y-74382403D01*
X134915466Y-74304896D01*
X134940238Y-74158398D01*
X134993706Y-74080153D01*
X135123343Y-74023750D01*
X135278378Y-74020891D01*
X135412167Y-74068656D01*
X135455390Y-74109042D01*
X135519099Y-74274492D01*
X135495300Y-74450007D01*
X135421396Y-74566493D01*
X135381441Y-74616191D01*
X135353908Y-74677435D01*
X135336986Y-74767814D01*
X135328863Y-74904913D01*
X135327726Y-75106318D01*
X135331764Y-75389616D01*
X135332496Y-75429218D01*
X135346600Y-76182300D01*
X137171929Y-73811550D01*
X137503495Y-73382348D01*
X137817895Y-72978145D01*
X138109500Y-72605993D01*
X138372680Y-72272946D01*
X138601805Y-71986059D01*
X138791243Y-71752384D01*
X138935365Y-71578976D01*
X139028540Y-71472889D01*
X139064229Y-71440800D01*
X139125672Y-71472190D01*
G36*
X134874406Y-88913811D02*
G01*
X134914655Y-89009229D01*
X134914800Y-89016005D01*
X134877670Y-89095228D01*
X134795233Y-89120643D01*
X134710915Y-89087930D01*
X134677860Y-89039585D01*
X134679335Y-88941385D01*
X134701440Y-88905840D01*
X134790071Y-88872499D01*
X134874406Y-88913811D01*
G37*
X134874406Y-88913811D02*
X134914655Y-89009229D01*
X134914800Y-89016005D01*
X134877670Y-89095228D01*
X134795233Y-89120643D01*
X134710915Y-89087930D01*
X134677860Y-89039585D01*
X134679335Y-88941385D01*
X134701440Y-88905840D01*
X134790071Y-88872499D01*
X134874406Y-88913811D01*
G36*
X143785396Y-89379525D02*
G01*
X143943356Y-89389616D01*
X144024818Y-89411945D01*
X144054882Y-89459427D01*
X144058800Y-89520196D01*
X144058800Y-89649806D01*
X143979719Y-89536903D01*
X143880154Y-89454586D01*
X143756137Y-89426017D01*
X143635696Y-89444705D01*
X143546860Y-89504155D01*
X143517657Y-89597875D01*
X143528173Y-89641510D01*
X143593432Y-89714798D01*
X143708465Y-89781780D01*
X143708929Y-89781973D01*
X143939151Y-89907211D01*
X144073125Y-90051410D01*
X144109600Y-90187899D01*
X144078455Y-90318409D01*
X143978697Y-90398100D01*
X143800834Y-90431719D01*
X143625091Y-90430402D01*
X143347600Y-90415186D01*
X143347600Y-90241326D01*
X143356011Y-90127950D01*
X143384738Y-90109920D01*
X143439020Y-90187547D01*
X143470625Y-90248600D01*
X143554538Y-90337861D01*
X143672376Y-90376562D01*
X143796108Y-90369800D01*
X143897700Y-90322669D01*
X143949121Y-90240263D01*
X143939870Y-90163312D01*
X143880963Y-90099830D01*
X143760372Y-90016856D01*
X143661126Y-89961821D01*
X143460353Y-89832494D01*
X143357517Y-89699048D01*
X143353879Y-89564268D01*
X143429796Y-89450660D01*
X143528579Y-89396651D01*
X143693400Y-89377985D01*
X143785396Y-89379525D01*
G37*
X143785396Y-89379525D02*
X143943356Y-89389616D01*
X144024818Y-89411945D01*
X144054882Y-89459427D01*
X144058800Y-89520196D01*
X144058800Y-89649806D01*
X143979719Y-89536903D01*
X143880154Y-89454586D01*
X143756137Y-89426017D01*
X143635696Y-89444705D01*
X143546860Y-89504155D01*
X143517657Y-89597875D01*
X143528173Y-89641510D01*
X143593432Y-89714798D01*
X143708465Y-89781780D01*
X143708929Y-89781973D01*
X143939151Y-89907211D01*
X144073125Y-90051410D01*
X144109600Y-90187899D01*
X144078455Y-90318409D01*
X143978697Y-90398100D01*
X143800834Y-90431719D01*
X143625091Y-90430402D01*
X143347600Y-90415186D01*
X143347600Y-90241326D01*
X143356011Y-90127950D01*
X143384738Y-90109920D01*
X143439020Y-90187547D01*
X143470625Y-90248600D01*
X143554538Y-90337861D01*
X143672376Y-90376562D01*
X143796108Y-90369800D01*
X143897700Y-90322669D01*
X143949121Y-90240263D01*
X143939870Y-90163312D01*
X143880963Y-90099830D01*
X143760372Y-90016856D01*
X143661126Y-89961821D01*
X143460353Y-89832494D01*
X143357517Y-89699048D01*
X143353879Y-89564268D01*
X143429796Y-89450660D01*
X143528579Y-89396651D01*
X143693400Y-89377985D01*
X143785396Y-89379525D01*
G36*
X142280800Y-89576400D02*
G01*
X142382400Y-89474800D01*
X142538120Y-89390097D01*
X142683512Y-89373200D01*
X142879161Y-89413513D01*
X143012505Y-89533567D01*
X143082475Y-89732031D01*
X143093600Y-89884153D01*
X143056808Y-90128847D01*
X142951568Y-90308689D01*
X142785579Y-90414579D01*
X142623184Y-90440000D01*
X142451671Y-90417517D01*
X142326929Y-90359440D01*
X142322900Y-90355926D01*
X142253999Y-90300143D01*
X142231757Y-90315399D01*
X142230000Y-90355926D01*
X142198268Y-90417503D01*
X142090841Y-90438303D01*
X142064900Y-90438455D01*
X141962074Y-90432501D01*
X141949443Y-90412255D01*
X141988700Y-90385130D01*
X142023984Y-90353848D01*
X142048612Y-90297187D01*
X142064429Y-90198885D01*
X142073286Y-90042682D01*
X142073510Y-90028847D01*
X142281063Y-90028847D01*
X142328160Y-90203751D01*
X142423589Y-90330892D01*
X142560740Y-90388037D01*
X142585600Y-90389200D01*
X142741419Y-90344460D01*
X142811319Y-90276296D01*
X142861544Y-90147867D01*
X142886424Y-89968855D01*
X142885057Y-89780562D01*
X142856537Y-89624295D01*
X142826900Y-89564222D01*
X142702942Y-89473349D01*
X142558361Y-89465359D01*
X142425021Y-89536139D01*
X142358304Y-89624677D01*
X142288908Y-89828411D01*
X142281063Y-90028847D01*
X142073510Y-90028847D01*
X142077030Y-89812315D01*
X142077600Y-89603000D01*
X142076455Y-89314484D01*
X142071791Y-89111894D01*
X142061760Y-88979572D01*
X142044513Y-88901858D01*
X142018205Y-88863093D01*
X141988700Y-88849417D01*
X141974752Y-88833796D01*
X142046250Y-88822453D01*
X142090300Y-88820292D01*
X142280800Y-88814400D01*
X142280800Y-89576400D01*
G37*
X142280800Y-89576400D02*
X142382400Y-89474800D01*
X142538120Y-89390097D01*
X142683512Y-89373200D01*
X142879161Y-89413513D01*
X143012505Y-89533567D01*
X143082475Y-89732031D01*
X143093600Y-89884153D01*
X143056808Y-90128847D01*
X142951568Y-90308689D01*
X142785579Y-90414579D01*
X142623184Y-90440000D01*
X142451671Y-90417517D01*
X142326929Y-90359440D01*
X142322900Y-90355926D01*
X142253999Y-90300143D01*
X142231757Y-90315399D01*
X142230000Y-90355926D01*
X142198268Y-90417503D01*
X142090841Y-90438303D01*
X142064900Y-90438455D01*
X141962074Y-90432501D01*
X141949443Y-90412255D01*
X141988700Y-90385130D01*
X142023984Y-90353848D01*
X142048612Y-90297187D01*
X142064429Y-90198885D01*
X142073286Y-90042682D01*
X142073510Y-90028847D01*
X142281063Y-90028847D01*
X142328160Y-90203751D01*
X142423589Y-90330892D01*
X142560740Y-90388037D01*
X142585600Y-90389200D01*
X142741419Y-90344460D01*
X142811319Y-90276296D01*
X142861544Y-90147867D01*
X142886424Y-89968855D01*
X142885057Y-89780562D01*
X142856537Y-89624295D01*
X142826900Y-89564222D01*
X142702942Y-89473349D01*
X142558361Y-89465359D01*
X142425021Y-89536139D01*
X142358304Y-89624677D01*
X142288908Y-89828411D01*
X142281063Y-90028847D01*
X142073510Y-90028847D01*
X142077030Y-89812315D01*
X142077600Y-89603000D01*
X142076455Y-89314484D01*
X142071791Y-89111894D01*
X142061760Y-88979572D01*
X142044513Y-88901858D01*
X142018205Y-88863093D01*
X141988700Y-88849417D01*
X141974752Y-88833796D01*
X142046250Y-88822453D01*
X142090300Y-88820292D01*
X142280800Y-88814400D01*
X142280800Y-89576400D01*
G36*
X141318722Y-89376577D02*
G01*
X141462252Y-89438454D01*
X141554613Y-89562031D01*
X141604431Y-89759304D01*
X141620333Y-90042270D01*
X141620400Y-90066580D01*
X141629826Y-90252672D01*
X141655092Y-90362406D01*
X141691679Y-90388128D01*
X141735070Y-90322184D01*
X141748615Y-90283771D01*
X141784354Y-90210988D01*
X141807476Y-90203743D01*
X141814361Y-90266347D01*
X141799415Y-90334571D01*
X141731710Y-90411459D01*
X141620763Y-90442139D01*
X141510656Y-90423337D01*
X141448420Y-90360649D01*
X141417000Y-90309586D01*
X141362908Y-90322274D01*
X141304682Y-90360649D01*
X141140536Y-90428346D01*
X140963672Y-90430574D01*
X140815025Y-90368922D01*
X140784052Y-90340446D01*
X140718727Y-90210391D01*
X140723052Y-90184611D01*
X140924051Y-90184611D01*
X140928981Y-90207100D01*
X140996530Y-90307924D01*
X141110411Y-90344131D01*
X141237343Y-90314224D01*
X141338119Y-90225496D01*
X141399479Y-90092874D01*
X141417200Y-89991243D01*
X141408204Y-89913918D01*
X141362029Y-89888026D01*
X141249896Y-89900483D01*
X141226700Y-89904651D01*
X141035782Y-89962818D01*
X140936867Y-90054140D01*
X140924051Y-90184611D01*
X140723052Y-90184611D01*
X140740548Y-90080328D01*
X140836076Y-89964564D01*
X140991870Y-89877407D01*
X141194490Y-89833165D01*
X141263168Y-89830400D01*
X141374917Y-89815229D01*
X141415055Y-89757425D01*
X141417200Y-89725460D01*
X141382048Y-89555067D01*
X141291869Y-89453250D01*
X141169574Y-89428254D01*
X141038074Y-89488330D01*
X140967856Y-89563700D01*
X140896932Y-89651706D01*
X140857796Y-89662370D01*
X140829672Y-89610560D01*
X140830714Y-89498595D01*
X140916386Y-89412989D01*
X141070480Y-89367706D01*
X141115396Y-89364406D01*
X141318722Y-89376577D01*
G37*
X141318722Y-89376577D02*
X141462252Y-89438454D01*
X141554613Y-89562031D01*
X141604431Y-89759304D01*
X141620333Y-90042270D01*
X141620400Y-90066580D01*
X141629826Y-90252672D01*
X141655092Y-90362406D01*
X141691679Y-90388128D01*
X141735070Y-90322184D01*
X141748615Y-90283771D01*
X141784354Y-90210988D01*
X141807476Y-90203743D01*
X141814361Y-90266347D01*
X141799415Y-90334571D01*
X141731710Y-90411459D01*
X141620763Y-90442139D01*
X141510656Y-90423337D01*
X141448420Y-90360649D01*
X141417000Y-90309586D01*
X141362908Y-90322274D01*
X141304682Y-90360649D01*
X141140536Y-90428346D01*
X140963672Y-90430574D01*
X140815025Y-90368922D01*
X140784052Y-90340446D01*
X140718727Y-90210391D01*
X140723052Y-90184611D01*
X140924051Y-90184611D01*
X140928981Y-90207100D01*
X140996530Y-90307924D01*
X141110411Y-90344131D01*
X141237343Y-90314224D01*
X141338119Y-90225496D01*
X141399479Y-90092874D01*
X141417200Y-89991243D01*
X141408204Y-89913918D01*
X141362029Y-89888026D01*
X141249896Y-89900483D01*
X141226700Y-89904651D01*
X141035782Y-89962818D01*
X140936867Y-90054140D01*
X140924051Y-90184611D01*
X140723052Y-90184611D01*
X140740548Y-90080328D01*
X140836076Y-89964564D01*
X140991870Y-89877407D01*
X141194490Y-89833165D01*
X141263168Y-89830400D01*
X141374917Y-89815229D01*
X141415055Y-89757425D01*
X141417200Y-89725460D01*
X141382048Y-89555067D01*
X141291869Y-89453250D01*
X141169574Y-89428254D01*
X141038074Y-89488330D01*
X140967856Y-89563700D01*
X140896932Y-89651706D01*
X140857796Y-89662370D01*
X140829672Y-89610560D01*
X140830714Y-89498595D01*
X140916386Y-89412989D01*
X141070480Y-89367706D01*
X141115396Y-89364406D01*
X141318722Y-89376577D01*
G36*
X139952177Y-88923644D02*
G01*
X140063208Y-88943651D01*
X140096400Y-88966800D01*
X140053788Y-89007876D01*
X139993325Y-89017600D01*
X139951716Y-89022403D01*
X139923627Y-89047522D01*
X139906937Y-89109021D01*
X139899524Y-89222966D01*
X139899266Y-89405420D01*
X139904042Y-89672448D01*
X139904425Y-89690700D01*
X139918600Y-90363800D01*
X140124428Y-90378928D01*
X140298948Y-90366448D01*
X140422836Y-90288316D01*
X140516347Y-90129050D01*
X140542960Y-90059000D01*
X140573784Y-89978601D01*
X140590276Y-89970911D01*
X140597618Y-90046247D01*
X140600389Y-90173300D01*
X140604400Y-90440000D01*
X140032900Y-90433081D01*
X139819206Y-90428633D01*
X139661781Y-90421661D01*
X139575824Y-90413126D01*
X139575700Y-90404148D01*
X139621685Y-90391444D01*
X139653318Y-90363134D01*
X139673283Y-90302692D01*
X139684261Y-90193589D01*
X139688935Y-90019297D01*
X139689988Y-89763289D01*
X139690000Y-89699866D01*
X139688224Y-89417919D01*
X139681866Y-89223128D01*
X139669382Y-89101095D01*
X139649228Y-89037422D01*
X139619856Y-89017709D01*
X139616798Y-89017600D01*
X139530308Y-88986639D01*
X139512200Y-88966800D01*
X139539235Y-88937133D01*
X139656789Y-88919781D01*
X139788601Y-88916000D01*
X139952177Y-88923644D01*
G37*
X139952177Y-88923644D02*
X140063208Y-88943651D01*
X140096400Y-88966800D01*
X140053788Y-89007876D01*
X139993325Y-89017600D01*
X139951716Y-89022403D01*
X139923627Y-89047522D01*
X139906937Y-89109021D01*
X139899524Y-89222966D01*
X139899266Y-89405420D01*
X139904042Y-89672448D01*
X139904425Y-89690700D01*
X139918600Y-90363800D01*
X140124428Y-90378928D01*
X140298948Y-90366448D01*
X140422836Y-90288316D01*
X140516347Y-90129050D01*
X140542960Y-90059000D01*
X140573784Y-89978601D01*
X140590276Y-89970911D01*
X140597618Y-90046247D01*
X140600389Y-90173300D01*
X140604400Y-90440000D01*
X140032900Y-90433081D01*
X139819206Y-90428633D01*
X139661781Y-90421661D01*
X139575824Y-90413126D01*
X139575700Y-90404148D01*
X139621685Y-90391444D01*
X139653318Y-90363134D01*
X139673283Y-90302692D01*
X139684261Y-90193589D01*
X139688935Y-90019297D01*
X139689988Y-89763289D01*
X139690000Y-89699866D01*
X139688224Y-89417919D01*
X139681866Y-89223128D01*
X139669382Y-89101095D01*
X139649228Y-89037422D01*
X139619856Y-89017709D01*
X139616798Y-89017600D01*
X139530308Y-88986639D01*
X139512200Y-88966800D01*
X139539235Y-88937133D01*
X139656789Y-88919781D01*
X139788601Y-88916000D01*
X139952177Y-88923644D01*
G36*
X138731992Y-89365904D02*
G01*
X138768497Y-89400111D01*
X138775664Y-89469823D01*
X138775692Y-89487500D01*
X138759685Y-89588885D01*
X138724800Y-89627200D01*
X138679572Y-89586122D01*
X138674000Y-89551967D01*
X138629452Y-89485124D01*
X138520182Y-89439156D01*
X138382752Y-89426908D01*
X138335118Y-89432897D01*
X138257910Y-89493435D01*
X138242200Y-89576894D01*
X138263547Y-89665122D01*
X138340872Y-89745595D01*
X138494102Y-89839046D01*
X138494202Y-89839100D01*
X138681383Y-89960564D01*
X138778274Y-90079767D01*
X138794867Y-90210755D01*
X138786789Y-90250297D01*
X138714476Y-90359485D01*
X138563864Y-90419357D01*
X138328861Y-90432125D01*
X138291091Y-90430402D01*
X138132140Y-90419055D01*
X138049605Y-90396682D01*
X138018441Y-90346981D01*
X138013600Y-90253652D01*
X138013600Y-90249793D01*
X138027244Y-90137298D01*
X138060484Y-90084890D01*
X138064400Y-90084400D01*
X138107102Y-90126463D01*
X138115200Y-90175840D01*
X138158559Y-90304835D01*
X138278402Y-90377673D01*
X138373139Y-90389200D01*
X138507592Y-90357279D01*
X138595418Y-90278119D01*
X138610480Y-90176621D01*
X138607036Y-90166351D01*
X138549787Y-90104215D01*
X138430791Y-90018833D01*
X138320727Y-89953763D01*
X138124162Y-89816785D01*
X138026095Y-89681330D01*
X138023811Y-89557775D01*
X138114593Y-89456495D01*
X138295727Y-89387868D01*
X138474863Y-89364811D01*
X138642123Y-89357403D01*
X138731992Y-89365904D01*
G37*
X138731992Y-89365904D02*
X138768497Y-89400111D01*
X138775664Y-89469823D01*
X138775692Y-89487500D01*
X138759685Y-89588885D01*
X138724800Y-89627200D01*
X138679572Y-89586122D01*
X138674000Y-89551967D01*
X138629452Y-89485124D01*
X138520182Y-89439156D01*
X138382752Y-89426908D01*
X138335118Y-89432897D01*
X138257910Y-89493435D01*
X138242200Y-89576894D01*
X138263547Y-89665122D01*
X138340872Y-89745595D01*
X138494102Y-89839046D01*
X138494202Y-89839100D01*
X138681383Y-89960564D01*
X138778274Y-90079767D01*
X138794867Y-90210755D01*
X138786789Y-90250297D01*
X138714476Y-90359485D01*
X138563864Y-90419357D01*
X138328861Y-90432125D01*
X138291091Y-90430402D01*
X138132140Y-90419055D01*
X138049605Y-90396682D01*
X138018441Y-90346981D01*
X138013600Y-90253652D01*
X138013600Y-90249793D01*
X138027244Y-90137298D01*
X138060484Y-90084890D01*
X138064400Y-90084400D01*
X138107102Y-90126463D01*
X138115200Y-90175840D01*
X138158559Y-90304835D01*
X138278402Y-90377673D01*
X138373139Y-90389200D01*
X138507592Y-90357279D01*
X138595418Y-90278119D01*
X138610480Y-90176621D01*
X138607036Y-90166351D01*
X138549787Y-90104215D01*
X138430791Y-90018833D01*
X138320727Y-89953763D01*
X138124162Y-89816785D01*
X138026095Y-89681330D01*
X138023811Y-89557775D01*
X138114593Y-89456495D01*
X138295727Y-89387868D01*
X138474863Y-89364811D01*
X138642123Y-89357403D01*
X138731992Y-89365904D01*
G36*
X137480929Y-89410650D02*
G01*
X137655758Y-89522743D01*
X137759285Y-89702446D01*
X137788730Y-89939422D01*
X137718354Y-90162356D01*
X137616551Y-90300300D01*
X137448706Y-90412390D01*
X137245741Y-90449783D01*
X137041755Y-90412156D01*
X136878761Y-90307306D01*
X136749871Y-90119457D01*
X136704893Y-89916794D01*
X136706496Y-89906600D01*
X136932285Y-89906600D01*
X136947944Y-90118308D01*
X136998569Y-90255665D01*
X137023616Y-90288280D01*
X137157150Y-90372944D01*
X137309744Y-90381636D01*
X137443282Y-90315364D01*
X137477319Y-90276296D01*
X137528698Y-90146996D01*
X137554901Y-89962852D01*
X137556400Y-89906600D01*
X137529084Y-89664584D01*
X137448342Y-89504628D01*
X137315976Y-89429637D01*
X137256592Y-89424000D01*
X137094078Y-89463610D01*
X136988289Y-89584081D01*
X136937577Y-89787868D01*
X136932285Y-89906600D01*
X136706496Y-89906600D01*
X136735833Y-89720123D01*
X136834702Y-89550247D01*
X136993508Y-89427971D01*
X137204259Y-89374099D01*
X137237566Y-89373200D01*
X137480929Y-89410650D01*
G37*
X137480929Y-89410650D02*
X137655758Y-89522743D01*
X137759285Y-89702446D01*
X137788730Y-89939422D01*
X137718354Y-90162356D01*
X137616551Y-90300300D01*
X137448706Y-90412390D01*
X137245741Y-90449783D01*
X137041755Y-90412156D01*
X136878761Y-90307306D01*
X136749871Y-90119457D01*
X136704893Y-89916794D01*
X136706496Y-89906600D01*
X136932285Y-89906600D01*
X136947944Y-90118308D01*
X136998569Y-90255665D01*
X137023616Y-90288280D01*
X137157150Y-90372944D01*
X137309744Y-90381636D01*
X137443282Y-90315364D01*
X137477319Y-90276296D01*
X137528698Y-90146996D01*
X137554901Y-89962852D01*
X137556400Y-89906600D01*
X137529084Y-89664584D01*
X137448342Y-89504628D01*
X137315976Y-89429637D01*
X137256592Y-89424000D01*
X137094078Y-89463610D01*
X136988289Y-89584081D01*
X136937577Y-89787868D01*
X136932285Y-89906600D01*
X136706496Y-89906600D01*
X136735833Y-89720123D01*
X136834702Y-89550247D01*
X136993508Y-89427971D01*
X137204259Y-89374099D01*
X137237566Y-89373200D01*
X137480929Y-89410650D01*
G36*
X136151749Y-89393737D02*
G01*
X136251290Y-89464716D01*
X136309516Y-89600180D01*
X136334568Y-89814178D01*
X136337200Y-89950337D01*
X136339753Y-90150177D01*
X136351539Y-90272142D01*
X136378747Y-90339912D01*
X136427568Y-90377166D01*
X136451500Y-90387616D01*
X136493531Y-90413256D01*
X136455921Y-90428477D01*
X136329370Y-90435696D01*
X136262396Y-90436779D01*
X136097591Y-90436851D01*
X136019792Y-90428675D01*
X136014438Y-90406451D01*
X136066964Y-90364381D01*
X136071896Y-90360919D01*
X136136990Y-90299174D01*
X136171317Y-90210478D01*
X136183863Y-90064246D01*
X136184800Y-89976579D01*
X136176271Y-89794505D01*
X136154243Y-89642476D01*
X136132212Y-89573060D01*
X136042556Y-89499097D01*
X135909443Y-89474864D01*
X135780391Y-89504853D01*
X135737760Y-89535760D01*
X135686380Y-89572339D01*
X135676800Y-89564788D01*
X135721287Y-89483101D01*
X135830502Y-89412716D01*
X135968072Y-89375014D01*
X136002755Y-89373200D01*
X136151749Y-89393737D01*
G37*
X136151749Y-89393737D02*
X136251290Y-89464716D01*
X136309516Y-89600180D01*
X136334568Y-89814178D01*
X136337200Y-89950337D01*
X136339753Y-90150177D01*
X136351539Y-90272142D01*
X136378747Y-90339912D01*
X136427568Y-90377166D01*
X136451500Y-90387616D01*
X136493531Y-90413256D01*
X136455921Y-90428477D01*
X136329370Y-90435696D01*
X136262396Y-90436779D01*
X136097591Y-90436851D01*
X136019792Y-90428675D01*
X136014438Y-90406451D01*
X136066964Y-90364381D01*
X136071896Y-90360919D01*
X136136990Y-90299174D01*
X136171317Y-90210478D01*
X136183863Y-90064246D01*
X136184800Y-89976579D01*
X136176271Y-89794505D01*
X136154243Y-89642476D01*
X136132212Y-89573060D01*
X136042556Y-89499097D01*
X135909443Y-89474864D01*
X135780391Y-89504853D01*
X135737760Y-89535760D01*
X135686380Y-89572339D01*
X135676800Y-89564788D01*
X135721287Y-89483101D01*
X135830502Y-89412716D01*
X135968072Y-89375014D01*
X136002755Y-89373200D01*
X136151749Y-89393737D01*
G36*
X135582967Y-89390842D02*
G01*
X135617865Y-89435319D01*
X135633838Y-89527687D01*
X135636111Y-89684564D01*
X135629908Y-89922565D01*
X135627823Y-89990815D01*
X135624620Y-90190634D01*
X135632889Y-90311064D01*
X135656992Y-90374066D01*
X135701293Y-90401602D01*
X135709914Y-90404022D01*
X135716835Y-90417535D01*
X135639439Y-90428043D01*
X135524400Y-90432562D01*
X135370605Y-90430851D01*
X135307643Y-90417689D01*
X135325134Y-90390490D01*
X135333900Y-90385130D01*
X135377704Y-90343440D01*
X135404632Y-90266650D01*
X135418403Y-90133737D01*
X135422734Y-89923673D01*
X135422800Y-89882400D01*
X135420166Y-89662736D01*
X135409780Y-89524703D01*
X135387913Y-89448413D01*
X135350835Y-89413978D01*
X135333900Y-89408217D01*
X135319952Y-89392596D01*
X135391450Y-89381253D01*
X135435500Y-89379092D01*
X135523920Y-89377639D01*
X135582967Y-89390842D01*
G37*
X135582967Y-89390842D02*
X135617865Y-89435319D01*
X135633838Y-89527687D01*
X135636111Y-89684564D01*
X135629908Y-89922565D01*
X135627823Y-89990815D01*
X135624620Y-90190634D01*
X135632889Y-90311064D01*
X135656992Y-90374066D01*
X135701293Y-90401602D01*
X135709914Y-90404022D01*
X135716835Y-90417535D01*
X135639439Y-90428043D01*
X135524400Y-90432562D01*
X135370605Y-90430851D01*
X135307643Y-90417689D01*
X135325134Y-90390490D01*
X135333900Y-90385130D01*
X135377704Y-90343440D01*
X135404632Y-90266650D01*
X135418403Y-90133737D01*
X135422734Y-89923673D01*
X135422800Y-89882400D01*
X135420166Y-89662736D01*
X135409780Y-89524703D01*
X135387913Y-89448413D01*
X135350835Y-89413978D01*
X135333900Y-89408217D01*
X135319952Y-89392596D01*
X135391450Y-89381253D01*
X135435500Y-89379092D01*
X135523920Y-89377639D01*
X135582967Y-89390842D01*
G36*
X134914800Y-89877475D02*
G01*
X134916953Y-90111442D01*
X134925531Y-90262705D01*
X134943709Y-90350108D01*
X134974662Y-90392495D01*
X135003700Y-90404982D01*
X135005830Y-90417286D01*
X134924262Y-90426664D01*
X134787800Y-90430887D01*
X134627568Y-90428924D01*
X134560212Y-90418076D01*
X134577243Y-90396415D01*
X134597300Y-90387616D01*
X134651826Y-90358447D01*
X134685584Y-90310022D01*
X134703505Y-90220709D01*
X134710522Y-90068876D01*
X134711600Y-89886370D01*
X134710043Y-89669581D01*
X134702099Y-89533856D01*
X134682850Y-89458671D01*
X134647383Y-89423500D01*
X134597300Y-89409051D01*
X134571433Y-89394903D01*
X134634025Y-89383645D01*
X134698900Y-89380118D01*
X134914800Y-89373200D01*
X134914800Y-89877475D01*
G37*
X134914800Y-89877475D02*
X134916953Y-90111442D01*
X134925531Y-90262705D01*
X134943709Y-90350108D01*
X134974662Y-90392495D01*
X135003700Y-90404982D01*
X135005830Y-90417286D01*
X134924262Y-90426664D01*
X134787800Y-90430887D01*
X134627568Y-90428924D01*
X134560212Y-90418076D01*
X134577243Y-90396415D01*
X134597300Y-90387616D01*
X134651826Y-90358447D01*
X134685584Y-90310022D01*
X134703505Y-90220709D01*
X134710522Y-90068876D01*
X134711600Y-89886370D01*
X134710043Y-89669581D01*
X134702099Y-89533856D01*
X134682850Y-89458671D01*
X134647383Y-89423500D01*
X134597300Y-89409051D01*
X134571433Y-89394903D01*
X134634025Y-89383645D01*
X134698900Y-89380118D01*
X134914800Y-89373200D01*
X134914800Y-89877475D01*
G36*
X134302940Y-89652600D02*
G01*
X134211988Y-89534371D01*
X134114750Y-89449284D01*
X133982639Y-89430126D01*
X133946418Y-89432771D01*
X133826518Y-89455871D01*
X133778482Y-89509809D01*
X133771800Y-89576400D01*
X133791593Y-89663908D01*
X133865370Y-89737723D01*
X134014730Y-89819436D01*
X134015049Y-89819589D01*
X134219590Y-89945759D01*
X134323311Y-90081105D01*
X134326648Y-90226421D01*
X134284750Y-90312573D01*
X134228946Y-90383700D01*
X134160348Y-90421832D01*
X134049199Y-90435725D01*
X133871144Y-90434286D01*
X133543200Y-90425264D01*
X133543200Y-90254832D01*
X133559067Y-90128027D01*
X133597036Y-90088480D01*
X133642655Y-90141416D01*
X133665466Y-90210626D01*
X133731330Y-90316164D01*
X133843354Y-90373926D01*
X133970584Y-90383714D01*
X134082070Y-90345326D01*
X134146860Y-90258565D01*
X134152800Y-90213764D01*
X134121062Y-90115647D01*
X134013177Y-90032827D01*
X133962300Y-90007506D01*
X133759488Y-89896954D01*
X133642313Y-89787872D01*
X133596176Y-89665120D01*
X133594000Y-89625546D01*
X133612378Y-89505976D01*
X133679411Y-89429990D01*
X133812943Y-89386518D01*
X134013169Y-89365521D01*
X134305338Y-89347800D01*
X134302940Y-89652600D01*
G37*
X134302940Y-89652600D02*
X134211988Y-89534371D01*
X134114750Y-89449284D01*
X133982639Y-89430126D01*
X133946418Y-89432771D01*
X133826518Y-89455871D01*
X133778482Y-89509809D01*
X133771800Y-89576400D01*
X133791593Y-89663908D01*
X133865370Y-89737723D01*
X134014730Y-89819436D01*
X134015049Y-89819589D01*
X134219590Y-89945759D01*
X134323311Y-90081105D01*
X134326648Y-90226421D01*
X134284750Y-90312573D01*
X134228946Y-90383700D01*
X134160348Y-90421832D01*
X134049199Y-90435725D01*
X133871144Y-90434286D01*
X133543200Y-90425264D01*
X133543200Y-90254832D01*
X133559067Y-90128027D01*
X133597036Y-90088480D01*
X133642655Y-90141416D01*
X133665466Y-90210626D01*
X133731330Y-90316164D01*
X133843354Y-90373926D01*
X133970584Y-90383714D01*
X134082070Y-90345326D01*
X134146860Y-90258565D01*
X134152800Y-90213764D01*
X134121062Y-90115647D01*
X134013177Y-90032827D01*
X133962300Y-90007506D01*
X133759488Y-89896954D01*
X133642313Y-89787872D01*
X133596176Y-89665120D01*
X133594000Y-89625546D01*
X133612378Y-89505976D01*
X133679411Y-89429990D01*
X133812943Y-89386518D01*
X134013169Y-89365521D01*
X134305338Y-89347800D01*
X134302940Y-89652600D01*
G36*
X132892576Y-89370328D02*
G01*
X133041548Y-89411993D01*
X133131202Y-89507494D01*
X133175292Y-89671984D01*
X133187573Y-89920613D01*
X133187600Y-89936875D01*
X133196371Y-90176266D01*
X133222174Y-90320815D01*
X133264240Y-90368785D01*
X133321800Y-90318441D01*
X133341567Y-90284671D01*
X133394060Y-90212109D01*
X133424431Y-90202698D01*
X133423241Y-90261231D01*
X133393128Y-90334049D01*
X133309992Y-90411442D01*
X133196562Y-90439365D01*
X133094856Y-90414044D01*
X133053850Y-90364530D01*
X133021743Y-90316312D01*
X132963951Y-90333415D01*
X132917141Y-90364530D01*
X132767103Y-90425386D01*
X132595297Y-90434531D01*
X132447239Y-90392351D01*
X132403828Y-90360171D01*
X132323187Y-90227633D01*
X132325294Y-90202375D01*
X132527363Y-90202375D01*
X132556615Y-90299660D01*
X132561066Y-90304533D01*
X132650824Y-90336571D01*
X132779795Y-90331315D01*
X132895014Y-90294207D01*
X132929906Y-90266650D01*
X132978038Y-90163746D01*
X132999626Y-90050750D01*
X132996514Y-89952582D01*
X132948183Y-89915924D01*
X132843298Y-89914242D01*
X132703510Y-89937940D01*
X132601998Y-89983962D01*
X132544841Y-90078742D01*
X132527363Y-90202375D01*
X132325294Y-90202375D01*
X132334061Y-90097327D01*
X132426856Y-89981422D01*
X132591973Y-89892087D01*
X132812250Y-89842316D01*
X132953298Y-89822707D01*
X133016721Y-89792101D01*
X133025988Y-89729361D01*
X133013952Y-89660664D01*
X132973062Y-89538140D01*
X132920135Y-89465403D01*
X132791996Y-89424375D01*
X132672796Y-89447547D01*
X132603400Y-89525600D01*
X132536045Y-89608173D01*
X132472976Y-89627200D01*
X132392529Y-89603756D01*
X132383405Y-89546628D01*
X132430551Y-89475619D01*
X132518908Y-89410534D01*
X132633422Y-89371176D01*
X132670528Y-89367350D01*
X132892576Y-89370328D01*
G37*
X132892576Y-89370328D02*
X133041548Y-89411993D01*
X133131202Y-89507494D01*
X133175292Y-89671984D01*
X133187573Y-89920613D01*
X133187600Y-89936875D01*
X133196371Y-90176266D01*
X133222174Y-90320815D01*
X133264240Y-90368785D01*
X133321800Y-90318441D01*
X133341567Y-90284671D01*
X133394060Y-90212109D01*
X133424431Y-90202698D01*
X133423241Y-90261231D01*
X133393128Y-90334049D01*
X133309992Y-90411442D01*
X133196562Y-90439365D01*
X133094856Y-90414044D01*
X133053850Y-90364530D01*
X133021743Y-90316312D01*
X132963951Y-90333415D01*
X132917141Y-90364530D01*
X132767103Y-90425386D01*
X132595297Y-90434531D01*
X132447239Y-90392351D01*
X132403828Y-90360171D01*
X132323187Y-90227633D01*
X132325294Y-90202375D01*
X132527363Y-90202375D01*
X132556615Y-90299660D01*
X132561066Y-90304533D01*
X132650824Y-90336571D01*
X132779795Y-90331315D01*
X132895014Y-90294207D01*
X132929906Y-90266650D01*
X132978038Y-90163746D01*
X132999626Y-90050750D01*
X132996514Y-89952582D01*
X132948183Y-89915924D01*
X132843298Y-89914242D01*
X132703510Y-89937940D01*
X132601998Y-89983962D01*
X132544841Y-90078742D01*
X132527363Y-90202375D01*
X132325294Y-90202375D01*
X132334061Y-90097327D01*
X132426856Y-89981422D01*
X132591973Y-89892087D01*
X132812250Y-89842316D01*
X132953298Y-89822707D01*
X133016721Y-89792101D01*
X133025988Y-89729361D01*
X133013952Y-89660664D01*
X132973062Y-89538140D01*
X132920135Y-89465403D01*
X132791996Y-89424375D01*
X132672796Y-89447547D01*
X132603400Y-89525600D01*
X132536045Y-89608173D01*
X132472976Y-89627200D01*
X132392529Y-89603756D01*
X132383405Y-89546628D01*
X132430551Y-89475619D01*
X132518908Y-89410534D01*
X132633422Y-89371176D01*
X132670528Y-89367350D01*
X132892576Y-89370328D01*
G36*
X130929092Y-88926174D02*
G01*
X131256661Y-88941400D01*
X131256930Y-89128901D01*
X131244528Y-89259853D01*
X131213628Y-89341423D01*
X131206400Y-89347800D01*
X131165951Y-89332757D01*
X131155600Y-89278285D01*
X131112328Y-89169382D01*
X131005758Y-89062699D01*
X130870756Y-88986649D01*
X130773377Y-88966800D01*
X130619608Y-89004178D01*
X130505552Y-89099087D01*
X130456583Y-89225690D01*
X130461969Y-89283887D01*
X130508791Y-89372275D01*
X130614310Y-89461041D01*
X130796053Y-89564256D01*
X130836405Y-89584558D01*
X131078733Y-89722691D01*
X131227958Y-89854343D01*
X131291251Y-89989400D01*
X131275782Y-90137749D01*
X131262817Y-90172438D01*
X131178962Y-90299583D01*
X131073576Y-90382610D01*
X130934673Y-90419827D01*
X130753208Y-90436643D01*
X130570988Y-90432536D01*
X130429820Y-90406982D01*
X130394940Y-90391103D01*
X130311013Y-90376418D01*
X130281418Y-90404581D01*
X130261200Y-90393294D01*
X130248530Y-90301601D01*
X130246103Y-90186000D01*
X130249751Y-90032047D01*
X130259348Y-89967693D01*
X130280165Y-89980938D01*
X130309488Y-90041699D01*
X130435602Y-90247192D01*
X130588567Y-90363985D01*
X130709613Y-90389200D01*
X130904084Y-90359071D01*
X131019956Y-90270870D01*
X131053222Y-90146112D01*
X131044578Y-90037494D01*
X131007979Y-89955447D01*
X130925247Y-89880984D01*
X130778209Y-89795117D01*
X130658452Y-89733688D01*
X130431631Y-89598603D01*
X130297668Y-89463657D01*
X130248424Y-89317927D01*
X130260888Y-89200070D01*
X130346750Y-89057302D01*
X130517458Y-88965234D01*
X130768851Y-88925569D01*
X130929092Y-88926174D01*
G37*
X130929092Y-88926174D02*
X131256661Y-88941400D01*
X131256930Y-89128901D01*
X131244528Y-89259853D01*
X131213628Y-89341423D01*
X131206400Y-89347800D01*
X131165951Y-89332757D01*
X131155600Y-89278285D01*
X131112328Y-89169382D01*
X131005758Y-89062699D01*
X130870756Y-88986649D01*
X130773377Y-88966800D01*
X130619608Y-89004178D01*
X130505552Y-89099087D01*
X130456583Y-89225690D01*
X130461969Y-89283887D01*
X130508791Y-89372275D01*
X130614310Y-89461041D01*
X130796053Y-89564256D01*
X130836405Y-89584558D01*
X131078733Y-89722691D01*
X131227958Y-89854343D01*
X131291251Y-89989400D01*
X131275782Y-90137749D01*
X131262817Y-90172438D01*
X131178962Y-90299583D01*
X131073576Y-90382610D01*
X130934673Y-90419827D01*
X130753208Y-90436643D01*
X130570988Y-90432536D01*
X130429820Y-90406982D01*
X130394940Y-90391103D01*
X130311013Y-90376418D01*
X130281418Y-90404581D01*
X130261200Y-90393294D01*
X130248530Y-90301601D01*
X130246103Y-90186000D01*
X130249751Y-90032047D01*
X130259348Y-89967693D01*
X130280165Y-89980938D01*
X130309488Y-90041699D01*
X130435602Y-90247192D01*
X130588567Y-90363985D01*
X130709613Y-90389200D01*
X130904084Y-90359071D01*
X131019956Y-90270870D01*
X131053222Y-90146112D01*
X131044578Y-90037494D01*
X131007979Y-89955447D01*
X130925247Y-89880984D01*
X130778209Y-89795117D01*
X130658452Y-89733688D01*
X130431631Y-89598603D01*
X130297668Y-89463657D01*
X130248424Y-89317927D01*
X130260888Y-89200070D01*
X130346750Y-89057302D01*
X130517458Y-88965234D01*
X130768851Y-88925569D01*
X130929092Y-88926174D01*
G36*
X131795263Y-89105405D02*
G01*
X131815319Y-89188776D01*
X131816000Y-89222394D01*
X131823892Y-89317388D01*
X131866431Y-89362336D01*
X131971908Y-89377945D01*
X132031900Y-89380408D01*
X132247800Y-89387617D01*
X132044600Y-89418508D01*
X131841400Y-89449400D01*
X131826785Y-89830771D01*
X131825318Y-90059895D01*
X131843996Y-90211262D01*
X131885763Y-90307249D01*
X131890318Y-90313371D01*
X131948395Y-90379032D01*
X131994859Y-90375257D01*
X132067296Y-90297836D01*
X132071304Y-90293103D01*
X132159371Y-90212210D01*
X132207399Y-90209339D01*
X132199872Y-90279425D01*
X132177324Y-90327703D01*
X132070724Y-90432531D01*
X131921872Y-90455523D01*
X131807588Y-90420061D01*
X131751112Y-90384199D01*
X131714963Y-90330112D01*
X131693563Y-90235837D01*
X131681333Y-90079412D01*
X131674437Y-89895827D01*
X131665836Y-89675823D01*
X131653259Y-89537185D01*
X131631431Y-89459688D01*
X131595078Y-89423107D01*
X131547437Y-89408807D01*
X131435000Y-89387036D01*
X131549300Y-89380118D01*
X131639696Y-89346066D01*
X131663600Y-89251635D01*
X131691974Y-89146284D01*
X131739800Y-89100829D01*
X131795263Y-89105405D01*
G37*
X131795263Y-89105405D02*
X131815319Y-89188776D01*
X131816000Y-89222394D01*
X131823892Y-89317388D01*
X131866431Y-89362336D01*
X131971908Y-89377945D01*
X132031900Y-89380408D01*
X132247800Y-89387617D01*
X132044600Y-89418508D01*
X131841400Y-89449400D01*
X131826785Y-89830771D01*
X131825318Y-90059895D01*
X131843996Y-90211262D01*
X131885763Y-90307249D01*
X131890318Y-90313371D01*
X131948395Y-90379032D01*
X131994859Y-90375257D01*
X132067296Y-90297836D01*
X132071304Y-90293103D01*
X132159371Y-90212210D01*
X132207399Y-90209339D01*
X132199872Y-90279425D01*
X132177324Y-90327703D01*
X132070724Y-90432531D01*
X131921872Y-90455523D01*
X131807588Y-90420061D01*
X131751112Y-90384199D01*
X131714963Y-90330112D01*
X131693563Y-90235837D01*
X131681333Y-90079412D01*
X131674437Y-89895827D01*
X131665836Y-89675823D01*
X131653259Y-89537185D01*
X131631431Y-89459688D01*
X131595078Y-89423107D01*
X131547437Y-89408807D01*
X131435000Y-89387036D01*
X131549300Y-89380118D01*
X131639696Y-89346066D01*
X131663600Y-89251635D01*
X131691974Y-89146284D01*
X131739800Y-89100829D01*
X131795263Y-89105405D01*
D10*
%TO.C,J6*%
X112770000Y-123980000D02*
X112770000Y-121320000D01*
X112770000Y-123980000D02*
X115370000Y-123980000D01*
X115370000Y-123980000D02*
X115370000Y-121320000D01*
X112770000Y-121320000D02*
X115370000Y-121320000D01*
X110170000Y-121320000D02*
X111500000Y-121320000D01*
X110170000Y-122650000D02*
X110170000Y-121320000D01*
%TO.C,C1*%
X91510000Y-94140580D02*
X91510000Y-93859420D01*
X90490000Y-94140580D02*
X90490000Y-93859420D01*
%TO.C,C2*%
X102510000Y-111859420D02*
X102510000Y-112140580D01*
X101490000Y-111859420D02*
X101490000Y-112140580D01*
%TO.C,C3*%
X89640000Y-98107836D02*
X89640000Y-97892164D01*
X90360000Y-98107836D02*
X90360000Y-97892164D01*
%TO.C,C5*%
X107510000Y-96000580D02*
X107510000Y-95719420D01*
X106490000Y-96000580D02*
X106490000Y-95719420D01*
%TO.C,C7*%
X95107836Y-109640000D02*
X94892164Y-109640000D01*
X95107836Y-110360000D02*
X94892164Y-110360000D01*
%TO.C,C9*%
X104640000Y-96107836D02*
X104640000Y-95892164D01*
X105360000Y-96107836D02*
X105360000Y-95892164D01*
%TO.C,C10*%
X94412164Y-94360000D02*
X94627836Y-94360000D01*
X94412164Y-93640000D02*
X94627836Y-93640000D01*
%TO.C,C11*%
X103892164Y-108640000D02*
X104107836Y-108640000D01*
X103892164Y-109360000D02*
X104107836Y-109360000D01*
%TO.C,C12*%
X82892164Y-97360000D02*
X83107836Y-97360000D01*
X82892164Y-96640000D02*
X83107836Y-96640000D01*
%TO.C,C13*%
X86360000Y-105547836D02*
X86360000Y-105332164D01*
X85640000Y-105547836D02*
X85640000Y-105332164D01*
%TO.C,C14*%
X83107836Y-103360000D02*
X82892164Y-103360000D01*
X83107836Y-102640000D02*
X82892164Y-102640000D01*
%TO.C,C15*%
X87490000Y-106150580D02*
X87490000Y-105869420D01*
X88510000Y-106150580D02*
X88510000Y-105869420D01*
%TO.C,D1*%
X84265000Y-112515000D02*
X84265000Y-114800000D01*
X85735000Y-112515000D02*
X84265000Y-112515000D01*
X85735000Y-114800000D02*
X85735000Y-112515000D01*
%TO.C,J2*%
X165687500Y-93700000D02*
X166137500Y-93700000D01*
X165687500Y-93700000D02*
X165687500Y-93250000D01*
X166237500Y-88100000D02*
X166237500Y-88550000D01*
X168087500Y-88100000D02*
X166237500Y-88100000D01*
X170637500Y-95900000D02*
X170387500Y-95900000D01*
X170637500Y-88100000D02*
X170387500Y-88100000D01*
X168087500Y-95900000D02*
X166237500Y-95900000D01*
X166237500Y-95900000D02*
X166237500Y-95450000D01*
%TO.C,J3*%
X89640000Y-70440000D02*
X93125000Y-70440000D01*
X89640000Y-76160000D02*
X89640000Y-70440000D01*
X90710000Y-76160000D02*
X89640000Y-76160000D01*
X90710000Y-75860000D02*
X90710000Y-76160000D01*
X93125000Y-75860000D02*
X90710000Y-75860000D01*
X96610000Y-70440000D02*
X93125000Y-70440000D01*
X96610000Y-76160000D02*
X96610000Y-70440000D01*
X95540000Y-76160000D02*
X96610000Y-76160000D01*
X95540000Y-75860000D02*
X95540000Y-76160000D01*
X93125000Y-75860000D02*
X95540000Y-75860000D01*
X95250000Y-76450000D02*
X95750000Y-76450000D01*
X95250000Y-76150000D02*
X95250000Y-76450000D01*
%TO.C,J4*%
X106235000Y-80830000D02*
X106235000Y-80765000D01*
X109765000Y-80830000D02*
X109765000Y-80765000D01*
X106235000Y-87235000D02*
X106235000Y-87170000D01*
X109765000Y-87235000D02*
X109765000Y-87170000D01*
X111090000Y-87170000D02*
X109765000Y-87170000D01*
X109765000Y-80765000D02*
X106235000Y-80765000D01*
X109765000Y-87235000D02*
X106235000Y-87235000D01*
%TO.C,J5*%
X96750000Y-118850000D02*
X96750000Y-118550000D01*
X96750000Y-118550000D02*
X96250000Y-118550000D01*
X98875000Y-119140000D02*
X96460000Y-119140000D01*
X96460000Y-119140000D02*
X96460000Y-118840000D01*
X96460000Y-118840000D02*
X95390000Y-118840000D01*
X95390000Y-118840000D02*
X95390000Y-124560000D01*
X95390000Y-124560000D02*
X98875000Y-124560000D01*
X98875000Y-119140000D02*
X101290000Y-119140000D01*
X101290000Y-119140000D02*
X101290000Y-118840000D01*
X101290000Y-118840000D02*
X102360000Y-118840000D01*
X102360000Y-118840000D02*
X102360000Y-124560000D01*
X102360000Y-124560000D02*
X98875000Y-124560000D01*
%TO.C,Q1*%
X154420000Y-102060000D02*
X154420000Y-100600000D01*
X157580000Y-102060000D02*
X157580000Y-99900000D01*
X157580000Y-102060000D02*
X156650000Y-102060000D01*
X154420000Y-102060000D02*
X155350000Y-102060000D01*
%TO.C,R1*%
X82522500Y-114197258D02*
X82522500Y-113722742D01*
X81477500Y-114197258D02*
X81477500Y-113722742D01*
%TO.C,R2*%
X96237258Y-86522500D02*
X95762742Y-86522500D01*
X96237258Y-85477500D02*
X95762742Y-85477500D01*
%TO.C,R3*%
X90762742Y-86522500D02*
X91237258Y-86522500D01*
X90762742Y-85477500D02*
X91237258Y-85477500D01*
%TO.C,R4*%
X74356359Y-90380000D02*
X74663641Y-90380000D01*
X74356359Y-89620000D02*
X74663641Y-89620000D01*
%TO.C,R5*%
X88153641Y-101380000D02*
X87846359Y-101380000D01*
X88153641Y-100620000D02*
X87846359Y-100620000D01*
%TO.C,SW1*%
X68280000Y-92450000D02*
X69070000Y-92450000D01*
X69070000Y-85550000D02*
X68280000Y-85550000D01*
X70120000Y-87400000D02*
X70120000Y-89100000D01*
X67270000Y-86150000D02*
X67270000Y-91850000D01*
X65980000Y-88900000D02*
X67270000Y-88900000D01*
X65770000Y-87800000D02*
X65770000Y-88700000D01*
X67270000Y-87600000D02*
X65980000Y-87600000D01*
X65980000Y-88900000D02*
X65770000Y-88700000D01*
X65980000Y-87600000D02*
X65770000Y-87800000D01*
X70120000Y-90400000D02*
X70120000Y-90600000D01*
%TO.C,U1*%
X92890000Y-97840000D02*
X91550000Y-97840000D01*
X92890000Y-96890000D02*
X92890000Y-97840000D01*
X93840000Y-96890000D02*
X92890000Y-96890000D01*
X103110000Y-96890000D02*
X103110000Y-97840000D01*
X102160000Y-96890000D02*
X103110000Y-96890000D01*
X92890000Y-107110000D02*
X92890000Y-106160000D01*
X93840000Y-107110000D02*
X92890000Y-107110000D01*
X103110000Y-107110000D02*
X103110000Y-106160000D01*
X102160000Y-107110000D02*
X103110000Y-107110000D01*
%TO.C,U2*%
X157775001Y-95610000D02*
X160225001Y-95610000D01*
X159575001Y-92390000D02*
X157775001Y-92390000D01*
%TO.C,Y1*%
X81350000Y-98000000D02*
X81350000Y-102000000D01*
X84650000Y-98000000D02*
X81350000Y-98000000D01*
%TD*%
M02*
