%TF.GenerationSoftware,KiCad,Pcbnew,(5.1.8)-1*%
%TF.CreationDate,2021-03-29T14:59:59+03:00*%
%TF.ProjectId,STM32_PCB,53544d33-325f-4504-9342-2e6b69636164,rev?*%
%TF.SameCoordinates,Original*%
%TF.FileFunction,Soldermask,Bot*%
%TF.FilePolarity,Negative*%
%FSLAX46Y46*%
G04 Gerber Fmt 4.6, Leading zero omitted, Abs format (unit mm)*
G04 Created by KiCad (PCBNEW (5.1.8)-1) date 2021-03-29 14:59:59*
%MOMM*%
%LPD*%
G01*
G04 APERTURE LIST*
%ADD10O,1.700000X1.700000*%
%ADD11R,1.700000X1.700000*%
%ADD12C,8.600000*%
%ADD13C,0.900000*%
%ADD14C,1.450000*%
%ADD15O,1.900000X1.200000*%
%ADD16O,0.800000X1.300000*%
G04 APERTURE END LIST*
D10*
%TO.C,J6*%
X114040000Y-122650000D03*
D11*
X111500000Y-122650000D03*
%TD*%
D12*
%TO.C,H1*%
X72000000Y-119000000D03*
D13*
X75225000Y-119000000D03*
X74280419Y-121280419D03*
X72000000Y-122225000D03*
X69719581Y-121280419D03*
X68775000Y-119000000D03*
X69719581Y-116719581D03*
X72000000Y-115775000D03*
X74280419Y-116719581D03*
%TD*%
%TO.C,H2*%
X167280419Y-116719581D03*
X165000000Y-115775000D03*
X162719581Y-116719581D03*
X161775000Y-119000000D03*
X162719581Y-121280419D03*
X165000000Y-122225000D03*
X167280419Y-121280419D03*
X168225000Y-119000000D03*
D12*
X165000000Y-119000000D03*
%TD*%
D13*
%TO.C,H3*%
X74280419Y-73719581D03*
X72000000Y-72775000D03*
X69719581Y-73719581D03*
X68775000Y-76000000D03*
X69719581Y-78280419D03*
X72000000Y-79225000D03*
X74280419Y-78280419D03*
X75225000Y-76000000D03*
D12*
X72000000Y-76000000D03*
%TD*%
%TO.C,H4*%
X165000000Y-76000000D03*
D13*
X168225000Y-76000000D03*
X167280419Y-78280419D03*
X165000000Y-79225000D03*
X162719581Y-78280419D03*
X161775000Y-76000000D03*
X162719581Y-73719581D03*
X165000000Y-72775000D03*
X167280419Y-73719581D03*
%TD*%
D14*
%TO.C,J2*%
X166537500Y-94500000D03*
X166537500Y-89500000D03*
D15*
X169237500Y-95500000D03*
X169237500Y-88500000D03*
%TD*%
%TO.C,J3*%
G36*
G01*
X95400000Y-74550000D02*
X95400000Y-75450000D01*
G75*
G02*
X95200000Y-75650000I-200000J0D01*
G01*
X94800000Y-75650000D01*
G75*
G02*
X94600000Y-75450000I0J200000D01*
G01*
X94600000Y-74550000D01*
G75*
G02*
X94800000Y-74350000I200000J0D01*
G01*
X95200000Y-74350000D01*
G75*
G02*
X95400000Y-74550000I0J-200000D01*
G01*
G37*
D16*
X93750000Y-75000000D03*
X92500000Y-75000000D03*
X91250000Y-75000000D03*
%TD*%
%TO.C,J5*%
X100750000Y-120000000D03*
X99500000Y-120000000D03*
X98250000Y-120000000D03*
G36*
G01*
X96600000Y-120450000D02*
X96600000Y-119550000D01*
G75*
G02*
X96800000Y-119350000I200000J0D01*
G01*
X97200000Y-119350000D01*
G75*
G02*
X97400000Y-119550000I0J-200000D01*
G01*
X97400000Y-120450000D01*
G75*
G02*
X97200000Y-120650000I-200000J0D01*
G01*
X96800000Y-120650000D01*
G75*
G02*
X96600000Y-120450000I0J200000D01*
G01*
G37*
%TD*%
D13*
%TO.C,SW1*%
X68670000Y-87500000D03*
X68670000Y-90500000D03*
%TD*%
M02*
