M48
; DRILL file {KiCad (5.1.8)-1} date 03/29/21 14:59:51
; FORMAT={3:3/ absolute / metric / suppress leading zeros}
; #@! TF.CreationDate,2021-03-29T14:59:51+03:00
; #@! TF.GenerationSoftware,Kicad,Pcbnew,(5.1.8)-1
; #@! TF.FileFunction,Plated,1,4,PTH
FMAT,2
METRIC,TZ
T1C0.400
T2C0.500
T3C0.600
T4C0.850
T5C1.000
T6C4.300
%
G90
G05
T1
X71750Y-86750
X71750Y-91250
X80750Y-101000
X80750Y-102000
X82000Y-115750
X82500Y-104000
X83500Y-96000
X83500Y-104000
X83500Y-106000
X85500Y-98250
X85500Y-99250
X86000Y-104000
X89000Y-97500
X89000Y-98500
X90000Y-93250
X90000Y-94500
X91000Y-76500
X93000Y-86000
X93750Y-110000
X94000Y-86000
X94750Y-76500
X95500Y-93250
X96250Y-110000
X97500Y-118500
X100000Y-99000
X102000Y-113750
X102750Y-109250
X105000Y-92000
X105250Y-97250
X105250Y-109000
X105750Y-95500
X107000Y-94000
X111750Y-86500
X112000Y-81500
X112000Y-84250
X112000Y-85500
X126825Y-103800
X127800Y-103800
X127900Y-98025
X130375Y-100975
X130375Y-102000
X130500Y-98225
X131075Y-97200
X131625Y-98225
X138275Y-105650
X139225Y-105650
X140525Y-102325
X141575Y-104825
X146950Y-78750
X147050Y-87875
X156075Y-99050
X156975Y-99025
X158500Y-91750
X163750Y-89750
X163750Y-90750
X165000Y-89750
X165000Y-90750
T2
X91250Y-75000
X92500Y-75000
X93750Y-75000
X95000Y-75000
X97000Y-120000
X98250Y-120000
X99500Y-120000
X100750Y-120000
T3
X161775Y-76000
X162720Y-73720
X162720Y-78280
X165000Y-72775
X165000Y-79225
X167280Y-73720
X167280Y-78280
X168225Y-76000
X68775Y-119000
X69720Y-116720
X69720Y-121280
X72000Y-115775
X72000Y-122225
X74280Y-116720
X74280Y-121280
X75225Y-119000
X68775Y-76000
X69720Y-73720
X69720Y-78280
X72000Y-72775
X72000Y-79225
X74280Y-73720
X74280Y-78280
X75225Y-76000
X161775Y-119000
X162720Y-116720
X162720Y-121280
X165000Y-115775
X165000Y-122225
X167280Y-116720
X167280Y-121280
X168225Y-119000
T4
X166538Y-89500
X166538Y-94500
T5
X111500Y-122650
X114040Y-122650
T6
X165000Y-76000
X72000Y-119000
X72000Y-76000
X165000Y-119000
T3
G00X168888Y-88500
M15
G01X169588Y-88500
M16
G05
G00X169588Y-95500
M15
G01X168888Y-95500
M16
G05
T0
M30
